<svg viewBox="0 0 1426 400" xmlns="http://www.w3.org/2000/svg"><g><g><g><g><g><line x1="70" y1="378" x2="65" y2="378" style="visibility: inherit;" fill="rgb(0, 0, 0)" stroke="rgb(204, 204, 204)" stroke-width="1px"></line><line x1="70" y1="343.6363636363636" x2="65" y2="343.6363636363636" style="visibility: inherit;" fill="rgb(0, 0, 0)" stroke="rgb(204, 204, 204)" stroke-width="1px"></line><line x1="70" y1="309.27272727272725" x2="65" y2="309.27272727272725" style="visibility: inherit;" fill="rgb(0, 0, 0)" stroke="rgb(204, 204, 204)" stroke-width="1px"></line><line x1="70" y1="274.90909090909093" x2="65" y2="274.90909090909093" style="visibility: inherit;" fill="rgb(0, 0, 0)" stroke="rgb(204, 204, 204)" stroke-width="1px"></line><line x1="70" y1="240.54545454545453" x2="65" y2="240.54545454545453" style="visibility: inherit;" fill="rgb(0, 0, 0)" stroke="rgb(204, 204, 204)" stroke-width="1px"></line><line x1="70" y1="206.18181818181816" x2="65" y2="206.18181818181816" style="visibility: inherit;" fill="rgb(0, 0, 0)" stroke="rgb(204, 204, 204)" stroke-width="1px"></line><line x1="70" y1="171.81818181818178" x2="65" y2="171.81818181818178" style="visibility: inherit;" fill="rgb(0, 0, 0)" stroke="rgb(204, 204, 204)" stroke-width="1px"></line><line x1="70" y1="137.4545454545455" x2="65" y2="137.4545454545455" style="visibility: inherit;" fill="rgb(0, 0, 0)" stroke="rgb(204, 204, 204)" stroke-width="1px"></line><line x1="70" y1="103.09090909090907" x2="65" y2="103.09090909090907" style="visibility: inherit;" fill="rgb(0, 0, 0)" stroke="rgb(204, 204, 204)" stroke-width="1px"></line><line x1="70" y1="68.72727272727275" x2="65" y2="68.72727272727275" style="visibility: inherit;" fill="rgb(0, 0, 0)" stroke="rgb(204, 204, 204)" stroke-width="1px"></line><line x1="70" y1="34.363636363636374" x2="65" y2="34.363636363636374" style="visibility: inherit;" fill="rgb(0, 0, 0)" stroke="rgb(204, 204, 204)" stroke-width="1px"></line><line x1="70" y1="0" x2="65" y2="0" style="visibility: inherit;" fill="rgb(0, 0, 0)" stroke="rgb(204, 204, 204)" stroke-width="1px"></line></g><g transform="translate(60, 0)"><text x="0" y="378" dx="0em" dy="0.3em" style="text-anchor: end; visibility: hidden; font-family: &quot;Helvetica Neue&quot;, sans-serif; font-size: 12px; font-weight: 200;" fill="rgb(50, 49, 63)" stroke="none" stroke-width="1px">-0.01</text><text x="0" y="343.6363636363636" dx="0em" dy="0.3em" style="text-anchor: end; visibility: inherit; font-family: &quot;Helvetica Neue&quot;, sans-serif; font-size: 12px; font-weight: 200;" fill="rgb(50, 49, 63)" stroke="none" stroke-width="1px">0</text><text x="0" y="309.27272727272725" dx="0em" dy="0.3em" style="text-anchor: end; visibility: inherit; font-family: &quot;Helvetica Neue&quot;, sans-serif; font-size: 12px; font-weight: 200;" fill="rgb(50, 49, 63)" stroke="none" stroke-width="1px">0.01</text><text x="0" y="274.90909090909093" dx="0em" dy="0.3em" style="text-anchor: end; visibility: inherit; font-family: &quot;Helvetica Neue&quot;, sans-serif; font-size: 12px; font-weight: 200;" fill="rgb(50, 49, 63)" stroke="none" stroke-width="1px">0.02</text><text x="0" y="240.54545454545453" dx="0em" dy="0.3em" style="text-anchor: end; visibility: inherit; font-family: &quot;Helvetica Neue&quot;, sans-serif; font-size: 12px; font-weight: 200;" fill="rgb(50, 49, 63)" stroke="none" stroke-width="1px">0.03</text><text x="0" y="206.18181818181816" dx="0em" dy="0.3em" style="text-anchor: end; visibility: inherit; font-family: &quot;Helvetica Neue&quot;, sans-serif; font-size: 12px; font-weight: 200;" fill="rgb(50, 49, 63)" stroke="none" stroke-width="1px">0.04</text><text x="0" y="171.81818181818178" dx="0em" dy="0.3em" style="text-anchor: end; visibility: inherit; font-family: &quot;Helvetica Neue&quot;, sans-serif; font-size: 12px; font-weight: 200;" fill="rgb(50, 49, 63)" stroke="none" stroke-width="1px">0.05</text><text x="0" y="137.4545454545455" dx="0em" dy="0.3em" style="text-anchor: end; visibility: inherit; font-family: &quot;Helvetica Neue&quot;, sans-serif; font-size: 12px; font-weight: 200;" fill="rgb(50, 49, 63)" stroke="none" stroke-width="1px">0.06</text><text x="0" y="103.09090909090907" dx="0em" dy="0.3em" style="text-anchor: end; visibility: inherit; font-family: &quot;Helvetica Neue&quot;, sans-serif; font-size: 12px; font-weight: 200;" fill="rgb(50, 49, 63)" stroke="none" stroke-width="1px">0.07</text><text x="0" y="68.72727272727275" dx="0em" dy="0.3em" style="text-anchor: end; visibility: inherit; font-family: &quot;Helvetica Neue&quot;, sans-serif; font-size: 12px; font-weight: 200;" fill="rgb(50, 49, 63)" stroke="none" stroke-width="1px">0.08</text><text x="0" y="34.363636363636374" dx="0em" dy="0.3em" style="text-anchor: end; visibility: inherit; font-family: &quot;Helvetica Neue&quot;, sans-serif; font-size: 12px; font-weight: 200;" fill="rgb(50, 49, 63)" stroke="none" stroke-width="1px">0.09</text><text x="0" y="0" dx="0em" dy="0.3em" style="text-anchor: end; visibility: hidden; font-family: &quot;Helvetica Neue&quot;, sans-serif; font-size: 12px; font-weight: 200;" fill="rgb(50, 49, 63)" stroke="none" stroke-width="1px">0.1</text></g><line x1="70" y1="0" x2="70" y2="378" fill="rgb(0, 0, 0)" stroke="rgb(204, 204, 204)" stroke-width="1px"></line></g></g><g transform="translate(70, 0)" clip-path="url(#clip_0)"><clipPath id="clip_0"><rect width="1356" height="378"></rect></clipPath><g><g><g><line x1="0" y1="0" x2="0" y2="378" fill="rgb(0, 0, 0)" stroke="rgb(60, 60, 60)" stroke-width="1px" opacity="0.25"></line><line x1="113" y1="0" x2="113" y2="378" fill="rgb(0, 0, 0)" stroke="rgb(60, 60, 60)" stroke-width="1px" opacity="0.25"></line><line x1="226" y1="0" x2="226" y2="378" fill="rgb(0, 0, 0)" stroke="rgb(60, 60, 60)" stroke-width="1px" opacity="0.25"></line><line x1="339" y1="0" x2="339" y2="378" fill="rgb(0, 0, 0)" stroke="rgb(60, 60, 60)" stroke-width="1px" opacity="0.25"></line><line x1="452" y1="0" x2="452" y2="378" fill="rgb(0, 0, 0)" stroke="rgb(60, 60, 60)" stroke-width="1px" opacity="0.25"></line><line x1="565" y1="0" x2="565" y2="378" fill="rgb(0, 0, 0)" stroke="rgb(60, 60, 60)" stroke-width="1px" opacity="0.25"></line><line x1="678" y1="0" x2="678" y2="378" fill="rgb(0, 0, 0)" stroke="rgb(60, 60, 60)" stroke-width="1px" opacity="0.25"></line><line x1="791" y1="0" x2="791" y2="378" fill="rgb(0, 0, 0)" stroke="rgb(60, 60, 60)" stroke-width="1px" opacity="0.25"></line><line x1="904" y1="0" x2="904" y2="378" fill="rgb(0, 0, 0)" stroke="rgb(60, 60, 60)" stroke-width="1px" opacity="0.25"></line><line x1="1017" y1="0" x2="1017" y2="378" fill="rgb(0, 0, 0)" stroke="rgb(60, 60, 60)" stroke-width="1px" opacity="0.25"></line><line x1="1130" y1="0" x2="1130" y2="378" fill="rgb(0, 0, 0)" stroke="rgb(60, 60, 60)" stroke-width="1px" opacity="0.25"></line><line x1="1243" y1="0" x2="1243" y2="378" fill="rgb(0, 0, 0)" stroke="rgb(60, 60, 60)" stroke-width="1px" opacity="0.25"></line><line x1="1356" y1="0" x2="1356" y2="378" fill="rgb(0, 0, 0)" stroke="rgb(60, 60, 60)" stroke-width="1px" opacity="0.25"></line></g><g><line x1="0" y1="378" x2="1356" y2="378" fill="rgb(0, 0, 0)" stroke="rgb(60, 60, 60)" stroke-width="1px" opacity="0.25"></line><line x1="0" y1="343.6363636363636" x2="1356" y2="343.6363636363636" fill="rgb(0, 0, 0)" stroke="rgb(60, 60, 60)" stroke-width="1px" opacity="0.25"></line><line x1="0" y1="309.27272727272725" x2="1356" y2="309.27272727272725" fill="rgb(0, 0, 0)" stroke="rgb(60, 60, 60)" stroke-width="1px" opacity="0.25"></line><line x1="0" y1="274.90909090909093" x2="1356" y2="274.90909090909093" fill="rgb(0, 0, 0)" stroke="rgb(60, 60, 60)" stroke-width="1px" opacity="0.25"></line><line x1="0" y1="240.54545454545453" x2="1356" y2="240.54545454545453" fill="rgb(0, 0, 0)" stroke="rgb(60, 60, 60)" stroke-width="1px" opacity="0.25"></line><line x1="0" y1="206.18181818181816" x2="1356" y2="206.18181818181816" fill="rgb(0, 0, 0)" stroke="rgb(60, 60, 60)" stroke-width="1px" opacity="0.25"></line><line x1="0" y1="171.81818181818178" x2="1356" y2="171.81818181818178" fill="rgb(0, 0, 0)" stroke="rgb(60, 60, 60)" stroke-width="1px" opacity="0.25"></line><line x1="0" y1="137.4545454545455" x2="1356" y2="137.4545454545455" fill="rgb(0, 0, 0)" stroke="rgb(60, 60, 60)" stroke-width="1px" opacity="0.25"></line><line x1="0" y1="103.09090909090907" x2="1356" y2="103.09090909090907" fill="rgb(0, 0, 0)" stroke="rgb(60, 60, 60)" stroke-width="1px" opacity="0.25"></line><line x1="0" y1="68.72727272727275" x2="1356" y2="68.72727272727275" fill="rgb(0, 0, 0)" stroke="rgb(60, 60, 60)" stroke-width="1px" opacity="0.25"></line><line x1="0" y1="34.363636363636374" x2="1356" y2="34.363636363636374" fill="rgb(0, 0, 0)" stroke="rgb(60, 60, 60)" stroke-width="1px" opacity="0.25"></line><line x1="0" y1="0" x2="1356" y2="0" fill="rgb(0, 0, 0)" stroke="rgb(60, 60, 60)" stroke-width="1px" opacity="0.25"></line></g></g></g><g><g><line x1="0" y1="343.6363636363636" x2="1356" y2="343.6363636363636" fill="rgb(0, 0, 0)" stroke="rgb(153, 153, 153)" stroke-width="1.5px"></line></g></g><g><g><line x1="113" y1="0" x2="113" y2="378" fill="rgb(0, 0, 0)" stroke="rgb(153, 153, 153)" stroke-width="1.5px"></line></g></g><g><g><g><g><g><path stroke="rgb(0, 119, 187)" stroke-width="2px" d="M113,162.26981935175982L118.64999999999999,179.59298438307914L124.3,185.68351852042338L129.95000000000002,201.6474013921013L135.6,199.40607216098007L141.25,211.05838936801314L146.9,217.48327119806362L152.55,223.4187750163347L158.2,222.3475365062418L163.85,228.68235403659568L169.5,234.49848668154024L175.15,238.95617987654552L180.8,241.87957493010575L186.45000000000002,241.24424971341583L192.1,245.62963895597233L197.75,244.6865527579846L203.4,250.14338147317216L209.05,252.48617093313288L214.7,254.77269841701514L220.35,251.21375607982378L226,249.3610901337436L231.65,252.09986512983045L237.29999999999998,258.2458767381218L242.95,261.53173604784223L248.6,260.0428508271331L254.25,260.70826571650235L259.90000000000003,259.2219477072151L265.55,257.8346031183219L271.2,256.8769781800801L276.85,259.7656271348963L282.5,260.92995789592067L288.15,259.3186338867517L293.8,262.47860291454475L299.45,263.71413169812905L305.1,265.59112722937493L310.75,265.9331024421432L316.4,267.9712660604866L322.05,265.634193029372L327.7,261.1501967546986L333.34999999999997,257.78023134948313L339,260.18463837431534L344.65,263.9784100862863L350.3,264.29549279459303L355.95,263.92122398398584L361.6,264.22314545862395L367.25,260.22478040479393L372.90000000000003,260.34679230270547L378.55,261.0315068870369L384.2,265.74447612554997L389.84999999999997,266.3999229325558L395.5,266.3682724166498L401.15,265.7051027954388L406.8,266.29514028835644L412.45,266.2810851916897L418.1,266.61867794469026L423.75,265.1496660643406L429.4,266.55964717685913L435.05,270.1469311197335L440.7,271.2201160294202L446.35,270.164813427092L452,268.8338042284995L457.65000000000003,271.1371492951862L463.3,271.3473267701933L468.95,271.0684081116826L474.59999999999997,272.53079954437027L480.25,272.28248494601667L485.9,272.81186561698297L491.55,270.81590294028433L497.2,270.3786368592415L502.85,272.97039168348186L508.5,271.0085938085063L514.15,270.08042651847484L519.8000000000001,262.19110784085785L525.45,263.41177668824747L531.1,266.98435168819236L536.75,270.87629085504074L542.4,272.6553567149171L548.05,269.57368942215885L553.7,271.3948167227958L559.35,267.7151936834281L565,266.39390761742527L570.65,269.5045240337116L576.3,269.00890307404285L581.9499999999999,271.4305179631464L587.6,273.58410012978464L593.25,274.7714260192565L598.9,270.89635974001004L604.5500000000001,271.7782936714683L610.2,270.7253481661652L615.85,272.84187853265416L621.5,271.96559746114485L627.15,272.1030566906543L632.8,275.3193097844543L638.45,275.3826892911469L644.1,273.991921321532L649.75,272.26056776186493L655.4,272.5401951015794L661.05,275.6884055871792L666.6999999999999,274.60883899130226L672.35,274.1057733647259L678,275.37998988668784L683.65,271.22415366435445L689.3,274.1509864597474L694.9499999999999,273.3188527039967L700.6,275.153899321963L706.25,277.31390437646917L711.9,279.4530289676007L717.55,278.4256777566584L723.2,274.29005567280285L728.85,269.41259366519137L734.5,272.589756659332L740.15,272.9682753941305L745.8000000000001,277.36603060673457L751.45,279.6637452203678L757.1,277.6282881560386L762.75,277.486370912937L768.4,274.4037784760228L774.05,272.61686307937094L779.6999999999999,270.14934275922565L785.35,269.25640185754474L791,271.194891740458L796.65,272.8761321254939L802.3,273.68880419531774L807.95,275.328888887488L813.6,273.66143893315325L819.25,276.7602294749852L824.9,278.47200546879765L830.5500000000001,280.30513497992604L836.2,280.0932402073506L841.85,276.8619662699418L847.5,277.55518814352683L853.15,276.28114780767555L858.8,272.57485261874945L864.4499999999999,274.21001691953325L870.1,276.7215137387925L875.75,279.2251226509796L881.4,276.80910914462834L887.05,276.84007602796896L892.7,274.12684675862863L898.35,275.75318938218203L904,276.2434870833425L909.65,276.8642563504357L915.3000000000001,277.71959380510816L920.95,274.9452220760893L926.6,275.1064855158016L932.25,271.34288888517585L937.9,274.5353562315915L943.55,275.3162362574813L949.1999999999999,275.9654055638316L954.85,276.3681028844835L960.5,278.3685691095544L966.15,277.87757219676905L971.8,278.03426876114287L977.45,279.98646611999993L983.1,279.3564563639309L988.75,279.35059640418837L994.4,280.32503456133327L1000.0500000000001,279.19798200934304L1005.7,278.8614498115133L1011.35,278.62591131926695L1017,274.89174035376436L1022.65,275.94296220706127L1028.3,278.9838707942466L1033.95,274.6619472096492L1039.6000000000001,277.8622489522339L1045.25,273.60909869375473L1050.9,276.3109731328103L1056.55,278.0057240679467L1062.2,277.568042916063L1067.85,276.52397214076944L1073.5,278.0545845983908L1079.1499999999999,278.3213299970374L1084.8,278.59923508528146L1090.45,280.189376719646L1096.1,279.4443224005469L1101.75,276.17962619097807L1107.4,268.4088979985224L1113.05,271.1399320720812L1118.7,273.7367079233635L1124.3500000000001,278.21347891379804L1130,279.1275696266692L1135.65,275.24381313215065L1141.3,277.00297287290425L1146.95,273.3821904296422L1152.6,278.7825121336752L1158.25,277.08204103810846L1163.8999999999999,275.2194817181803L1169.55,276.78625957792536L1175.2,277.44042890336345L1180.85,279.5960437751513L1186.5,279.6518604780528L1192.15,275.9620071870535L1197.8,274.69370263623614L1203.45,274.7433897830582L1209.1000000000001,271.6768892448214L1214.75,275.8478160324516L1220.4,279.6217073573364L1226.05,277.31823824920775" style="fill: none;" fill="none"></path></g><g><path stroke="rgb(255, 112, 67)" stroke-width="2px" d="M113,64.06263454393905L118.64999999999999,122.75757253000685L124.3,152.31822937920495L129.95000000000002,171.78473033424328L135.6,183.84155891933926L141.25,194.4689782578638L146.9,201.1764369937508L152.55,207.18854043831962L158.2,213.50827275050582L163.85,219.47068525623126L169.5,221.17698153964363L175.15,225.63997857379954L180.8,227.45924375363583L186.45000000000002,229.5098200040372L192.1,228.9176015387077L197.75,232.3877107790484L203.4,235.50512381570942L209.05,237.89746840322556L214.7,239.04006317935466L220.35,238.30442408315758L226,240.69907438578934L231.65,243.36316071996944L237.29999999999998,244.26889291355374L242.95,245.7324261413561L248.6,247.06779800791006L254.25,246.35063075186264L259.90000000000003,247.3698078040879L265.55,249.31664389928318L271.2,249.19721266732984L276.85,249.4922132289017L282.5,251.78916755957923L288.15,252.226763435034L293.8,252.92013590753885L299.45,254.92975586310774L305.1,255.39552704582974L310.75,252.75673997226855L316.4,253.85075321660983L322.05,254.81690765573367L327.7,256.37076266195584L333.34999999999997,254.3607950256574L339,252.56052751293464L344.65,251.50722701306887L350.3,251.9008888161849L355.95,251.04215465565122L361.6,252.5492824444254L367.25,254.12080152543007L372.90000000000003,253.7897201401564L378.55,254.36808104813474L384.2,255.11441072849937L389.84999999999997,256.93199719696736L395.5,258.28281284073074L401.15,257.5253112439057L406.8,258.7973933385804L412.45,261.43756078122664L418.1,261.5301154151964L423.75,259.480403309786L429.4,260.0900218217461L435.05,261.2868119945191L440.7,260.0659115930615L446.35,259.86440886975635L452,259.74785460891206L457.65000000000003,260.47215486520025L463.3,261.8554736779432L468.95,260.01065019135746L474.59999999999997,259.8561815765857L480.25,260.3607880002853L485.9,261.53258867259774L491.55,261.2947597851295L497.2,261.45069216733265L502.85,262.9430662694281L508.5,261.2549067851075L514.15,259.77202626238005L519.8000000000001,260.774775019487L525.45,258.8112334545744L531.1,260.0168899568602L536.75,258.9725415766214L542.4,260.8281571564876L548.05,262.79078251868935L553.7,264.1456476066627L559.35,264.34306516081256L565,263.3827680469273L570.65,262.8179011416864L576.3,260.6788996885947L581.9499999999999,259.57739977044434L587.6,260.55576416743247L593.25,263.49253030626176L598.9,264.48005349099105L604.5500000000001,265.25263262729976L610.2,266.12579329303856L615.85,264.40146794829127L621.5,264.49313681778415L627.15,264.05058922064745L632.8,264.0955470819998L638.45,263.7016689398994L644.1,261.9004106186206L649.75,261.75777420014754L655.4,261.45780130988726L661.05,264.80019857256525L666.6999999999999,265.86624589153746L672.35,263.85718727245916L678,264.97911242218714L683.65,265.8021520339852L689.3,265.41422714101975L694.9499999999999,267.7425025524794L700.6,268.38231567276114L706.25,268.84152728918383L711.9,267.96132380021436L717.55,268.7315429025244L723.2,267.1685281640121L728.85,266.4234067781628L734.5,266.97145226664145L740.15,266.5752488367855L745.8000000000001,267.4584091247433L751.45,266.7007813288648L757.1,266.3939206073104L762.75,267.68421142189936L768.4,267.45380987784085L774.05,265.7408111207426L779.6999999999999,264.3683737328927L785.35,264.3428642149626L791,265.10706196619407L796.65,265.72626444389965L802.3,263.7156712383552L807.95,264.03952921290704L813.6,265.27680390447625L819.25,265.2659338371714L824.9,265.7588399687917L830.5500000000001,267.7427751456316L836.2,269.52076386853116L841.85,269.0793873049371L847.5,270.54021503412224L853.15,269.85675487990727L858.8,268.16578085034064L864.4499999999999,268.449632359038L870.1,268.8686345142338L875.75,268.0272884929416L881.4,269.6643481601726L887.05,270.23510176454874L892.7,270.34403751853586L898.35,271.2862549159734L904,270.57747218702L909.65,269.4865142381361L915.3000000000001,268.8515666551908L920.95,267.47492164212315L926.6,266.52681646196214L932.25,267.38489281693904L937.9,268.7836814588622L943.55,268.3837971217496L949.1999999999999,267.8301899779801L954.85,267.63991186639726L960.5,267.8025251956591L966.15,268.3343517327845L971.8,268.9738295971802L977.45,268.865282559904L983.1,270.53838927201997L988.75,271.0290226016144L994.4,272.4279374908897L1000.0500000000001,273.03056709249677L1005.7,271.0758321854627L1011.35,271.8138230340303L1017,269.69172115739275L1022.65,268.33374770217426L1028.3,269.41504814899304L1033.95,267.40704576830416L1039.6000000000001,266.03730018965973L1045.25,267.17830461608185L1050.9,266.860241215779L1056.55,267.95686569728036L1062.2,267.8930535512043L1067.85,268.952234753509L1073.5,270.0795547828857L1079.1499999999999,271.4912698909565L1084.8,271.96328553662613L1090.45,271.33543605921756L1096.1,271.5281938495956L1101.75,271.255344934409L1107.4,266.5682604019531L1113.05,266.136270724381L1118.7,268.4726507034678L1124.3500000000001,270.005322333003L1130,270.5464811023839L1135.65,270.1197080821581L1141.3,269.9926393824202L1146.95,270.89536104999456L1152.6,270.7634021224906L1158.25,271.41011518622327L1163.8999999999999,272.6137363402593L1169.55,272.20839553461303L1175.2,271.74657553285044L1180.85,270.77130257451887L1186.5,270.82223271402876L1192.15,269.1576404304964L1197.8,268.700778209341L1203.45,269.9993755955532L1209.1000000000001,271.4728463857249L1214.75,270.76721893309264L1220.4,271.1084629552721L1226.05,269.9845517739857" style="fill: none;" fill="none"></path></g></g></g></g><g opacity="0.2"><g><g><g><path stroke="rgb(0, 119, 187)" stroke-width="2px" d="M113,162.26981935175982L118.64999999999999,189.98688340187073L124.3,191.5304312922738L129.95000000000002,220.42092764919454L135.6,196.47979271682826L141.25,227.17773889953438L146.9,226.6709550131451L152.55,232.07279656421053L158.2,220.76766778122294L163.85,238.08881978419694L169.5,243.16993375393477L175.15,245.61846109953794L180.8,246.2551221183755L186.45000000000002,240.2925065566193L192.1,252.20256795937365L197.75,243.27258859845725L203.4,258.32631539892066L209.05,255.99976028908384L214.7,258.2021413133903L220.35,245.8756678754633L226,246.58219281922686L231.65,256.2079375034029L237.29999999999998,267.4647728082808L242.95,266.46048608828676L248.6,257.80953357842833L254.25,261.7063852128657L259.90000000000003,256.9924744963646L265.55,255.7535883648829L271.2,255.4405416548252L276.85,264.0985989706083L282.5,262.67645365135235L288.15,256.9016481935978L293.8,267.2185560789975L299.45,265.5674247850071L305.1,268.40662044557655L310.75,266.44606525247747L316.4,271.02851145646787L322.05,262.12858350439507L327.7,254.42420236766338L333.34999999999997,252.72528325292194L339,263.79124890674245L344.65,269.66906764967877L350.3,264.7711168568243L355.95,263.3598207682371L361.6,264.67602767050266L367.25,254.22723282467234L372.90000000000003,260.5298101495613L378.55,262.0585787634958L384.2,272.81392998316073L389.84999999999997,267.3830931430513L395.5,266.32079664279115L401.15,264.7103483636271L406.8,267.18019652773035L412.45,266.26000254668975L418.1,267.1250670741905L423.75,262.9461482438174L429.4,268.6746188456362L435.05,275.52785703404385L440.7,272.82989339395004L446.35,268.5818595235998L452,266.83729043061084L457.65000000000003,274.59216689521617L463.3,271.662592982704L468.95,270.6500301239165L474.59999999999997,274.72438669340175L480.25,271.9100130484863L485.9,273.6059366234324L491.55,267.82195892523634L497.2,269.72273773767733L502.85,276.8580239198425L508.5,268.06589699604297L514.15,268.6881755834276L519.8000000000001,250.35712982443243L525.45,265.24277995933187L531.1,272.34321418810976L536.75,276.7141996053132L542.4,275.3239555047317L548.05,264.9511884830215L553.7,274.12650767375123L559.35,262.19575912437654L565,264.411978518421L570.65,274.1704486581412L576.3,268.26547163453967L581.9499999999999,275.0629402968016L587.6,276.814473379742L593.25,276.5524148534645L598.9,265.0837603211403L604.5500000000001,273.1011945686557L610.2,269.1459299082106L615.85,276.01667408238757L621.5,270.65117585388094L627.15,272.30924553491855L632.8,280.14368942515415L638.45,275.4777585511858L644.1,271.90576936710966L649.75,269.6635374223644L655.4,272.9596361111511L661.05,280.410721315579L666.6999999999999,272.98948909748685L672.35,273.3511749248613L678,277.29131466963076L683.65,264.9903993308544L689.3,278.54123565283686L694.9499999999999,272.07065207037056L700.6,277.9064692489126L706.25,280.55391195822847L711.9,282.661715854298L717.55,276.88465094024485L723.2,268.0866225470196L728.85,262.0964006537741L734.5,277.35550115054303L740.15,273.53605349632824L745.8000000000001,283.96266342564064L751.45,283.11031714081764L757.1,274.5751025595448L762.75,277.27349504828453L768.4,269.7798898206516L774.05,269.9364899843931L779.6999999999999,266.4480622790077L785.35,267.9169905050234L791,274.1026265648278L796.65,275.39799270304763L802.3,274.9078123000535L807.95,277.78901592574334L813.6,271.1602640016512L819.25,281.4084152877331L824.9,281.03966945951635L830.5500000000001,283.0548292466185L836.2,279.77539804848755L841.85,272.0150553638285L847.5,278.5950209539045L853.15,274.3700873038986L858.8,267.0154098353603L864.4499999999999,276.662763370709L870.1,280.48875896768135L875.75,282.9805360192602L881.4,273.1850888851014L887.05,276.8865263529799L892.7,270.05700285461813L898.35,278.19270331751216L904,276.9789336350831L909.65,277.79541025107557L915.3000000000001,279.0025999871167L920.95,270.783664482561L926.6,275.34838067537004L932.25,265.6974939392372L937.9,279.324057251215L943.55,276.48755629631603L949.1999999999999,276.93915952335703L954.85,276.97214886546135L960.5,281.3692684471607L966.15,277.1410768275911L971.8,278.26931360770357L977.45,282.9147621582855L983.1,278.41144172982735L988.75,279.3418064645746L994.4,281.78669179705054L1000.0500000000001,277.5074031813578L1005.7,278.3566515147686L1011.35,278.2726035808975L1017,269.2904839055105L1022.65,277.5197949870066L1028.3,283.54523367502475L1033.95,268.17906183275306L1039.6000000000001,282.66270156611097L1045.25,267.229373306036L1050.9,280.3637847913937L1056.55,280.54785047065127L1062.2,276.91152118823743L1067.85,274.95786597782916L1073.5,280.3505032848228L1079.1499999999999,278.72144809500736L1084.8,279.01609271764755L1090.45,282.5745891711929L1096.1,278.3267409218983L1101.75,271.2825818766247L1107.4,256.75280570983887L1113.05,275.2364831824194L1118.7,277.63187170028687L1124.3500000000001,284.92863539944994L1130,280.4987056959759L1135.65,269.4181783903729L1141.3,279.6417124840346L1146.95,267.95101676474917L1152.6,286.8829946897247L1158.25,274.5313343947584L1163.8999999999999,272.4256427382881L1169.55,279.136426367543L1175.2,278.42168289152056L1180.85,282.82946608283305L1186.5,279.73558553240514L1192.15,270.4272272505543L1197.8,272.7912458100102L1203.45,274.8179205032912L1209.1000000000001,267.0771384374662L1214.75,282.10420621389693L1220.4,285.2825443446636L1226.05,273.8630345870148" style="fill: none;" fill="none"></path></g><g><path stroke="rgb(255, 112, 67)" stroke-width="2px" d="M113,64.06263454393905L118.64999999999999,157.9745353216475L124.3,180.6964599544352L129.95000000000002,194.67733545736834L135.6,199.5829543200406L141.25,209.17052507400513L146.9,210.76821030540899L152.55,215.95424497669393L158.2,222.82865036617625L163.85,228.3241729438305L169.5,223.72094998305494L175.15,232.31018669225952L180.8,230.18220130692828L186.45000000000002,232.58166708729485L192.1,228.02996997128832L197.75,237.59042724967003L203.4,240.17992418598044L209.05,241.4853778684681L214.7,240.75378128073433L220.35,237.20103267918932L226,244.2909185114232L231.65,247.35920255834404L237.29999999999998,245.62747332182798L242.95,247.92770864611322L248.6,249.0708463164893L254.25,245.2748829261823L259.90000000000003,248.89857077463105L265.55,252.23689505322415L271.2,249.01806592941284L276.85,249.93471390821716L282.5,255.2345982939005L288.15,252.8831571611491L293.8,253.96019453352147L299.45,257.9441856525161L305.1,256.09418379989535L310.75,248.79855942997065L316.4,255.49177306619555L322.05,256.2661393054507L327.7,258.70154516263443L333.34999999999997,251.34584357792681L339,249.8601262474602L344.65,249.92727626453745L350.3,252.49138152057475L355.95,249.75405341522261L361.6,254.80997412719512L367.25,256.47808014669204L372.90000000000003,253.29309806227684L378.55,255.23562241006982L384.2,256.2339052490213L389.84999999999997,259.6583768996325L395.5,260.30903630635953L401.15,256.38905884867364L406.8,260.70551648058677L412.45,265.3978119451891L418.1,261.6689473661509L423.75,256.40583515167236L429.4,261.004449589686L435.05,263.0819972536781L440.7,258.2345609908754L446.35,259.5621547847986L452,259.5730232176455L457.65000000000003,261.5586052496325L463.3,263.9304518970576L468.95,257.24341496147895L474.59999999999997,259.62447865442795L480.25,261.1176976358349L485.9,263.29028968106616L491.55,260.9380164539272L497.2,261.68459074063736L502.85,265.1816274225712L508.5,258.7226675586267L514.15,257.5477054782889L519.8000000000001,262.2788981551474L525.45,255.86592110720545L531.1,261.8253747102889L536.75,257.40601900626314L542.4,263.6115805262869L548.05,265.73472056199205L553.7,266.1779452386227L559.35,264.63919149203736L565,261.94232237609947L570.65,261.9706007838249L576.3,257.47039750895715L581.9499999999999,257.9251498932188L587.6,262.0233107629147L593.25,267.8976795145056L598.9,265.96133826808494L604.5500000000001,266.41150133176285L610.2,267.4355342916467L615.85,261.8149799311703L621.5,264.63064012202346L627.15,263.3867678249424L632.8,264.1629838740284L638.45,263.1108517267487L644.1,259.1985231367024L649.75,261.5438195724379L655.4,261.00784197449684L661.05,269.8137944665822L666.6999999999999,267.46531686999583L672.35,260.84359934384173L678,266.6620001467791L683.65,267.03671145168215L689.3,264.8323398015716L694.9499999999999,271.2349156696688L700.6,269.34203535318375L706.25,269.53034471381795L711.9,266.6410185667601L717.55,269.88687155598944L723.2,264.8240060562437L728.85,265.30572469938886L734.5,267.7935204993595L740.15,265.9809436920014L745.8000000000001,268.78314955668014L751.45,265.564339635047L757.1,265.9336295249787L762.75,269.61964764378286L768.4,267.10820756175303L774.05,263.1713129850951L779.6999999999999,262.3097176511179L785.35,264.3045999380675L791,266.25335859304124L796.65,266.65506816045803L802.3,260.6997814300385L807.95,264.5253161747347L813.6,267.1327159418301L819.25,265.2496287362142L824.9,266.49819916622204L830.5500000000001,270.7186779108914L836.2,272.1877469528805L841.85,268.41732245954597L847.5,272.73145662789995L853.15,268.8315646485849L858.8,265.6293198059906L864.4499999999999,268.875409622084L870.1,269.49713774702764L875.75,266.7652694610032L881.4,272.1199376610192L887.05,271.09123217111284L892.7,270.5074411495165L898.35,272.6995810121298L904,269.51429809358984L909.65,267.85007731481033L915.3000000000001,267.899145280773L920.95,265.40995412252164L926.6,265.10465869172054L932.25,268.6720073494044L937.9,270.88186442174697L943.55,267.7839706160805L949.1999999999999,266.999779262326L954.85,267.354494699023L960.5,268.0464451895519L966.15,269.1320915384726L971.8,269.9330463937738L977.45,268.70246200398964L983.1,273.0480493401939L988.75,271.764972596006L994.4,274.52630982480264L1000.0500000000001,273.93451149490744L1005.7,268.1437298249115L1011.35,272.92080930688167L1017,266.50856834243643L1022.65,266.2967875193466L1028.3,271.03699881922114L1033.95,264.3950421972708L1039.6000000000001,263.98268182169306L1045.25,268.88981125571513L1050.9,266.38314611532473L1056.55,269.6018024195324L1062.2,267.7973353320902L1067.85,270.54100655696607L1073.5,271.7705348269506L1079.1499999999999,273.60884255306286L1084.8,272.6713090051304L1090.45,270.3936618431048L1096.1,271.81733053516257L1101.75,270.8460715616291L1107.4,259.5376336032694L1113.05,265.4882862080227L1118.7,271.97722067209804L1124.3500000000001,272.3043297773058L1130,271.35821925645524L1135.65,269.47954855181956L1141.3,269.80203633281315L1146.95,272.24944355135614L1152.6,270.56546373123473L1158.25,272.38018478182227L1163.8999999999999,274.4191680713133L1169.55,271.6003843261437L1175.2,271.0538455302065L1180.85,269.3083931370215L1186.5,270.89862792329353L1192.15,266.66075200519776L1197.8,268.01548487760806L1203.45,271.94727167487144L1209.1000000000001,273.6830525709824L1214.75,269.70877775414425L1220.4,271.62032898854125L1226.05,268.298685002056" style="fill: none;" fill="none"></path></g></g></g></g></g></g><g transform="translate(70, 378)" clip-path="url(#clip_1)"><clipPath id="clip_1"><rect width="1356" height="22"></rect></clipPath><g><g><line x1="0" y1="0" x2="0" y2="5" style="visibility: inherit;" fill="rgb(0, 0, 0)" stroke="rgb(204, 204, 204)" stroke-width="1px"></line><line x1="113" y1="0" x2="113" y2="5" style="visibility: inherit;" fill="rgb(0, 0, 0)" stroke="rgb(204, 204, 204)" stroke-width="1px"></line><line x1="226" y1="0" x2="226" y2="5" style="visibility: inherit;" fill="rgb(0, 0, 0)" stroke="rgb(204, 204, 204)" stroke-width="1px"></line><line x1="339" y1="0" x2="339" y2="5" style="visibility: inherit;" fill="rgb(0, 0, 0)" stroke="rgb(204, 204, 204)" stroke-width="1px"></line><line x1="452" y1="0" x2="452" y2="5" style="visibility: inherit;" fill="rgb(0, 0, 0)" stroke="rgb(204, 204, 204)" stroke-width="1px"></line><line x1="565" y1="0" x2="565" y2="5" style="visibility: inherit;" fill="rgb(0, 0, 0)" stroke="rgb(204, 204, 204)" stroke-width="1px"></line><line x1="678" y1="0" x2="678" y2="5" style="visibility: inherit;" fill="rgb(0, 0, 0)" stroke="rgb(204, 204, 204)" stroke-width="1px"></line><line x1="791" y1="0" x2="791" y2="5" style="visibility: inherit;" fill="rgb(0, 0, 0)" stroke="rgb(204, 204, 204)" stroke-width="1px"></line><line x1="904" y1="0" x2="904" y2="5" style="visibility: inherit;" fill="rgb(0, 0, 0)" stroke="rgb(204, 204, 204)" stroke-width="1px"></line><line x1="1017" y1="0" x2="1017" y2="5" style="visibility: inherit;" fill="rgb(0, 0, 0)" stroke="rgb(204, 204, 204)" stroke-width="1px"></line><line x1="1130" y1="0" x2="1130" y2="5" style="visibility: inherit;" fill="rgb(0, 0, 0)" stroke="rgb(204, 204, 204)" stroke-width="1px"></line><line x1="1243" y1="0" x2="1243" y2="5" style="visibility: inherit;" fill="rgb(0, 0, 0)" stroke="rgb(204, 204, 204)" stroke-width="1px"></line><line x1="1356" y1="0" x2="1356" y2="5" style="visibility: inherit;" fill="rgb(0, 0, 0)" stroke="rgb(204, 204, 204)" stroke-width="1px"></line></g><g transform="translate(0, 8)"><text x="0" y="0" dx="0em" dy="0.95em" style="text-anchor: middle; visibility: hidden; font-family: &quot;Helvetica Neue&quot;, sans-serif; font-size: 12px; font-weight: 200;" fill="rgb(50, 49, 63)" stroke="none" stroke-width="1px">-20</text><text x="113" y="0" dx="0em" dy="0.95em" style="text-anchor: middle; visibility: inherit; font-family: &quot;Helvetica Neue&quot;, sans-serif; font-size: 12px; font-weight: 200;" fill="rgb(50, 49, 63)" stroke="none" stroke-width="1px">0</text><text x="226" y="0" dx="0em" dy="0.95em" style="text-anchor: middle; visibility: inherit; font-family: &quot;Helvetica Neue&quot;, sans-serif; font-size: 12px; font-weight: 200;" fill="rgb(50, 49, 63)" stroke="none" stroke-width="1px">20</text><text x="339" y="0" dx="0em" dy="0.95em" style="text-anchor: middle; visibility: inherit; font-family: &quot;Helvetica Neue&quot;, sans-serif; font-size: 12px; font-weight: 200;" fill="rgb(50, 49, 63)" stroke="none" stroke-width="1px">40</text><text x="452" y="0" dx="0em" dy="0.95em" style="text-anchor: middle; visibility: inherit; font-family: &quot;Helvetica Neue&quot;, sans-serif; font-size: 12px; font-weight: 200;" fill="rgb(50, 49, 63)" stroke="none" stroke-width="1px">60</text><text x="565" y="0" dx="0em" dy="0.95em" style="text-anchor: middle; visibility: inherit; font-family: &quot;Helvetica Neue&quot;, sans-serif; font-size: 12px; font-weight: 200;" fill="rgb(50, 49, 63)" stroke="none" stroke-width="1px">80</text><text x="678" y="0" dx="0em" dy="0.95em" style="text-anchor: middle; visibility: inherit; font-family: &quot;Helvetica Neue&quot;, sans-serif; font-size: 12px; font-weight: 200;" fill="rgb(50, 49, 63)" stroke="none" stroke-width="1px">100</text><text x="791" y="0" dx="0em" dy="0.95em" style="text-anchor: middle; visibility: inherit; font-family: &quot;Helvetica Neue&quot;, sans-serif; font-size: 12px; font-weight: 200;" fill="rgb(50, 49, 63)" stroke="none" stroke-width="1px">120</text><text x="904" y="0" dx="0em" dy="0.95em" style="text-anchor: middle; visibility: inherit; font-family: &quot;Helvetica Neue&quot;, sans-serif; font-size: 12px; font-weight: 200;" fill="rgb(50, 49, 63)" stroke="none" stroke-width="1px">140</text><text x="1017" y="0" dx="0em" dy="0.95em" style="text-anchor: middle; visibility: inherit; font-family: &quot;Helvetica Neue&quot;, sans-serif; font-size: 12px; font-weight: 200;" fill="rgb(50, 49, 63)" stroke="none" stroke-width="1px">160</text><text x="1130" y="0" dx="0em" dy="0.95em" style="text-anchor: middle; visibility: inherit; font-family: &quot;Helvetica Neue&quot;, sans-serif; font-size: 12px; font-weight: 200;" fill="rgb(50, 49, 63)" stroke="none" stroke-width="1px">180</text><text x="1243" y="0" dx="0em" dy="0.95em" style="text-anchor: middle; visibility: inherit; font-family: &quot;Helvetica Neue&quot;, sans-serif; font-size: 12px; font-weight: 200;" fill="rgb(50, 49, 63)" stroke="none" stroke-width="1px">200</text><text x="1356" y="0" dx="0em" dy="0.95em" style="text-anchor: middle; visibility: hidden; font-family: &quot;Helvetica Neue&quot;, sans-serif; font-size: 12px; font-weight: 200;" fill="rgb(50, 49, 63)" stroke="none" stroke-width="1px">220</text></g><line x1="0" y1="0" x2="1356" y2="0" fill="rgb(0, 0, 0)" stroke="rgb(204, 204, 204)" stroke-width="1px"></line></g></g></g></g></svg>