<svg viewBox="0 0 1426 400" xmlns="http://www.w3.org/2000/svg"><g><g><g><g><g><line x1="70" y1="378" x2="65" y2="378" style="visibility: inherit;" fill="rgb(0, 0, 0)" stroke="rgb(204, 204, 204)" stroke-width="1px"></line><line x1="70" y1="330.75" x2="65" y2="330.75" style="visibility: inherit;" fill="rgb(0, 0, 0)" stroke="rgb(204, 204, 204)" stroke-width="1px"></line><line x1="70" y1="283.5" x2="65" y2="283.5" style="visibility: inherit;" fill="rgb(0, 0, 0)" stroke="rgb(204, 204, 204)" stroke-width="1px"></line><line x1="70" y1="236.25" x2="65" y2="236.25" style="visibility: inherit;" fill="rgb(0, 0, 0)" stroke="rgb(204, 204, 204)" stroke-width="1px"></line><line x1="70" y1="189" x2="65" y2="189" style="visibility: inherit;" fill="rgb(0, 0, 0)" stroke="rgb(204, 204, 204)" stroke-width="1px"></line><line x1="70" y1="141.75" x2="65" y2="141.75" style="visibility: inherit;" fill="rgb(0, 0, 0)" stroke="rgb(204, 204, 204)" stroke-width="1px"></line><line x1="70" y1="94.5" x2="65" y2="94.5" style="visibility: inherit;" fill="rgb(0, 0, 0)" stroke="rgb(204, 204, 204)" stroke-width="1px"></line><line x1="70" y1="47.25" x2="65" y2="47.25" style="visibility: inherit;" fill="rgb(0, 0, 0)" stroke="rgb(204, 204, 204)" stroke-width="1px"></line><line x1="70" y1="0" x2="65" y2="0" style="visibility: inherit;" fill="rgb(0, 0, 0)" stroke="rgb(204, 204, 204)" stroke-width="1px"></line></g><g transform="translate(60, 0)"><text x="0" y="378" dx="0em" dy="0.3em" style="text-anchor: end; visibility: hidden; font-family: &quot;Helvetica Neue&quot;, sans-serif; font-size: 12px; font-weight: 200;" fill="rgb(50, 49, 63)" stroke="none" stroke-width="1px">-2e-3</text><text x="0" y="330.75" dx="0em" dy="0.3em" style="text-anchor: end; visibility: inherit; font-family: &quot;Helvetica Neue&quot;, sans-serif; font-size: 12px; font-weight: 200;" fill="rgb(50, 49, 63)" stroke="none" stroke-width="1px">0</text><text x="0" y="283.5" dx="0em" dy="0.3em" style="text-anchor: end; visibility: inherit; font-family: &quot;Helvetica Neue&quot;, sans-serif; font-size: 12px; font-weight: 200;" fill="rgb(50, 49, 63)" stroke="none" stroke-width="1px">2e-3</text><text x="0" y="236.25" dx="0em" dy="0.3em" style="text-anchor: end; visibility: inherit; font-family: &quot;Helvetica Neue&quot;, sans-serif; font-size: 12px; font-weight: 200;" fill="rgb(50, 49, 63)" stroke="none" stroke-width="1px">4e-3</text><text x="0" y="189" dx="0em" dy="0.3em" style="text-anchor: end; visibility: inherit; font-family: &quot;Helvetica Neue&quot;, sans-serif; font-size: 12px; font-weight: 200;" fill="rgb(50, 49, 63)" stroke="none" stroke-width="1px">6e-3</text><text x="0" y="141.75" dx="0em" dy="0.3em" style="text-anchor: end; visibility: inherit; font-family: &quot;Helvetica Neue&quot;, sans-serif; font-size: 12px; font-weight: 200;" fill="rgb(50, 49, 63)" stroke="none" stroke-width="1px">8e-3</text><text x="0" y="94.5" dx="0em" dy="0.3em" style="text-anchor: end; visibility: inherit; font-family: &quot;Helvetica Neue&quot;, sans-serif; font-size: 12px; font-weight: 200;" fill="rgb(50, 49, 63)" stroke="none" stroke-width="1px">0.01</text><text x="0" y="47.25" dx="0em" dy="0.3em" style="text-anchor: end; visibility: inherit; font-family: &quot;Helvetica Neue&quot;, sans-serif; font-size: 12px; font-weight: 200;" fill="rgb(50, 49, 63)" stroke="none" stroke-width="1px">0.012</text><text x="0" y="0" dx="0em" dy="0.3em" style="text-anchor: end; visibility: hidden; font-family: &quot;Helvetica Neue&quot;, sans-serif; font-size: 12px; font-weight: 200;" fill="rgb(50, 49, 63)" stroke="none" stroke-width="1px">0.014</text></g><line x1="70" y1="0" x2="70" y2="378" fill="rgb(0, 0, 0)" stroke="rgb(204, 204, 204)" stroke-width="1px"></line></g></g><g transform="translate(70, 0)" clip-path="url(#clip_0)"><clipPath id="clip_0"><rect width="1356" height="378"></rect></clipPath><g><g><g><line x1="0" y1="0" x2="0" y2="378" fill="rgb(0, 0, 0)" stroke="rgb(60, 60, 60)" stroke-width="1px" opacity="0.25"></line><line x1="113" y1="0" x2="113" y2="378" fill="rgb(0, 0, 0)" stroke="rgb(60, 60, 60)" stroke-width="1px" opacity="0.25"></line><line x1="226" y1="0" x2="226" y2="378" fill="rgb(0, 0, 0)" stroke="rgb(60, 60, 60)" stroke-width="1px" opacity="0.25"></line><line x1="339" y1="0" x2="339" y2="378" fill="rgb(0, 0, 0)" stroke="rgb(60, 60, 60)" stroke-width="1px" opacity="0.25"></line><line x1="452" y1="0" x2="452" y2="378" fill="rgb(0, 0, 0)" stroke="rgb(60, 60, 60)" stroke-width="1px" opacity="0.25"></line><line x1="565" y1="0" x2="565" y2="378" fill="rgb(0, 0, 0)" stroke="rgb(60, 60, 60)" stroke-width="1px" opacity="0.25"></line><line x1="678" y1="0" x2="678" y2="378" fill="rgb(0, 0, 0)" stroke="rgb(60, 60, 60)" stroke-width="1px" opacity="0.25"></line><line x1="791" y1="0" x2="791" y2="378" fill="rgb(0, 0, 0)" stroke="rgb(60, 60, 60)" stroke-width="1px" opacity="0.25"></line><line x1="904" y1="0" x2="904" y2="378" fill="rgb(0, 0, 0)" stroke="rgb(60, 60, 60)" stroke-width="1px" opacity="0.25"></line><line x1="1017" y1="0" x2="1017" y2="378" fill="rgb(0, 0, 0)" stroke="rgb(60, 60, 60)" stroke-width="1px" opacity="0.25"></line><line x1="1130" y1="0" x2="1130" y2="378" fill="rgb(0, 0, 0)" stroke="rgb(60, 60, 60)" stroke-width="1px" opacity="0.25"></line><line x1="1243" y1="0" x2="1243" y2="378" fill="rgb(0, 0, 0)" stroke="rgb(60, 60, 60)" stroke-width="1px" opacity="0.25"></line><line x1="1356" y1="0" x2="1356" y2="378" fill="rgb(0, 0, 0)" stroke="rgb(60, 60, 60)" stroke-width="1px" opacity="0.25"></line></g><g><line x1="0" y1="378" x2="1356" y2="378" fill="rgb(0, 0, 0)" stroke="rgb(60, 60, 60)" stroke-width="1px" opacity="0.25"></line><line x1="0" y1="330.75" x2="1356" y2="330.75" fill="rgb(0, 0, 0)" stroke="rgb(60, 60, 60)" stroke-width="1px" opacity="0.25"></line><line x1="0" y1="283.5" x2="1356" y2="283.5" fill="rgb(0, 0, 0)" stroke="rgb(60, 60, 60)" stroke-width="1px" opacity="0.25"></line><line x1="0" y1="236.25" x2="1356" y2="236.25" fill="rgb(0, 0, 0)" stroke="rgb(60, 60, 60)" stroke-width="1px" opacity="0.25"></line><line x1="0" y1="189" x2="1356" y2="189" fill="rgb(0, 0, 0)" stroke="rgb(60, 60, 60)" stroke-width="1px" opacity="0.25"></line><line x1="0" y1="141.75" x2="1356" y2="141.75" fill="rgb(0, 0, 0)" stroke="rgb(60, 60, 60)" stroke-width="1px" opacity="0.25"></line><line x1="0" y1="94.5" x2="1356" y2="94.5" fill="rgb(0, 0, 0)" stroke="rgb(60, 60, 60)" stroke-width="1px" opacity="0.25"></line><line x1="0" y1="47.25" x2="1356" y2="47.25" fill="rgb(0, 0, 0)" stroke="rgb(60, 60, 60)" stroke-width="1px" opacity="0.25"></line><line x1="0" y1="0" x2="1356" y2="0" fill="rgb(0, 0, 0)" stroke="rgb(60, 60, 60)" stroke-width="1px" opacity="0.25"></line></g></g></g><g><g><line x1="0" y1="330.75" x2="1356" y2="330.75" fill="rgb(0, 0, 0)" stroke="rgb(153, 153, 153)" stroke-width="1.5px"></line></g></g><g><g><line x1="113" y1="0" x2="113" y2="378" fill="rgb(0, 0, 0)" stroke="rgb(153, 153, 153)" stroke-width="1.5px"></line></g></g><g><g><g><g><g><path stroke="rgb(0, 119, 187)" stroke-width="2px" d="M113,203.41623205505311L118.64999999999999,226.53027334209764L124.3,234.13351571699604L129.95000000000002,252.8485263669076L135.6,251.0245685915432L141.25,260.76939811919624L146.9,266.8580405513404L152.55,272.0470470345145L158.2,271.980744238007L163.85,276.3413501416422L169.5,282.06509365748735L175.15,286.9829098375199L180.8,286.12231684975416L186.45000000000002,287.0631675262721L192.1,291.29462742505L197.75,290.0244541572214L203.4,291.37079091801155L209.05,295.1260555934484L214.7,295.5261108279846L220.35,293.7330377207226L226,292.6033252163654L231.65,292.7408927971801L237.29999999999998,298.9008396095242L242.95,301.4572602542858L248.6,300.5724681581385L254.25,300.6162500758397L259.90000000000003,292.79309655643624L265.55,290.1889330975151L271.2,294.6541045072834L276.85,297.08810064277174L282.5,296.1186333287899L288.15,296.64308348323436L293.8,300.0031279427874L299.45,301.0326758876157L305.1,300.72714579106497L310.75,299.60589433353334L316.4,303.9358674750443L322.05,303.1480742688895L327.7,297.5798403275372L333.34999999999997,295.3369345262943L339,299.32794371953804L344.65,301.7934181723982L350.3,303.4120281475849L355.95,303.3185219624722L361.6,304.00723243854776L367.25,301.2315412931322L372.90000000000003,300.09368264866595L378.55,301.0853067886153L384.2,304.13201003135504L389.84999999999997,303.5608242758616L395.5,304.27243611840345L401.15,304.3060833081779L406.8,304.98806599185116L412.45,303.5067681569996L418.1,303.82196932802475L423.75,300.98055426564633L429.4,302.04291072267654L435.05,305.9752599537206L440.7,307.5933894561831L446.35,305.2389667064087L452,302.1073966734378L457.65000000000003,303.89231135860757L463.3,302.72812232967493L468.95,304.54892988830454L474.59999999999997,306.0746908716482L480.25,307.1290684699834L485.9,307.27607299306294L491.55,306.72962361595324L497.2,306.55282862664785L502.85,308.6186119452927L508.5,307.14449597428745L514.15,306.57323742038125L519.8000000000001,301.8405718240953L525.45,302.3290545831102L531.1,303.3488657732574L536.75,307.63267035670594L542.4,307.76491980155004L548.05,307.5553403941524L553.7,308.9524778962646L559.35,302.9506839021043L565,299.70035149180865L570.65,304.0063901140852L576.3,304.53894502711677L581.9499999999999,306.8900652254664L587.6,307.4504343914359L593.25,309.68757251909153L598.9,305.80566419616247L604.5500000000001,306.18860954494346L610.2,306.0421032721054L615.85,307.84460664434556L621.5,306.6941061833103L627.15,305.2017137223765L632.8,309.24735013005716L638.45,310.8090712795393L644.1,308.8401496359735L649.75,304.3608953565712L655.4,306.061139913148L661.05,307.35454884424587L666.6999999999999,306.7927236432495L672.35,307.9852260806163L678,310.2326199613158L683.65,305.1894071610991L689.3,308.17054203451363L694.9499999999999,306.6958793353051L700.6,309.05638824302207L706.25,310.41511030576544L711.9,312.5986683076008L717.55,314.0266891809595L723.2,310.6605681818507L728.85,303.0048539651316L734.5,306.5559930538288L740.15,308.62826043069333L745.8000000000001,312.0097419918792L751.45,313.686916082262L757.1,312.28596542255184L762.75,308.732236463015L768.4,308.9863996856271L774.05,309.70281113601095L779.6999999999999,302.46692630365936L785.35,301.1809392059956L791,304.80736918148796L796.65,306.6458953519756L802.3,307.2502232749071L807.95,308.5670330686156L813.6,307.8666621767619L819.25,308.85284852586307L824.9,310.04319269042793L830.5500000000001,312.8520428424209L836.2,312.7476781741234L841.85,308.538124670851L847.5,310.70615474986505L853.15,308.7473585970586L858.8,306.5872557929835L864.4499999999999,307.9212877518848L870.1,309.52131998032104L875.75,309.97514384773984L881.4,308.1921575300309L887.05,306.07563330463546L892.7,307.39059838194834L898.35,310.3346096816946L904,309.3959526160457L909.65,310.6394432656721L915.3000000000001,308.69666489656674L920.95,306.53787012091266L926.6,304.7026025023519L932.25,305.6230598508877L937.9,307.04951047108233L943.55,308.9534801830223L949.1999999999999,307.4201263915L954.85,304.88605282758533L960.5,308.7081018081876L966.15,309.76270344437626L971.8,309.886183106407L977.45,312.8602482588895L983.1,311.59508202225504L988.75,311.2052078129057L994.4,309.4657993646311L1000.0500000000001,308.94778346974704L1005.7,308.02570224398556L1011.35,305.90952932019974L1017,306.21963226930393L1022.65,308.8608711386761L1028.3,312.08619040695726L1033.95,308.45453544973077L1039.6000000000001,309.8936977962683L1045.25,305.5538128650952L1050.9,307.4357089505095L1056.55,307.47298044730155L1062.2,310.3206926353007L1067.85,308.91461803582746L1073.5,309.3920493307352L1079.1499999999999,310.54037667265067L1084.8,308.8940798767687L1090.45,312.62577224640177L1096.1,311.93140942412987L1101.75,308.45072856263596L1107.4,302.22912040146457L1113.05,305.89394191330814L1118.7,307.51674182203345L1124.3500000000001,310.6239036760911L1130,308.60471737049505L1135.65,306.5648116193152L1141.3,308.9967753718178L1146.95,306.27043864472057L1152.6,310.6838064383924L1158.25,310.27021447443724L1163.8999999999999,301.75602964944403L1169.55,305.52384482927175L1175.2,308.670716360151L1180.85,311.15719770270965L1186.5,312.26826676043834L1192.15,307.61911070430926L1197.8,308.4659024480654L1203.45,304.9946049992322L1209.1000000000001,301.34819166098816L1214.75,305.5490967081651L1220.4,309.5335367417769L1226.05,309.44221417093365" style="fill: none;" fill="none"></path></g><g><path stroke="rgb(255, 112, 67)" stroke-width="2px" d="M113,53.447242512367666L118.64999999999999,147.56253336137158L124.3,190.69975667979034L129.95000000000002,214.69684337200647L135.6,229.47791750495833L141.25,241.72665890938376L146.9,249.85242358473337L152.55,255.57118111598288L158.2,261.04533752425175L163.85,267.694315254128L169.5,268.4629346954983L175.15,272.55686340595685L180.8,273.86510467639795L186.45000000000002,274.39931271676426L192.1,274.5186692548212L197.75,277.90195867495345L203.4,280.8217414721752L209.05,282.3420768087499L214.7,283.3525154315335L220.35,281.94485853332117L226,284.5900764385708L231.65,287.3705637202741L237.29999999999998,288.5056221723679L242.95,290.51865481163543L248.6,290.6106668491068L254.25,289.4440666260628L259.90000000000003,290.1343247860641L265.55,291.80958935670725L271.2,292.0561561113555L276.85,292.5739317395902L282.5,294.3280918757329L288.15,294.6608531090335L293.8,295.42967482175106L299.45,297.5126618271519L305.1,297.8775333971378L310.75,295.05475647236767L316.4,296.24343160871257L322.05,296.5370149849965L327.7,297.96140290513705L333.34999999999997,294.7104513379375L339,292.94778391514734L344.65,292.7373829637898L350.3,292.64909999872407L355.95,291.79318213816157L361.6,293.39386004698923L367.25,294.50144808751264L372.90000000000003,292.2756188448396L378.55,293.6076411860941L384.2,294.76760531213444L389.84999999999997,296.7023870098356L395.5,298.2578124844608L401.15,297.3143549866844L406.8,299.2240431230284L412.45,301.4486504765205L418.1,301.5374476538958L423.75,299.8044269337491L429.4,299.69859734682467L435.05,301.16287259566866L440.7,300.4767335547336L446.35,299.72236895856724L452,299.93267769920993L457.65000000000003,300.50945755622564L463.3,301.50049123131055L468.95,298.8631362213399L474.59999999999997,298.9737547622502L480.25,300.47732891410436L485.9,300.9639661726793L491.55,300.2720794238767L497.2,300.4941979603094L502.85,301.60820833108556L508.5,299.62069218235564L514.15,297.6995544421161L519.8000000000001,298.89037303007115L525.45,297.20710479604026L531.1,298.133934453014L536.75,296.044685375621L542.4,298.1587213269763L548.05,301.0734246416773L553.7,302.4701670928008L559.35,302.91694878096246L565,301.79864603253185L570.65,301.48581550989365L576.3,300.36274709378597L581.9499999999999,298.1524717606413L587.6,299.2432961289097L593.25,302.08750003677477L598.9,302.61054113479514L604.5500000000001,304.0311386389855L610.2,304.9310038303609L615.85,302.9823856611062L621.5,303.1638280646657L627.15,302.5483515419866L632.8,302.67256950836776L638.45,301.571244006426L644.1,299.8935978600712L649.75,298.86839166029097L655.4,299.6004972616772L661.05,302.974836909176L666.6999999999999,303.37509159168854L672.35,301.51453961040454L678,302.6091875212524L683.65,304.2048161638776L689.3,303.26939784258786L694.9499999999999,305.66521628124565L700.6,306.27772596372057L706.25,306.64105569949794L711.9,305.66643575787424L717.55,306.2946272838798L723.2,305.1853319130986L728.85,304.5452038774263L734.5,305.4469727142991L740.15,304.82027795349046L745.8000000000001,305.5931456192683L751.45,304.4915723616056L757.1,304.2282465103148L762.75,305.1212497182509L768.4,304.85833464155957L774.05,303.0134760204035L779.6999999999999,301.9681711363951L785.35,301.80504174531643L791,302.68731149244803L796.65,303.7015126378596L802.3,302.2725120014517L807.95,302.1391389487315L813.6,302.63042752319967L819.25,303.1036475097725L824.9,303.7243893073105L830.5500000000001,305.6996645008406L836.2,307.2299514154134L841.85,306.7220290469289L847.5,307.7876306703298L853.15,307.28547905833364L858.8,306.19441620436066L864.4499999999999,306.1193198315159L870.1,306.8402673486562L875.75,305.60252793967373L881.4,306.74795586529535L887.05,306.80859584118633L892.7,307.4242725380571L898.35,308.3742677645822L904,307.537634891201L909.65,306.232522264807L915.3000000000001,306.3353873836256L920.95,304.75223837138566L926.6,303.79336204462186L932.25,304.9717814824365L937.9,306.07473505375765L943.55,305.1994546429376L949.1999999999999,304.95206790623985L954.85,304.64643903279745L960.5,304.80139518716226L966.15,305.57299845926934L971.8,306.2280433112132L977.45,306.3546453008054L983.1,307.73240616255987L988.75,307.9579324911698L994.4,309.35651938589524L1000.0500000000001,309.8194194930573L1005.7,308.47433412420366L1011.35,308.66078139913714L1017,307.0149286792286L1022.65,305.3144723753062L1028.3,306.8674735391423L1033.95,305.1358550658582L1039.6000000000001,303.8302533369777L1045.25,304.34448949094593L1050.9,304.5920171622786L1056.55,305.22318491400085L1062.2,305.51347953680823L1067.85,306.30473170766L1073.5,307.1526486397424L1079.1499999999999,307.92733581522094L1084.8,308.4964300495968L1090.45,307.9259937008056L1096.1,308.6344665802916L1101.75,308.0532650612887L1107.4,303.72839722068807L1113.05,303.866164495333L1118.7,305.96644767661274L1124.3500000000001,307.4959116324103L1130,308.18406216968896L1135.65,306.769441140617L1141.3,307.0395438413807L1146.95,307.86872608582325L1152.6,307.7201976000042L1158.25,307.8955510583952L1163.8999999999999,309.3890925668234L1169.55,309.19558072031333L1175.2,309.0967989276825L1180.85,307.5640062048125L1186.5,307.55568934992107L1192.15,306.28273830744155L1197.8,306.36368970192797L1203.45,307.7082685996554L1209.1000000000001,308.66584579748616L1214.75,308.442181722198L1220.4,308.13804315008167L1226.05,306.5888309736323" style="fill: none;" fill="none"></path></g></g></g></g><g opacity="0.2"><g><g><g><path stroke="rgb(0, 119, 187)" stroke-width="2px" d="M113,203.41623205505311L118.64999999999999,240.39869811432436L124.3,241.4326283968985L129.95000000000002,274.85737889120355L135.6,248.64320932002738L141.25,274.25000549457036L146.9,275.56489664758556L152.55,279.6126683014445L158.2,271.8829604918137L163.85,282.81634170608595L169.5,290.5987949988339L175.15,294.33287156908773L180.8,284.834237353527L186.45000000000002,288.4726003166288L192.1,297.63684335094877L197.75,288.1200900800759L203.4,293.3897263346007L209.05,300.75799914530944L214.7,296.12613273540046L220.35,291.04359195381403L226,290.9088184159482L231.65,292.94723964168224L237.29999999999998,308.1406382106361L242.95,305.2918609381886L248.6,299.24528630264103L254.25,300.6819227656815L259.90000000000003,281.0583862946369L265.55,286.28269190713763L271.2,301.35185750888195L276.85,300.73909350077156L282.5,294.664432679303L288.15,297.4297586105531L293.8,305.04319423099514L299.45,302.5769977311138L305.1,300.2688506593695L310.75,297.9240171761485L316.4,310.430827120319L322.05,301.96638446697034L327.7,289.22748944652267L333.34999999999997,291.9725758319255L339,305.3144575014012L344.65,305.49162984872237L350.3,305.8399431091966L355.95,303.1782626848435L361.6,305.04029815248214L367.25,297.0680045754416L372.90000000000003,298.38689468207303L378.55,302.5727429984836L384.2,308.7020648953621L389.84999999999997,302.704045642633L395.5,305.33985388220754L401.15,304.35655409283936L406.8,306.011040017358L412.45,301.28482140472624L418.1,304.29477108456194L423.75,296.71843167208135L429.4,303.63644540822133L435.05,311.8737838002853L440.7,310.0205837098765L446.35,301.7073325817473L452,297.41004162398167L457.65000000000003,306.56968338636216L463.3,300.98183878627606L468.95,307.2801412262488L474.59999999999997,308.3633323466638L480.25,308.7106348674861L485.9,307.4965797776822L491.55,305.90994955028873L497.2,306.28763614268973L502.85,311.71728692325996L508.5,304.9333220177796L514.15,305.716349589522L519.8000000000001,294.74157342966646L525.45,303.06177872163244L531.1,304.87858255847823L536.75,314.0583772318787L542.4,307.9632939688163L548.05,307.24097128305584L553.7,311.0481841494329L559.35,293.94799291086383L565,294.8248528763652L570.65,310.4654480475001L576.3,305.337777396664L581.9499999999999,310.4167455229908L587.6,308.29098814039025L593.25,313.043279710575L598.9,299.98280171176884L604.5500000000001,306.7630275681149L610.2,305.82234386284836L615.85,310.54836170270573L621.5,304.9683554917574L627.15,302.9631250309758L632.8,315.3158047415782L638.45,313.1516530037625L644.1,305.8867671706248L649.75,297.6420139374677L655.4,308.6115067480132L661.05,309.29466224089265L666.6999999999999,305.9499858417548L672.35,309.77397973666666L678,313.60371078236494L683.65,297.6245879607741L689.3,312.6422443446354L694.9499999999999,304.4838852864923L700.6,312.59715160459746L706.25,312.45319339988055L711.9,315.8740053103538L717.55,316.16872049099766L723.2,305.61138668318745L728.85,291.52128264005296L734.5,311.8827016868745L740.15,311.7366614959901L745.8000000000001,317.0819643336581L751.45,316.202677217836L757.1,310.18453943298664L762.75,303.40164302370977L768.4,309.36764451954514L774.05,310.77742831158685L779.6999999999999,291.6130990551319L785.35,299.25195855950005L791,310.24701414472656L796.65,309.40368460770696L802.3,308.15671515930444L807.95,310.5422477591783L813.6,306.81610583898146L819.25,310.3321280495147L824.9,311.8287089372752L830.5500000000001,317.0653180704103L836.2,312.59113117167726L841.85,302.2237944159424L847.5,313.95819986838615L853.15,305.809164367849L858.8,303.34710158687085L864.4499999999999,309.92233569023665L870.1,311.92136832297547L875.75,310.655879648868L881.4,305.51767805346753L887.05,302.9008469665423L892.7,309.36304599791765L898.35,314.75062663131393L904,307.9879670175724L909.65,312.5046792401117L915.3000000000001,305.78249734290875L920.95,303.2996779574314L926.6,301.9497010745108L932.25,307.0037458736915L937.9,309.1891864013742L943.55,311.80943475093227L949.1999999999999,305.1200957042165L954.85,301.08494248171337L960.5,314.4411752790911L966.15,311.3446058986592L971.8,310.071402599453L977.45,317.3213459876133L983.1,309.6973326673033L988.75,310.62039649888175L994.4,306.8566866922192L1000.0500000000001,308.1707596274209L1005.7,306.6425804053433L1011.35,302.73526993452106L1017,306.6847866929602L1022.65,312.82272944273427L1028.3,316.92416930937907L1033.95,303.007053013891L1039.6000000000001,312.0524413160747L1045.25,299.04398546833545L1050.9,310.25855307863094L1056.55,307.52888769248966L1062.2,314.5922609172994L1067.85,306.8055061366176L1073.5,310.10819627309684L1079.1499999999999,312.2628676855238L1084.8,306.4246346829459L1090.45,318.2233108008513L1096.1,310.88986519072205L1101.75,303.229707270395L1107.4,292.8967081597075L1113.05,311.39117418107344L1118.7,309.9509416851215L1124.3500000000001,315.2846464571776L1130,305.5759379121009L1135.65,303.50495299254544L1141.3,312.64472100057174L1146.95,302.1809335540747L1152.6,317.3038581289002L1158.25,309.6498265285045L1163.8999999999999,288.9847524119541L1169.55,311.17556759901345L1175.2,313.39102365646977L1180.85,314.8869197165477L1186.5,313.9348703470314L1192.15,300.6453766201157L1197.8,309.7360900636995L1203.45,299.78765882598236L1209.1000000000001,295.8785716536222L1214.75,311.85045427893056L1220.4,315.5101967921946L1226.05,309.30523031466873" style="fill: none;" fill="none"></path></g><g><path stroke="rgb(255, 112, 67)" stroke-width="2px" d="M113,53.447242512367666L118.64999999999999,204.03170787077397L124.3,232.11149106547236L129.95000000000002,242.91741732205264L135.6,248.77608789294027L141.25,258.6710778186098L146.9,261.4723970827181L152.55,263.90918449661694L158.2,269.1186549263075L163.85,277.56727228453383L169.5,269.6088925357908L175.15,278.6754774923902L180.8,275.82319494732656L186.45000000000002,275.19957820815034L192.1,274.69756376277655L197.75,282.97450664732605L203.4,285.20018011378124L209.05,284.6221938006347L214.7,284.86801943555474L220.35,279.833501851419L226,288.5577582264086L231.65,291.5412031497108L237.29999999999998,290.2081874407595L242.95,293.5381799242459L248.6,290.7486842513317L254.25,287.6941712665139L259.90000000000003,291.1697102598846L265.55,294.3224836407462L271.2,292.42600601620506L276.85,293.35059489577543L282.5,296.9593314982485L288.15,295.159994892776L293.8,296.5829072990455L299.45,300.6371421860531L305.1,298.4248407364357L310.75,290.82059115800075L316.4,298.02644429483917L322.05,296.9773900466971L327.7,300.09798477741424L333.34999999999997,289.8340239980025L339,290.30378278449643L344.65,292.4217815370066L350.3,292.5166755511891L355.95,290.5093053476885L361.6,295.7948769098148L367.25,296.16283014812507L372.90000000000003,288.9368749810383L378.55,295.6056746979011L384.2,296.50755150115583L389.84999999999997,299.60455955634825L395.5,300.5909506963799L401.15,295.89916874002665L406.8,302.0885753275361L412.45,304.78556150675286L418.1,301.67064341995865L423.75,297.2048958535306L429.4,299.53985296643805L435.05,303.3592854689341L440.7,299.44752499333117L446.35,298.59082206431776L452,300.24814081017394L457.65000000000003,301.37462734174915L463.3,302.9870417439379L468.95,294.9071037063841L474.59999999999997,299.1396825736156L480.25,302.73269014188554L485.9,301.6939220605418L491.55,299.2342493006727L497.2,300.82737576495856L502.85,303.2792238872498L508.5,296.63941795926075L514.15,294.8178478317568L519.8000000000001,300.6766009120038L525.45,294.6822024449939L531.1,299.5241789384745L536.75,292.9108117595315L542.4,301.3297752540093L548.05,305.4454796137288L553.7,304.565280769486L559.35,303.587121313205L565,300.12119190988597L570.65,301.0165697259363L576.3,298.6781444696244L581.9499999999999,294.83705876092426L587.6,300.8795326813124L593.25,306.3538058985723L598.9,303.3951027818257L604.5500000000001,306.16203489527106L610.2,306.280801617424L615.85,300.05945840722416L621.5,303.435991670005L627.15,301.625136757968L632.8,302.8588964579394L638.45,299.9192557535134L644.1,297.377128640539L649.75,297.3305823606206L655.4,300.69865566375665L661.05,308.0363463804242L666.6999999999999,303.9754736154573L672.35,298.72371163847856L678,304.25115938752424L683.65,306.59825912781525L689.3,301.8662703606533L694.9499999999999,309.25894393923227L700.6,307.19649048743304L706.25,307.18605030316394L711.9,304.2045058454387L717.55,307.23691457288805L723.2,303.52138885692693L728.85,303.58501182391774L734.5,306.7996259696083L740.15,303.88023581227753L745.8000000000001,306.75244711793493L751.45,302.8392124751117L757.1,303.83325773337856L762.75,306.4607545301551L768.4,304.4639620265225L774.05,300.24618808866944L779.6999999999999,300.4002138103824L785.35,301.56034765869845L791,304.01071611314546L796.65,305.2228143559769L802.3,300.1290110468399L807.95,301.93907936965115L813.6,303.367360384902L819.25,303.8134774896316L824.9,304.6555020036176L830.5500000000001,308.6625772911357L836.2,309.52538178727264L841.85,305.96014549420215L847.5,309.3860331054311L853.15,306.5322516403394L858.8,304.5578219234012L864.4499999999999,306.0066752722487L870.1,307.92168862436665L875.75,303.74591882620007L881.4,308.4660977537278L887.05,306.8995558050228L892.7,308.34778758336324L898.35,309.7992606043699L904,306.28268558112904L909.65,304.2748533252161L915.3000000000001,306.4896850618534L920.95,302.3775148530258L926.6,302.3550475544762L932.25,306.73941063915845L937.9,307.72916541073937L943.55,303.8865340267075L949.1999999999999,304.58098780119326L954.85,304.1879957226338L960.5,305.0338294187095L966.15,306.73040336743L971.8,307.2106105891289L977.45,306.54454828519374L983.1,309.7990474551916L988.75,308.2962219840847L994.4,311.4543997279834L1000.0500000000001,310.5137696538004L1005.7,306.45670607092325L1011.35,308.94045231153723L1017,304.5461495993659L1022.65,302.7637879194226L1028.3,309.1969752848963L1033.95,302.5384273559321L1039.6000000000001,301.871850743657L1045.25,305.1158437218983L1050.9,304.96330866927747L1056.55,306.1699365415843L1062.2,305.9489214710193L1067.85,307.49160996393766L1073.5,308.4245240378659L1079.1499999999999,309.0893665784388L1084.8,309.3500714011607L1090.45,307.07033917761873L1096.1,309.6971758995205L1101.75,307.18146278278437L1107.4,297.2410954597872L1113.05,304.07281540730037L1118.7,309.1168724485324L1124.3500000000001,309.7901075661066L1130,309.216287975607L1135.65,304.64750959700905L1141.3,307.44469789252616L1146.95,309.1124994524871L1152.6,307.49740487127565L1158.25,308.1585812459816L1163.8999999999999,311.6294048294658L1169.55,308.90531295054825L1175.2,308.9486262387363L1180.85,305.26481712050736L1186.5,307.5432140675839L1192.15,304.3733117437223L1197.8,306.48511679365765L1203.45,309.7251369462465L1209.1000000000001,310.10221159423236L1214.75,308.1066856092657L1220.4,307.6818352919072L1226.05,304.26501270895824" style="fill: none;" fill="none"></path></g></g></g></g></g></g><g transform="translate(70, 378)" clip-path="url(#clip_1)"><clipPath id="clip_1"><rect width="1356" height="22"></rect></clipPath><g><g><line x1="0" y1="0" x2="0" y2="5" style="visibility: inherit;" fill="rgb(0, 0, 0)" stroke="rgb(204, 204, 204)" stroke-width="1px"></line><line x1="113" y1="0" x2="113" y2="5" style="visibility: inherit;" fill="rgb(0, 0, 0)" stroke="rgb(204, 204, 204)" stroke-width="1px"></line><line x1="226" y1="0" x2="226" y2="5" style="visibility: inherit;" fill="rgb(0, 0, 0)" stroke="rgb(204, 204, 204)" stroke-width="1px"></line><line x1="339" y1="0" x2="339" y2="5" style="visibility: inherit;" fill="rgb(0, 0, 0)" stroke="rgb(204, 204, 204)" stroke-width="1px"></line><line x1="452" y1="0" x2="452" y2="5" style="visibility: inherit;" fill="rgb(0, 0, 0)" stroke="rgb(204, 204, 204)" stroke-width="1px"></line><line x1="565" y1="0" x2="565" y2="5" style="visibility: inherit;" fill="rgb(0, 0, 0)" stroke="rgb(204, 204, 204)" stroke-width="1px"></line><line x1="678" y1="0" x2="678" y2="5" style="visibility: inherit;" fill="rgb(0, 0, 0)" stroke="rgb(204, 204, 204)" stroke-width="1px"></line><line x1="791" y1="0" x2="791" y2="5" style="visibility: inherit;" fill="rgb(0, 0, 0)" stroke="rgb(204, 204, 204)" stroke-width="1px"></line><line x1="904" y1="0" x2="904" y2="5" style="visibility: inherit;" fill="rgb(0, 0, 0)" stroke="rgb(204, 204, 204)" stroke-width="1px"></line><line x1="1017" y1="0" x2="1017" y2="5" style="visibility: inherit;" fill="rgb(0, 0, 0)" stroke="rgb(204, 204, 204)" stroke-width="1px"></line><line x1="1130" y1="0" x2="1130" y2="5" style="visibility: inherit;" fill="rgb(0, 0, 0)" stroke="rgb(204, 204, 204)" stroke-width="1px"></line><line x1="1243" y1="0" x2="1243" y2="5" style="visibility: inherit;" fill="rgb(0, 0, 0)" stroke="rgb(204, 204, 204)" stroke-width="1px"></line><line x1="1356" y1="0" x2="1356" y2="5" style="visibility: inherit;" fill="rgb(0, 0, 0)" stroke="rgb(204, 204, 204)" stroke-width="1px"></line></g><g transform="translate(0, 8)"><text x="0" y="0" dx="0em" dy="0.95em" style="text-anchor: middle; visibility: hidden; font-family: &quot;Helvetica Neue&quot;, sans-serif; font-size: 12px; font-weight: 200;" fill="rgb(50, 49, 63)" stroke="none" stroke-width="1px">-20</text><text x="113" y="0" dx="0em" dy="0.95em" style="text-anchor: middle; visibility: inherit; font-family: &quot;Helvetica Neue&quot;, sans-serif; font-size: 12px; font-weight: 200;" fill="rgb(50, 49, 63)" stroke="none" stroke-width="1px">0</text><text x="226" y="0" dx="0em" dy="0.95em" style="text-anchor: middle; visibility: inherit; font-family: &quot;Helvetica Neue&quot;, sans-serif; font-size: 12px; font-weight: 200;" fill="rgb(50, 49, 63)" stroke="none" stroke-width="1px">20</text><text x="339" y="0" dx="0em" dy="0.95em" style="text-anchor: middle; visibility: inherit; font-family: &quot;Helvetica Neue&quot;, sans-serif; font-size: 12px; font-weight: 200;" fill="rgb(50, 49, 63)" stroke="none" stroke-width="1px">40</text><text x="452" y="0" dx="0em" dy="0.95em" style="text-anchor: middle; visibility: inherit; font-family: &quot;Helvetica Neue&quot;, sans-serif; font-size: 12px; font-weight: 200;" fill="rgb(50, 49, 63)" stroke="none" stroke-width="1px">60</text><text x="565" y="0" dx="0em" dy="0.95em" style="text-anchor: middle; visibility: inherit; font-family: &quot;Helvetica Neue&quot;, sans-serif; font-size: 12px; font-weight: 200;" fill="rgb(50, 49, 63)" stroke="none" stroke-width="1px">80</text><text x="678" y="0" dx="0em" dy="0.95em" style="text-anchor: middle; visibility: inherit; font-family: &quot;Helvetica Neue&quot;, sans-serif; font-size: 12px; font-weight: 200;" fill="rgb(50, 49, 63)" stroke="none" stroke-width="1px">100</text><text x="791" y="0" dx="0em" dy="0.95em" style="text-anchor: middle; visibility: inherit; font-family: &quot;Helvetica Neue&quot;, sans-serif; font-size: 12px; font-weight: 200;" fill="rgb(50, 49, 63)" stroke="none" stroke-width="1px">120</text><text x="904" y="0" dx="0em" dy="0.95em" style="text-anchor: middle; visibility: inherit; font-family: &quot;Helvetica Neue&quot;, sans-serif; font-size: 12px; font-weight: 200;" fill="rgb(50, 49, 63)" stroke="none" stroke-width="1px">140</text><text x="1017" y="0" dx="0em" dy="0.95em" style="text-anchor: middle; visibility: inherit; font-family: &quot;Helvetica Neue&quot;, sans-serif; font-size: 12px; font-weight: 200;" fill="rgb(50, 49, 63)" stroke="none" stroke-width="1px">160</text><text x="1130" y="0" dx="0em" dy="0.95em" style="text-anchor: middle; visibility: inherit; font-family: &quot;Helvetica Neue&quot;, sans-serif; font-size: 12px; font-weight: 200;" fill="rgb(50, 49, 63)" stroke="none" stroke-width="1px">180</text><text x="1243" y="0" dx="0em" dy="0.95em" style="text-anchor: middle; visibility: inherit; font-family: &quot;Helvetica Neue&quot;, sans-serif; font-size: 12px; font-weight: 200;" fill="rgb(50, 49, 63)" stroke="none" stroke-width="1px">200</text><text x="1356" y="0" dx="0em" dy="0.95em" style="text-anchor: middle; visibility: hidden; font-family: &quot;Helvetica Neue&quot;, sans-serif; font-size: 12px; font-weight: 200;" fill="rgb(50, 49, 63)" stroke="none" stroke-width="1px">220</text></g><line x1="0" y1="0" x2="1356" y2="0" fill="rgb(0, 0, 0)" stroke="rgb(204, 204, 204)" stroke-width="1px"></line></g></g></g></g></svg>