<svg viewBox="0 0 1426 400" xmlns="http://www.w3.org/2000/svg"><g><g><g><g><g><line x1="58" y1="378" x2="53" y2="378" style="visibility: inherit;" fill="rgb(0, 0, 0)" stroke="rgb(204, 204, 204)" stroke-width="1px"></line><line x1="58" y1="343.6363636363636" x2="53" y2="343.6363636363636" style="visibility: inherit;" fill="rgb(0, 0, 0)" stroke="rgb(204, 204, 204)" stroke-width="1px"></line><line x1="58" y1="309.27272727272725" x2="53" y2="309.27272727272725" style="visibility: inherit;" fill="rgb(0, 0, 0)" stroke="rgb(204, 204, 204)" stroke-width="1px"></line><line x1="58" y1="274.9090909090909" x2="53" y2="274.9090909090909" style="visibility: inherit;" fill="rgb(0, 0, 0)" stroke="rgb(204, 204, 204)" stroke-width="1px"></line><line x1="58" y1="240.54545454545453" x2="53" y2="240.54545454545453" style="visibility: inherit;" fill="rgb(0, 0, 0)" stroke="rgb(204, 204, 204)" stroke-width="1px"></line><line x1="58" y1="206.1818181818182" x2="53" y2="206.1818181818182" style="visibility: inherit;" fill="rgb(0, 0, 0)" stroke="rgb(204, 204, 204)" stroke-width="1px"></line><line x1="58" y1="171.81818181818184" x2="53" y2="171.81818181818184" style="visibility: inherit;" fill="rgb(0, 0, 0)" stroke="rgb(204, 204, 204)" stroke-width="1px"></line><line x1="58" y1="137.4545454545455" x2="53" y2="137.4545454545455" style="visibility: inherit;" fill="rgb(0, 0, 0)" stroke="rgb(204, 204, 204)" stroke-width="1px"></line><line x1="58" y1="103.09090909090912" x2="53" y2="103.09090909090912" style="visibility: inherit;" fill="rgb(0, 0, 0)" stroke="rgb(204, 204, 204)" stroke-width="1px"></line><line x1="58" y1="68.72727272727275" x2="53" y2="68.72727272727275" style="visibility: inherit;" fill="rgb(0, 0, 0)" stroke="rgb(204, 204, 204)" stroke-width="1px"></line><line x1="58" y1="34.363636363636374" x2="53" y2="34.363636363636374" style="visibility: inherit;" fill="rgb(0, 0, 0)" stroke="rgb(204, 204, 204)" stroke-width="1px"></line><line x1="58" y1="0" x2="53" y2="0" style="visibility: inherit;" fill="rgb(0, 0, 0)" stroke="rgb(204, 204, 204)" stroke-width="1px"></line></g><g transform="translate(48, 0)"><text x="0" y="378" dx="0em" dy="0.3em" style="text-anchor: end; visibility: hidden; font-family: &quot;Helvetica Neue&quot;, sans-serif; font-size: 12px; font-weight: 200;" fill="rgb(50, 49, 63)" stroke="none" stroke-width="1px">-0.1</text><text x="0" y="343.6363636363636" dx="0em" dy="0.3em" style="text-anchor: end; visibility: inherit; font-family: &quot;Helvetica Neue&quot;, sans-serif; font-size: 12px; font-weight: 200;" fill="rgb(50, 49, 63)" stroke="none" stroke-width="1px">0</text><text x="0" y="309.27272727272725" dx="0em" dy="0.3em" style="text-anchor: end; visibility: inherit; font-family: &quot;Helvetica Neue&quot;, sans-serif; font-size: 12px; font-weight: 200;" fill="rgb(50, 49, 63)" stroke="none" stroke-width="1px">0.1</text><text x="0" y="274.9090909090909" dx="0em" dy="0.3em" style="text-anchor: end; visibility: inherit; font-family: &quot;Helvetica Neue&quot;, sans-serif; font-size: 12px; font-weight: 200;" fill="rgb(50, 49, 63)" stroke="none" stroke-width="1px">0.2</text><text x="0" y="240.54545454545453" dx="0em" dy="0.3em" style="text-anchor: end; visibility: inherit; font-family: &quot;Helvetica Neue&quot;, sans-serif; font-size: 12px; font-weight: 200;" fill="rgb(50, 49, 63)" stroke="none" stroke-width="1px">0.3</text><text x="0" y="206.1818181818182" dx="0em" dy="0.3em" style="text-anchor: end; visibility: inherit; font-family: &quot;Helvetica Neue&quot;, sans-serif; font-size: 12px; font-weight: 200;" fill="rgb(50, 49, 63)" stroke="none" stroke-width="1px">0.4</text><text x="0" y="171.81818181818184" dx="0em" dy="0.3em" style="text-anchor: end; visibility: inherit; font-family: &quot;Helvetica Neue&quot;, sans-serif; font-size: 12px; font-weight: 200;" fill="rgb(50, 49, 63)" stroke="none" stroke-width="1px">0.5</text><text x="0" y="137.4545454545455" dx="0em" dy="0.3em" style="text-anchor: end; visibility: inherit; font-family: &quot;Helvetica Neue&quot;, sans-serif; font-size: 12px; font-weight: 200;" fill="rgb(50, 49, 63)" stroke="none" stroke-width="1px">0.6</text><text x="0" y="103.09090909090912" dx="0em" dy="0.3em" style="text-anchor: end; visibility: inherit; font-family: &quot;Helvetica Neue&quot;, sans-serif; font-size: 12px; font-weight: 200;" fill="rgb(50, 49, 63)" stroke="none" stroke-width="1px">0.7</text><text x="0" y="68.72727272727275" dx="0em" dy="0.3em" style="text-anchor: end; visibility: inherit; font-family: &quot;Helvetica Neue&quot;, sans-serif; font-size: 12px; font-weight: 200;" fill="rgb(50, 49, 63)" stroke="none" stroke-width="1px">0.8</text><text x="0" y="34.363636363636374" dx="0em" dy="0.3em" style="text-anchor: end; visibility: inherit; font-family: &quot;Helvetica Neue&quot;, sans-serif; font-size: 12px; font-weight: 200;" fill="rgb(50, 49, 63)" stroke="none" stroke-width="1px">0.9</text><text x="0" y="0" dx="0em" dy="0.3em" style="text-anchor: end; visibility: hidden; font-family: &quot;Helvetica Neue&quot;, sans-serif; font-size: 12px; font-weight: 200;" fill="rgb(50, 49, 63)" stroke="none" stroke-width="1px">1</text></g><line x1="58" y1="0" x2="58" y2="378" fill="rgb(0, 0, 0)" stroke="rgb(204, 204, 204)" stroke-width="1px"></line></g></g><g transform="translate(58, 0)" clip-path="url(#clip_0)"><clipPath id="clip_0"><rect width="1368" height="378"></rect></clipPath><g><g><g><line x1="0" y1="0" x2="0" y2="378" fill="rgb(0, 0, 0)" stroke="rgb(60, 60, 60)" stroke-width="1px" opacity="0.25"></line><line x1="136.8" y1="0" x2="136.8" y2="378" fill="rgb(0, 0, 0)" stroke="rgb(60, 60, 60)" stroke-width="1px" opacity="0.25"></line><line x1="273.6" y1="0" x2="273.6" y2="378" fill="rgb(0, 0, 0)" stroke="rgb(60, 60, 60)" stroke-width="1px" opacity="0.25"></line><line x1="410.4" y1="0" x2="410.4" y2="378" fill="rgb(0, 0, 0)" stroke="rgb(60, 60, 60)" stroke-width="1px" opacity="0.25"></line><line x1="547.2" y1="0" x2="547.2" y2="378" fill="rgb(0, 0, 0)" stroke="rgb(60, 60, 60)" stroke-width="1px" opacity="0.25"></line><line x1="684" y1="0" x2="684" y2="378" fill="rgb(0, 0, 0)" stroke="rgb(60, 60, 60)" stroke-width="1px" opacity="0.25"></line><line x1="820.8" y1="0" x2="820.8" y2="378" fill="rgb(0, 0, 0)" stroke="rgb(60, 60, 60)" stroke-width="1px" opacity="0.25"></line><line x1="957.5999999999999" y1="0" x2="957.5999999999999" y2="378" fill="rgb(0, 0, 0)" stroke="rgb(60, 60, 60)" stroke-width="1px" opacity="0.25"></line><line x1="1094.4" y1="0" x2="1094.4" y2="378" fill="rgb(0, 0, 0)" stroke="rgb(60, 60, 60)" stroke-width="1px" opacity="0.25"></line><line x1="1231.2" y1="0" x2="1231.2" y2="378" fill="rgb(0, 0, 0)" stroke="rgb(60, 60, 60)" stroke-width="1px" opacity="0.25"></line><line x1="1368" y1="0" x2="1368" y2="378" fill="rgb(0, 0, 0)" stroke="rgb(60, 60, 60)" stroke-width="1px" opacity="0.25"></line></g><g><line x1="0" y1="378" x2="1368" y2="378" fill="rgb(0, 0, 0)" stroke="rgb(60, 60, 60)" stroke-width="1px" opacity="0.25"></line><line x1="0" y1="343.6363636363636" x2="1368" y2="343.6363636363636" fill="rgb(0, 0, 0)" stroke="rgb(60, 60, 60)" stroke-width="1px" opacity="0.25"></line><line x1="0" y1="309.27272727272725" x2="1368" y2="309.27272727272725" fill="rgb(0, 0, 0)" stroke="rgb(60, 60, 60)" stroke-width="1px" opacity="0.25"></line><line x1="0" y1="274.9090909090909" x2="1368" y2="274.9090909090909" fill="rgb(0, 0, 0)" stroke="rgb(60, 60, 60)" stroke-width="1px" opacity="0.25"></line><line x1="0" y1="240.54545454545453" x2="1368" y2="240.54545454545453" fill="rgb(0, 0, 0)" stroke="rgb(60, 60, 60)" stroke-width="1px" opacity="0.25"></line><line x1="0" y1="206.1818181818182" x2="1368" y2="206.1818181818182" fill="rgb(0, 0, 0)" stroke="rgb(60, 60, 60)" stroke-width="1px" opacity="0.25"></line><line x1="0" y1="171.81818181818184" x2="1368" y2="171.81818181818184" fill="rgb(0, 0, 0)" stroke="rgb(60, 60, 60)" stroke-width="1px" opacity="0.25"></line><line x1="0" y1="137.4545454545455" x2="1368" y2="137.4545454545455" fill="rgb(0, 0, 0)" stroke="rgb(60, 60, 60)" stroke-width="1px" opacity="0.25"></line><line x1="0" y1="103.09090909090912" x2="1368" y2="103.09090909090912" fill="rgb(0, 0, 0)" stroke="rgb(60, 60, 60)" stroke-width="1px" opacity="0.25"></line><line x1="0" y1="68.72727272727275" x2="1368" y2="68.72727272727275" fill="rgb(0, 0, 0)" stroke="rgb(60, 60, 60)" stroke-width="1px" opacity="0.25"></line><line x1="0" y1="34.363636363636374" x2="1368" y2="34.363636363636374" fill="rgb(0, 0, 0)" stroke="rgb(60, 60, 60)" stroke-width="1px" opacity="0.25"></line><line x1="0" y1="0" x2="1368" y2="0" fill="rgb(0, 0, 0)" stroke="rgb(60, 60, 60)" stroke-width="1px" opacity="0.25"></line></g></g></g><g><g><line x1="0" y1="343.6363636363636" x2="1368" y2="343.6363636363636" fill="rgb(0, 0, 0)" stroke="rgb(153, 153, 153)" stroke-width="1.5px"></line></g></g><g><g><line x1="136.8" y1="0" x2="136.8" y2="378" fill="rgb(0, 0, 0)" stroke="rgb(153, 153, 153)" stroke-width="1.5px"></line></g></g><g><g><g><g><g><path stroke="rgb(0, 153, 136)" stroke-width="2px" d="M136.8,193.24947172945198L143.64,169.68359856442973L150.48,151.94171468932907L157.32,136.9213523381056L164.16,121.59362974087759L171,115.46657189299049L177.84,105.07463714790856L184.68,97.42429813535887L191.52,90.72975886468049L198.35999999999999,86.46637985564678L205.2,83.33561868830714L212.04,82.81244745120017L218.88,80.52011261194178L225.72,79.08793835707525L232.56000000000003,81.52128717649703L239.39999999999998,76.74989414488607L246.23999999999998,76.81672431743556L253.07999999999998,72.41927059550363L259.92,71.42484985867378L266.76,68.89675622248484L273.6,67.96433270356715L280.44,70.15114859206795L287.28,68.52208231113019L294.12,67.70136587162324L300.96,69.36712608317453L307.8,66.81142347283543L314.64,65.54921551476059L321.47999999999996,64.26393887488325L328.32,63.93633056185604L335.15999999999997,63.974525900919275L342,62.978947144069934L348.84000000000003,64.24595035506582L355.68,64.13178636879564L362.52000000000004,65.57554711704842L369.36,62.663437472403984L376.20000000000005,62.27677970253501L383.04,62.517377790051L389.87999999999994,64.19844344170576L396.71999999999997,62.83752379549253L403.56,62.167477972619565L410.4,62.42734085669781L417.24,62.86949496001L424.08,61.03403840544655L430.92,63.10088832571938L437.76,62.36269259084446L444.6,61.66086219648895L451.44,65.21870925868097L458.28000000000003,64.64773534821722L465.12000000000006,60.60878802963788L471.96,60.3305251738762L478.79999999999995,60.01604557446143L485.64,59.43658785631618L492.47999999999996,60.97608895882638L499.32,60.19816735095867L506.15999999999997,58.561521424909074L513,59.03056720141177L519.84,58.490727235880456L526.6800000000001,62.09324368509846L533.52,60.54551129742367L540.36,58.051522589403305L547.2,56.146695450406526L554.0400000000001,55.934663414417344L560.88,56.23579511826932L567.72,57.24373060337126L574.56,60.683270029905486L581.4,58.6466045953747L588.24,57.60865949260693L595.08,57.266696891645154L601.92,55.925831849794804L608.76,58.05705242859415L615.6,57.175071710119425L622.44,55.710037730578335L629.28,57.99371747574378L636.12,58.421861341006604L642.9599999999999,58.51332422356592L649.8,60.492786601927435L656.64,58.25976855067847L663.48,56.882679891365626L670.3199999999999,55.950139823261L677.16,57.928416614626485L684,56.31440038756028L690.84,54.458368685045286L697.6800000000001,55.205322955314784L704.52,55.808218988337785L711.36,56.104519681396596L718.2,56.47917618962242L725.0400000000001,56.6211969292886L731.88,55.72700201925363L738.72,55.712645039788185L745.5600000000001,55.85849214923081L752.4000000000001,58.9376321828629L759.2400000000001,58.433352217668414L766.08,57.456096506202016L772.92,57.11731701855888L779.7599999999999,57.16454814098927L786.5999999999999,56.65828998113176L793.4399999999999,56.215648546798434L800.28,56.4738212739781L807.12,54.71546288982796L813.9599999999999,56.267937748656266L820.8,55.4328222718716L827.64,56.19015416294707L834.48,57.136006164926926L841.3199999999999,55.767012005078016L848.16,57.08918077378382L855,55.41564835684841L861.84,55.73508025806103L868.6800000000001,53.99981157216729L875.52,54.393633744156546L882.36,55.13947809562893L889.2,54.735157648587176L896.0400000000001,54.75813099246153L902.88,54.372452342244856L909.72,54.91979947312649L916.5600000000001,55.68016356601703L923.4000000000001,55.9255287918819L930.2400000000001,55.76970785643351L937.08,54.15913056657672L943.92,53.76736252122879L950.7599999999999,53.30840532061808L957.5999999999999,54.27420244696515L964.4399999999999,58.057837078197736L971.28,55.6955963200582L978.12,55.73429107714122L984.9599999999999,56.7982229755861L991.8,56.06921497709084L998.64,54.99815263585168L1005.48,53.7992071350028L1012.3199999999999,53.53916003289936L1019.16,52.64284325394539L1026,51.79064952259097L1032.84,53.111501689484555L1039.68,53.34750826321084L1046.52,53.66835711586606L1053.3600000000001,54.33661344922103L1060.2,53.812749383688924L1067.04,54.83189574026255L1073.88,53.538773267147235L1080.72,53.49484789888703L1087.56,56.652256832191654L1094.4,54.67002103774996L1101.24,53.95607428688447L1108.0800000000002,55.77223296941685L1114.9199999999998,55.78503315871143L1121.76,54.55863690239573L1128.6,55.0906303874396L1135.44,54.05445378947894L1142.28,54.25667796417531L1149.12,55.95610994248449L1155.96,56.64091591381896L1162.8,55.85006881181903L1169.6399999999999,54.48336692976392L1176.48,57.5802788168744L1183.32,57.47886568490003L1190.16,55.010361656284715L1197,54.283459350851444L1203.84,52.56231434883097L1210.68,52.734692554666594L1217.52,53.40022816825643L1224.3600000000001,53.30891596201121L1231.2,55.55432632628015L1238.04,58.015024415846426L1244.88,57.435493191488945L1251.72,55.24013780054679L1258.56,54.34091143579349L1265.4,53.168283386925L1272.24,52.72957577070815L1279.0800000000002,53.4554016326631L1285.9199999999998,54.33827205724293L1292.76,55.974113511223436L1299.6,55.144178089172556L1306.44,55.55667249632859L1313.28,55.78465358289958" style="fill: none;" fill="none"></path></g><g><path stroke="rgb(238, 51, 119)" stroke-width="2px" d="M136.8,198.52115067568693L143.64,185.22426316006622L150.48,166.8559604728377L157.32,150.91135162421892L164.16,135.84974157423653L171,124.13200659487691L177.84,114.44623590052146L184.68,107.60560639725378L191.52,101.96611122859451L198.35999999999999,97.19216858254043L205.2,93.56079958067056L212.04,91.09690027539762L218.88,89.05675026883165L225.72,88.14511427607425L232.56000000000003,87.25085796844758L239.39999999999998,85.28594610972056L246.23999999999998,83.75174507353023L253.07999999999998,81.80681814882155L259.92,79.96499738145911L266.76,79.86253301546833L273.6,79.44201836714797L280.44,78.820127574347L287.28,78.12381749380711L294.12,78.10497516423476L300.96,78.4474415189461L307.8,78.02725839828355L314.64,77.25765026520241L321.47999999999996,75.04104127337575L328.32,74.59019477897448L335.15999999999997,73.93038347844231L342,73.4600885972099L348.84000000000003,72.73166738972384L355.68,72.22709676829942L362.52000000000004,72.6314042344232L369.36,71.97003821666533L376.20000000000005,72.33176098540474L383.04,71.91122907087077L389.87999999999994,71.70986175166132L396.71999999999997,72.64915726388273L403.56,73.02247017122045L410.4,73.25356937798921L417.24,72.96443509547652L424.08,71.45181202973572L430.92,70.35913533763062L437.76,70.83596421092591L444.6,70.21273649867913L451.44,70.56638115564607L458.28000000000003,71.31359081547191L465.12000000000006,70.4678516127126L471.96,70.65232555385234L478.79999999999995,70.56083300085118L485.64,68.8319745291767L492.47999999999996,68.31309162987526L499.32,67.5320858291845L506.15999999999997,67.10423397938024L513,67.32595717208812L519.84,67.79681014379031L526.6800000000001,68.12082730692185L533.52,68.10905434466338L540.36,67.61148807977895L547.2,67.81313485087469L554.0400000000001,67.69215293797402L560.88,66.83745856111591L567.72,67.46865343249868L574.56,66.90897680584271L581.4,67.4228841120007L588.24,67.44902304407697L595.08,67.5166905400776L601.92,66.42960804838401L608.76,66.23370471841804L615.6,66.38190857698368L622.44,65.82472829029149L629.28,66.69433831521434L636.12,67.10114114546468L642.9599999999999,68.38817455752366L649.8,68.9482632779102L656.64,67.3486550208288L663.48,66.39097107063611L670.3199999999999,65.14487640354832L677.16,66.03092248831655L684,65.18509750557985L690.84,64.2456548945056L697.6800000000001,63.9837021442728L704.52,65.92228182303495L711.36,66.27621399794032L718.2,66.55378902054599L725.0400000000001,65.68567356470743L731.88,64.69192479471661L738.72,64.62356235689646L745.5600000000001,64.29979051631909L752.4000000000001,63.92687239446661L759.2400000000001,64.75376639592798L766.08,63.517032694876036L772.92,63.384587382872496L779.7599999999999,64.22464542885234L786.5999999999999,64.97608214416056L793.4399999999999,65.09163215365055L800.28,65.46603407679174L807.12,64.49956258231936L813.9599999999999,63.64333217850594L820.8,64.86129244924894L827.64,64.58387130410802L834.48,64.0382498464935L841.3199999999999,64.11478019617624L848.16,64.080129138713L855,65.03875405099899L861.84,64.51678924971065L868.6800000000001,63.421791892347414L875.52,62.52822264281588L882.36,62.71954767634895L889.2,63.25352573396657L896.0400000000001,62.99898194400873L902.88,62.79391923731697L909.72,62.66296724354544L916.5600000000001,64.0063035155581L923.4000000000001,63.8708229949134L930.2400000000001,64.19574011992671L937.08,64.08465990475298L943.92,63.624308748443696L950.7599999999999,62.42472214467949L957.5999999999999,62.81399787157443L964.4399999999999,63.951415467038146L971.28,64.65325049516929L978.12,64.2855444667183L984.9599999999999,64.54043027645821L991.8,64.86196405549009L998.64,63.80435655087274L1005.48,62.615343746960434L1012.3199999999999,62.853135162679905L1019.16,62.518137651951406L1026,61.5880093976034L1032.84,62.18946954361911L1039.68,62.010947741310986L1046.52,61.54923648453047L1053.3600000000001,62.15366242093347L1060.2,61.96872716350316L1067.04,61.67758710667903L1073.88,61.454679490403464L1080.72,61.10215093515342L1087.56,62.42276894181549L1094.4,62.6469519021432L1101.24,62.76383049436879L1108.0800000000002,62.35589202893499L1114.9199999999998,62.81712186508827L1121.76,62.62821462691261L1128.6,62.7282059714712L1135.44,62.374687247821896L1142.28,63.204331559855405L1149.12,63.2752091771963L1155.96,63.45558997692103L1162.8,63.963231955721085L1169.6399999999999,63.325630267224255L1176.48,63.40142268686816L1183.32,62.5329440974337L1190.16,62.09839885654543L1197,61.91235845600875L1203.84,61.695668089643675L1210.68,61.234962662285625L1217.52,61.83745228824222L1224.3600000000001,61.82117828420576L1231.2,63.319527352728414L1238.04,64.21249860490764L1244.88,64.36108351491771L1251.72,63.664811095417406L1258.56,63.06952325046228L1265.4,62.29143879789757L1272.24,61.80362242014036L1279.0800000000002,62.28414849425394L1285.9199999999998,62.41146488397527L1292.76,64.10797372595897L1299.6,64.55910037132867L1306.44,63.93476436999737L1313.28,63.59339329066074" style="fill: none;" fill="none"></path></g></g></g></g><g opacity="0.2"><g><g><g><path stroke="rgb(0, 153, 136)" stroke-width="2px" d="M136.8,193.24947172945198L143.64,155.5440746654164L150.48,134.9095061692325L157.32,119.25740621306682L164.16,101.58175511793661L171,106.9906451485374L177.84,90.21400419148534L184.68,86.270030411807L191.52,80.85661378773779L198.35999999999999,80.13575889847499L205.2,78.66787271066147L212.04,82.03053767030889L218.88,77.08909522403371L225.72,76.94248275323349L232.56000000000003,85.16845009543681L239.39999999999998,69.59616975350815L246.23999999999998,76.91694129597062L253.07999999999998,65.82420652562922L259.92,69.93337024341935L266.76,65.10484684597367L273.6,66.56574856151241L280.44,73.43130046671087L287.28,66.07851505279547L294.12,66.47030093453151L300.96,71.86575456099081L307.8,62.97788045623088L314.64,63.65590680729264L321.47999999999996,62.3360258882696L328.32,63.4449183940888L335.15999999999997,64.03181888840419L342,61.48557933894074L348.84000000000003,66.14645491946834L355.68,63.960540403019365L362.52000000000004,67.7411881360141L369.36,58.29527313059026L376.20000000000005,61.696793057701825L383.04,62.878274917602596L389.87999999999994,66.72004190358251L396.71999999999997,60.79614433375275L403.56,61.162409240549266L410.4,62.81713518229401L417.24,63.53272611444646L424.08,58.2808535749262L430.92,66.20116320523351L437.76,61.25539898872381L444.6,60.608116605065106L451.44,70.55547985163605L458.28000000000003,63.79127448255366L465.12000000000006,54.55036705190486L471.96,59.913130890239415L478.79999999999995,59.544326175342974L485.64,58.56740127910274L492.47999999999996,63.28534061258489L499.32,59.03128493915909L506.15999999999997,56.10655253583735L513,59.73413586616522L519.84,57.680967287583826L526.6800000000001,67.49701835892421L533.52,58.22391271591192L540.36,54.310539527372896L547.2,53.28945474191147L554.0400000000001,55.6166153604334L560.88,56.68749267404729L567.72,58.75563383102423L574.56,65.84257916970688L581.4,55.59160644357854L588.24,56.05174183845526L595.08,56.753752990202486L601.92,53.91453428701925L608.76,61.25388329679316L615.6,55.852100632407485L622.44,53.51248676126653L629.28,61.41923709349203L636.12,59.064077138900814L642.9599999999999,58.65051854740494L649.8,63.461980169469655L656.64,54.91024147380489L663.48,54.8170469023965L670.3199999999999,54.55132972110408L677.16,60.8958318016746L684,53.89337604696101L690.84,51.67432113127279L697.6800000000001,56.3257543607192L704.52,56.71256303787237L711.36,56.548970720984755L718.2,57.04116095196122L725.0400000000001,56.8342280387879L731.88,54.38570965420121L738.72,55.69110957058996L745.5600000000001,56.077262813394725L752.4000000000001,63.55634223331111L759.2400000000001,57.67693226987666L766.08,55.99021293900233L772.92,56.60914778709417L779.7599999999999,57.235394824634966L786.5999999999999,55.89890274134552L793.4399999999999,55.55168639529842L800.28,56.86108036474752L807.12,52.07792531360286L813.9599999999999,58.59665003689855L820.8,54.180149056694745L827.64,57.326151999560295L834.48,58.554784167896685L841.3199999999999,53.71352076530462L848.16,59.07243392684245L855,52.90534973144537L861.84,56.21422810987997L868.6800000000001,51.396908543326674L875.52,54.98436700214046L882.36,56.25824462283748L889.2,54.1286769780246L896.0400000000001,54.792591008273064L902.88,53.793934366919814L909.72,55.74082016944891L916.5600000000001,56.82070970535284L923.4000000000001,56.29357663067907L930.2400000000001,55.53597645326096L937.08,51.74326463179159L943.92,53.17971045320684L950.7599999999999,52.6199695197019L957.5999999999999,55.72289813648575L964.4399999999999,63.733289025046645L971.28,52.15223518284887L978.12,55.79233321276581L984.9599999999999,58.39412082325333L991.8,54.97570297934794L998.64,53.39155912399298L1005.48,52.000788883729456L1012.3199999999999,53.14908937974411L1019.16,51.29836808551448L1026,50.51235892555934L1032.84,55.09277993982488L1039.68,53.7015181238001L1046.52,54.14963039484894L1053.3600000000001,55.338997949253496L1060.2,53.026953285390675L1067.04,56.36061527512294L1073.88,51.599089557474315L1080.72,53.42895984649664L1087.56,61.388370232148645L1094.4,51.696667346087395L1101.24,52.885154160586296L1108.0800000000002,58.49647099321538L1114.9199999999998,55.804233442653356L1121.76,52.71904251792216L1128.6,55.88862061500555L1135.44,52.50018889253789L1142.28,54.56001422621989L1149.12,58.50525790994817L1155.96,57.66812487082052L1162.8,54.66379815881902L1169.6399999999999,52.433314106681166L1176.48,62.22564664754003L1183.32,57.32674598693853L1190.16,51.30760561336177L1197,53.193105892701624L1203.84,49.98059684580022L1210.68,52.99325986342001L1217.52,54.398531588641106L1224.3600000000001,53.17194765264338L1231.2,58.922441872683464L1238.04,61.70607155019587L1244.88,56.56619635495275L1251.72,51.94710471413356L1258.56,52.99207188866359L1265.4,51.409341313622235L1272.24,52.071514346382855L1279.0800000000002,54.5441404255954L1285.9199999999998,55.6625776941126L1292.76,58.42787569219416L1299.6,53.89927495609635L1306.44,56.175414107062636L1313.28,56.126625212756096" style="fill: none;" fill="none"></path></g><g><path stroke="rgb(238, 51, 119)" stroke-width="2px" d="M136.8,198.52115067568693L143.64,177.24613065069374L150.48,149.22238989309835L157.32,132.16049161824313L164.16,116.18530349297959L171,107.92216073382986L177.84,100.595428835262L184.68,97.63190291144633L191.52,93.64895127036357L198.35999999999999,90.10342012752187L205.2,88.1466823274439L212.04,87.41445974870163L218.88,86.00318670272833L225.72,86.77944627675146L232.56000000000003,85.91052467172796L239.39999999999998,82.33996412970805L246.23999999999998,81.45109274170619L253.07999999999998,78.88992157849401L259.92,77.20254681327128L266.76,79.70884583213115L273.6,78.81126945669001L280.44,77.88731184872717L287.28,77.07936612042516L294.12,78.07671189308172L300.96,78.96113861690873L307.8,77.39698550917888L314.64,76.10324003479701L321.47999999999996,71.71613118865275L328.32,73.91392545266586L335.15999999999997,72.94066689231181L342,72.75464643131608L348.84000000000003,71.63903572342616L355.68,71.47024089639837L362.52000000000004,73.23786540464926L369.36,70.9779892184518L376.20000000000005,72.87434512918645L383.04,71.28043120557612L389.87999999999994,71.4078107747165L396.71999999999997,74.05810052698308L403.56,73.58243953097951L410.4,73.60021818767899L417.24,72.53073367205536L424.08,69.18287743221634L430.92,68.72012029994625L437.76,71.55120752074504L444.6,69.27789493040609L451.44,71.09684814106339L458.28000000000003,72.43440530516887L465.12000000000006,69.1992428086021L471.96,70.92903646555817L478.79999999999995,70.42359417135066L485.64,66.2386868216775L492.47999999999996,67.53476728092545L499.32,66.36057712815028L506.15999999999997,66.46245620467448L513,67.65854196114975L519.84,68.50308960134333L526.6800000000001,68.60685305161911L533.52,68.09139490127569L540.36,66.86513868245214L547.2,68.11560500751847L554.0400000000001,67.510680068623L560.88,65.5554169958288L567.72,68.4154457395727L574.56,66.06946186585861L581.4,68.19374507123774L588.24,67.48823144219142L595.08,67.61819178407842L601.92,64.79898431084376L608.76,65.9398497234692L615.6,66.6042143648321L622.44,64.9889578602531L629.28,67.99875335259873L636.12,67.71134539084005L642.9599999999999,70.31872467561203L649.8,69.78839635849005L656.64,64.94924263520676L663.48,64.95444514534694L670.3199999999999,63.27573440291667L677.16,67.3599916154688L684,63.91636003147477L690.84,62.83649097789424L697.6800000000001,63.5907730189237L704.52,68.83015134117824L711.36,66.80711226029831L718.2,66.9701515544545L725.0400000000001,64.38350038094956L731.88,63.201301639730275L738.72,64.52101870016622L745.5600000000001,63.81413275545293L752.4000000000001,63.36749521168798L759.2400000000001,65.99410739811987L766.08,61.66193214329809L772.92,63.1859194148671L779.7599999999999,65.48473249782222L786.5999999999999,66.10323721712285L793.4399999999999,65.26495716788554L800.28,66.0276369615035L807.12,63.04985534061092L813.9599999999999,62.35898657278585L820.8,66.68823285536337L827.64,64.16773958639669L834.48,63.21981766007167L841.3199999999999,64.22957572070038L848.16,64.02815255251801L855,66.47669141942805L861.84,63.73384204777807L868.6800000000001,61.77929585630244L875.52,61.187868768518626L882.36,63.00653522664851L889.2,64.05449282039302L896.0400000000001,62.617166259072064L902.88,62.48632517727941L909.72,62.46653925288814L916.5600000000001,66.02130792357707L923.4000000000001,63.66760221394628L930.2400000000001,64.6831158074466L937.08,63.918039581992446L943.92,62.93378201397985L950.7599999999999,60.62534223903316L957.5999999999999,63.39791146191686L964.4399999999999,65.65754186023372L971.28,65.70600303736603L978.12,63.733985424041805L984.9599999999999,64.92275899106806L991.8,65.34426472403788L998.64,62.21794529394674L1005.48,60.831824541091976L1012.3199999999999,63.20982228625911L1019.16,62.015641385858714L1026,60.19281701608139L1032.84,63.09165976264262L1039.68,61.74316503784877L1046.52,60.85666959935969L1053.3600000000001,63.06030132553798L1060.2,61.69132427735764L1067.04,61.24087702144283L1073.88,61.12031806599015L1080.72,60.57335810227829L1087.56,64.40369595180863L1094.4,62.98322634263474L1101.24,62.93914838270712L1108.0800000000002,61.74398433078426L1114.9199999999998,63.50896661931819L1121.76,62.344853769649205L1128.6,62.878192988309024L1135.44,61.84440916234797L1142.28,64.44879802790558L1149.12,63.381525603207706L1155.96,63.72616117650813L1162.8,64.7246949239211L1169.6399999999999,62.36922773447907L1176.48,63.515111316334185L1183.32,61.23022621328181L1190.16,61.44658099521297L1197,61.63329785520381L1203.84,61.37063254009598L1210.68,60.54390452124858L1217.52,62.74118672717708L1224.3600000000001,61.796767278151094L1231.2,65.56705095551234L1238.04,65.55195548317653L1244.88,64.58396087993282L1251.72,62.62040246616715L1258.56,62.17659148302948L1265.4,61.1243121190505L1272.24,61.071897853504595L1279.0800000000002,63.0049376054244L1285.9199999999998,62.60243946855718L1292.76,66.65273698893463L1299.6,65.23579033938324L1306.44,62.998260368000444L1313.28,63.08133667165583" style="fill: none;" fill="none"></path></g></g></g></g></g></g><g transform="translate(58, 378)" clip-path="url(#clip_1)"><clipPath id="clip_1"><rect width="1368" height="22"></rect></clipPath><g><g><line x1="0" y1="0" x2="0" y2="5" style="visibility: inherit;" fill="rgb(0, 0, 0)" stroke="rgb(204, 204, 204)" stroke-width="1px"></line><line x1="136.8" y1="0" x2="136.8" y2="5" style="visibility: inherit;" fill="rgb(0, 0, 0)" stroke="rgb(204, 204, 204)" stroke-width="1px"></line><line x1="273.6" y1="0" x2="273.6" y2="5" style="visibility: inherit;" fill="rgb(0, 0, 0)" stroke="rgb(204, 204, 204)" stroke-width="1px"></line><line x1="410.4" y1="0" x2="410.4" y2="5" style="visibility: inherit;" fill="rgb(0, 0, 0)" stroke="rgb(204, 204, 204)" stroke-width="1px"></line><line x1="547.2" y1="0" x2="547.2" y2="5" style="visibility: inherit;" fill="rgb(0, 0, 0)" stroke="rgb(204, 204, 204)" stroke-width="1px"></line><line x1="684" y1="0" x2="684" y2="5" style="visibility: inherit;" fill="rgb(0, 0, 0)" stroke="rgb(204, 204, 204)" stroke-width="1px"></line><line x1="820.8" y1="0" x2="820.8" y2="5" style="visibility: inherit;" fill="rgb(0, 0, 0)" stroke="rgb(204, 204, 204)" stroke-width="1px"></line><line x1="957.5999999999999" y1="0" x2="957.5999999999999" y2="5" style="visibility: inherit;" fill="rgb(0, 0, 0)" stroke="rgb(204, 204, 204)" stroke-width="1px"></line><line x1="1094.4" y1="0" x2="1094.4" y2="5" style="visibility: inherit;" fill="rgb(0, 0, 0)" stroke="rgb(204, 204, 204)" stroke-width="1px"></line><line x1="1231.2" y1="0" x2="1231.2" y2="5" style="visibility: inherit;" fill="rgb(0, 0, 0)" stroke="rgb(204, 204, 204)" stroke-width="1px"></line><line x1="1368" y1="0" x2="1368" y2="5" style="visibility: inherit;" fill="rgb(0, 0, 0)" stroke="rgb(204, 204, 204)" stroke-width="1px"></line></g><g transform="translate(0, 8)"><text x="0" y="0" dx="0em" dy="0.95em" style="text-anchor: middle; visibility: hidden; font-family: &quot;Helvetica Neue&quot;, sans-serif; font-size: 12px; font-weight: 200;" fill="rgb(50, 49, 63)" stroke="none" stroke-width="1px">-20</text><text x="136.8" y="0" dx="0em" dy="0.95em" style="text-anchor: middle; visibility: inherit; font-family: &quot;Helvetica Neue&quot;, sans-serif; font-size: 12px; font-weight: 200;" fill="rgb(50, 49, 63)" stroke="none" stroke-width="1px">0</text><text x="273.6" y="0" dx="0em" dy="0.95em" style="text-anchor: middle; visibility: inherit; font-family: &quot;Helvetica Neue&quot;, sans-serif; font-size: 12px; font-weight: 200;" fill="rgb(50, 49, 63)" stroke="none" stroke-width="1px">20</text><text x="410.4" y="0" dx="0em" dy="0.95em" style="text-anchor: middle; visibility: inherit; font-family: &quot;Helvetica Neue&quot;, sans-serif; font-size: 12px; font-weight: 200;" fill="rgb(50, 49, 63)" stroke="none" stroke-width="1px">40</text><text x="547.2" y="0" dx="0em" dy="0.95em" style="text-anchor: middle; visibility: inherit; font-family: &quot;Helvetica Neue&quot;, sans-serif; font-size: 12px; font-weight: 200;" fill="rgb(50, 49, 63)" stroke="none" stroke-width="1px">60</text><text x="684" y="0" dx="0em" dy="0.95em" style="text-anchor: middle; visibility: inherit; font-family: &quot;Helvetica Neue&quot;, sans-serif; font-size: 12px; font-weight: 200;" fill="rgb(50, 49, 63)" stroke="none" stroke-width="1px">80</text><text x="820.8" y="0" dx="0em" dy="0.95em" style="text-anchor: middle; visibility: inherit; font-family: &quot;Helvetica Neue&quot;, sans-serif; font-size: 12px; font-weight: 200;" fill="rgb(50, 49, 63)" stroke="none" stroke-width="1px">100</text><text x="957.5999999999999" y="0" dx="0em" dy="0.95em" style="text-anchor: middle; visibility: inherit; font-family: &quot;Helvetica Neue&quot;, sans-serif; font-size: 12px; font-weight: 200;" fill="rgb(50, 49, 63)" stroke="none" stroke-width="1px">120</text><text x="1094.4" y="0" dx="0em" dy="0.95em" style="text-anchor: middle; visibility: inherit; font-family: &quot;Helvetica Neue&quot;, sans-serif; font-size: 12px; font-weight: 200;" fill="rgb(50, 49, 63)" stroke="none" stroke-width="1px">140</text><text x="1231.2" y="0" dx="0em" dy="0.95em" style="text-anchor: middle; visibility: inherit; font-family: &quot;Helvetica Neue&quot;, sans-serif; font-size: 12px; font-weight: 200;" fill="rgb(50, 49, 63)" stroke="none" stroke-width="1px">160</text><text x="1368" y="0" dx="0em" dy="0.95em" style="text-anchor: middle; visibility: hidden; font-family: &quot;Helvetica Neue&quot;, sans-serif; font-size: 12px; font-weight: 200;" fill="rgb(50, 49, 63)" stroke="none" stroke-width="1px">180</text></g><line x1="0" y1="0" x2="1368" y2="0" fill="rgb(0, 0, 0)" stroke="rgb(204, 204, 204)" stroke-width="1px"></line></g></g></g></g></svg>