<svg viewBox="0 0 1426 400" xmlns="http://www.w3.org/2000/svg"><g><g><g><g><g><line x1="58" y1="378" x2="53" y2="378" style="visibility: inherit;" fill="rgb(0, 0, 0)" stroke="rgb(204, 204, 204)" stroke-width="1px"></line><line x1="58" y1="343.6363636363636" x2="53" y2="343.6363636363636" style="visibility: inherit;" fill="rgb(0, 0, 0)" stroke="rgb(204, 204, 204)" stroke-width="1px"></line><line x1="58" y1="309.27272727272725" x2="53" y2="309.27272727272725" style="visibility: inherit;" fill="rgb(0, 0, 0)" stroke="rgb(204, 204, 204)" stroke-width="1px"></line><line x1="58" y1="274.9090909090909" x2="53" y2="274.9090909090909" style="visibility: inherit;" fill="rgb(0, 0, 0)" stroke="rgb(204, 204, 204)" stroke-width="1px"></line><line x1="58" y1="240.54545454545453" x2="53" y2="240.54545454545453" style="visibility: inherit;" fill="rgb(0, 0, 0)" stroke="rgb(204, 204, 204)" stroke-width="1px"></line><line x1="58" y1="206.1818181818182" x2="53" y2="206.1818181818182" style="visibility: inherit;" fill="rgb(0, 0, 0)" stroke="rgb(204, 204, 204)" stroke-width="1px"></line><line x1="58" y1="171.81818181818184" x2="53" y2="171.81818181818184" style="visibility: inherit;" fill="rgb(0, 0, 0)" stroke="rgb(204, 204, 204)" stroke-width="1px"></line><line x1="58" y1="137.4545454545455" x2="53" y2="137.4545454545455" style="visibility: inherit;" fill="rgb(0, 0, 0)" stroke="rgb(204, 204, 204)" stroke-width="1px"></line><line x1="58" y1="103.09090909090912" x2="53" y2="103.09090909090912" style="visibility: inherit;" fill="rgb(0, 0, 0)" stroke="rgb(204, 204, 204)" stroke-width="1px"></line><line x1="58" y1="68.72727272727275" x2="53" y2="68.72727272727275" style="visibility: inherit;" fill="rgb(0, 0, 0)" stroke="rgb(204, 204, 204)" stroke-width="1px"></line><line x1="58" y1="34.363636363636374" x2="53" y2="34.363636363636374" style="visibility: inherit;" fill="rgb(0, 0, 0)" stroke="rgb(204, 204, 204)" stroke-width="1px"></line><line x1="58" y1="0" x2="53" y2="0" style="visibility: inherit;" fill="rgb(0, 0, 0)" stroke="rgb(204, 204, 204)" stroke-width="1px"></line></g><g transform="translate(48, 0)"><text x="0" y="378" dx="0em" dy="0.3em" style="text-anchor: end; visibility: hidden; font-family: &quot;Helvetica Neue&quot;, sans-serif; font-size: 12px; font-weight: 200;" fill="rgb(50, 49, 63)" stroke="none" stroke-width="1px">-0.1</text><text x="0" y="343.6363636363636" dx="0em" dy="0.3em" style="text-anchor: end; visibility: inherit; font-family: &quot;Helvetica Neue&quot;, sans-serif; font-size: 12px; font-weight: 200;" fill="rgb(50, 49, 63)" stroke="none" stroke-width="1px">0</text><text x="0" y="309.27272727272725" dx="0em" dy="0.3em" style="text-anchor: end; visibility: inherit; font-family: &quot;Helvetica Neue&quot;, sans-serif; font-size: 12px; font-weight: 200;" fill="rgb(50, 49, 63)" stroke="none" stroke-width="1px">0.1</text><text x="0" y="274.9090909090909" dx="0em" dy="0.3em" style="text-anchor: end; visibility: inherit; font-family: &quot;Helvetica Neue&quot;, sans-serif; font-size: 12px; font-weight: 200;" fill="rgb(50, 49, 63)" stroke="none" stroke-width="1px">0.2</text><text x="0" y="240.54545454545453" dx="0em" dy="0.3em" style="text-anchor: end; visibility: inherit; font-family: &quot;Helvetica Neue&quot;, sans-serif; font-size: 12px; font-weight: 200;" fill="rgb(50, 49, 63)" stroke="none" stroke-width="1px">0.3</text><text x="0" y="206.1818181818182" dx="0em" dy="0.3em" style="text-anchor: end; visibility: inherit; font-family: &quot;Helvetica Neue&quot;, sans-serif; font-size: 12px; font-weight: 200;" fill="rgb(50, 49, 63)" stroke="none" stroke-width="1px">0.4</text><text x="0" y="171.81818181818184" dx="0em" dy="0.3em" style="text-anchor: end; visibility: inherit; font-family: &quot;Helvetica Neue&quot;, sans-serif; font-size: 12px; font-weight: 200;" fill="rgb(50, 49, 63)" stroke="none" stroke-width="1px">0.5</text><text x="0" y="137.4545454545455" dx="0em" dy="0.3em" style="text-anchor: end; visibility: inherit; font-family: &quot;Helvetica Neue&quot;, sans-serif; font-size: 12px; font-weight: 200;" fill="rgb(50, 49, 63)" stroke="none" stroke-width="1px">0.6</text><text x="0" y="103.09090909090912" dx="0em" dy="0.3em" style="text-anchor: end; visibility: inherit; font-family: &quot;Helvetica Neue&quot;, sans-serif; font-size: 12px; font-weight: 200;" fill="rgb(50, 49, 63)" stroke="none" stroke-width="1px">0.7</text><text x="0" y="68.72727272727275" dx="0em" dy="0.3em" style="text-anchor: end; visibility: inherit; font-family: &quot;Helvetica Neue&quot;, sans-serif; font-size: 12px; font-weight: 200;" fill="rgb(50, 49, 63)" stroke="none" stroke-width="1px">0.8</text><text x="0" y="34.363636363636374" dx="0em" dy="0.3em" style="text-anchor: end; visibility: inherit; font-family: &quot;Helvetica Neue&quot;, sans-serif; font-size: 12px; font-weight: 200;" fill="rgb(50, 49, 63)" stroke="none" stroke-width="1px">0.9</text><text x="0" y="0" dx="0em" dy="0.3em" style="text-anchor: end; visibility: hidden; font-family: &quot;Helvetica Neue&quot;, sans-serif; font-size: 12px; font-weight: 200;" fill="rgb(50, 49, 63)" stroke="none" stroke-width="1px">1</text></g><line x1="58" y1="0" x2="58" y2="378" fill="rgb(0, 0, 0)" stroke="rgb(204, 204, 204)" stroke-width="1px"></line></g></g><g transform="translate(58, 0)" clip-path="url(#clip_0)"><clipPath id="clip_0"><rect width="1368" height="378"></rect></clipPath><g><g><g><line x1="0" y1="0" x2="0" y2="378" fill="rgb(0, 0, 0)" stroke="rgb(60, 60, 60)" stroke-width="1px" opacity="0.25"></line><line x1="136.8" y1="0" x2="136.8" y2="378" fill="rgb(0, 0, 0)" stroke="rgb(60, 60, 60)" stroke-width="1px" opacity="0.25"></line><line x1="273.6" y1="0" x2="273.6" y2="378" fill="rgb(0, 0, 0)" stroke="rgb(60, 60, 60)" stroke-width="1px" opacity="0.25"></line><line x1="410.4" y1="0" x2="410.4" y2="378" fill="rgb(0, 0, 0)" stroke="rgb(60, 60, 60)" stroke-width="1px" opacity="0.25"></line><line x1="547.2" y1="0" x2="547.2" y2="378" fill="rgb(0, 0, 0)" stroke="rgb(60, 60, 60)" stroke-width="1px" opacity="0.25"></line><line x1="684" y1="0" x2="684" y2="378" fill="rgb(0, 0, 0)" stroke="rgb(60, 60, 60)" stroke-width="1px" opacity="0.25"></line><line x1="820.8" y1="0" x2="820.8" y2="378" fill="rgb(0, 0, 0)" stroke="rgb(60, 60, 60)" stroke-width="1px" opacity="0.25"></line><line x1="957.5999999999999" y1="0" x2="957.5999999999999" y2="378" fill="rgb(0, 0, 0)" stroke="rgb(60, 60, 60)" stroke-width="1px" opacity="0.25"></line><line x1="1094.4" y1="0" x2="1094.4" y2="378" fill="rgb(0, 0, 0)" stroke="rgb(60, 60, 60)" stroke-width="1px" opacity="0.25"></line><line x1="1231.2" y1="0" x2="1231.2" y2="378" fill="rgb(0, 0, 0)" stroke="rgb(60, 60, 60)" stroke-width="1px" opacity="0.25"></line><line x1="1368" y1="0" x2="1368" y2="378" fill="rgb(0, 0, 0)" stroke="rgb(60, 60, 60)" stroke-width="1px" opacity="0.25"></line></g><g><line x1="0" y1="378" x2="1368" y2="378" fill="rgb(0, 0, 0)" stroke="rgb(60, 60, 60)" stroke-width="1px" opacity="0.25"></line><line x1="0" y1="343.6363636363636" x2="1368" y2="343.6363636363636" fill="rgb(0, 0, 0)" stroke="rgb(60, 60, 60)" stroke-width="1px" opacity="0.25"></line><line x1="0" y1="309.27272727272725" x2="1368" y2="309.27272727272725" fill="rgb(0, 0, 0)" stroke="rgb(60, 60, 60)" stroke-width="1px" opacity="0.25"></line><line x1="0" y1="274.9090909090909" x2="1368" y2="274.9090909090909" fill="rgb(0, 0, 0)" stroke="rgb(60, 60, 60)" stroke-width="1px" opacity="0.25"></line><line x1="0" y1="240.54545454545453" x2="1368" y2="240.54545454545453" fill="rgb(0, 0, 0)" stroke="rgb(60, 60, 60)" stroke-width="1px" opacity="0.25"></line><line x1="0" y1="206.1818181818182" x2="1368" y2="206.1818181818182" fill="rgb(0, 0, 0)" stroke="rgb(60, 60, 60)" stroke-width="1px" opacity="0.25"></line><line x1="0" y1="171.81818181818184" x2="1368" y2="171.81818181818184" fill="rgb(0, 0, 0)" stroke="rgb(60, 60, 60)" stroke-width="1px" opacity="0.25"></line><line x1="0" y1="137.4545454545455" x2="1368" y2="137.4545454545455" fill="rgb(0, 0, 0)" stroke="rgb(60, 60, 60)" stroke-width="1px" opacity="0.25"></line><line x1="0" y1="103.09090909090912" x2="1368" y2="103.09090909090912" fill="rgb(0, 0, 0)" stroke="rgb(60, 60, 60)" stroke-width="1px" opacity="0.25"></line><line x1="0" y1="68.72727272727275" x2="1368" y2="68.72727272727275" fill="rgb(0, 0, 0)" stroke="rgb(60, 60, 60)" stroke-width="1px" opacity="0.25"></line><line x1="0" y1="34.363636363636374" x2="1368" y2="34.363636363636374" fill="rgb(0, 0, 0)" stroke="rgb(60, 60, 60)" stroke-width="1px" opacity="0.25"></line><line x1="0" y1="0" x2="1368" y2="0" fill="rgb(0, 0, 0)" stroke="rgb(60, 60, 60)" stroke-width="1px" opacity="0.25"></line></g></g></g><g><g><line x1="0" y1="343.6363636363636" x2="1368" y2="343.6363636363636" fill="rgb(0, 0, 0)" stroke="rgb(153, 153, 153)" stroke-width="1.5px"></line></g></g><g><g><line x1="136.8" y1="0" x2="136.8" y2="378" fill="rgb(0, 0, 0)" stroke="rgb(153, 153, 153)" stroke-width="1.5px"></line></g></g><g><g><g><g><g><path stroke="rgb(204, 51, 17)" stroke-width="2px" d="M136.8,194.28286639126867L143.64,194.66715318235487L150.48,184.6677260120194L157.32,166.39114949433883L164.16,151.81626321058474L171,139.7515511314142L177.84,132.03166122694364L184.68,124.39384127350667L191.52,116.43323081758479L198.35999999999999,110.88273519010102L205.2,109.46149749125715L212.04,106.00459034264577L218.88,104.52299376476225L225.72,102.06725523603563L232.56000000000003,101.93268559945108L239.39999999999998,97.43763397566937L246.23999999999998,95.35554596032819L253.07999999999998,94.41618555676689L259.92,92.63289923551474L266.76,90.27765962647265L273.6,89.19692444357338L280.44,87.31775684615752L287.28,86.72289866119866L294.12,86.187289927927L300.96,86.69078459182208L307.8,85.1383995582853L314.64,83.32186259007699L321.47999999999996,83.61963624651202L328.32,83.07316845777638L335.15999999999997,83.56413041876715L342,83.5954358990951L348.84000000000003,81.39563108934937L355.68,80.15586697553408L362.52000000000004,79.60494384403268L369.36,79.54788634765009L376.20000000000005,81.1418245249485L383.04,81.46530820303565L389.87999999999994,80.2983562074524L396.71999999999997,80.21154047744358L403.56,81.02800806039022L410.4,79.43382039614607L417.24,78.66480298678766L424.08,78.3212396372798L430.92,79.07598476836898L437.76,77.18451523410471L444.6,77.48252770030143L451.44,77.25001735467481L458.28000000000003,76.35134612036245L465.12000000000006,76.1595645490737L471.96,76.43847719310838L478.79999999999995,76.27437162955715L485.64,74.80433818110191L492.47999999999996,73.20664115411955L499.32,73.77722500903678L506.15999999999997,73.5253667346866L513,73.31849069288933L519.84,72.3222113521569L526.6800000000001,72.64679554152713L533.52,73.75647505496346L540.36,72.52097422649558L547.2,71.92189479008101L554.0400000000001,70.85071096934115L560.88,70.58733330601427L567.72,72.37166182061424L574.56,73.01433403625498L581.4,72.98977474336112L588.24,72.68011828964802L595.08,71.82479003763439L601.92,71.9827988238003L608.76,73.44515147750775L615.6,71.92952310627004L622.44,71.92447343275671L629.28,71.22349616986133L636.12,71.0738909505269L642.9599999999999,70.55086113586788L649.8,69.31034100777583L656.64,68.61478505350976L663.48,68.09599843675232L670.3199999999999,67.58298377427064L677.16,66.40837124399633L684,67.75434310085944L690.84,67.39268868799707L697.6800000000001,67.71657685041032L704.52,67.60161847179353L711.36,66.9717227292914L718.2,67.34231588841266L725.0400000000001,68.31791332288697L731.88,67.82131353300548L738.72,66.90368144734288L745.5600000000001,65.77507464412093L752.4000000000001,67.04097026670831L759.2400000000001,67.96866751526346L766.08,67.88428745755289L772.92,68.1206413523588L779.7599999999999,67.33839776612723L786.5999999999999,67.95829337915046L793.4399999999999,66.30701961456805L800.28,68.72911839362155L807.12,67.49707132872555L813.9599999999999,66.65343239809317L820.8,66.5092372373872L827.64,65.69688395065322L834.48,65.17310356520784L841.3199999999999,67.26550833184882L848.16,65.85164565053469L855,65.42964712071193L861.84,68.74391161754215L868.6800000000001,66.45572842083158L875.52,64.68388838667198L882.36,64.16642526826195L889.2,63.58734220832605L896.0400000000001,63.93397276849646L902.88,64.05089488775195L909.72,63.454938423989745L916.5600000000001,64.12418438174205L923.4000000000001,63.4478046270699L930.2400000000001,63.070774920948L937.08,63.09714510927654L943.92,63.47772463006902L950.7599999999999,63.315925046679354L957.5999999999999,64.51969404077784L964.4399999999999,64.91185412061151L971.28,64.24454333444692L978.12,63.63008381164224L984.9599999999999,64.40482151161416L991.8,63.78344555776698L998.64,65.9802667340881L1005.48,64.74332068429055L1012.3199999999999,62.727947253922025L1019.16,61.690651818206845L1026,61.51478101367303L1032.84,61.70837418875914L1039.68,61.34486685181747L1046.52,61.46002623700883L1053.3600000000001,62.39382821099417L1060.2,62.27016365286494L1067.04,61.77129261782204L1073.88,62.4330415747354L1080.72,61.8354611323079L1087.56,63.15646338454059L1094.4,62.39679956864387L1101.24,61.87901357560901L1108.0800000000002,62.408371219442756L1114.9199999999998,62.37172354045083L1121.76,61.458385183924065L1128.6,61.83422507695991L1135.44,62.36516141912017L1142.28,62.34181589659096L1149.12,61.122046977030436L1155.96,62.398477433335756L1162.8,62.523189827546844L1169.6399999999999,63.090617141517725L1176.48,61.77670807704715L1183.32,61.26115441415482L1190.16,62.042604251900286L1197,61.77779733084486L1203.84,61.53160113007988L1210.68,60.63935095452331L1217.52,60.327757942792346L1224.3600000000001,60.44398967944937L1231.2,60.0201129207594L1238.04,62.39920737627108L1244.88,61.21683917539366L1251.72,62.02164365111025L1258.56,61.43701222042637L1265.4,63.21297854266618L1272.24,61.627547605960274L1279.0800000000002,61.65580290585302L1285.9199999999998,60.980134031081775L1292.76,60.44093397692933L1299.6,60.28398439114585L1306.44,61.045910213794684L1313.28,60.265146853624174L1320.12,62.390988110579315L1326.96,63.06098622787272L1333.8,61.81097101612039L1340.6399999999999,60.3242864532225L1347.48,59.81010084559966L1354.32,60.061338607460186L1361.16,61.374813605649365L1368,60.639628214312324L1374.84,59.96593610099228" style="fill: none;" fill="none"></path></g><g><path stroke="rgb(0, 119, 187)" stroke-width="2px" d="M136.8,200.1377385312861L143.64,196.55235902829605L150.48,191.50512788976948L157.32,175.460525561662L164.16,161.90232513955053L171,150.05939866188902L177.84,140.48638675406235L184.68,132.54752810167386L191.52,125.71834175221346L198.35999999999999,120.64244728277822L205.2,116.14178231197025L212.04,113.563194707599L218.88,110.80691091036664L225.72,107.78558018211726L232.56000000000003,105.87510847250633L239.39999999999998,104.45680219293996L246.23999999999998,102.4821339164119L253.07999999999998,101.8463814229022L259.92,100.49682753194458L266.76,99.45871241528226L273.6,98.64556629235324L280.44,97.29131731708617L287.28,96.05424296686533L294.12,95.21687605578308L300.96,94.35166631233108L307.8,93.1654807875397L314.64,92.17925000279894L321.47999999999996,90.74538503125473L328.32,89.90161633526054L335.15999999999997,90.23645801598087L342,89.80636805323758L348.84000000000003,89.64788279047343L355.68,89.21294072210162L362.52000000000004,88.73569853907208L369.36,88.57681883509525L376.20000000000005,88.59539731244871L383.04,88.21178448120338L389.87999999999994,87.36867915789537L396.71999999999997,87.39649519233114L403.56,86.94812137044784L410.4,86.77635534214772L417.24,86.83315616289929L424.08,86.82951640857345L430.92,86.43363772163462L437.76,86.27209173635754L444.6,85.52894684231916L451.44,84.93707009775108L458.28000000000003,84.53789886281317L465.12000000000006,84.83848221784677L471.96,84.91137376944874L478.79999999999995,84.20058087149584L485.64,82.25747920817798L492.47999999999996,81.31430203004868L499.32,80.68221323984585L506.15999999999997,81.26358093254981L513,80.91664160152192L519.84,80.33524910615728L526.6800000000001,80.9113789472122L533.52,80.46839727924367L540.36,80.51417718888803L547.2,80.39081330525681L554.0400000000001,79.80300818232291L560.88,80.51053932462145L567.72,80.63514763804676L574.56,79.99372770657135L581.4,79.83196921401122L588.24,80.12239051937081L595.08,79.1494775272875L601.92,79.78114260886025L608.76,79.47634338801174L615.6,80.18633748949429L622.44,79.46945307713719L629.28,78.70232266658093L636.12,78.86996691184106L642.9599999999999,78.2679278375482L649.8,77.4038141962589L656.64,76.76035468125195L663.48,75.98198512889167L670.3199999999999,75.6570369854133L677.16,74.90509637594317L684,74.92312468853919L690.84,74.49964268393984L697.6800000000001,73.97705480037189L704.52,75.36353491130666L711.36,74.89273901755985L718.2,74.55437751018411L725.0400000000001,74.07616010873835L731.88,74.02297394235705L738.72,73.72816752539848L745.5600000000001,73.55155404189202L752.4000000000001,73.43838436688549L759.2400000000001,73.9694102764895L766.08,73.7555263788509L772.92,74.09830586401489L779.7599999999999,74.88091144733352L786.5999999999999,74.3135694652795L793.4399999999999,74.22481010117309L800.28,74.26842767939786L807.12,75.36272681214814L813.9599999999999,76.08796303978966L820.8,75.36104425550889L827.64,74.41675112051058L834.48,72.82703402878218L841.3199999999999,72.1620291122822L848.16,72.02855080983483L855,71.83445102346809L861.84,71.03303767881698L868.6800000000001,70.9654492216007L875.52,71.38227462141981L882.36,70.79038251154094L889.2,70.88900444498773L896.0400000000001,70.50886454013386L902.88,70.63147893824441L909.72,70.15200845981775L916.5600000000001,70.49169154515948L923.4000000000001,70.43006687113478L930.2400000000001,70.15597230533967L937.08,69.99979861744009L943.92,70.35903231113906L950.7599999999999,70.07107605387256L957.5999999999999,70.47210229979015L964.4399999999999,70.97410526546929L971.28,71.1005518617435L978.12,70.40131954498855L984.9599999999999,70.56676350378206L991.8,71.17006708588127L998.64,71.33827007004629L1005.48,71.05798305060603L1012.3199999999999,69.54749767934601L1019.16,68.53647624065036L1026,68.17615921969042L1032.84,68.00708654383266L1039.68,68.04779845554935L1046.52,68.13100167776906L1053.3600000000001,68.36129095084203L1060.2,68.18352877291443L1067.04,68.2793679080857L1073.88,67.71361886732677L1080.72,68.05004514997762L1087.56,68.11583274884725L1094.4,68.61520720455911L1101.24,68.01433881969479L1108.0800000000002,67.87500230256188L1114.9199999999998,68.15211049297625L1121.76,68.16848576468283L1128.6,68.28250860323828L1135.44,68.18835000918864L1142.28,68.44639779653994L1149.12,67.90191898389048L1155.96,68.39808855602809L1162.8,68.11579644444117L1169.6399999999999,68.05834478540197L1176.48,67.94442695402705L1183.32,66.7711450307259L1190.16,66.80902924394383L1197,66.54596581719869L1203.84,66.79543105108525L1210.68,66.53976501159934L1217.52,66.08969941597837L1224.3600000000001,66.02767853491866L1231.2,65.67035187054063L1238.04,66.3352947866116L1244.88,66.21672138185465L1251.72,66.25372400648098L1258.56,66.14098803478686L1265.4,66.2096604103719L1272.24,65.72481222772393L1279.0800000000002,65.6931521817022L1285.9199999999998,65.83345127953027L1292.76,65.93530288684497L1299.6,65.89727940604331L1306.44,66.58019605923658L1313.28,66.92377995368491L1320.12,66.77501259071346L1326.96,66.36053384220054L1333.8,66.17725894105973L1340.6399999999999,66.89214993486513L1347.48,66.8587411418107L1354.32,65.81530886736789L1361.16,65.4664818462025L1368,65.08262708067468L1374.84,64.82401584336714" style="fill: none;" fill="none"></path></g></g></g></g><g opacity="0.2"><g><g><g><path stroke="rgb(204, 51, 17)" stroke-width="2px" d="M136.8,194.28286639126867L143.64,194.89772525700658L150.48,175.06827592849734L157.32,144.8978955095465L164.16,132.78729167851534L171,123.06171102957296L177.84,120.99209514531225L184.68,113.25782645832413L191.52,104.69287666407502L198.35999999999999,102.64089606025004L205.2,107.34253146431666L212.04,100.83804195577449L218.88,102.30543656782675L225.72,98.38845849037176L232.56000000000003,101.73098932613027L239.39999999999998,90.69822679866445L246.23999999999998,92.23329500718552L253.07999999999998,93.00738345492971L259.92,89.95824141935873L266.76,86.74501549113882L273.6,87.57588093931025L280.44,84.49906728484416L287.28,85.83062312819743L294.12,85.3838831728155L300.96,87.44602300904018L307.8,82.80982862819326L314.64,80.59706178578466L321.47999999999996,84.06629627401179L328.32,82.25346727804708L335.15999999999997,84.30057308890605L342,83.64239410920578L348.84000000000003,78.09592431241816L355.68,78.29622095281428L362.52000000000004,78.77855918624186L369.36,79.46230010552841L376.20000000000005,83.53273174979472L383.04,81.95053371516144L389.87999999999994,78.54792822491044L396.71999999999997,80.08131688291377L403.56,82.25270943208176L410.4,77.04253890297633L417.24,77.51127687367529L424.08,77.80589461326605L430.92,80.20810246467596L437.76,74.34731093319982L444.6,77.92954639955002L451.44,76.90125183625656L458.28000000000003,75.0033392689445L465.12000000000006,75.87189219214702L471.96,76.85684615915471L478.79999999999995,76.02821328423244L485.64,72.59928800842982L492.47999999999996,70.810095613653L499.32,74.63310079141098L506.15999999999997,73.14757932316178L513,73.00817663019353L519.84,70.82779234105891L526.6800000000001,73.13367182558233L533.52,75.42099432511765L540.36,70.6677229837938L547.2,71.02327563545924L554.0400000000001,69.24393523823136L560.88,70.19226681102413L567.72,75.0481545925141L574.56,73.97834235971624L581.4,72.95293580402029L588.24,72.21563360907817L595.08,70.5417976596139L601.92,72.21981200304901L608.76,75.6386804580689L615.6,69.6560805494135L622.44,71.91689892248678L629.28,70.17203027551824L636.12,70.84948312152522L642.9599999999999,69.76631641387945L649.8,67.44956081563777L656.64,67.57145112211055L663.48,67.31781851161617L670.3199999999999,66.81346178054815L677.16,64.64645244858485L684,69.77330088615423L690.84,66.85020706870341L697.6800000000001,68.2024090940302L704.52,67.42918090386826L711.36,66.02687911553818L718.2,67.89820562709468L725.0400000000001,69.78130947459834L731.88,67.07641384818339L738.72,65.52723331884908L745.5600000000001,64.08216443928808L752.4000000000001,68.9398137005893L759.2400000000001,69.36021338809627L766.08,67.757717370987L772.92,68.47517219456762L779.7599999999999,66.16503238677984L786.5999999999999,68.88813679868525L793.4399999999999,63.8301089676944L800.28,72.3622665622018L807.12,65.64900073138153L813.9599999999999,65.38797400214457L820.8,66.29294449632818L827.64,64.47835402055222L834.48,64.38743298703974L841.3199999999999,70.40411548181015L848.16,63.73085162856364L855,64.79664932597774L861.84,73.71530836278743L868.6800000000001,63.02345362576574L875.52,62.02612833543259L882.36,63.39023059064692L889.2,62.71871761842209L896.0400000000001,64.45391860875219L902.88,64.22627806663519L909.72,62.56100372834641L916.5600000000001,65.12805331837052L923.4000000000001,62.433234995061696L930.2400000000001,62.505230361765086L937.08,63.136700391769466L943.92,64.04859391125768L950.7599999999999,63.0732256715948L957.5999999999999,66.32534753192562L964.4399999999999,65.50009424036199L971.28,63.243577155199944L978.12,62.70839452743536L984.9599999999999,65.56692806157201L991.8,62.85138162699616L998.64,69.2754984985699L1005.48,62.88790160959417L1012.3199999999999,59.70488710836935L1019.16,60.13470866463405L1026,61.25097480687231L1032.84,61.9987639513883L1039.68,60.799605846405086L1046.52,61.63276531479579L1053.3600000000001,63.794531171972096L1060.2,62.084666815671085L1067.04,61.022986065257726L1073.88,63.42566501010555L1080.72,60.93909046866679L1087.56,65.13796676288956L1094.4,61.25730384479874L1101.24,61.10233458605683L1108.0800000000002,63.20240768519318L1114.9199999999998,62.31675202196294L1121.76,60.08837764913386L1128.6,62.39798491651362L1135.44,63.16156593236059L1142.28,62.3067976127972L1149.12,59.29239359768957L1155.96,64.31312311779374L1162.8,62.710258418863475L1169.6399999999999,63.94175811247396L1176.48,59.805844480341136L1183.32,60.48782391981649L1190.16,63.21477900851863L1197,61.38058694926178L1203.84,61.162306828932344L1210.68,59.30097569118851L1217.52,59.86036842519587L1224.3600000000001,60.61833728443497L1231.2,59.38429778272456L1238.04,65.96784905953842L1244.88,59.44328687407756L1251.72,63.228850364685115L1258.56,60.560065074400484L1265.4,65.87692802602595L1272.24,59.249401200901445L1279.0800000000002,61.69818585569209L1285.9199999999998,59.96663071892482L1292.76,59.63213389570063L1299.6,60.04856001247066L1306.44,62.18879894776779L1313.28,59.09400181336838L1320.12,65.57974999601191L1326.96,64.06598340381282L1333.8,59.93594819849187L1340.6399999999999,58.09425960887569L1347.48,59.0388224341653L1354.32,60.43819525025111L1361.16,63.34502610293305L1368,59.53685012730688L1374.84,58.95539793101227" style="fill: none;" fill="none"></path></g><g><path stroke="rgb(0, 119, 187)" stroke-width="2px" d="M136.8,200.1377385312861L143.64,194.40113132650205L150.48,186.65978599678388L157.32,156.5920732238076L164.16,144.2007386684418L171,133.6763678897511L177.84,126.79682655767965L184.68,120.97259597344834L191.52,115.64661838791591L198.35999999999999,113.10533556071198L205.2,109.43160555579448L212.04,109.70934586091477L218.88,106.6814849593423L225.72,103.25950319116765L232.56000000000003,103.01164659586823L239.39999999999998,102.33034307306463L246.23999999999998,99.52096711505544L253.07999999999998,100.8929141001268L259.92,98.47270228646022L266.76,97.90163462812251L273.6,97.42589170282537L280.44,95.25998841632497L287.28,94.1986558654092L294.12,93.96083560856908L300.96,93.05385784669357L307.8,91.38620755889201L314.64,90.69990634918219L321.47999999999996,88.59458977525884L328.32,88.6359640684995L335.15999999999997,90.73872035199946L342,89.16123325174505L348.84000000000003,89.41015492786062L355.68,88.56052767146718L362.52000000000004,88.0198352987116L369.36,88.33849928595805L376.20000000000005,88.62326502799993L383.04,87.63636524027044L389.87999999999994,86.10402118075979L396.71999999999997,87.4382192438299L403.56,86.27556063912135L410.4,86.51870630004191L417.24,86.91835739395839L424.08,86.82405677708715L430.92,85.83981969139796L437.76,86.02977275848394L444.6,84.41422950137746L451.44,84.04925498095429L458.28000000000003,83.93914201042872L465.12000000000006,85.28935725038701L471.96,85.02071109685033L478.79999999999995,83.134391524575L485.64,79.34282671321523L492.47999999999996,79.89953626285904L499.32,79.73408005454326L506.15999999999997,82.13563247160482L513,80.39623260498053L519.84,79.46316036311066L526.6800000000001,81.77557370879435L533.52,79.80392477729106L540.36,80.58284705335444L547.2,80.20576747980988L554.0400000000001,78.92130049792206L560.88,81.5718360380693L567.72,80.82206010818487L574.56,79.03159780935812L581.4,79.5893314751712L588.24,80.55802247741008L595.08,77.6901080391624L601.92,80.72864023121923L608.76,79.01914455673915L615.6,81.25132864171809L622.44,78.39412645860153L629.28,77.55162705074662L636.12,79.1214332797311L642.9599999999999,77.36486922610891L649.8,76.10764373432511L656.64,75.79516540874135L663.48,74.81443080035126L670.3199999999999,75.16961477019572L677.16,73.77718546173793L684,74.95016715743327L690.84,73.86441967704081L697.6800000000001,73.19317297501999L704.52,77.4432550777089L711.36,74.18654517693955L718.2,74.04683524912053L725.0400000000001,73.35883400656962L731.88,73.94319469278508L738.72,73.28595789996064L745.5600000000001,73.28663381663239L752.4000000000001,73.26862985437566L759.2400000000001,74.76594914089554L766.08,73.43470053239304L772.92,74.61247509176081L779.7599999999999,76.05481982231146L786.5999999999999,73.46255649219864L793.4399999999999,74.09167105501348L800.28,74.33385404673493L807.12,77.0041755112735L813.9599999999999,77.17581738125199L820.8,74.27066607908773L827.64,73.00031141801315L834.48,70.44245839118963L841.3199999999999,71.1645217375322L848.16,71.82833335616374L855,71.5433013439179L861.84,69.83091766184026L868.6800000000001,70.86406653577632L875.52,72.00751272114843L882.36,69.90254434672272L889.2,71.03693734515798L896.0400000000001,69.93865468285304L902.88,70.8154005354101L909.72,69.43280274217778L916.5600000000001,71.00121617317205L923.4000000000001,70.3376298600977L930.2400000000001,69.74483045664704L937.08,69.76553808559078L943.92,70.89788285168737L950.7599999999999,69.63914166797298L957.5999999999999,71.07364166866654L964.4399999999999,71.72710971398789L971.28,71.29022175615484L978.12,69.35247106985616L984.9599999999999,70.81492944197225L991.8,72.07502245903021L998.64,71.5905745462938L1005.48,70.63755252144557L1012.3199999999999,67.28176962245601L1019.16,67.01994408260697L1026,67.63568368825048L1032.84,67.75347753004598L1039.68,68.10886632312435L1046.52,68.25580651109868L1053.3600000000001,68.70672486045146L1060.2,67.9168855060231L1067.04,68.42312661084264L1073.88,66.8649953061884L1080.72,68.5546845739538L1087.56,68.21451414715165L1094.4,69.36426888812679L1101.24,67.11303624239838L1108.0800000000002,67.66599752686244L1114.9199999999998,68.56777277859777L1121.76,68.19304867224264L1128.6,68.45354286107153L1135.44,68.04711211811417L1142.28,68.83346947756684L1149.12,67.08520076491618L1155.96,69.14234291423458L1162.8,67.6923582770608L1169.6399999999999,67.97216729684311L1176.48,67.77355020696467L1183.32,65.01122214577418L1190.16,66.86585556377071L1197,66.15137067708105L1203.84,67.16962890191513L1210.68,66.1562659523704L1217.52,65.41460102254695L1224.3600000000001,65.93464721332901L1231.2,65.13436187397355L1238.04,67.33270916071808L1244.88,66.0388612747193L1251.72,66.30922794342047L1258.56,65.97188407724553L1265.4,66.31266897374934L1272.24,64.99753995375204L1279.0800000000002,65.64566211266953L1285.9199999999998,66.04389992627233L1292.76,66.08808029781693L1299.6,65.84024418484086L1306.44,67.60457103902644L1313.28,67.43915579535746L1320.12,66.55186154625636L1326.96,65.7388157194311L1333.8,65.90234658934855L1340.6399999999999,67.96448642557317L1347.48,66.80862795222896L1354.32,64.25016045570379L1361.16,64.94324131445455L1368,64.50684493238276L1374.84,64.43609898740596" style="fill: none;" fill="none"></path></g></g></g></g></g></g><g transform="translate(58, 378)" clip-path="url(#clip_1)"><clipPath id="clip_1"><rect width="1368" height="22"></rect></clipPath><g><g><line x1="0" y1="0" x2="0" y2="5" style="visibility: inherit;" fill="rgb(0, 0, 0)" stroke="rgb(204, 204, 204)" stroke-width="1px"></line><line x1="136.8" y1="0" x2="136.8" y2="5" style="visibility: inherit;" fill="rgb(0, 0, 0)" stroke="rgb(204, 204, 204)" stroke-width="1px"></line><line x1="273.6" y1="0" x2="273.6" y2="5" style="visibility: inherit;" fill="rgb(0, 0, 0)" stroke="rgb(204, 204, 204)" stroke-width="1px"></line><line x1="410.4" y1="0" x2="410.4" y2="5" style="visibility: inherit;" fill="rgb(0, 0, 0)" stroke="rgb(204, 204, 204)" stroke-width="1px"></line><line x1="547.2" y1="0" x2="547.2" y2="5" style="visibility: inherit;" fill="rgb(0, 0, 0)" stroke="rgb(204, 204, 204)" stroke-width="1px"></line><line x1="684" y1="0" x2="684" y2="5" style="visibility: inherit;" fill="rgb(0, 0, 0)" stroke="rgb(204, 204, 204)" stroke-width="1px"></line><line x1="820.8" y1="0" x2="820.8" y2="5" style="visibility: inherit;" fill="rgb(0, 0, 0)" stroke="rgb(204, 204, 204)" stroke-width="1px"></line><line x1="957.5999999999999" y1="0" x2="957.5999999999999" y2="5" style="visibility: inherit;" fill="rgb(0, 0, 0)" stroke="rgb(204, 204, 204)" stroke-width="1px"></line><line x1="1094.4" y1="0" x2="1094.4" y2="5" style="visibility: inherit;" fill="rgb(0, 0, 0)" stroke="rgb(204, 204, 204)" stroke-width="1px"></line><line x1="1231.2" y1="0" x2="1231.2" y2="5" style="visibility: inherit;" fill="rgb(0, 0, 0)" stroke="rgb(204, 204, 204)" stroke-width="1px"></line><line x1="1368" y1="0" x2="1368" y2="5" style="visibility: inherit;" fill="rgb(0, 0, 0)" stroke="rgb(204, 204, 204)" stroke-width="1px"></line></g><g transform="translate(0, 8)"><text x="0" y="0" dx="0em" dy="0.95em" style="text-anchor: middle; visibility: hidden; font-family: &quot;Helvetica Neue&quot;, sans-serif; font-size: 12px; font-weight: 200;" fill="rgb(50, 49, 63)" stroke="none" stroke-width="1px">-20</text><text x="136.8" y="0" dx="0em" dy="0.95em" style="text-anchor: middle; visibility: inherit; font-family: &quot;Helvetica Neue&quot;, sans-serif; font-size: 12px; font-weight: 200;" fill="rgb(50, 49, 63)" stroke="none" stroke-width="1px">0</text><text x="273.6" y="0" dx="0em" dy="0.95em" style="text-anchor: middle; visibility: inherit; font-family: &quot;Helvetica Neue&quot;, sans-serif; font-size: 12px; font-weight: 200;" fill="rgb(50, 49, 63)" stroke="none" stroke-width="1px">20</text><text x="410.4" y="0" dx="0em" dy="0.95em" style="text-anchor: middle; visibility: inherit; font-family: &quot;Helvetica Neue&quot;, sans-serif; font-size: 12px; font-weight: 200;" fill="rgb(50, 49, 63)" stroke="none" stroke-width="1px">40</text><text x="547.2" y="0" dx="0em" dy="0.95em" style="text-anchor: middle; visibility: inherit; font-family: &quot;Helvetica Neue&quot;, sans-serif; font-size: 12px; font-weight: 200;" fill="rgb(50, 49, 63)" stroke="none" stroke-width="1px">60</text><text x="684" y="0" dx="0em" dy="0.95em" style="text-anchor: middle; visibility: inherit; font-family: &quot;Helvetica Neue&quot;, sans-serif; font-size: 12px; font-weight: 200;" fill="rgb(50, 49, 63)" stroke="none" stroke-width="1px">80</text><text x="820.8" y="0" dx="0em" dy="0.95em" style="text-anchor: middle; visibility: inherit; font-family: &quot;Helvetica Neue&quot;, sans-serif; font-size: 12px; font-weight: 200;" fill="rgb(50, 49, 63)" stroke="none" stroke-width="1px">100</text><text x="957.5999999999999" y="0" dx="0em" dy="0.95em" style="text-anchor: middle; visibility: inherit; font-family: &quot;Helvetica Neue&quot;, sans-serif; font-size: 12px; font-weight: 200;" fill="rgb(50, 49, 63)" stroke="none" stroke-width="1px">120</text><text x="1094.4" y="0" dx="0em" dy="0.95em" style="text-anchor: middle; visibility: inherit; font-family: &quot;Helvetica Neue&quot;, sans-serif; font-size: 12px; font-weight: 200;" fill="rgb(50, 49, 63)" stroke="none" stroke-width="1px">140</text><text x="1231.2" y="0" dx="0em" dy="0.95em" style="text-anchor: middle; visibility: inherit; font-family: &quot;Helvetica Neue&quot;, sans-serif; font-size: 12px; font-weight: 200;" fill="rgb(50, 49, 63)" stroke="none" stroke-width="1px">160</text><text x="1368" y="0" dx="0em" dy="0.95em" style="text-anchor: middle; visibility: hidden; font-family: &quot;Helvetica Neue&quot;, sans-serif; font-size: 12px; font-weight: 200;" fill="rgb(50, 49, 63)" stroke="none" stroke-width="1px">180</text></g><line x1="0" y1="0" x2="1368" y2="0" fill="rgb(0, 0, 0)" stroke="rgb(204, 204, 204)" stroke-width="1px"></line></g></g></g></g></svg>