<svg viewBox="0 0 1426 400" xmlns="http://www.w3.org/2000/svg"><g><g><g><g><g><line x1="58" y1="378" x2="53" y2="378" style="visibility: inherit;" fill="rgb(0, 0, 0)" stroke="rgb(204, 204, 204)" stroke-width="1px"></line><line x1="58" y1="348.9230769230769" x2="53" y2="348.9230769230769" style="visibility: inherit;" fill="rgb(0, 0, 0)" stroke="rgb(204, 204, 204)" stroke-width="1px"></line><line x1="58" y1="319.8461538461538" x2="53" y2="319.8461538461538" style="visibility: inherit;" fill="rgb(0, 0, 0)" stroke="rgb(204, 204, 204)" stroke-width="1px"></line><line x1="58" y1="290.7692307692308" x2="53" y2="290.7692307692308" style="visibility: inherit;" fill="rgb(0, 0, 0)" stroke="rgb(204, 204, 204)" stroke-width="1px"></line><line x1="58" y1="261.6923076923077" x2="53" y2="261.6923076923077" style="visibility: inherit;" fill="rgb(0, 0, 0)" stroke="rgb(204, 204, 204)" stroke-width="1px"></line><line x1="58" y1="232.61538461538464" x2="53" y2="232.61538461538464" style="visibility: inherit;" fill="rgb(0, 0, 0)" stroke="rgb(204, 204, 204)" stroke-width="1px"></line><line x1="58" y1="203.53846153846155" x2="53" y2="203.53846153846155" style="visibility: inherit;" fill="rgb(0, 0, 0)" stroke="rgb(204, 204, 204)" stroke-width="1px"></line><line x1="58" y1="174.46153846153848" x2="53" y2="174.46153846153848" style="visibility: inherit;" fill="rgb(0, 0, 0)" stroke="rgb(204, 204, 204)" stroke-width="1px"></line><line x1="58" y1="145.38461538461542" x2="53" y2="145.38461538461542" style="visibility: inherit;" fill="rgb(0, 0, 0)" stroke="rgb(204, 204, 204)" stroke-width="1px"></line><line x1="58" y1="116.30769230769232" x2="53" y2="116.30769230769232" style="visibility: inherit;" fill="rgb(0, 0, 0)" stroke="rgb(204, 204, 204)" stroke-width="1px"></line><line x1="58" y1="87.23076923076928" x2="53" y2="87.23076923076928" style="visibility: inherit;" fill="rgb(0, 0, 0)" stroke="rgb(204, 204, 204)" stroke-width="1px"></line><line x1="58" y1="58.15384615384613" x2="53" y2="58.15384615384613" style="visibility: inherit;" fill="rgb(0, 0, 0)" stroke="rgb(204, 204, 204)" stroke-width="1px"></line><line x1="58" y1="29.076923076923038" x2="53" y2="29.076923076923038" style="visibility: inherit;" fill="rgb(0, 0, 0)" stroke="rgb(204, 204, 204)" stroke-width="1px"></line><line x1="58" y1="0" x2="53" y2="0" style="visibility: inherit;" fill="rgb(0, 0, 0)" stroke="rgb(204, 204, 204)" stroke-width="1px"></line></g><g transform="translate(48, 0)"><text x="0" y="378" dx="0em" dy="0.3em" style="text-anchor: end; visibility: hidden; font-family: &quot;Helvetica Neue&quot;, sans-serif; font-size: 12px; font-weight: 200;" fill="rgb(50, 49, 63)" stroke="none" stroke-width="1px">-0.1</text><text x="0" y="348.9230769230769" dx="0em" dy="0.3em" style="text-anchor: end; visibility: inherit; font-family: &quot;Helvetica Neue&quot;, sans-serif; font-size: 12px; font-weight: 200;" fill="rgb(50, 49, 63)" stroke="none" stroke-width="1px">0</text><text x="0" y="319.8461538461538" dx="0em" dy="0.3em" style="text-anchor: end; visibility: inherit; font-family: &quot;Helvetica Neue&quot;, sans-serif; font-size: 12px; font-weight: 200;" fill="rgb(50, 49, 63)" stroke="none" stroke-width="1px">0.1</text><text x="0" y="290.7692307692308" dx="0em" dy="0.3em" style="text-anchor: end; visibility: inherit; font-family: &quot;Helvetica Neue&quot;, sans-serif; font-size: 12px; font-weight: 200;" fill="rgb(50, 49, 63)" stroke="none" stroke-width="1px">0.2</text><text x="0" y="261.6923076923077" dx="0em" dy="0.3em" style="text-anchor: end; visibility: inherit; font-family: &quot;Helvetica Neue&quot;, sans-serif; font-size: 12px; font-weight: 200;" fill="rgb(50, 49, 63)" stroke="none" stroke-width="1px">0.3</text><text x="0" y="232.61538461538464" dx="0em" dy="0.3em" style="text-anchor: end; visibility: inherit; font-family: &quot;Helvetica Neue&quot;, sans-serif; font-size: 12px; font-weight: 200;" fill="rgb(50, 49, 63)" stroke="none" stroke-width="1px">0.4</text><text x="0" y="203.53846153846155" dx="0em" dy="0.3em" style="text-anchor: end; visibility: inherit; font-family: &quot;Helvetica Neue&quot;, sans-serif; font-size: 12px; font-weight: 200;" fill="rgb(50, 49, 63)" stroke="none" stroke-width="1px">0.5</text><text x="0" y="174.46153846153848" dx="0em" dy="0.3em" style="text-anchor: end; visibility: inherit; font-family: &quot;Helvetica Neue&quot;, sans-serif; font-size: 12px; font-weight: 200;" fill="rgb(50, 49, 63)" stroke="none" stroke-width="1px">0.6</text><text x="0" y="145.38461538461542" dx="0em" dy="0.3em" style="text-anchor: end; visibility: inherit; font-family: &quot;Helvetica Neue&quot;, sans-serif; font-size: 12px; font-weight: 200;" fill="rgb(50, 49, 63)" stroke="none" stroke-width="1px">0.7</text><text x="0" y="116.30769230769232" dx="0em" dy="0.3em" style="text-anchor: end; visibility: inherit; font-family: &quot;Helvetica Neue&quot;, sans-serif; font-size: 12px; font-weight: 200;" fill="rgb(50, 49, 63)" stroke="none" stroke-width="1px">0.8</text><text x="0" y="87.23076923076928" dx="0em" dy="0.3em" style="text-anchor: end; visibility: inherit; font-family: &quot;Helvetica Neue&quot;, sans-serif; font-size: 12px; font-weight: 200;" fill="rgb(50, 49, 63)" stroke="none" stroke-width="1px">0.9</text><text x="0" y="58.15384615384613" dx="0em" dy="0.3em" style="text-anchor: end; visibility: inherit; font-family: &quot;Helvetica Neue&quot;, sans-serif; font-size: 12px; font-weight: 200;" fill="rgb(50, 49, 63)" stroke="none" stroke-width="1px">1</text><text x="0" y="29.076923076923038" dx="0em" dy="0.3em" style="text-anchor: end; visibility: inherit; font-family: &quot;Helvetica Neue&quot;, sans-serif; font-size: 12px; font-weight: 200;" fill="rgb(50, 49, 63)" stroke="none" stroke-width="1px">1.1</text><text x="0" y="0" dx="0em" dy="0.3em" style="text-anchor: end; visibility: hidden; font-family: &quot;Helvetica Neue&quot;, sans-serif; font-size: 12px; font-weight: 200;" fill="rgb(50, 49, 63)" stroke="none" stroke-width="1px">1.2</text></g><line x1="58" y1="0" x2="58" y2="378" fill="rgb(0, 0, 0)" stroke="rgb(204, 204, 204)" stroke-width="1px"></line></g></g><g transform="translate(58, 0)" clip-path="url(#clip_0)"><clipPath id="clip_0"><rect width="1368" height="378"></rect></clipPath><g><g><g><line x1="0" y1="0" x2="0" y2="378" fill="rgb(0, 0, 0)" stroke="rgb(60, 60, 60)" stroke-width="1px" opacity="0.25"></line><line x1="114" y1="0" x2="114" y2="378" fill="rgb(0, 0, 0)" stroke="rgb(60, 60, 60)" stroke-width="1px" opacity="0.25"></line><line x1="228" y1="0" x2="228" y2="378" fill="rgb(0, 0, 0)" stroke="rgb(60, 60, 60)" stroke-width="1px" opacity="0.25"></line><line x1="342" y1="0" x2="342" y2="378" fill="rgb(0, 0, 0)" stroke="rgb(60, 60, 60)" stroke-width="1px" opacity="0.25"></line><line x1="456" y1="0" x2="456" y2="378" fill="rgb(0, 0, 0)" stroke="rgb(60, 60, 60)" stroke-width="1px" opacity="0.25"></line><line x1="570" y1="0" x2="570" y2="378" fill="rgb(0, 0, 0)" stroke="rgb(60, 60, 60)" stroke-width="1px" opacity="0.25"></line><line x1="684" y1="0" x2="684" y2="378" fill="rgb(0, 0, 0)" stroke="rgb(60, 60, 60)" stroke-width="1px" opacity="0.25"></line><line x1="798" y1="0" x2="798" y2="378" fill="rgb(0, 0, 0)" stroke="rgb(60, 60, 60)" stroke-width="1px" opacity="0.25"></line><line x1="912" y1="0" x2="912" y2="378" fill="rgb(0, 0, 0)" stroke="rgb(60, 60, 60)" stroke-width="1px" opacity="0.25"></line><line x1="1026" y1="0" x2="1026" y2="378" fill="rgb(0, 0, 0)" stroke="rgb(60, 60, 60)" stroke-width="1px" opacity="0.25"></line><line x1="1140" y1="0" x2="1140" y2="378" fill="rgb(0, 0, 0)" stroke="rgb(60, 60, 60)" stroke-width="1px" opacity="0.25"></line><line x1="1254" y1="0" x2="1254" y2="378" fill="rgb(0, 0, 0)" stroke="rgb(60, 60, 60)" stroke-width="1px" opacity="0.25"></line><line x1="1368" y1="0" x2="1368" y2="378" fill="rgb(0, 0, 0)" stroke="rgb(60, 60, 60)" stroke-width="1px" opacity="0.25"></line></g><g><line x1="0" y1="378" x2="1368" y2="378" fill="rgb(0, 0, 0)" stroke="rgb(60, 60, 60)" stroke-width="1px" opacity="0.25"></line><line x1="0" y1="348.9230769230769" x2="1368" y2="348.9230769230769" fill="rgb(0, 0, 0)" stroke="rgb(60, 60, 60)" stroke-width="1px" opacity="0.25"></line><line x1="0" y1="319.8461538461538" x2="1368" y2="319.8461538461538" fill="rgb(0, 0, 0)" stroke="rgb(60, 60, 60)" stroke-width="1px" opacity="0.25"></line><line x1="0" y1="290.7692307692308" x2="1368" y2="290.7692307692308" fill="rgb(0, 0, 0)" stroke="rgb(60, 60, 60)" stroke-width="1px" opacity="0.25"></line><line x1="0" y1="261.6923076923077" x2="1368" y2="261.6923076923077" fill="rgb(0, 0, 0)" stroke="rgb(60, 60, 60)" stroke-width="1px" opacity="0.25"></line><line x1="0" y1="232.61538461538464" x2="1368" y2="232.61538461538464" fill="rgb(0, 0, 0)" stroke="rgb(60, 60, 60)" stroke-width="1px" opacity="0.25"></line><line x1="0" y1="203.53846153846155" x2="1368" y2="203.53846153846155" fill="rgb(0, 0, 0)" stroke="rgb(60, 60, 60)" stroke-width="1px" opacity="0.25"></line><line x1="0" y1="174.46153846153848" x2="1368" y2="174.46153846153848" fill="rgb(0, 0, 0)" stroke="rgb(60, 60, 60)" stroke-width="1px" opacity="0.25"></line><line x1="0" y1="145.38461538461542" x2="1368" y2="145.38461538461542" fill="rgb(0, 0, 0)" stroke="rgb(60, 60, 60)" stroke-width="1px" opacity="0.25"></line><line x1="0" y1="116.30769230769232" x2="1368" y2="116.30769230769232" fill="rgb(0, 0, 0)" stroke="rgb(60, 60, 60)" stroke-width="1px" opacity="0.25"></line><line x1="0" y1="87.23076923076928" x2="1368" y2="87.23076923076928" fill="rgb(0, 0, 0)" stroke="rgb(60, 60, 60)" stroke-width="1px" opacity="0.25"></line><line x1="0" y1="58.15384615384613" x2="1368" y2="58.15384615384613" fill="rgb(0, 0, 0)" stroke="rgb(60, 60, 60)" stroke-width="1px" opacity="0.25"></line><line x1="0" y1="29.076923076923038" x2="1368" y2="29.076923076923038" fill="rgb(0, 0, 0)" stroke="rgb(60, 60, 60)" stroke-width="1px" opacity="0.25"></line><line x1="0" y1="0" x2="1368" y2="0" fill="rgb(0, 0, 0)" stroke="rgb(60, 60, 60)" stroke-width="1px" opacity="0.25"></line></g></g></g><g><g><line x1="0" y1="348.9230769230769" x2="1368" y2="348.9230769230769" fill="rgb(0, 0, 0)" stroke="rgb(153, 153, 153)" stroke-width="1.5px"></line></g></g><g><g><line x1="114" y1="0" x2="114" y2="378" fill="rgb(0, 0, 0)" stroke="rgb(153, 153, 153)" stroke-width="1.5px"></line></g></g><g><g><g><g><g><path stroke="rgb(0, 153, 136)" stroke-width="2px" d="M114,80.14264600093543L115.14,79.19066502956241L116.28000000000002,81.10217886442666L117.42,84.23577639231314L118.56,85.48647563314819L119.69999999999999,86.18777862989259L120.84,88.35175581025464L121.98,90.13238565102279L123.11999999999999,92.10527753700228L124.26,94.38259267900719L125.39999999999999,94.59221722629172L126.53999999999999,94.1269649342891L127.68,96.22568483368133L128.82,97.81951819277282L129.96,99.00168538719572L131.10000000000002,97.03931215823707L132.24,100.80172103316676L133.38,101.28206823678005L134.51999999999998,102.6602013891993L135.66,102.02099039467095L136.8,104.12539195823257L137.94,104.37589666879461L139.08,105.53925542800778L140.22,105.18147795957583L141.35999999999999,107.59560208948733L142.5,108.30540144599149L143.64,113.65157047241343L144.78,112.47555439296599L145.92000000000002,112.4940636703493L147.06,114.42383018725775L148.20000000000002,112.67118531725646L149.34,112.05776589417718L150.48,110.12168457293268L151.62,110.4340957567835L152.76,115.65208877287836L153.9,115.89088315985975L155.04,115.37429180279054L156.18,113.12654974403165L157.32,111.63341779305063L158.46,105.61485281851134L159.6,114.50300757977107L160.73999999999998,114.89999640355762L161.88,116.41295467604402L163.02,116.00357255390287L164.16,116.78161388078075L165.3,111.40476122909888L166.44,112.10549672953931L167.57999999999998,115.03778996412933L168.72,116.31860303627633L169.85999999999999,119.92316790946495L171,118.22692177609673L172.14,122.44288354146286L173.28,122.87417954727462L174.42000000000002,124.02513249508254L175.56,122.65230051063136L176.70000000000002,123.2887269130004L177.84,122.23765327526257L178.98,120.54937627953291L180.11999999999998,124.30283580172369L181.26000000000002,116.29055185745648L182.4,113.66499197996404L183.54,118.13373759467692L184.68,117.5814065383172L185.82,122.15212302942393L186.95999999999998,122.43310010983905L188.10000000000002,120.73651683294162L189.24,117.53763680252843L190.38,121.44183351613668L191.52,120.66658710802L192.66,119.66460197876842L193.79999999999998,122.06651214005504L194.93999999999997,125.72343093897078L196.08,123.96299828001503L197.22,120.62055279649792L198.35999999999999,123.41172296812326L199.5,122.64860507668553L200.64000000000001,122.32412216419416L201.78,120.44513819291399L202.92000000000002,120.57018327427124L204.06,123.89652202874831L205.2,122.03503174898961L206.34000000000003,125.26066302663233L207.48000000000002,128.15081048758213L208.62,126.267795020694L209.76,123.38146895383909L210.9,127.59068969432965L212.04,126.09235500834444L213.17999999999998,127.24729511648269L214.32000000000002,126.07814687931906L215.46,126.27224406085423L216.6,128.96425685069477L217.74,128.78814669488014L218.88,126.02287674889922L220.01999999999998,121.46032338339432L221.15999999999997,118.84153779148073L222.3,121.25078477739697L223.44,125.57019200766652L224.57999999999998,125.71372855304725L225.72,123.52709280334417L226.85999999999999,123.2012772438492L228,123.98253255994663L229.14000000000001,124.81766031560997L230.28,124.31259167511195L231.42,126.01144236057814L232.56000000000003,126.72607033366774L233.70000000000002,127.58432110451395L234.84,124.4445658591782L235.98,126.55550502665292L237.12,127.10660899696754L238.26,126.68999177182368L239.39999999999998,126.82112058746836L240.54000000000002,128.0578476436892L241.68,128.07227864459597L242.82,125.9994535875966L243.96,129.38944810365L245.1,128.31903926342574L246.23999999999998,133.29468057592467L247.38000000000002,130.46528941966793L248.52,129.0477060673375L249.66,129.0704542608014L250.79999999999998,122.04478806322524L251.94,129.38265523674588L253.07999999999998,128.41822281329107L254.22,123.03394140510719L255.36,125.9952337495256L256.5,125.90717239000702L257.64,128.6764783220282L258.78000000000003,126.60925490873723L259.92,122.94284448524152L261.06,122.74539617185312L262.20000000000005,124.74757241345307L263.34000000000003,129.5346334332591L264.48,129.80166535288902L265.62,126.52851897626687L266.76,127.602006563748L267.9,128.72848871302907L269.03999999999996,126.36614296178638L270.18,131.83497456285957L271.32,131.85719050923532L272.46,131.69144722015773L273.6,133.61720704229268L274.74,130.505334086368L275.88,129.5910032507522L277.02000000000004,130.8563432570497L278.16,132.23990015612472L279.3,133.73465795954542L280.44,134.95624380814394L281.58,135.26878901243015L282.71999999999997,131.77899668168905L283.86,131.50029377211723L285,133.90318451152612L286.14,130.5392692711458L287.28,133.97344632948625L288.42,140.40579546234585L289.56,137.94256254234702L290.7,134.13469989418263L291.84000000000003,133.14356896288143L292.98,134.69814597326533L294.12,136.35518368751L295.26,135.730741867979L296.40000000000003,136.74926235512015L297.54,129.38195824121354L298.68,129.15621065058795L299.82,130.06679687246006L300.96,130.0408724901659L302.09999999999997,129.50667833295498L303.24,133.50735604721376L304.38,134.22979780502268L305.52,130.7202561608062L306.65999999999997,128.9530233110115L307.8,131.69947402636194L308.94,135.71078588617755L310.08,135.31378052541288L311.22,129.35625466420683L312.36,127.77417511632245L313.5,133.85335157723273L314.64,132.19348348990934L315.78000000000003,132.439946007548L316.92,135.93821420915478L318.06,136.15676108434485L319.2,134.75013372010952L320.34,138.3385484682553L321.47999999999996,133.824396861844L322.62,133.8747620478174L323.76,132.56212537579222L324.9,134.73032351191333L326.04,134.8852204772699L327.18,141.86486218437454L328.32,142.36716822791274L329.46000000000004,142.37482966464583L330.6,137.95912560282477L331.74,136.7523103851347L332.88,138.8929987461635L334.02,138.74341468190454L335.15999999999997,136.16586107761995L336.29999999999995,137.34553309026472L337.44,137.02289266616592L338.58,139.12967121876034L339.71999999999997,142.80362738810956L340.86,141.37703912137044L342,136.19115702959903L343.14000000000004,139.24411260553924L344.28,131.010613216388L345.42,133.0216683651191L346.56,133.41809573800458L347.7,135.60135126269975L348.84000000000003,131.8843216465265L349.98,136.80116357419377L351.12,134.62951881618466L352.26,129.36394794267198L353.40000000000003,127.93064009650996L354.53999999999996,128.47141816687486L355.68,128.94404594354202L356.81999999999994,130.58965362919332L357.96,135.01222780831438L359.1,134.32591899236402L360.23999999999995,131.7827639286356L361.38,130.3369132892915L362.52000000000004,133.32935850994483L363.65999999999997,134.7859383543166L364.8,132.95503412007287L365.94,138.55316200171384L367.08,138.64155178899406L368.21999999999997,132.90570945797194L369.36,129.6404276675223L370.5,129.24879601103115L371.64,134.81160145563652L372.78000000000003,134.31151304993082L373.91999999999996,131.58983428230178L375.06,133.14125417303754L376.20000000000005,133.09677568133625L377.34,133.64764031801195L378.48,133.23819325769705L379.62000000000006,134.8798854109241L380.76,135.97274927375736L381.90000000000003,138.588688331849L383.04,138.63999040741584L384.18,138.18714807475766L385.32,140.86231457938928L386.46,142.24672595572116L387.59999999999997,139.10540218667404L388.74,136.35728555721084L389.87999999999994,132.19625168370578L391.02,136.25361750550266L392.16,133.95414540141982L393.29999999999995,138.61794748701138L394.44,141.9911183982479L395.58000000000004,141.82209076011196L396.71999999999997,139.7319609494449L397.86,136.2286819486835L399,131.8200293206125L400.14,133.4217088483771L401.28000000000003,139.1537870453826L402.42,139.97406830114315L403.56,139.13060491377962L404.7,135.95417075442953L405.84000000000003,139.8920916933921L406.97999999999996,137.0253358934861L408.12,137.38850612323577L409.26000000000005,132.91628140186083" style="fill: none;" fill="none"></path></g><g><path stroke="rgb(238, 51, 119)" stroke-width="2px" d="M114,71.54588715846717L115.14,76.42233348122011L116.28000000000002,79.71327904292514L117.42,81.08051791267968L118.56,82.34375238773674L119.69999999999999,82.59054420398036L120.84,84.761042581173L121.98,87.137396991505L123.11999999999999,89.41775869628913L124.26,90.69578255409954L125.39999999999999,91.91963971459978L126.53999999999999,92.87241505370093L127.68,94.4443258491969L128.82,96.00841206573887L129.96,97.35397678082222L131.10000000000002,98.2001248201708L132.24,98.77951428400854L133.38,100.35273324895138L134.51999999999998,100.3715261635756L135.66,99.6696102243011L136.8,101.86927495481791L137.94,101.85980581652035L139.08,103.85423656658446L140.22,104.1827889094368L141.35999999999999,103.95598317700325L142.5,105.63408438931327L143.64,106.45407119799057L144.78,107.18472733631637L145.92000000000002,109.24347036957568L147.06,109.99453742072222L148.20000000000002,110.79682757306676L149.34,110.45747231204962L150.48,109.42682829111129L151.62,111.22814047450464L152.76,112.01580868272731L153.9,111.58643865298978L155.04,111.51352560119841L156.18,111.09669949613419L157.32,113.33195290789826L158.46,112.06211163632383L159.6,112.00146175637337L160.73999999999998,115.45136683326928L161.88,116.16094265318486L163.02,115.53914902069965L164.16,116.11520543056952L165.3,115.61066782042997L166.44,115.42487537234467L167.57999999999998,114.99804144812629L168.72,115.87814662011544L169.85999999999999,115.68678481531765L171,116.36132748539228L172.14,116.47348168950612L173.28,115.69926835435825L174.42000000000002,116.72083501146346L175.56,117.38501988816279L176.70000000000002,118.41572434287121L177.84,116.72556228892171L178.98,116.00434841602117L180.11999999999998,116.82755645814217L181.26000000000002,114.976182149527L182.4,115.04051668858568L183.54,115.71036119113L184.68,118.369462154941L185.82,119.25496759113304L186.95999999999998,117.2877570075513L188.10000000000002,116.45508059847987L189.24,116.5542883968593L190.38,118.46261501885903L191.52,118.9651158000446L192.66,117.22439123800359L193.79999999999998,115.29465124283502L194.93999999999997,117.8891638483293L196.08,118.45780602213932L197.22,117.36433566007418L198.35999999999999,117.31585053715077L199.5,118.40358871197174L200.64000000000001,117.60734357177347L201.78,118.89143741800638L202.92000000000002,117.98444185842237L204.06,121.32819347586042L205.2,121.66572056966356L206.34000000000003,121.22981793139775L207.48000000000002,121.4702709949508L208.62,122.2953191723935L209.76,122.07087464353057L210.9,122.41821623667755L212.04,121.09418984684612L213.17999999999998,121.92379033456973L214.32000000000002,121.52722621449118L215.46,118.7848951552225L216.6,119.45640022085655L217.74,121.66866633197213L218.88,123.44961807897784L220.01999999999998,122.83573201024728L221.15999999999997,122.52323455233511L222.3,123.06109518731961L223.44,123.29146401975214L224.57999999999998,123.40727954810288L225.72,122.84711955610172L226.85999999999999,124.55563336432087L228,122.99100331694407L229.14000000000001,124.5981156931459L230.28,126.31196430912297L231.42,125.23453307824815L232.56000000000003,126.22065227252125L233.70000000000002,127.53304507057689L234.84,126.35073478330588L235.98,124.97914438202861L237.12,126.1229967364043L238.26,125.50470578280232L239.39999999999998,124.72735624262592L240.54000000000002,124.61814248274644L241.68,125.5961602432184L242.82,123.75667961714126L243.96,125.26592564748205L245.1,126.7486159811406L246.23999999999998,126.93578291365668L247.38000000000002,124.3404856707404L248.52,123.99397460504105L249.66,124.25122342040382L250.79999999999998,122.87219854680075L251.94,123.32733377417043L253.07999999999998,122.47806740898417L254.22,126.20131962770722L255.36,124.24087178549789L256.5,122.98441509922702L257.64,123.70894069431594L258.78000000000003,124.36241734874193L259.92,124.75544615849864L261.06,122.15511708967739L262.20000000000005,123.27376806170534L263.34000000000003,125.47659968807159L264.48,126.38700163601007L265.62,124.81974496066394L266.76,125.33631374334269L267.9,126.35682714564734L269.03999999999996,127.94237200461018L270.18,127.35405086395764L271.32,127.842529374787L272.46,127.67252690515036L273.6,128.25155826439052L274.74,127.71048288179577L275.88,127.70436425036235L277.02000000000004,127.62412384443033L278.16,126.77024533326954L279.3,129.48654686197958L280.44,131.28001746590738L281.58,129.06098872227187L282.71999999999997,126.89025628174053L283.86,129.71251685016944L285,130.65367845650673L286.14,132.05759355995752L287.28,132.39082138742762L288.42,132.44475315033233L289.56,133.20713687596177L290.7,130.8913745955994L291.84000000000003,132.05064301579188L292.98,131.68755911293252L294.12,130.5106696699831L295.26,132.23327445154945L296.40000000000003,130.83956162615567L297.54,128.05291571538785L298.68,128.63529397990837L299.82,131.25667444802474L300.96,131.78542291163618L302.09999999999997,130.71856102554145L303.24,129.97865779569787L304.38,129.90391887509986L305.52,129.80127944794717L306.65999999999997,129.8781027285945L307.8,131.18713486631555L308.94,128.38356833903515L310.08,130.32711477473643L311.22,130.33044412142428L312.36,129.96561655231764L313.5,131.0797802020815L314.64,132.65921995605964L315.78000000000003,131.5343707783209L316.92,132.09021887495626L318.06,136.82530403187118L319.2,137.49140779085027L320.34,133.96447945686117L321.47999999999996,132.9729992709138L322.62,133.29601986454318L323.76,132.60990656623616L324.9,134.11985235384884L326.04,129.10685566050876L327.18,131.50334766038563L328.32,133.38901165855296L329.46000000000004,136.72755182363474L330.6,134.90887668110435L331.74,134.63617548892478L332.88,135.68180782801576L334.02,135.9239771208794L335.15999999999997,135.64908729856384L336.29999999999995,134.54446285194953L337.44,137.0861709961288L338.58,137.09147177034575L339.71999999999997,139.19320365494102L340.86,137.40909606363817L342,135.65331439600715L343.14000000000004,131.25449461640864L344.28,130.38066936535347L345.42,129.35324957418223L346.56,129.8403581838521L347.7,131.22114035528102L348.84000000000003,131.34480534770657L349.98,129.85175808948804L351.12,129.16810517717917L352.26,131.96306175989545L353.40000000000003,131.08199266976314L354.53999999999996,130.0419283981601L355.68,130.34544855072517L356.81999999999994,131.94829589141676L357.96,132.29545392539524L359.1,130.66824329692744L360.23999999999995,132.76599287545784L361.38,131.59189027008154L362.52000000000004,132.8575420943304L363.65999999999997,133.34511069965478L364.8,135.7223036631518L365.94,136.12279977284695L367.08,135.46188907461752L368.21999999999997,136.45775872940558L369.36,135.31325954848603L370.5,135.06585041674415L371.64,134.44888029827604L372.78000000000003,134.61266546540128L373.91999999999996,134.2452126476419L375.06,131.85461862698097L376.20000000000005,133.2612751692963L377.34,133.72333111403364L378.48,133.5212115097476L379.62000000000006,133.26736302481075L380.76,134.27605000412362L381.90000000000003,132.44670046228015L383.04,131.77627007372195L384.18,132.88014136217706L385.32,135.01043729415983L386.46,134.71252275687402L387.59999999999997,135.60464788187716L388.74,136.11340622591024L389.87999999999994,135.15448214931288L391.02,137.290579563929L392.16,135.389030977634L393.29999999999995,136.01974528106896L394.44,135.17660179410854L395.58000000000004,134.6889481208729L396.71999999999997,134.36164499615748L397.86,135.7330570408182L399,135.41391705389296L400.14,134.0473917896478L401.28000000000003,133.73498259816756L402.42,136.51256514918094L403.56,138.50987710279074L404.7,136.93299894808993L405.84000000000003,134.9964565555089L406.97999999999996,134.33676840322673L408.12,137.98873969359897L409.26000000000005,136.14201706820643" style="fill: none;" fill="none"></path></g></g></g></g><g opacity="0.2"><g><g><g><path stroke="rgb(0, 153, 136)" stroke-width="2px" d="M114,80.14264600093543L115.14,78.61947644673859L116.28000000000002,82.9372321458963L117.42,87.92088708510767L118.56,87.11938856198236L119.69999999999999,87.157933143469L120.84,91.44627780180713L121.98,92.72856105290924L123.11999999999999,95.01490985430206L124.26,97.76414025746857L125.39999999999999,94.90475276800305L126.53999999999999,93.43161837871259L127.68,99.36691199816192L128.82,100.20714574593768L129.96,100.77354658566986L131.10000000000002,94.0971363324386L132.24,106.44374222021838L133.38,102.00246708209698L134.51999999999998,104.72719117311334L135.66,101.06223232929528L136.8,107.28187889319202L137.94,104.7516454916734L139.08,107.28427059833825L140.22,104.64481599514306L141.35999999999999,111.21677112579346L142.5,109.37009745377765L143.64,121.6708103326651L144.78,110.71153207925653L145.92000000000002,112.5218275693747L147.06,117.31847889606775L148.20000000000002,110.04221859345068L149.34,111.13763688160827L150.48,107.21756282219519L151.62,110.90271251018231L152.76,123.479078072768L153.9,116.24907473417431L155.04,114.59940477517938L156.18,109.75493667675903L157.32,109.39371987489557L158.46,96.5870053768158L159.6,127.83523970383865L160.73999999999998,115.49547963875995L161.88,118.68239208368158L163.02,115.3894993708684L164.16,117.94867587089539L165.3,103.33948225241443L166.44,113.15659998013427L167.57999999999998,119.43622981584991L168.72,118.2398226444538L169.85999999999999,125.33001521917492L171,115.68255257606506L172.14,128.76682618948132L173.28,123.52112355599039L174.42000000000002,125.7515619167915L175.56,120.59305253395667L176.70000000000002,124.24336651655346L177.84,120.66104281865631L178.98,118.01696078593915L180.11999999999998,129.9330250850091L181.26000000000002,104.27212594105652L182.4,109.72665216372565L183.54,124.83685601674594L184.68,116.75290995377765L185.82,129.00819776608398L186.95999999999998,122.8545657304617L188.10000000000002,118.19164191759552L189.24,112.73931675690875L190.38,127.29812858654907L191.52,119.50371749584497L192.66,118.16162428489099L193.79999999999998,125.66937738198502L194.93999999999997,131.20880913734436L196.08,121.32234929158142L197.22,115.60688457122217L198.35999999999999,127.59847822556131L199.5,121.50392823952899L200.64000000000001,121.83739779545715L201.78,117.62666223599365L202.92000000000002,120.75775089630713L204.06,128.8860301604638L205.2,119.24279632935156L206.34000000000003,130.09910994309647L207.48000000000002,132.48603167900674L208.62,123.44327182036182L209.76,119.05197985355676L210.9,133.90452080506546L212.04,123.8448529793666L213.17999999999998,128.97970527869006L214.32000000000002,124.32442452357367L215.46,126.56338983315689L216.6,133.0022760354556L217.74,128.52398146115817L218.88,121.87497182992792L220.01999999999998,114.61649333513702L221.15999999999997,114.91335940361023L222.3,124.86465525627136L223.44,132.0493028530708L224.57999999999998,125.92903337111844L225.72,120.24713917878961L226.85999999999999,122.71255390460675L228,125.15441553409283L229.14000000000001,126.07035194910489L230.28,123.5549887143649L231.42,128.55971838877753L232.56000000000003,127.79801229330212L233.70000000000002,128.8716972607833L234.84,119.73493299117456L235.98,129.72191377786493L237.12,127.93326495243957L238.26,126.06506593410788L239.39999999999998,127.0178138109354L240.54000000000002,129.9129382280203L241.68,128.0939251459562L242.82,122.8902160020975L243.96,134.47443987773016L245.1,126.71342600308932L246.23999999999998,140.75814254467306L247.38000000000002,126.2212026852828L248.52,126.92133103884183L249.66,129.10457655099725L250.79999999999998,111.50628876686096L251.94,140.38945599702691L253.07999999999998,126.9715741781088L254.22,114.95751929283142L255.36,130.43717226615323L256.5,125.77508035072916L257.64,132.83043722005993L258.78000000000003,123.50841978880078L259.92,117.44322884999787L261.06,122.4492237017705L262.20000000000005,127.75083677585309L263.34000000000003,136.71522496296814L264.48,130.20221323233386L265.62,121.61879941133355L266.76,129.21223794496976L267.9,130.41821193695068L269.03999999999996,122.82262433492221L270.18,140.03822196446933L271.32,131.89051442879898L272.46,131.4428322865413L273.6,136.50584677549512L274.74,125.83752465248108L275.88,128.21950699732855L277.02000000000004,132.75435326649597L278.16,134.31523550473727L279.3,135.9767946646764L280.44,136.7886225810418L281.58,135.7376068188594L282.71999999999997,126.54430818557739L283.86,131.08223940775946L285,137.50752062063953L286.14,125.49339641057529L287.28,139.1247119169969L288.42,150.0543191616352L289.56,134.24771316234884L290.7,128.42290592193604L291.84000000000003,131.65687256592972L292.98,137.03001148884115L294.12,138.8407402588771L295.26,134.79407913868246L296.40000000000003,138.2770430858319L297.54,118.33100207035363L298.68,128.81758926464965L299.82,131.43267620526828L300.96,130.00198591672458L302.09999999999997,128.70538709713867L303.24,139.5083726186019L304.38,135.3134604417361L305.52,125.45594369448148L306.65999999999997,126.30217403631946L307.8,135.81915009938754L308.94,141.727753675901L310.08,134.71827248426587L311.22,120.41996587239777L312.36,125.40105579449585L313.5,142.97211626859814L314.64,129.70368135892429L315.78000000000003,132.809639784006L316.92,141.185616511565L318.06,136.48458139712994L319.2,132.64019267375653L320.34,143.72117059047406L321.47999999999996,127.05316945222711L322.62,133.95030982677756L323.76,130.59317036775445L324.9,137.98262071609497L326.04,135.11756592530472L327.18,152.33432474503152L328.32,143.12062729321994L329.46000000000004,142.3863218197456L330.6,131.3355695100931L331.74,134.94208755859964L332.88,142.10403128770685L334.02,138.51903858551614L335.15999999999997,132.29953067119305L336.29999999999995,139.11504110923184L337.44,136.53893203001758L338.58,142.28983904765204L339.71999999999997,148.3145616421333L340.86,139.23715672126187L342,128.41233389194196L343.14000000000004,143.82354596944958L344.28,118.66036413266113L345.42,136.03825108821576L346.56,134.01273679733276L347.7,138.8762345497425L348.84000000000003,126.30877722226657L349.98,144.17642646569473L351.12,131.37205167917108L352.26,121.46559163240289L353.40000000000003,125.780678327267L354.53999999999996,129.2825852724222L355.68,129.65298760854282L356.81999999999994,133.05806515767028L357.96,141.64608907699585L359.1,133.2964557684385L360.23999999999995,127.96803133304303L361.38,128.16813733027533L362.52000000000004,137.8180263409248L363.65999999999997,136.9708081208743L364.8,130.20867776870728L365.94,146.95035382417535L367.08,138.77413646991437L368.21999999999997,124.30194596143872L369.36,124.74250498184793L370.5,128.66134852629443L371.64,143.1558096225445L372.78000000000003,133.56138044137222L373.91999999999996,127.50731613085821L375.06,135.46838400914123L376.20000000000005,133.0300579437843L377.34,134.4739372730255L378.48,132.6240226672246L379.62000000000006,137.3424236407647L380.76,137.61204506800726L381.90000000000003,142.51259691898642L383.04,138.71694352076605L384.18,137.50788457577048L385.32,144.8750643363366L386.46,144.32334302021906L387.59999999999997,134.39341653310336L388.74,132.23511061301602L389.87999999999994,125.9547008734483L391.02,142.3396662381979L392.16,130.50493724529562L393.29999999999995,145.6136506153987L394.44,147.0508747651027L395.58000000000004,141.5685493029081L396.71999999999997,136.5967662334442L397.86,130.9737634475415L399,125.20705037850601L400.14,135.82422814002408L401.28000000000003,147.75190434089077L402.42,141.20449018478394L403.56,137.86540983273437L404.7,131.18951951540433L405.84000000000003,145.798973101836L406.97999999999996,132.72520219362698L408.12,137.93326146786032L409.26000000000005,126.2079443197984" style="fill: none;" fill="none"></path></g><g><path stroke="rgb(238, 51, 119)" stroke-width="2px" d="M114,71.54588715846717L115.14,79.34820127487183L116.28000000000002,82.87258678216199L117.42,82.68839082351099L118.56,83.9930313183711L119.69999999999999,82.93194613089929L120.84,87.86488998853241L121.98,90.6021445347713L123.11999999999999,92.78084927338824L124.26,92.59349903693567L125.39999999999999,93.74432516098022L126.53999999999999,94.29639310103198L127.68,96.79705948096057L128.82,98.35147718282849L129.96,99.37074219263519L131.10000000000002,99.46875011003937L132.24,99.64835330156183L133.38,102.71216225624084L134.51999999999998,100.3997126726004L135.66,98.61680047328656L136.8,105.16865141575158L137.94,101.84560242066016L139.08,106.84584331512451L140.22,104.67561353169953L141.35999999999999,103.61577619039093L142.5,108.15122905144324L143.64,107.68404931288501L144.78,108.28071042207574L145.92000000000002,112.33158302307129L147.06,111.1211375823388L148.20000000000002,112.0002625355354L149.34,109.94843948804413L150.48,107.88086238274207L151.62,113.93010862057031L152.76,113.19731096120984L153.9,110.9423836194552L155.04,111.40415602463946L156.18,110.47146034240723L157.32,116.68483301309442L158.46,110.15734973320593L159.6,111.91048693656921L160.73999999999998,120.62622444446271L161.88,117.22530638254608L163.02,114.60645857224097L164.16,116.97929004522473L165.3,114.85386140529931L166.44,115.14618670023407L167.57999999999998,114.35779056182275L168.72,117.1983043780694L169.85999999999999,115.399742108125L171,117.37314149049615L172.14,116.6417129956759L173.28,114.53794835164001L174.42000000000002,118.25318499711847L175.56,118.38129720321069L176.70000000000002,119.96178102493286L177.84,114.19031920799841L178.98,114.92252760667071L180.11999999999998,118.06236852132355L181.26000000000002,112.19912068660443L182.4,115.13701849717364L183.54,116.71512794494629L184.68,122.35811360065756L185.82,120.5832257454212L186.95999999999998,114.33694113217865L188.10000000000002,115.20606598487268L189.24,116.70310009442841L190.38,121.32510495185852L191.52,119.71886697182288L192.66,114.61330439494208L193.79999999999998,112.40004125008215L194.93999999999997,121.78093275657068L196.08,119.31076928285455L197.22,115.72413011697626L198.35999999999999,117.24312285276562L199.5,120.03519597420325L200.64000000000001,116.41297586147607L201.78,120.81757818735565L202.92000000000002,116.62394851904651L204.06,126.34382090201748L205.2,122.17201121036825L206.34000000000003,120.57596397399902L207.48000000000002,121.8309505902804L208.62,123.53289143855756L209.76,121.7342078502362L210.9,122.93922862639798L212.04,119.10815026209906L213.17999999999998,123.16819106615506L214.32000000000002,120.93238003437341L215.46,114.6713985663194L216.6,120.4636578193078L217.74,124.9870654986455L218.88,126.12104569948636L220.01999999999998,121.91490290715149L221.15999999999997,122.0544883654668L222.3,123.86788613979635L223.44,123.63701726840094L224.57999999999998,123.581002840629L225.72,122.00687956809998L226.85999999999999,127.1184040766496L228,120.64405824587897L229.14000000000001,127.00878425744867L230.28,128.8827372330886L231.42,123.61838623193597L232.56000000000003,127.69983106393082L233.70000000000002,129.5016342676603L234.84,124.57726935239941L235.98,122.92175878011264L237.12,127.8387752679678L238.26,124.57726935239941L239.39999999999998,123.56133193236133L240.54000000000002,124.45432184292724L241.68,127.06318688392639L242.82,120.99745867802551L243.96,127.52979469299316L245.1,128.97265148162842L246.23999999999998,127.21653331243076L247.38000000000002,120.44753980636597L248.52,123.47420800649203L249.66,124.63709664344788L250.79999999999998,120.80366123639618L251.94,124.010036615225L253.07999999999998,121.2041678612049L254.22,131.78619795579178L255.36,121.30020002218396L256.5,121.09973006982074L257.64,124.79572908694928L258.78000000000003,125.34263233038098L259.92,125.34498937313376L261.06,118.25462348644555L262.20000000000005,124.95174451974725L263.34000000000003,128.780847127621L264.48,127.75260455791769L265.62,122.46885994764477L266.76,126.11116691736078L267.9,127.88759724910443L269.03999999999996,130.32068929305447L270.18,126.47156915297879L271.32,128.57524714103116L272.46,127.41752320069534L273.6,129.12010530325085L274.74,126.8988698079036L275.88,127.6951863032121L277.02000000000004,127.50376323553235L278.16,125.48942756652832L279.3,133.56099915504456L280.44,133.9702233717992L281.58,125.73244560681857L282.71999999999997,123.63415762094354L283.86,133.94590770281278L285,132.06542086601257L286.14,134.16346621513367L287.28,132.8906631286328L288.42,132.52565079468948L289.56,134.35071246440594L290.7,127.41773117505588L291.84000000000003,133.7895456460806L292.98,131.14293325864352L294.12,128.7453355055589L295.26,134.81718162389905L296.40000000000003,128.74899238806506L297.54,123.87294684923611L298.68,129.50886137668905L299.82,135.1887451501993L300.96,132.57854560705334L302.09999999999997,129.1182681963994L303.24,128.86880295093243L304.38,129.79181049420288L305.52,129.64732030721814L306.65999999999997,129.9933376495655L307.8,133.15068307289712L308.94,124.1782185481145L310.08,133.2424344282884L311.22,130.33543814145602L312.36,129.4183751986577L313.5,132.7510256767273L314.64,135.02837958702676L315.78000000000003,129.84709701171292L316.92,132.9239910199092L318.06,143.9279317672436L319.2,138.49056342931897L320.34,128.67408695587747L321.47999999999996,131.48577899199267L322.62,133.7805507549873L323.76,131.58073661877563L324.9,136.38477103526776L326.04,121.58736062049866L327.18,135.09808566020087L328.32,136.21750765580398L329.46000000000004,141.73536207125738L330.6,132.18086396730862L331.74,134.22712370065545L332.88,137.25025633665234L334.02,136.28723106017483L335.15999999999997,135.23675256509048L336.29999999999995,132.88752618202798L337.44,140.89873321239767L338.58,137.09942293167114L339.71999999999997,142.34580148183383L340.86,134.7329346766839L342,133.0196418945606L343.14000000000004,124.65626494701092L344.28,129.06993148877075L345.42,127.81211988742535L346.56,130.571021098357L347.7,133.29231361242444L348.84000000000003,131.53030283634482L349.98,127.61218720216019L351.12,128.14262580871582L352.26,136.15549663396985L353.40000000000003,129.7603890345647L354.53999999999996,128.48183199075555L355.68,130.80072877957275L356.81999999999994,134.3525669024541L357.96,132.81619097636298L359.1,128.22742735422574L360.23999999999995,135.9126172432533L361.38,129.83073636201715L362.52000000000004,134.75601983070374L363.65999999999997,134.0764636076414L364.8,139.28809310839728L365.94,136.72354393738968L367.08,134.47052302727334L368.21999999999997,137.9515632115878L369.36,133.59651077710666L370.5,134.69473671913147L371.64,133.5234251205738L372.78000000000003,134.85834321608914L373.91999999999996,133.69403342100293L375.06,128.26872759598953L376.20000000000005,135.37125998276932L377.34,134.41641503113968L378.48,133.21803210331848L379.62000000000006,132.88659029740555L380.76,135.78908047309292L381.90000000000003,129.70267614951504L383.04,130.77062449088467L384.18,134.53594829485968L385.32,138.205881192134L386.46,134.26565095094537L387.59999999999997,136.9428355693817L388.74,136.87654374195984L389.87999999999994,133.71609603441678L391.02,140.49472568585327L392.16,132.53670809819153L393.29999999999995,136.9658167362213L394.44,133.91188656366788L395.58000000000004,133.95746761101944L396.71999999999997,133.8706903090844L397.86,137.79017510780923L399,134.93520707350513L400.14,131.99760389328003L401.28000000000003,133.26636881094714L402.42,140.67893897570096L403.56,141.5058450332055L404.7,134.56768171603863L405.84000000000003,132.09164296663724L406.97999999999996,133.34723617480353L408.12,143.46669662915744L409.26000000000005,133.37193313011758" style="fill: none;" fill="none"></path></g></g></g></g></g></g><g transform="translate(58, 378)" clip-path="url(#clip_1)"><clipPath id="clip_1"><rect width="1368" height="22"></rect></clipPath><g><g><line x1="0" y1="0" x2="0" y2="5" style="visibility: inherit;" fill="rgb(0, 0, 0)" stroke="rgb(204, 204, 204)" stroke-width="1px"></line><line x1="114" y1="0" x2="114" y2="5" style="visibility: inherit;" fill="rgb(0, 0, 0)" stroke="rgb(204, 204, 204)" stroke-width="1px"></line><line x1="228" y1="0" x2="228" y2="5" style="visibility: inherit;" fill="rgb(0, 0, 0)" stroke="rgb(204, 204, 204)" stroke-width="1px"></line><line x1="342" y1="0" x2="342" y2="5" style="visibility: inherit;" fill="rgb(0, 0, 0)" stroke="rgb(204, 204, 204)" stroke-width="1px"></line><line x1="456" y1="0" x2="456" y2="5" style="visibility: inherit;" fill="rgb(0, 0, 0)" stroke="rgb(204, 204, 204)" stroke-width="1px"></line><line x1="570" y1="0" x2="570" y2="5" style="visibility: inherit;" fill="rgb(0, 0, 0)" stroke="rgb(204, 204, 204)" stroke-width="1px"></line><line x1="684" y1="0" x2="684" y2="5" style="visibility: inherit;" fill="rgb(0, 0, 0)" stroke="rgb(204, 204, 204)" stroke-width="1px"></line><line x1="798" y1="0" x2="798" y2="5" style="visibility: inherit;" fill="rgb(0, 0, 0)" stroke="rgb(204, 204, 204)" stroke-width="1px"></line><line x1="912" y1="0" x2="912" y2="5" style="visibility: inherit;" fill="rgb(0, 0, 0)" stroke="rgb(204, 204, 204)" stroke-width="1px"></line><line x1="1026" y1="0" x2="1026" y2="5" style="visibility: inherit;" fill="rgb(0, 0, 0)" stroke="rgb(204, 204, 204)" stroke-width="1px"></line><line x1="1140" y1="0" x2="1140" y2="5" style="visibility: inherit;" fill="rgb(0, 0, 0)" stroke="rgb(204, 204, 204)" stroke-width="1px"></line><line x1="1254" y1="0" x2="1254" y2="5" style="visibility: inherit;" fill="rgb(0, 0, 0)" stroke="rgb(204, 204, 204)" stroke-width="1px"></line><line x1="1368" y1="0" x2="1368" y2="5" style="visibility: inherit;" fill="rgb(0, 0, 0)" stroke="rgb(204, 204, 204)" stroke-width="1px"></line></g><g transform="translate(0, 8)"><text x="0" y="0" dx="0em" dy="0.95em" style="text-anchor: middle; visibility: hidden; font-family: &quot;Helvetica Neue&quot;, sans-serif; font-size: 12px; font-weight: 200;" fill="rgb(50, 49, 63)" stroke="none" stroke-width="1px">-100</text><text x="114" y="0" dx="0em" dy="0.95em" style="text-anchor: middle; visibility: inherit; font-family: &quot;Helvetica Neue&quot;, sans-serif; font-size: 12px; font-weight: 200;" fill="rgb(50, 49, 63)" stroke="none" stroke-width="1px">0</text><text x="228" y="0" dx="0em" dy="0.95em" style="text-anchor: middle; visibility: inherit; font-family: &quot;Helvetica Neue&quot;, sans-serif; font-size: 12px; font-weight: 200;" fill="rgb(50, 49, 63)" stroke="none" stroke-width="1px">100</text><text x="342" y="0" dx="0em" dy="0.95em" style="text-anchor: middle; visibility: inherit; font-family: &quot;Helvetica Neue&quot;, sans-serif; font-size: 12px; font-weight: 200;" fill="rgb(50, 49, 63)" stroke="none" stroke-width="1px">200</text><text x="456" y="0" dx="0em" dy="0.95em" style="text-anchor: middle; visibility: inherit; font-family: &quot;Helvetica Neue&quot;, sans-serif; font-size: 12px; font-weight: 200;" fill="rgb(50, 49, 63)" stroke="none" stroke-width="1px">300</text><text x="570" y="0" dx="0em" dy="0.95em" style="text-anchor: middle; visibility: inherit; font-family: &quot;Helvetica Neue&quot;, sans-serif; font-size: 12px; font-weight: 200;" fill="rgb(50, 49, 63)" stroke="none" stroke-width="1px">400</text><text x="684" y="0" dx="0em" dy="0.95em" style="text-anchor: middle; visibility: inherit; font-family: &quot;Helvetica Neue&quot;, sans-serif; font-size: 12px; font-weight: 200;" fill="rgb(50, 49, 63)" stroke="none" stroke-width="1px">500</text><text x="798" y="0" dx="0em" dy="0.95em" style="text-anchor: middle; visibility: inherit; font-family: &quot;Helvetica Neue&quot;, sans-serif; font-size: 12px; font-weight: 200;" fill="rgb(50, 49, 63)" stroke="none" stroke-width="1px">600</text><text x="912" y="0" dx="0em" dy="0.95em" style="text-anchor: middle; visibility: inherit; font-family: &quot;Helvetica Neue&quot;, sans-serif; font-size: 12px; font-weight: 200;" fill="rgb(50, 49, 63)" stroke="none" stroke-width="1px">700</text><text x="1026" y="0" dx="0em" dy="0.95em" style="text-anchor: middle; visibility: inherit; font-family: &quot;Helvetica Neue&quot;, sans-serif; font-size: 12px; font-weight: 200;" fill="rgb(50, 49, 63)" stroke="none" stroke-width="1px">800</text><text x="1140" y="0" dx="0em" dy="0.95em" style="text-anchor: middle; visibility: inherit; font-family: &quot;Helvetica Neue&quot;, sans-serif; font-size: 12px; font-weight: 200;" fill="rgb(50, 49, 63)" stroke="none" stroke-width="1px">900</text><text x="1254" y="0" dx="0em" dy="0.95em" style="text-anchor: middle; visibility: inherit; font-family: &quot;Helvetica Neue&quot;, sans-serif; font-size: 12px; font-weight: 200;" fill="rgb(50, 49, 63)" stroke="none" stroke-width="1px">1k</text><text x="1368" y="0" dx="0em" dy="0.95em" style="text-anchor: middle; visibility: hidden; font-family: &quot;Helvetica Neue&quot;, sans-serif; font-size: 12px; font-weight: 200;" fill="rgb(50, 49, 63)" stroke="none" stroke-width="1px">1.1k</text></g><line x1="0" y1="0" x2="1368" y2="0" fill="rgb(0, 0, 0)" stroke="rgb(204, 204, 204)" stroke-width="1px"></line></g></g></g></g></svg>