<svg viewBox="0 0 1426 400" xmlns="http://www.w3.org/2000/svg"><g><g><g><g><g><line x1="70" y1="356.508870967742" x2="65" y2="356.508870967742" style="visibility: inherit;" fill="rgb(0, 0, 0)" stroke="rgb(204, 204, 204)" stroke-width="1px"></line><line x1="70" y1="327.70161290322585" x2="65" y2="327.70161290322585" style="visibility: inherit;" fill="rgb(0, 0, 0)" stroke="rgb(204, 204, 204)" stroke-width="1px"></line><line x1="70" y1="298.8943548387097" x2="65" y2="298.8943548387097" style="visibility: inherit;" fill="rgb(0, 0, 0)" stroke="rgb(204, 204, 204)" stroke-width="1px"></line><line x1="70" y1="270.0870967741936" x2="65" y2="270.0870967741936" style="visibility: inherit;" fill="rgb(0, 0, 0)" stroke="rgb(204, 204, 204)" stroke-width="1px"></line><line x1="70" y1="241.27983870967745" x2="65" y2="241.27983870967745" style="visibility: inherit;" fill="rgb(0, 0, 0)" stroke="rgb(204, 204, 204)" stroke-width="1px"></line><line x1="70" y1="212.47258064516134" x2="65" y2="212.47258064516134" style="visibility: inherit;" fill="rgb(0, 0, 0)" stroke="rgb(204, 204, 204)" stroke-width="1px"></line><line x1="70" y1="183.66532258064524" x2="65" y2="183.66532258064524" style="visibility: inherit;" fill="rgb(0, 0, 0)" stroke="rgb(204, 204, 204)" stroke-width="1px"></line><line x1="70" y1="154.8580645161291" x2="65" y2="154.8580645161291" style="visibility: inherit;" fill="rgb(0, 0, 0)" stroke="rgb(204, 204, 204)" stroke-width="1px"></line><line x1="70" y1="126.050806451613" x2="65" y2="126.050806451613" style="visibility: inherit;" fill="rgb(0, 0, 0)" stroke="rgb(204, 204, 204)" stroke-width="1px"></line><line x1="70" y1="97.24354838709684" x2="65" y2="97.24354838709684" style="visibility: inherit;" fill="rgb(0, 0, 0)" stroke="rgb(204, 204, 204)" stroke-width="1px"></line><line x1="70" y1="68.43629032258076" x2="65" y2="68.43629032258076" style="visibility: inherit;" fill="rgb(0, 0, 0)" stroke="rgb(204, 204, 204)" stroke-width="1px"></line><line x1="70" y1="39.629032258064626" x2="65" y2="39.629032258064626" style="visibility: inherit;" fill="rgb(0, 0, 0)" stroke="rgb(204, 204, 204)" stroke-width="1px"></line><line x1="70" y1="10.821774193548492" x2="65" y2="10.821774193548492" style="visibility: inherit;" fill="rgb(0, 0, 0)" stroke="rgb(204, 204, 204)" stroke-width="1px"></line></g><g transform="translate(60, 0)"><text x="0" y="356.508870967742" dx="0em" dy="0.3em" style="text-anchor: end; visibility: inherit; font-family: &quot;Helvetica Neue&quot;, sans-serif; font-size: 12px; font-weight: 200;" fill="rgb(50, 49, 63)" stroke="none" stroke-width="1px">-2e-3</text><text x="0" y="327.70161290322585" dx="0em" dy="0.3em" style="text-anchor: end; visibility: inherit; font-family: &quot;Helvetica Neue&quot;, sans-serif; font-size: 12px; font-weight: 200;" fill="rgb(50, 49, 63)" stroke="none" stroke-width="1px">0</text><text x="0" y="298.8943548387097" dx="0em" dy="0.3em" style="text-anchor: end; visibility: inherit; font-family: &quot;Helvetica Neue&quot;, sans-serif; font-size: 12px; font-weight: 200;" fill="rgb(50, 49, 63)" stroke="none" stroke-width="1px">2e-3</text><text x="0" y="270.0870967741936" dx="0em" dy="0.3em" style="text-anchor: end; visibility: inherit; font-family: &quot;Helvetica Neue&quot;, sans-serif; font-size: 12px; font-weight: 200;" fill="rgb(50, 49, 63)" stroke="none" stroke-width="1px">4e-3</text><text x="0" y="241.27983870967745" dx="0em" dy="0.3em" style="text-anchor: end; visibility: inherit; font-family: &quot;Helvetica Neue&quot;, sans-serif; font-size: 12px; font-weight: 200;" fill="rgb(50, 49, 63)" stroke="none" stroke-width="1px">6e-3</text><text x="0" y="212.47258064516134" dx="0em" dy="0.3em" style="text-anchor: end; visibility: inherit; font-family: &quot;Helvetica Neue&quot;, sans-serif; font-size: 12px; font-weight: 200;" fill="rgb(50, 49, 63)" stroke="none" stroke-width="1px">8e-3</text><text x="0" y="183.66532258064524" dx="0em" dy="0.3em" style="text-anchor: end; visibility: inherit; font-family: &quot;Helvetica Neue&quot;, sans-serif; font-size: 12px; font-weight: 200;" fill="rgb(50, 49, 63)" stroke="none" stroke-width="1px">0.01</text><text x="0" y="154.8580645161291" dx="0em" dy="0.3em" style="text-anchor: end; visibility: inherit; font-family: &quot;Helvetica Neue&quot;, sans-serif; font-size: 12px; font-weight: 200;" fill="rgb(50, 49, 63)" stroke="none" stroke-width="1px">0.012</text><text x="0" y="126.050806451613" dx="0em" dy="0.3em" style="text-anchor: end; visibility: inherit; font-family: &quot;Helvetica Neue&quot;, sans-serif; font-size: 12px; font-weight: 200;" fill="rgb(50, 49, 63)" stroke="none" stroke-width="1px">0.014</text><text x="0" y="97.24354838709684" dx="0em" dy="0.3em" style="text-anchor: end; visibility: inherit; font-family: &quot;Helvetica Neue&quot;, sans-serif; font-size: 12px; font-weight: 200;" fill="rgb(50, 49, 63)" stroke="none" stroke-width="1px">0.016</text><text x="0" y="68.43629032258076" dx="0em" dy="0.3em" style="text-anchor: end; visibility: inherit; font-family: &quot;Helvetica Neue&quot;, sans-serif; font-size: 12px; font-weight: 200;" fill="rgb(50, 49, 63)" stroke="none" stroke-width="1px">0.018</text><text x="0" y="39.629032258064626" dx="0em" dy="0.3em" style="text-anchor: end; visibility: inherit; font-family: &quot;Helvetica Neue&quot;, sans-serif; font-size: 12px; font-weight: 200;" fill="rgb(50, 49, 63)" stroke="none" stroke-width="1px">0.02</text><text x="0" y="10.821774193548492" dx="0em" dy="0.3em" style="text-anchor: end; visibility: inherit; font-family: &quot;Helvetica Neue&quot;, sans-serif; font-size: 12px; font-weight: 200;" fill="rgb(50, 49, 63)" stroke="none" stroke-width="1px">0.022</text></g><line x1="70" y1="0" x2="70" y2="378" fill="rgb(0, 0, 0)" stroke="rgb(204, 204, 204)" stroke-width="1px"></line></g></g><g transform="translate(70, 0)" clip-path="url(#clip_0)"><clipPath id="clip_0"><rect width="1356" height="378"></rect></clipPath><g><g><g><line x1="7.130587204206837" y1="0" x2="7.130587204206837" y2="378" fill="rgb(0, 0, 0)" stroke="rgb(60, 60, 60)" stroke-width="1px" opacity="0.25"></line><line x1="141.42331288343559" y1="0" x2="141.42331288343559" y2="378" fill="rgb(0, 0, 0)" stroke="rgb(60, 60, 60)" stroke-width="1px" opacity="0.25"></line><line x1="275.7160385626643" y1="0" x2="275.7160385626643" y2="378" fill="rgb(0, 0, 0)" stroke="rgb(60, 60, 60)" stroke-width="1px" opacity="0.25"></line><line x1="410.0087642418931" y1="0" x2="410.0087642418931" y2="378" fill="rgb(0, 0, 0)" stroke="rgb(60, 60, 60)" stroke-width="1px" opacity="0.25"></line><line x1="544.3014899211219" y1="0" x2="544.3014899211219" y2="378" fill="rgb(0, 0, 0)" stroke="rgb(60, 60, 60)" stroke-width="1px" opacity="0.25"></line><line x1="678.5942156003507" y1="0" x2="678.5942156003507" y2="378" fill="rgb(0, 0, 0)" stroke="rgb(60, 60, 60)" stroke-width="1px" opacity="0.25"></line><line x1="812.8869412795793" y1="0" x2="812.8869412795793" y2="378" fill="rgb(0, 0, 0)" stroke="rgb(60, 60, 60)" stroke-width="1px" opacity="0.25"></line><line x1="947.1796669588083" y1="0" x2="947.1796669588083" y2="378" fill="rgb(0, 0, 0)" stroke="rgb(60, 60, 60)" stroke-width="1px" opacity="0.25"></line><line x1="1081.472392638037" y1="0" x2="1081.472392638037" y2="378" fill="rgb(0, 0, 0)" stroke="rgb(60, 60, 60)" stroke-width="1px" opacity="0.25"></line><line x1="1215.7651183172657" y1="0" x2="1215.7651183172657" y2="378" fill="rgb(0, 0, 0)" stroke="rgb(60, 60, 60)" stroke-width="1px" opacity="0.25"></line><line x1="1350.0578439964945" y1="0" x2="1350.0578439964945" y2="378" fill="rgb(0, 0, 0)" stroke="rgb(60, 60, 60)" stroke-width="1px" opacity="0.25"></line></g><g><line x1="0" y1="356.508870967742" x2="1356" y2="356.508870967742" fill="rgb(0, 0, 0)" stroke="rgb(60, 60, 60)" stroke-width="1px" opacity="0.25"></line><line x1="0" y1="327.70161290322585" x2="1356" y2="327.70161290322585" fill="rgb(0, 0, 0)" stroke="rgb(60, 60, 60)" stroke-width="1px" opacity="0.25"></line><line x1="0" y1="298.8943548387097" x2="1356" y2="298.8943548387097" fill="rgb(0, 0, 0)" stroke="rgb(60, 60, 60)" stroke-width="1px" opacity="0.25"></line><line x1="0" y1="270.0870967741936" x2="1356" y2="270.0870967741936" fill="rgb(0, 0, 0)" stroke="rgb(60, 60, 60)" stroke-width="1px" opacity="0.25"></line><line x1="0" y1="241.27983870967745" x2="1356" y2="241.27983870967745" fill="rgb(0, 0, 0)" stroke="rgb(60, 60, 60)" stroke-width="1px" opacity="0.25"></line><line x1="0" y1="212.47258064516134" x2="1356" y2="212.47258064516134" fill="rgb(0, 0, 0)" stroke="rgb(60, 60, 60)" stroke-width="1px" opacity="0.25"></line><line x1="0" y1="183.66532258064524" x2="1356" y2="183.66532258064524" fill="rgb(0, 0, 0)" stroke="rgb(60, 60, 60)" stroke-width="1px" opacity="0.25"></line><line x1="0" y1="154.8580645161291" x2="1356" y2="154.8580645161291" fill="rgb(0, 0, 0)" stroke="rgb(60, 60, 60)" stroke-width="1px" opacity="0.25"></line><line x1="0" y1="126.050806451613" x2="1356" y2="126.050806451613" fill="rgb(0, 0, 0)" stroke="rgb(60, 60, 60)" stroke-width="1px" opacity="0.25"></line><line x1="0" y1="97.24354838709684" x2="1356" y2="97.24354838709684" fill="rgb(0, 0, 0)" stroke="rgb(60, 60, 60)" stroke-width="1px" opacity="0.25"></line><line x1="0" y1="68.43629032258076" x2="1356" y2="68.43629032258076" fill="rgb(0, 0, 0)" stroke="rgb(60, 60, 60)" stroke-width="1px" opacity="0.25"></line><line x1="0" y1="39.629032258064626" x2="1356" y2="39.629032258064626" fill="rgb(0, 0, 0)" stroke="rgb(60, 60, 60)" stroke-width="1px" opacity="0.25"></line><line x1="0" y1="10.821774193548492" x2="1356" y2="10.821774193548492" fill="rgb(0, 0, 0)" stroke="rgb(60, 60, 60)" stroke-width="1px" opacity="0.25"></line></g></g></g><g><g><line x1="0" y1="327.70161290322585" x2="1356" y2="327.70161290322585" fill="rgb(0, 0, 0)" stroke="rgb(153, 153, 153)" stroke-width="1.5px"></line></g></g><g><g><line x1="7.130587204206837" y1="0" x2="7.130587204206837" y2="378" fill="rgb(0, 0, 0)" stroke="rgb(153, 153, 153)" stroke-width="1.5px"></line></g></g><g><g><g><g><g><path stroke="rgb(187, 187, 187)" stroke-width="2px" d="M7.130587204206837,60.650649772987094L13.845223488168275,76.65551746652784L20.559859772129712,84.37977087518755L27.274496056091145,127.7852205107186L33.98913234005259,180.16444685583522L40.703768624014025,218.46251102035922L47.41840490797546,241.04604504856806L54.1330411919369,258.0547597300083L60.84767747589834,272.1310639650096L67.56231375985978,281.9862941571965L74.27695004382122,289.28255878372045L80.99158632778264,293.5739229091599L87.7062226117441,298.0701585438648L94.42085889570552,299.3862304588697L101.13549517966698,302.0122468229581L107.8501314636284,305.1657810381262L114.56476774758984,307.7254178096144L121.27940403155127,309.58867560933425L127.99404031551272,310.52252985649415L134.70867659947416,309.2587544562984L141.42331288343559,311.6150590732998L148.137949167397,312.2493587105812L154.85258545135846,313.4698407346789L161.5672217353199,314.4782187692973L168.28185801928134,315.0204199189117L174.9964943032428,314.9995422373068L181.7111305872042,315.4029444052041L188.42576687116565,316.3915633690147L195.1404031551271,317.3306136939527L201.85503943908853,317.7222236270483L208.56967572304995,317.78484500218195L215.2843120070114,317.5133970694605L221.99894829097283,317.2788751697672L228.7135845749343,317.96180674190657L235.4282208588957,318.5481528293855L242.14285714285714,318.9901801969252L248.8574934268186,319.5512222452261L255.57212971078005,319.4792749419786L262.2867659947415,319.42001159784064L269.0014022787029,319.26500819859723L275.7160385626643,319.16650590962035L282.4306748466258,319.44489536897044L289.14531113058723,319.8315329052057L295.8599474145486,320.0214212969737L302.5745836985101,320.26642097634164L309.28921998247154,320.37531275040067L316.003856266433,320.7656291931311L322.7184925503944,320.6340859991395L329.43312883435584,320.6300226343637L336.1477651183173,320.73589100512976L342.8624014022787,320.571824907337L349.5770376862402,320.192769900801L356.2916739702016,319.9454674507565L363.006310254163,320.00896212656846L369.7209465381245,319.56710824881134L376.4355828220859,320.0033456514577L383.15021910604736,320.24916718288364L389.8648553900088,320.427528034817L396.5794916739702,320.7154504737477L403.29412795793166,320.7619850982607L410.0087642418931,320.63100245255674L416.7234005258545,320.9946478867629L423.43803680981597,321.28330984052656L430.1526730937774,321.4245719622081L436.8673093777389,321.5781879933006L443.5819456617003,321.2141861766456L450.2965819456617,321.1958079113113L457.0112182296232,321.6035212792935L463.7258545135846,321.66291168683995L470.44049079754603,321.608024721596L477.1551270815075,321.5596798713102L483.8697633654689,321.80883196012394L490.5843996494304,321.85712428912086L497.2990359333918,321.4190476435127L504.0136722173532,321.71369475773736L510.7283085013147,322.010928464332L517.442944785276,322.0186625236168L524.1575810692375,322.0463796266183L530.872217353199,322.25210901154236L537.5868536371604,322.46271609053355L544.3014899211219,321.95254575601354L551.0161262050833,321.84383396675906L557.7307624890447,321.99531273504016L564.4453987730062,322.17048282749295L571.1600350569676,321.9731241441971L577.874671340929,321.5871889156019L584.5893076248905,321.86932429194314L591.3039439088519,321.6025339213081L598.0185801928134,321.8140392679404L604.7332164767748,322.1061287099017L611.4478527607362,321.8743188017078L618.1624890446977,321.5039941624096L624.8771253286591,321.384812436406L631.5917616126205,321.58663102699035L638.306397896582,321.10628476530627L645.0210341805434,321.5307218510205L651.7356704645049,321.77530701880323L658.4503067484663,322.0018595269672L665.1649430324277,322.03902296904175L671.8795793163891,322.2384627067571L678.5942156003507,322.2762502657246L685.308851884312,322.4269272675815L692.0234881682735,322.7230188574544L698.738124452235,322.72459389063624L705.4527607361963,322.47385545889324L712.1673970201578,322.43556638189256L718.8820333041193,322.37364415307013L725.5966695880807,322.5387201456469L732.3113058720421,322.6081448465875L739.0259421560036,322.6214677310964L745.7405784399649,322.6773236267117L752.4552147239264,322.8267503710167L759.1698510078879,322.89951597988005L765.8844872918494,322.82003226629604L772.5991235758107,322.77807351885343L779.3137598597722,322.87146350912127L786.0283961437336,322.7995436762595" style="fill: none;" fill="none"></path></g><g><path stroke="rgb(0, 119, 187)" stroke-width="2px" d="M7.130587204206837,43.133101104908974L13.845223488168275,74.50575191865596L20.559859772129712,98.70429302468125L27.274496056091145,146.6202710604993L33.98913234005259,196.44845378756077L40.703768624014025,231.04952148056165L47.41840490797546,253.30871394089792L54.1330411919369,269.9007604360992L60.84767747589834,281.37936049172407L67.56231375985978,288.2197666221209L74.27695004382122,294.6850275832436L80.99158632778264,298.3170545919094L87.7062226117441,301.2047130794641L94.42085889570552,304.32794472474325L101.13549517966698,304.81208245006064L107.8501314636284,306.3939952286938L114.56476774758984,307.97407319308286L121.27940403155127,309.0572993208115L127.99404031551272,310.7138792504209L134.70867659947416,308.8656189395261L141.42331288343559,309.4948806750738L148.137949167397,312.044847792285L154.85258545135846,313.77103534487554L161.5672217353199,313.04438155682953L168.28185801928134,314.5950731243233L174.9964943032428,315.76681417666606L181.7111305872042,315.86910799331434L188.42576687116565,315.9157923937924L195.1404031551271,316.2144401433668L201.85503943908853,316.35371140976395L208.56967572304995,317.66412709380353L215.2843120070114,318.8905234944096L221.99894829097283,319.25576965798837L228.7135845749343,319.0811412511991L235.4282208588957,319.3027371731258L242.14285714285714,318.91232154188395L248.8574934268186,317.3419967814268L255.57212971078005,317.99697601443427L262.2867659947415,319.29515402165737L269.0014022787029,319.98402605483L275.7160385626643,320.0249349922444L282.4306748466258,320.6082401135992L289.14531113058723,320.5767638931891L295.8599474145486,319.9904526837236L302.5745836985101,320.7514010532298L309.28921998247154,320.2640226515192L316.003856266433,320.6052105428769L322.7184925503944,320.8127875927546L329.43312883435584,320.80734083539284L336.1477651183173,320.6267355932612L342.8624014022787,321.30158303436036L349.5770376862402,321.5123244061766L356.2916739702016,321.04663102791363L363.006310254163,321.1145645973609L369.7209465381245,321.14577568068256L376.4355828220859,321.4675425725978L383.15021910604736,320.89434175024263L389.8648553900088,321.42374877574537L396.5794916739702,321.5607914030407L403.29412795793166,320.89773668545786L410.0087642418931,321.74028776644997L416.7234005258545,321.7915333832326L423.43803680981597,321.9938512474423L430.1526730937774,321.9103830734619L436.8673093777389,322.15804622837516L443.5819456617003,321.9811830096664L450.2965819456617,321.7832347884819L457.0112182296232,321.88207951880827L463.7258545135846,322.2789486213398L470.44049079754603,322.2772952868886L477.1551270815075,322.0670432885908L483.8697633654689,322.5893561195674L490.5843996494304,322.84409092219437L497.2990359333918,322.9811339709569L504.0136722173532,322.9285574062527L510.7283085013147,322.3114288955149L517.442944785276,322.52346778085035L524.1575810692375,322.7231612009916L530.872217353199,322.87862206285195L537.5868536371604,322.23216766589826L544.3014899211219,322.2197027382379L551.0161262050833,322.47984591756864L557.7307624890447,322.6357326209577L564.4453987730062,322.944023716415L571.1600350569676,323.1862949036134L577.874671340929,323.20484334430296L584.5893076248905,323.3626282915381L591.3039439088519,323.44960625489415L598.0185801928134,323.42616434995085L604.7332164767748,323.4119368924439L611.4478527607362,323.259753055257L618.1624890446977,323.27127991387397L624.8771253286591,322.8383318393319L631.5917616126205,322.7165858566199L638.306397896582,322.9608613501193L645.0210341805434,323.08086658800903L651.7356704645049,322.7597128916392L658.4503067484663,322.99880502006727L665.1649430324277,323.25225522748576L671.8795793163891,323.4346127757783L678.5942156003507,323.6550507861427L685.308851884312,323.71882306024054L692.0234881682735,323.84597526664425L698.738124452235,323.68079570817133L705.4527607361963,323.46769353194975L712.1673970201578,323.3581761168715L718.8820333041193,323.22726150211764L725.5966695880807,323.3115460771243L732.3113058720421,323.6116195913368" style="fill: none;" fill="none"></path></g><g><path stroke="rgb(238, 51, 119)" stroke-width="2px" d="M7.130587204206837,54.86892533683857L13.845223488168275,93.1017633353083L20.559859772129712,126.8341706096075L27.274496056091145,159.8026804858648L33.98913234005259,200.36789602607624L40.703768624014025,228.37797333913826L47.41840490797546,249.13951103015765L54.1330411919369,260.0804896574301L60.84767747589834,271.25828065913834L67.56231375985978,280.07065663544984L74.27695004382122,287.43497430518846L80.99158632778264,290.5968503668871L87.7062226117441,295.7038782192963L94.42085889570552,299.44871775816557L101.13549517966698,302.49765789954427L107.8501314636284,303.72091142604074L114.56476774758984,305.93933488094996L121.27940403155127,307.50537632670785L127.99404031551272,308.70146523690045L134.70867659947416,310.06405704030914L141.42331288343559,309.89372367311984L148.137949167397,311.5546282394357L154.85258545135846,312.46995413790984L161.5672217353199,311.64578749867286L168.28185801928134,311.895304425179L174.9964943032428,312.8603549932883L181.7111305872042,313.82870247743335L188.42576687116565,313.8402445081242L195.1404031551271,314.39426282156717L201.85503943908853,314.5973079551487L208.56967572304995,314.8559339881388L215.2843120070114,314.60031291315073L221.99894829097283,315.5671645354027L228.7135845749343,316.6748621417362L235.4282208588957,316.1513891996637L242.14285714285714,315.8643593171841L248.8574934268186,316.7151284550686L255.57212971078005,317.02338122848687L262.2867659947415,317.5796324355266L269.0014022787029,317.92825137214703L275.7160385626643,317.84096562066816L282.4306748466258,317.2585308839636L289.14531113058723,316.99787755914014L295.8599474145486,317.8133274458916L302.5745836985101,317.99267251769174L309.28921998247154,318.2467509952484L316.003856266433,317.8520666172957L322.7184925503944,318.0038933422255L329.43312883435584,317.57751552931177L336.1477651183173,318.2820302011988L342.8624014022787,318.85159509744074L349.5770376862402,319.09643326030243L356.2916739702016,318.3795853646998L363.006310254163,317.2624689303922L369.7209465381245,317.50951567381276L376.4355828220859,318.0950496110737L383.15021910604736,318.2650414912759L389.8648553900088,318.02777239990553L396.5794916739702,317.6434422199251L403.29412795793166,318.33554727824884L410.0087642418931,318.74928844674116L416.7234005258545,318.4850383991266L423.43803680981597,319.18621148280715L430.1526730937774,318.2636914099793L436.8673093777389,318.889987088699L443.5819456617003,319.00390452620854L450.2965819456617,318.667807731235L457.0112182296232,319.23964987381845L463.7258545135846,318.7200205087351L470.44049079754603,319.3057155349726L477.1551270815075,319.8093638038748L483.8697633654689,319.9271604284207L490.5843996494304,319.9337023610219L497.2990359333918,319.7472013754788L504.0136722173532,319.6778339011014L510.7283085013147,320.0491556938664L517.442944785276,320.05024957571254L524.1575810692375,320.2576788680757L530.872217353199,320.6225578147426L537.5868536371604,320.8647414357864L544.3014899211219,320.20557513428633L551.0161262050833,320.1510951857333L557.7307624890447,319.9563723663831L564.4453987730062,320.1723099772649L571.1600350569676,320.0241711443772L577.874671340929,320.1324537321658L584.5893076248905,320.4752719075687L591.3039439088519,320.05793018489214L598.0185801928134,320.4587731774438L604.7332164767748,320.3364903796224L611.4478527607362,320.43398962064873L618.1624890446977,320.83102598756733L624.8771253286591,320.8261209146526L631.5917616126205,320.9491176897118L638.306397896582,321.3194154584614L645.0210341805434,321.11415453799754L651.7356704645049,320.76422679786145L658.4503067484663,321.15324887341535L665.1649430324277,321.6196617917549L671.8795793163891,321.37234377292447L678.5942156003507,321.26240021243825L685.308851884312,321.2504774403582L692.0234881682735,321.19308172554724L698.738124452235,321.42851385179495L705.4527607361963,321.350496578863L712.1673970201578,321.3251467796978L718.8820333041193,321.1057762285071L725.5966695880807,321.36681054652894L732.3113058720421,321.3220527850498L739.0259421560036,321.1943493203601L745.7405784399649,320.8503282881132L752.4552147239264,320.5526620313951L759.1698510078879,320.58051530658634L765.8844872918494,320.74327363659233L772.5991235758107,320.87066422253406L779.3137598597722,321.2271652719818L786.0283961437336,321.4471939462935L792.743032427695,320.9511853386635L799.4576687116565,320.7212522586087L806.172304995618,320.8632481040926L812.8869412795793,320.81818869528985L819.6015775635408,321.2063464355739L826.3162138475022,321.70200652314566L833.0308501314636,321.0704422508941L839.7454864154251,321.4551151284543L846.4601226993866,321.51634979304146L853.1747589833479,321.63891457301565L859.8893952673095,321.14612543150827L866.6040315512709,321.35529779025046L873.3186678352324,321.4604724830006L880.0333041191939,321.622319203346L886.7479404031553,321.8359808135965L893.4625766871167,321.6037115587007L900.1772129710781,321.12196961537336L906.8918492550397,321.6988897965611L913.606485539001,321.80727055365855L920.3211218229625,322.1854227053367L927.0357581069239,321.6385277141655L933.7503943908853,321.4111451232498L940.4650306748467,321.41838741270857L947.1796669588083,321.89871514738945" style="fill: none;" fill="none"></path></g><g><path stroke="rgb(238, 51, 119)" stroke-width="2px" d="M7.130587204206837,93.60353325133133L13.845223488168275,146.29946040444935L20.559859772129712,201.15395159933783L27.274496056091145,230.46216497408685L33.98913234005259,250.63918379973776L40.703768624014025,266.7299727665686L47.41840490797546,277.6056394182626L54.1330411919369,284.9101970458335L60.84767747589834,289.14237406559414L67.56231375985978,295.2057663469842L74.27695004382122,298.7167752809634L80.99158632778264,300.7344738957037L87.7062226117441,302.567504322067L94.42085889570552,304.21180384794343L101.13549517966698,305.77298460510156L107.8501314636284,307.19143537506346L114.56476774758984,309.1260825835849L121.27940403155127,310.26854462659884L127.99404031551272,311.18672283801993L134.70867659947416,310.8809120956319L141.42331288343559,311.2469647640086L148.137949167397,311.1757760811115L154.85258545135846,311.63285401135875L161.5672217353199,313.3404261525739L168.28185801928134,314.2229265588119L174.9964943032428,315.23843198047945L181.7111305872042,315.02189098024104L188.42576687116565,315.8436162540084L195.1404031551271,316.2528209697815L201.85503943908853,316.15714135879375L208.56967572304995,316.59334090969986L215.2843120070114,316.61414891556194L221.99894829097283,317.39614016468676L228.7135845749343,317.1834635570648L235.4282208588957,316.11526191865215L242.14285714285714,315.1684330336021L248.8574934268186,316.4902823034128L255.57212971078005,317.543792005966L262.2867659947415,317.8263048329314L269.0014022787029,318.0940171858182L275.7160385626643,318.5694737714359L282.4306748466258,318.10525731099506L289.14531113058723,318.29769883760343L295.8599474145486,318.6965310707049L302.5745836985101,319.49044259674673L309.28921998247154,319.56809888756925L316.003856266433,319.5966328218509L322.7184925503944,319.74875561899484L329.43312883435584,319.465189352295L336.1477651183173,319.62849262209767L342.8624014022787,319.0791635238379L349.5770376862402,319.6266105532543L356.2916739702016,319.65969749486237L363.006310254163,319.8870634346965L369.7209465381245,319.7202083395998L376.4355828220859,319.92013672978345L383.15021910604736,319.75864906921566L389.8648553900088,319.5327958932657L396.5794916739702,320.16598569980573L403.29412795793166,320.2980420937319L410.0087642418931,320.1477417060664L416.7234005258545,320.15058480883863L423.43803680981597,319.71533422506144L430.1526730937774,319.78109642722325L436.8673093777389,320.09814984470177L443.5819456617003,320.06074648300864L450.2965819456617,320.0507044249857L457.0112182296232,320.34968498069884L463.7258545135846,320.267937387987L470.44049079754603,320.52844228059934L477.1551270815075,320.81546006718895L483.8697633654689,320.78963660297154L490.5843996494304,321.01759555571175L497.2990359333918,320.9161211838136L504.0136722173532,321.00987771526303L510.7283085013147,320.9387464110446L517.442944785276,320.8987860617142L524.1575810692375,320.8282545875494L530.872217353199,320.9218338878441L537.5868536371604,321.1102409900674L544.3014899211219,320.89694180594853L551.0161262050833,321.00107175371363L557.7307624890447,320.98735830429234L564.4453987730062,320.9788017489104L571.1600350569676,321.20739337675445L577.874671340929,320.8291222175553L584.5893076248905,321.0981712961817L591.3039439088519,321.2517308356445L598.0185801928134,321.1415287402907L604.7332164767748,320.6140290710727L611.4478527607362,321.25558665565063L618.1624890446977,321.08411920059103L624.8771253286591,321.01446625796854L631.5917616126205,320.96870315191103L638.306397896582,320.8505143104357L645.0210341805434,320.79789475979226L651.7356704645049,320.86642297693976L658.4503067484663,321.0322085415991L665.1649430324277,320.7327947465091L671.8795793163891,320.7446301742799" style="fill: none;" fill="none"></path></g><g><path stroke="rgb(187, 187, 187)" stroke-width="2px" d="M7.130587204206837,130.92600465932446L13.845223488168275,182.4410013026641L20.559859772129712,222.33380867600175L27.274496056091145,245.99773507948805L33.98913234005259,263.2678295202285L40.703768624014025,276.76725316929156L47.41840490797546,284.5369182260104L54.1330411919369,291.3112847055364L60.84767747589834,296.9907143387486L67.56231375985978,300.5817737302441L74.27695004382122,303.601567660936L80.99158632778264,306.0977513656876L87.7062226117441,308.07167672042175L94.42085889570552,308.7832637619332L101.13549517966698,310.3479775351252L107.8501314636284,309.841559882989L114.56476774758984,311.57911747668584L121.27940403155127,312.54606907038044L127.99404031551272,314.0236431347438L134.70867659947416,314.6464188707178L141.42331288343559,315.31382190570946L148.137949167397,315.41571139534824L154.85258545135846,316.1537106022188L161.5672217353199,316.33607248732284L168.28185801928134,317.62153570833016L174.9964943032428,317.83117620938583L181.7111305872042,317.6764938817117L188.42576687116565,317.53950783994463L195.1404031551271,317.5630357254694L201.85503943908853,317.7698906150763L208.56967572304995,317.90301197779223L215.2843120070114,318.67620301706717L221.99894829097283,318.88813801413556L228.7135845749343,318.66570533387807L235.4282208588957,318.2803171252047L242.14285714285714,319.0388608465749L248.8574934268186,319.20905160923553L255.57212971078005,319.2869506816458L262.2867659947415,319.84585035253747L269.0014022787029,319.2255805640683L275.7160385626643,319.6211882693947L282.4306748466258,320.0016053253958L289.14531113058723,320.23482090824797L295.8599474145486,319.54669927337255L302.5745836985101,320.07431715399673L309.28921998247154,320.4366379460526L316.003856266433,320.41415669390904L322.7184925503944,320.3479422102939L329.43312883435584,320.87979109711955L336.1477651183173,321.19652121327863L342.8624014022787,321.37202592738345L349.5770376862402,321.1752749771919L356.2916739702016,320.99517179281423L363.006310254163,321.07411702575206L369.7209465381245,321.38237796128556L376.4355828220859,321.24859806213806L383.15021910604736,321.57251646956524L389.8648553900088,321.75527627716804L396.5794916739702,321.754087259872L403.29412795793166,321.44881693915994L410.0087642418931,321.7652803669396L416.7234005258545,321.71411495840476L423.43803680981597,321.9517468015654L430.1526730937774,321.99972151443853L436.8673093777389,321.7888628398758L443.5819456617003,322.05795227142073L450.2965819456617,322.1352911145351L457.0112182296232,322.38560692523504L463.7258545135846,322.4318252287831L470.44049079754603,322.50287943748543L477.1551270815075,322.61217561784L483.8697633654689,322.01635326315045L490.5843996494304,321.9747913545629L497.2990359333918,322.2010859303048L504.0136722173532,322.0038084965736L510.7283085013147,322.21446199491066L517.442944785276,322.1593928089525L524.1575810692375,321.8785680897576L530.872217353199,321.68284013126276L537.5868536371604,321.7401108135628L544.3014899211219,321.744817115472L551.0161262050833,322.1635806272472L557.7307624890447,322.4843430615929L564.4453987730062,322.15303883035835L571.1600350569676,322.59681327957964L577.874671340929,322.56833989474484L584.5893076248905,322.5718369452071L591.3039439088519,322.60240326795235L598.0185801928134,322.80511678588044L604.7332164767748,322.4800621547614L611.4478527607362,322.63853166614297L618.1624890446977,322.86693732963215L624.8771253286591,322.906837654795L631.5917616126205,322.98166111096464L638.306397896582,323.2083006877539" style="fill: none;" fill="none"></path></g></g></g></g><g opacity="0.2"><g><g><g><path stroke="rgb(187, 187, 187)" stroke-width="2px" d="M7.130587204206837,60.650649772987094L13.845223488168275,86.25843808265233L20.559859772129712,91.79505414750071L27.274496056091145,178.83002928210308L33.98913234005259,248.55076477201962L40.703768624014025,271.44252106299507L47.41840490797546,273.3408600454512L54.1330411919369,282.85362901920905L60.84767747589834,292.89087853030185L67.56231375985978,296.6201624246465L74.27695004382122,300.1607791403489L80.99158632778264,299.987615683255L87.7062226117441,304.79983100646007L94.42085889570552,301.3577600094892L101.13549517966698,305.9481845854316L107.8501314636284,309.8938582442239L114.56476774758984,311.56378981434824L121.27940403155127,312.38308922796057L127.99404031551272,311.9231689639386L134.70867659947416,307.3632068700822L141.42331288343559,315.14938677345674L148.137949167397,313.2007872946035L154.85258545135846,315.3005396745369L161.5672217353199,315.99077387602586L168.28185801928134,315.8337177895996L174.9964943032428,314.9682258039332L181.7111305872042,316.0080466248544L188.42576687116565,317.8744902969676L195.1404031551271,318.7391883163617L201.85503943908853,318.30963831025485L208.56967572304995,317.8787770441165L215.2843120070114,317.1062252243874L221.99894829097283,316.9270923482245L228.7135845749343,318.9862040511986L235.4282208588957,319.42767193540465L242.14285714285714,319.65322123683666L248.8574934268186,320.3927853089972L255.57212971078005,319.37135398777525L262.2867659947415,319.3311165819638L269.0014022787029,319.0325031002501L275.7160385626643,319.0187524763526L282.4306748466258,319.86247955766066L289.14531113058723,320.41148920927947L295.8599474145486,320.3062538845435L302.5745836985101,320.63392049532985L309.28921998247154,320.5386504114722L316.003856266433,321.35110385719014L322.7184925503944,320.4367712081594L329.43312883435584,320.62392758720017L336.1477651183173,320.89469356127665L342.8624014022787,320.32572576064985L349.5770376862402,319.62418739099974L356.2916739702016,319.57451377569083L363.006310254163,320.10420414028624L369.7209465381245,318.9043274321763L376.4355828220859,320.657701755427L383.15021910604736,320.61789948002234L389.8648553900088,320.695069312717L396.5794916739702,321.14733413214356L403.29412795793166,320.83178703503023L410.0087642418931,320.4345284840008L416.7234005258545,321.5401160380721L423.43803680981597,321.71630277117197L430.1526730937774,321.6364651447305L436.8673093777389,321.8086120399394L443.5819456617003,320.668183451663L450.2965819456617,321.1682405133099L457.0112182296232,322.2150913312667L463.7258545135846,321.7519972981597L470.44049079754603,321.52569427373004L477.1551270815075,321.48716259588144L483.8697633654689,322.18256009334465L490.5843996494304,321.92956278261624L497.2990359333918,320.7619326751005L504.0136722173532,322.15566542907436L510.7283085013147,322.4567790242239L517.442944785276,322.030263612544L524.1575810692375,322.0879552811206L530.872217353199,322.56070308892845L537.5868536371604,322.77862670902033L544.3014899211219,321.1872902542335L551.0161262050833,321.6807662828773L557.7307624890447,322.22253088746174L564.4453987730062,322.43323796617216L571.1600350569676,321.67708611925326L577.874671340929,321.00828607270927L584.5893076248905,322.29252735645497L591.3039439088519,321.20234836535553L598.0185801928134,322.1312972878889L604.7332164767748,322.54426287284366L611.4478527607362,321.5266039394168L618.1624890446977,320.9485072034623L624.8771253286591,321.2060398474006L631.5917616126205,321.8893589128669L638.306397896582,320.3857653727802L645.0210341805434,322.1673774795918L651.7356704645049,322.1421847704774L658.4503067484663,322.3416882892132L665.1649430324277,322.09476813215355L671.8795793163891,322.5376223133302L678.5942156003507,322.3329316041758L685.308851884312,322.65294277036685L692.0234881682735,323.16715624226373L698.738124452235,322.7269564404091L705.4527607361963,322.09774781127874L712.1673970201578,322.37813276639156L718.8820333041193,322.28076080983647L725.5966695880807,322.78633413451206L732.3113058720421,322.7122818979983L739.0259421560036,322.64145205785985L745.7405784399649,322.76110747013473L752.4552147239264,323.0508904874742L759.1698510078879,323.0086643931751L765.8844872918494,322.70080669592005L772.5991235758107,322.71513539768955L779.3137598597722,323.011548494523L786.0283961437336,322.6916639269668" style="fill: none;" fill="none"></path></g><g><path stroke="rgb(0, 119, 187)" stroke-width="2px" d="M7.130587204206837,43.133101104908974L13.845223488168275,93.32934240690412L20.559859772129712,121.93489248646551L27.274496056091145,202.96946123062128L33.98913234005259,261.5041291560122L40.703768624014025,278.9152544843514L47.41840490797546,285.1397153062581L54.1330411919369,294.092123509749L60.84767747589834,298.30806597049593L67.56231375985978,298.3769725174681L74.27695004382122,304.3242795838535L80.99158632778264,303.7453297743172L87.7062226117441,305.526772104814L94.42085889570552,309.006673456733L101.13549517966698,305.5377199523144L107.8501314636284,308.7657487091905L114.56476774758984,310.3435215036265L121.27940403155127,310.68186348140796L127.99404031551272,313.19849678155623L134.70867659947416,306.09339741149716L141.42331288343559,310.43873876818617L148.137949167397,315.86971456034775L154.85258545135846,316.36028259319926L161.5672217353199,311.95440948266736L168.28185801928134,316.921099453912L174.9964943032428,317.5244207582399L181.7111305872042,316.0225484565449L188.42576687116565,315.985818922838L195.1404031551271,316.6624114926315L201.85503943908853,316.5626182323866L208.56967572304995,319.6297501853147L215.2843120070114,320.7301178513069L221.99894829097283,319.8036388597534L228.7135845749343,318.8191986535235L235.4282208588957,319.63513104649235L242.14285714285714,318.3266981050885L248.8574934268186,314.98650966503664L255.57212971078005,318.97944485786513L262.2867659947415,321.24242102526154L269.0014022787029,321.01733410228684L275.7160385626643,320.08629839828393L282.4306748466258,321.4831977949296L289.14531113058723,320.5295495625967L295.8599474145486,319.1109858697793L302.5745836985101,321.89282360729146L309.28921998247154,319.5329550490292L316.003856266433,321.1169923798814L322.7184925503944,321.12415316755954L329.43312883435584,320.7991706993503L336.1477651183173,320.3558277300674L342.8624014022787,322.31385419600093L349.5770376862402,321.8284364638995L356.2916739702016,320.34809096052123L363.006310254163,321.21646495153163L369.7209465381245,321.192592305665L376.4355828220859,321.9501929104703L383.15021910604736,320.03454051671025L389.8648553900088,322.2178593139993L396.5794916739702,321.7663553439836L403.29412795793166,319.9031546090837L410.0087642418931,323.0041143879381L416.7234005258545,321.86840180840653L423.43803680981597,322.2973280437568L430.1526730937774,321.7851808124913L436.8673093777389,322.52954096074507L443.5819456617003,321.7158881816032L450.2965819456617,321.48631245670504L457.0112182296232,322.03034661429786L463.7258545135846,322.8742522751371L470.44049079754603,322.2748152852118L477.1551270815075,321.7516652911441L483.8697633654689,323.3728253660323L490.5843996494304,323.2261931261347L497.2990359333918,323.18669854410064L504.0136722173532,322.84969255919646L510.7283085013147,321.38573612940814L517.442944785276,322.84152610885354L524.1575810692375,323.02270133120356L530.872217353199,323.11181335564237L537.5868536371604,321.2624860704678L544.3014899211219,322.20100534674737L551.0161262050833,322.8700606865647L557.7307624890447,322.86956267604126L564.4453987730062,323.40646035960106L571.1600350569676,323.54970168441093L577.874671340929,323.2326660053373L584.5893076248905,323.5993057123908L591.3039439088519,323.5800731999283L598.0185801928134,323.39100149253596L604.7332164767748,323.3905957061835L611.4478527607362,323.03147729947665L618.1624890446977,323.2885702017994L624.8771253286591,322.18890972751865L631.5917616126205,322.53396688255197L638.306397896582,323.3272745903683L645.0210341805434,323.2608744448437L651.7356704645049,322.2779823470844L658.4503067484663,323.3574432127094L665.1649430324277,323.63243053861356L671.8795793163891,323.7081490982171L678.5942156003507,323.9857078016893L685.308851884312,323.81448147138735L692.0234881682735,324.0367035762498L698.738124452235,323.43302637046196L705.4527607361963,323.1480402676173L712.1673970201578,323.19389999425414L718.8820333041193,323.0308895799869L725.5966695880807,323.4379729396343L732.3113058720421,324.0617298626556" style="fill: none;" fill="none"></path></g><g><path stroke="rgb(238, 51, 119)" stroke-width="2px" d="M7.130587204206837,54.86892533683857L13.845223488168275,116.04146613439013L20.559859772129712,159.2172815929348L27.274496056091145,198.57364810034338L33.98913234005259,253.32984143537624L40.703768624014025,267.1259938909357L47.41840490797546,278.8288421129185L54.1330411919369,276.03254152938814L60.84767747589834,287.74335121253375L67.56231375985978,293.15600793072656L74.27695004382122,298.4146569905457L80.99158632778264,295.3224576695357L87.7062226117441,303.34774466588226L94.42085889570552,305.058640535966L101.13549517966698,307.06748419692894L107.8501314636284,305.5549289826248L114.56476774758984,309.2660313008556L121.27940403155127,309.8540408775913L127.99404031551272,310.4954163900825L134.70867659947416,312.1078201991341L141.42331288343559,309.63823296382253L148.137949167397,314.0459304361374L154.85258545135846,313.8429249141078L161.5672217353199,310.40954730285694L168.28185801928134,312.2695780414788L174.9964943032428,314.30792672995244L181.7111305872042,315.28122122591503L188.42576687116565,313.8575575364408L195.1404031551271,315.22528978140235L201.85503943908853,314.9018755433011L208.56967572304995,315.2438729518608L215.2843120070114,314.21688135152857L221.99894829097283,317.017441853358L228.7135845749343,318.3364084718943L235.4282208588957,315.36617980905226L242.14285714285714,315.433814500866L248.8574934268186,317.9912821487327L255.57212971078005,317.48576038575266L262.2867659947415,318.41400924298796L269.0014022787029,318.45117977591264L275.7160385626643,317.7100369936248L282.4306748466258,316.38487877960756L289.14531113058723,316.60689757209303L295.8599474145486,319.0365022756657L302.5745836985101,318.26169012534535L309.28921998247154,318.6278687115438L316.003856266433,317.2600400504035L322.7184925503944,318.23163342961175L329.43312883435584,316.93794880995546L336.1477651183173,319.3388022090151L342.8624014022787,319.70594244179665L349.5770376862402,319.4636905045932L356.2916739702016,317.30431352129904L363.006310254163,315.58679427893367L369.7209465381245,317.88008578894323L376.4355828220859,318.97335051696456L383.15021910604736,318.5200293115791L389.8648553900088,317.6718687628501L396.5794916739702,317.0669469499544L403.29412795793166,319.37370486573445L410.0087642418931,319.36990019947956L416.7234005258545,318.08866332770486L423.43803680981597,320.23797110832794L430.1526730937774,316.87991130073755L436.8673093777389,319.8294306067786L443.5819456617003,319.1747806824729L450.2965819456617,318.1636625387746L457.0112182296232,320.0974130876937L463.7258545135846,317.94057646111L470.44049079754603,320.1842580743288L477.1551270815075,320.56483620722804L483.8697633654689,320.1038553652395L490.5843996494304,319.94351525992374L497.2990359333918,319.4674498971642L504.0136722173532,319.5737826895352L510.7283085013147,320.60613838301396L517.442944785276,320.0518903984818L524.1575810692375,320.56882280662035L530.872217353199,321.169876234743L537.5868536371604,321.22801686735215L544.3014899211219,319.2168256820362L551.0161262050833,320.0693752629037L557.7307624890447,319.66428813735786L564.4453987730062,320.4962163935876L571.1600350569676,319.8019628950457L577.874671340929,320.29487761384866L584.5893076248905,320.98949917067307L591.3039439088519,319.43191760087734L598.0185801928134,321.06003766627134L604.7332164767748,320.15306618289026L611.4478527607362,320.58023848218824L618.1624890446977,321.42658053794526L624.8771253286591,320.8187633052806L631.5917616126205,321.1336128523005L638.306397896582,321.87486211158574L645.0210341805434,320.80626315730177L651.7356704645049,320.23933518765733L658.4503067484663,321.7367819867462L665.1649430324277,322.31928116926406L671.8795793163891,321.0013667446789L678.5942156003507,321.097484871709L685.308851884312,321.2325932822381L692.0234881682735,321.10698815333075L698.738124452235,321.78166204116656L705.4527607361963,321.233470669465L712.1673970201578,321.28712208094987L718.8820333041193,320.77672040172115L725.5966695880807,321.75836202356174L732.3113058720421,321.254916142831L739.0259421560036,321.00279412332566L745.7405784399649,320.33429673974285L752.4552147239264,320.1061626463179L759.1698510078879,320.6222952193733L765.8844872918494,320.9874111316012L772.5991235758107,321.06175010144665L779.3137598597722,321.7619168461533L786.0283961437336,321.77723695776115L792.743032427695,320.2071724272185L799.4576687116565,320.3763526385263L806.172304995618,321.07624187231846L812.8869412795793,320.7505995820858L819.6015775635408,321.788583046L826.3162138475022,322.4454966545032L833.0308501314636,320.1230958425168L839.7454864154251,322.0321244447945L846.4601226993866,321.6082017899223L853.1747589833479,321.822761742977L859.8893952673095,320.40694171924713L866.6040315512709,321.66905632836375L873.3186678352324,321.6182345221258L880.0333041191939,321.86508928386417L886.7479404031553,322.15647322897223L893.4625766871167,321.255307676357L900.1772129710781,320.3993567003824L906.8918492550397,322.56427006834264L913.606485539001,321.9698416893047L920.3211218229625,322.7526509328539L927.0357581069239,320.81818522740866L933.7503943908853,321.0700712368764L940.4650306748467,321.4292508468967L947.1796669588083,322.61920674941075" style="fill: none;" fill="none"></path></g><g><path stroke="rgb(238, 51, 119)" stroke-width="2px" d="M7.130587204206837,93.60353325133133L13.845223488168275,177.91701669632013L20.559859772129712,253.8142631464308L27.274496056091145,264.92862390279174L33.98913234005259,276.9822995785076L40.703768624014025,288.9893265917237L47.41840490797546,293.15801674085145L54.1330411919369,295.5603121905851L60.84767747589834,295.38401311167684L67.56231375985978,304.2091972328584L74.27695004382122,303.95144408931134L80.99158632778264,303.75004159105424L87.7062226117441,305.31106479923176L94.42085889570552,306.6750317828114L101.13549517966698,308.11292063146306L107.8501314636284,309.3181111286263L114.56476774758984,312.0272347185059L121.27940403155127,311.9819476201308L127.99404031551272,312.5638502799425L134.70867659947416,310.422223934363L141.42331288343559,311.7960236913754L148.137949167397,311.0689953992598L154.85258545135846,312.31846188252325L161.5672217353199,315.9017641365767L168.28185801928134,315.54667089573366L174.9964943032428,316.7616857823141L181.7111305872042,314.69708003395243L188.42576687116565,317.0762029031175L195.1404031551271,316.8666276665059L201.85503943908853,316.0136219951927L208.56967572304995,317.24764009141046L215.2843120070114,316.64536092021496L221.99894829097283,318.56912694502L228.7135845749343,316.86444866086543L235.4282208588957,314.512959506941L242.14285714285714,313.74818973044205L248.8574934268186,318.4730561876777L255.57212971078005,319.12405655001606L262.2867659947415,318.2500740718059L269.0014022787029,318.4955857142538L275.7160385626643,319.2826586489091L282.4306748466258,317.4089326208923L289.14531113058723,318.586361127377L295.8599474145486,319.29477942018445L302.5745836985101,320.6813098856031L309.28921998247154,319.68458332379083L316.003856266433,319.63943372327077L322.7184925503944,319.9769398147023L329.43312883435584,319.03983995225474L336.1477651183173,319.8734475267984L342.8624014022787,318.255169876455L349.5770376862402,320.4477810973749L356.2916739702016,319.7093279072743L363.006310254163,320.228112344447L369.7209465381245,319.46992569695504L376.4355828220859,320.2200293150588L383.15021910604736,319.5164175783641L389.8648553900088,319.19401612934087L396.5794916739702,321.11577040961555L403.29412795793166,320.49612668462123L410.0087642418931,319.9222911245682L416.7234005258545,320.15484946299694L423.43803680981597,319.06245834939557L430.1526730937774,319.8797397304659L436.8673093777389,320.57372997091966L443.5819456617003,320.0046414404689L450.2965819456617,320.03564133795146L457.0112182296232,320.79815581426845L463.7258545135846,320.1453159989192L470.44049079754603,320.9191996195178L477.1551270815075,321.2459867470734L483.8697633654689,320.7509014066454L490.5843996494304,321.359533984822L497.2990359333918,320.76390962596633L504.0136722173532,321.1505125124372L510.7283085013147,320.83204945471687L517.442944785276,320.8388455377187L524.1575810692375,320.7224573763022L530.872217353199,321.06220283828617L537.5868536371604,321.3928516434023L544.3014899211219,320.5769930297703L551.0161262050833,321.1572666753613L557.7307624890447,320.96678813016035L564.4453987730062,320.9659669158376L571.1600350569676,321.55028081852043L577.874671340929,320.26171547875674L584.5893076248905,321.5017449141212L591.3039439088519,321.48207014483864L598.0185801928134,320.97622559726005L604.7332164767748,319.8227795672457L611.4478527607362,322.2179230325175L618.1624890446977,320.8269180180017L624.8771253286591,320.90998684403473L631.5917616126205,320.90005849282477L638.306397896582,320.6732310482227L645.0210341805434,320.7189654338272L651.7356704645049,320.96921530266104L658.4503067484663,321.2808868885881L665.1649430324277,320.2836740538741L671.8795793163891,320.7623833159362" style="fill: none;" fill="none"></path></g><g><path stroke="rgb(187, 187, 187)" stroke-width="2px" d="M7.130587204206837,130.92600465932446L13.845223488168275,213.3499992886679L20.559859772129712,260.6309037544059L27.274496056091145,273.82651252998795L33.98913234005259,285.81566482205926L40.703768624014025,295.44181586845946L47.41840490797546,295.6476635717592L54.1330411919369,301.18837606660355L60.84767747589834,305.3667698753247L67.56231375985978,305.9140784101892L74.27695004382122,308.10386924827924L80.99158632778264,309.82844280132525L87.7062226117441,311.02611954375584L94.42085889570552,309.8492502511081L101.13549517966698,312.69320893261L107.8501314636284,309.08229056974847L114.56476774758984,314.18471859108973L121.27940403155127,313.9962509520176L127.99404031551272,316.2397791377519L134.70867659947416,315.5805255505097L141.42331288343559,316.3148898562283L148.137949167397,315.56854227708936L154.85258545135846,317.26069484201764L161.5672217353199,316.6096131547285L168.28185801928134,319.5497214033188L174.9964943032428,318.1456360669484L181.7111305872042,317.4444707859901L188.42576687116565,317.3340289875999L195.1404031551271,317.59832753208394L201.85503943908853,318.0801728351611L208.56967572304995,318.10269397772163L215.2843120070114,319.83598942214047L221.99894829097283,319.2060404844374L228.7135845749343,318.3320563294242L235.4282208588957,317.70223482875735L242.14285714285714,320.1766764090703L248.8574934268186,319.4643377505934L255.57212971078005,319.40379928953803L262.2867659947415,320.68419985576196L269.0014022787029,318.2951758834374L275.7160385626643,320.214599826591L282.4306748466258,320.57223090893996L289.14531113058723,320.58464428235783L295.8599474145486,318.5145168213574L302.5745836985101,320.865743974796L309.28921998247154,320.9801191340798L316.003856266433,320.3804348156959L322.7184925503944,320.2486204848749L329.43312883435584,321.67756442734014L336.1477651183173,321.6716163875108L342.8624014022787,321.63528299853846L349.5770376862402,320.88014855190613L356.2916739702016,320.7250170162485L363.006310254163,321.1925348751585L369.7209465381245,321.8447693645853L376.4355828220859,321.047928213417L383.15021910604736,322.0583940807058L389.8648553900088,322.0294159885723L396.5794916739702,321.75230373392793L403.29412795793166,320.99091145809183L410.0087642418931,322.239975508609L416.7234005258545,321.6373668456025L423.43803680981597,322.3081945663064L430.1526730937774,322.07168358374827L436.8673093777389,321.4725748280316L443.5819456617003,322.4615864187382L450.2965819456617,322.25129937920667L457.0112182296232,322.76108064128493L463.7258545135846,322.5011526841052L470.44049079754603,322.6094607505389L477.1551270815075,322.77611988837197L483.8697633654689,321.1226197311161L490.5843996494304,321.9124484916815L497.2990359333918,322.54052779391776L504.0136722173532,321.7078923459767L510.7283085013147,322.5304422424163L517.442944785276,322.0767890300152L524.1575810692375,321.4573310109653L530.872217353199,321.38924819352053L537.5868536371604,321.82601683701284L544.3014899211219,321.75187656833583L551.0161262050833,322.7917258949099L557.7307624890447,322.9654867131115L564.4453987730062,321.65608248350657L571.1600350569676,323.26247495341147L577.874671340929,322.5256298174927L584.5893076248905,322.57708252090055L591.3039439088519,322.6482527520702L598.0185801928134,323.1091870627725L604.7332164767748,321.9924802080829L611.4478527607362,322.87623593321536L618.1624890446977,323.2095458248659L624.8771253286591,322.9666881425393L631.5917616126205,323.0938962952191L638.306397896582,323.54826005293774" style="fill: none;" fill="none"></path></g></g></g></g></g></g><g transform="translate(70, 378)" clip-path="url(#clip_1)"><clipPath id="clip_1"><rect width="1356" height="22"></rect></clipPath><g><g><line x1="7.130587204206837" y1="0" x2="7.130587204206837" y2="5" style="visibility: inherit;" fill="rgb(0, 0, 0)" stroke="rgb(204, 204, 204)" stroke-width="1px"></line><line x1="141.42331288343559" y1="0" x2="141.42331288343559" y2="5" style="visibility: inherit;" fill="rgb(0, 0, 0)" stroke="rgb(204, 204, 204)" stroke-width="1px"></line><line x1="275.7160385626643" y1="0" x2="275.7160385626643" y2="5" style="visibility: inherit;" fill="rgb(0, 0, 0)" stroke="rgb(204, 204, 204)" stroke-width="1px"></line><line x1="410.0087642418931" y1="0" x2="410.0087642418931" y2="5" style="visibility: inherit;" fill="rgb(0, 0, 0)" stroke="rgb(204, 204, 204)" stroke-width="1px"></line><line x1="544.3014899211219" y1="0" x2="544.3014899211219" y2="5" style="visibility: inherit;" fill="rgb(0, 0, 0)" stroke="rgb(204, 204, 204)" stroke-width="1px"></line><line x1="678.5942156003507" y1="0" x2="678.5942156003507" y2="5" style="visibility: inherit;" fill="rgb(0, 0, 0)" stroke="rgb(204, 204, 204)" stroke-width="1px"></line><line x1="812.8869412795793" y1="0" x2="812.8869412795793" y2="5" style="visibility: inherit;" fill="rgb(0, 0, 0)" stroke="rgb(204, 204, 204)" stroke-width="1px"></line><line x1="947.1796669588083" y1="0" x2="947.1796669588083" y2="5" style="visibility: inherit;" fill="rgb(0, 0, 0)" stroke="rgb(204, 204, 204)" stroke-width="1px"></line><line x1="1081.472392638037" y1="0" x2="1081.472392638037" y2="5" style="visibility: inherit;" fill="rgb(0, 0, 0)" stroke="rgb(204, 204, 204)" stroke-width="1px"></line><line x1="1215.7651183172657" y1="0" x2="1215.7651183172657" y2="5" style="visibility: inherit;" fill="rgb(0, 0, 0)" stroke="rgb(204, 204, 204)" stroke-width="1px"></line><line x1="1350.0578439964945" y1="0" x2="1350.0578439964945" y2="5" style="visibility: inherit;" fill="rgb(0, 0, 0)" stroke="rgb(204, 204, 204)" stroke-width="1px"></line></g><g transform="translate(0, 8)"><text x="7.130587204206837" y="0" dx="0em" dy="0.95em" style="text-anchor: middle; visibility: inherit; font-family: &quot;Helvetica Neue&quot;, sans-serif; font-size: 12px; font-weight: 200;" fill="rgb(50, 49, 63)" stroke="none" stroke-width="1px">0</text><text x="141.42331288343559" y="0" dx="0em" dy="0.95em" style="text-anchor: middle; visibility: inherit; font-family: &quot;Helvetica Neue&quot;, sans-serif; font-size: 12px; font-weight: 200;" fill="rgb(50, 49, 63)" stroke="none" stroke-width="1px">20</text><text x="275.7160385626643" y="0" dx="0em" dy="0.95em" style="text-anchor: middle; visibility: inherit; font-family: &quot;Helvetica Neue&quot;, sans-serif; font-size: 12px; font-weight: 200;" fill="rgb(50, 49, 63)" stroke="none" stroke-width="1px">40</text><text x="410.0087642418931" y="0" dx="0em" dy="0.95em" style="text-anchor: middle; visibility: inherit; font-family: &quot;Helvetica Neue&quot;, sans-serif; font-size: 12px; font-weight: 200;" fill="rgb(50, 49, 63)" stroke="none" stroke-width="1px">60</text><text x="544.3014899211219" y="0" dx="0em" dy="0.95em" style="text-anchor: middle; visibility: inherit; font-family: &quot;Helvetica Neue&quot;, sans-serif; font-size: 12px; font-weight: 200;" fill="rgb(50, 49, 63)" stroke="none" stroke-width="1px">80</text><text x="678.5942156003507" y="0" dx="0em" dy="0.95em" style="text-anchor: middle; visibility: inherit; font-family: &quot;Helvetica Neue&quot;, sans-serif; font-size: 12px; font-weight: 200;" fill="rgb(50, 49, 63)" stroke="none" stroke-width="1px">100</text><text x="812.8869412795793" y="0" dx="0em" dy="0.95em" style="text-anchor: middle; visibility: inherit; font-family: &quot;Helvetica Neue&quot;, sans-serif; font-size: 12px; font-weight: 200;" fill="rgb(50, 49, 63)" stroke="none" stroke-width="1px">120</text><text x="947.1796669588083" y="0" dx="0em" dy="0.95em" style="text-anchor: middle; visibility: inherit; font-family: &quot;Helvetica Neue&quot;, sans-serif; font-size: 12px; font-weight: 200;" fill="rgb(50, 49, 63)" stroke="none" stroke-width="1px">140</text><text x="1081.472392638037" y="0" dx="0em" dy="0.95em" style="text-anchor: middle; visibility: inherit; font-family: &quot;Helvetica Neue&quot;, sans-serif; font-size: 12px; font-weight: 200;" fill="rgb(50, 49, 63)" stroke="none" stroke-width="1px">160</text><text x="1215.7651183172657" y="0" dx="0em" dy="0.95em" style="text-anchor: middle; visibility: inherit; font-family: &quot;Helvetica Neue&quot;, sans-serif; font-size: 12px; font-weight: 200;" fill="rgb(50, 49, 63)" stroke="none" stroke-width="1px">180</text><text x="1350.0578439964945" y="0" dx="0em" dy="0.95em" style="text-anchor: middle; visibility: hidden; font-family: &quot;Helvetica Neue&quot;, sans-serif; font-size: 12px; font-weight: 200;" fill="rgb(50, 49, 63)" stroke="none" stroke-width="1px">200</text></g><line x1="0" y1="0" x2="1356" y2="0" fill="rgb(0, 0, 0)" stroke="rgb(204, 204, 204)" stroke-width="1px"></line></g></g></g></g></svg>