<svg viewBox="0 0 1426 400" xmlns="http://www.w3.org/2000/svg"><g><g><g><g><g><line x1="58" y1="376.811320754717" x2="53" y2="376.811320754717" style="visibility: inherit;" fill="rgb(0, 0, 0)" stroke="rgb(204, 204, 204)" stroke-width="1px"></line><line x1="58" y1="339.3679245283019" x2="53" y2="339.3679245283019" style="visibility: inherit;" fill="rgb(0, 0, 0)" stroke="rgb(204, 204, 204)" stroke-width="1px"></line><line x1="58" y1="301.9245283018868" x2="53" y2="301.9245283018868" style="visibility: inherit;" fill="rgb(0, 0, 0)" stroke="rgb(204, 204, 204)" stroke-width="1px"></line><line x1="58" y1="264.4811320754717" x2="53" y2="264.4811320754717" style="visibility: inherit;" fill="rgb(0, 0, 0)" stroke="rgb(204, 204, 204)" stroke-width="1px"></line><line x1="58" y1="227.03773584905667" x2="53" y2="227.03773584905667" style="visibility: inherit;" fill="rgb(0, 0, 0)" stroke="rgb(204, 204, 204)" stroke-width="1px"></line><line x1="58" y1="189.59433962264154" x2="53" y2="189.59433962264154" style="visibility: inherit;" fill="rgb(0, 0, 0)" stroke="rgb(204, 204, 204)" stroke-width="1px"></line><line x1="58" y1="152.1509433962265" x2="53" y2="152.1509433962265" style="visibility: inherit;" fill="rgb(0, 0, 0)" stroke="rgb(204, 204, 204)" stroke-width="1px"></line><line x1="58" y1="114.70754716981139" x2="53" y2="114.70754716981139" style="visibility: inherit;" fill="rgb(0, 0, 0)" stroke="rgb(204, 204, 204)" stroke-width="1px"></line><line x1="58" y1="77.26415094339626" x2="53" y2="77.26415094339626" style="visibility: inherit;" fill="rgb(0, 0, 0)" stroke="rgb(204, 204, 204)" stroke-width="1px"></line><line x1="58" y1="39.82075471698124" x2="53" y2="39.82075471698124" style="visibility: inherit;" fill="rgb(0, 0, 0)" stroke="rgb(204, 204, 204)" stroke-width="1px"></line><line x1="58" y1="2.3773584905661096" x2="53" y2="2.3773584905661096" style="visibility: inherit;" fill="rgb(0, 0, 0)" stroke="rgb(204, 204, 204)" stroke-width="1px"></line></g><g transform="translate(48, 0)"><text x="0" y="376.811320754717" dx="0em" dy="0.3em" style="text-anchor: end; visibility: hidden; font-family: &quot;Helvetica Neue&quot;, sans-serif; font-size: 12px; font-weight: 200;" fill="rgb(50, 49, 63)" stroke="none" stroke-width="1px">0.4</text><text x="0" y="339.3679245283019" dx="0em" dy="0.3em" style="text-anchor: end; visibility: inherit; font-family: &quot;Helvetica Neue&quot;, sans-serif; font-size: 12px; font-weight: 200;" fill="rgb(50, 49, 63)" stroke="none" stroke-width="1px">0.45</text><text x="0" y="301.9245283018868" dx="0em" dy="0.3em" style="text-anchor: end; visibility: inherit; font-family: &quot;Helvetica Neue&quot;, sans-serif; font-size: 12px; font-weight: 200;" fill="rgb(50, 49, 63)" stroke="none" stroke-width="1px">0.5</text><text x="0" y="264.4811320754717" dx="0em" dy="0.3em" style="text-anchor: end; visibility: inherit; font-family: &quot;Helvetica Neue&quot;, sans-serif; font-size: 12px; font-weight: 200;" fill="rgb(50, 49, 63)" stroke="none" stroke-width="1px">0.55</text><text x="0" y="227.03773584905667" dx="0em" dy="0.3em" style="text-anchor: end; visibility: inherit; font-family: &quot;Helvetica Neue&quot;, sans-serif; font-size: 12px; font-weight: 200;" fill="rgb(50, 49, 63)" stroke="none" stroke-width="1px">0.6</text><text x="0" y="189.59433962264154" dx="0em" dy="0.3em" style="text-anchor: end; visibility: inherit; font-family: &quot;Helvetica Neue&quot;, sans-serif; font-size: 12px; font-weight: 200;" fill="rgb(50, 49, 63)" stroke="none" stroke-width="1px">0.65</text><text x="0" y="152.1509433962265" dx="0em" dy="0.3em" style="text-anchor: end; visibility: inherit; font-family: &quot;Helvetica Neue&quot;, sans-serif; font-size: 12px; font-weight: 200;" fill="rgb(50, 49, 63)" stroke="none" stroke-width="1px">0.7</text><text x="0" y="114.70754716981139" dx="0em" dy="0.3em" style="text-anchor: end; visibility: inherit; font-family: &quot;Helvetica Neue&quot;, sans-serif; font-size: 12px; font-weight: 200;" fill="rgb(50, 49, 63)" stroke="none" stroke-width="1px">0.75</text><text x="0" y="77.26415094339626" dx="0em" dy="0.3em" style="text-anchor: end; visibility: inherit; font-family: &quot;Helvetica Neue&quot;, sans-serif; font-size: 12px; font-weight: 200;" fill="rgb(50, 49, 63)" stroke="none" stroke-width="1px">0.8</text><text x="0" y="39.82075471698124" dx="0em" dy="0.3em" style="text-anchor: end; visibility: inherit; font-family: &quot;Helvetica Neue&quot;, sans-serif; font-size: 12px; font-weight: 200;" fill="rgb(50, 49, 63)" stroke="none" stroke-width="1px">0.85</text><text x="0" y="2.3773584905661096" dx="0em" dy="0.3em" style="text-anchor: end; visibility: hidden; font-family: &quot;Helvetica Neue&quot;, sans-serif; font-size: 12px; font-weight: 200;" fill="rgb(50, 49, 63)" stroke="none" stroke-width="1px">0.9</text></g><line x1="58" y1="0" x2="58" y2="378" fill="rgb(0, 0, 0)" stroke="rgb(204, 204, 204)" stroke-width="1px"></line></g></g><g transform="translate(58, 0)" clip-path="url(#clip_0)"><clipPath id="clip_0"><rect width="1368" height="378"></rect></clipPath><g><g><g><line x1="17.64402407566638" y1="0" x2="17.64402407566638" y2="378" fill="rgb(0, 0, 0)" stroke="rgb(60, 60, 60)" stroke-width="1px" opacity="0.25"></line><line x1="151.73860705073088" y1="0" x2="151.73860705073088" y2="378" fill="rgb(0, 0, 0)" stroke="rgb(60, 60, 60)" stroke-width="1px" opacity="0.25"></line><line x1="285.8331900257954" y1="0" x2="285.8331900257954" y2="378" fill="rgb(0, 0, 0)" stroke="rgb(60, 60, 60)" stroke-width="1px" opacity="0.25"></line><line x1="419.9277730008599" y1="0" x2="419.9277730008599" y2="378" fill="rgb(0, 0, 0)" stroke="rgb(60, 60, 60)" stroke-width="1px" opacity="0.25"></line><line x1="554.0223559759244" y1="0" x2="554.0223559759244" y2="378" fill="rgb(0, 0, 0)" stroke="rgb(60, 60, 60)" stroke-width="1px" opacity="0.25"></line><line x1="688.1169389509888" y1="0" x2="688.1169389509888" y2="378" fill="rgb(0, 0, 0)" stroke="rgb(60, 60, 60)" stroke-width="1px" opacity="0.25"></line><line x1="822.2115219260533" y1="0" x2="822.2115219260533" y2="378" fill="rgb(0, 0, 0)" stroke="rgb(60, 60, 60)" stroke-width="1px" opacity="0.25"></line><line x1="956.3061049011177" y1="0" x2="956.3061049011177" y2="378" fill="rgb(0, 0, 0)" stroke="rgb(60, 60, 60)" stroke-width="1px" opacity="0.25"></line><line x1="1090.4006878761822" y1="0" x2="1090.4006878761822" y2="378" fill="rgb(0, 0, 0)" stroke="rgb(60, 60, 60)" stroke-width="1px" opacity="0.25"></line><line x1="1224.4952708512467" y1="0" x2="1224.4952708512467" y2="378" fill="rgb(0, 0, 0)" stroke="rgb(60, 60, 60)" stroke-width="1px" opacity="0.25"></line><line x1="1358.5898538263111" y1="0" x2="1358.5898538263111" y2="378" fill="rgb(0, 0, 0)" stroke="rgb(60, 60, 60)" stroke-width="1px" opacity="0.25"></line></g><g><line x1="0" y1="376.811320754717" x2="1368" y2="376.811320754717" fill="rgb(0, 0, 0)" stroke="rgb(60, 60, 60)" stroke-width="1px" opacity="0.25"></line><line x1="0" y1="339.3679245283019" x2="1368" y2="339.3679245283019" fill="rgb(0, 0, 0)" stroke="rgb(60, 60, 60)" stroke-width="1px" opacity="0.25"></line><line x1="0" y1="301.9245283018868" x2="1368" y2="301.9245283018868" fill="rgb(0, 0, 0)" stroke="rgb(60, 60, 60)" stroke-width="1px" opacity="0.25"></line><line x1="0" y1="264.4811320754717" x2="1368" y2="264.4811320754717" fill="rgb(0, 0, 0)" stroke="rgb(60, 60, 60)" stroke-width="1px" opacity="0.25"></line><line x1="0" y1="227.03773584905667" x2="1368" y2="227.03773584905667" fill="rgb(0, 0, 0)" stroke="rgb(60, 60, 60)" stroke-width="1px" opacity="0.25"></line><line x1="0" y1="189.59433962264154" x2="1368" y2="189.59433962264154" fill="rgb(0, 0, 0)" stroke="rgb(60, 60, 60)" stroke-width="1px" opacity="0.25"></line><line x1="0" y1="152.1509433962265" x2="1368" y2="152.1509433962265" fill="rgb(0, 0, 0)" stroke="rgb(60, 60, 60)" stroke-width="1px" opacity="0.25"></line><line x1="0" y1="114.70754716981139" x2="1368" y2="114.70754716981139" fill="rgb(0, 0, 0)" stroke="rgb(60, 60, 60)" stroke-width="1px" opacity="0.25"></line><line x1="0" y1="77.26415094339626" x2="1368" y2="77.26415094339626" fill="rgb(0, 0, 0)" stroke="rgb(60, 60, 60)" stroke-width="1px" opacity="0.25"></line><line x1="0" y1="39.82075471698124" x2="1368" y2="39.82075471698124" fill="rgb(0, 0, 0)" stroke="rgb(60, 60, 60)" stroke-width="1px" opacity="0.25"></line><line x1="0" y1="2.3773584905661096" x2="1368" y2="2.3773584905661096" fill="rgb(0, 0, 0)" stroke="rgb(60, 60, 60)" stroke-width="1px" opacity="0.25"></line></g></g></g><g><g><line x1="0" y1="676.3584905660377" x2="1368" y2="676.3584905660377" fill="rgb(0, 0, 0)" stroke="rgb(153, 153, 153)" stroke-width="1.5px"></line></g></g><g><g><line x1="17.64402407566638" y1="0" x2="17.64402407566638" y2="378" fill="rgb(0, 0, 0)" stroke="rgb(153, 153, 153)" stroke-width="1.5px"></line></g></g><g><g><g><g><g><path stroke="rgb(187, 187, 187)" stroke-width="2px" d="M17.64402407566638,338.0569069869113L24.348753224419607,337.6637335123038L31.05348237317283,331.04677432213197L37.75821152192606,306.43706430462544L44.46294067067928,261.3080923282629L51.167669819432504,221.8426715743459L57.872398968185735,197.43584364159224L64.57712811693895,178.0239009010838L71.28185726569218,154.51639234882427L77.9865864144454,139.70719538812403L84.69131556319863,129.32574313942217L91.39604471195186,122.87792999316278L98.10077386070508,111.75025092547145L104.80550300945829,111.8569896763907L111.51023215821152,102.62578481868849L118.21496130696475,93.6060529507447L124.91969045571797,84.87121861202945L131.6244196044712,79.12712980503204L138.32914875322442,76.13620421323287L145.03387790197766,84.24814308557643L151.73860705073088,75.18094941850217L158.4433361994841,69.23224258506775L165.1480653482373,65.39566109576623L171.85279449699055,61.84277479862368L178.55752364574377,60.84029440959716L185.26225279449702,60.623446052648774L191.96698194325023,61.17389423757476L198.67171109200342,55.95292207022908L205.37644024075666,51.13765202401635L212.08116938950988,48.99134157267213L218.78589853826313,46.63871889024614L225.49062768701634,47.51304483372684L232.1953568357696,45.9263214322844L238.9000859845228,42.949044634884785L245.60481513327605,41.229757602947984L252.30954428202926,38.96114310233156L259.01427343078245,36.8027574792751L265.7190025795357,37.73274178050457L272.42373172828894,37.59303586512067L279.12846087704213,37.11529062989439L285.8331900257954,38.03101252779584L292.5379191745486,35.87611071296857L299.24264832330186,33.52595688031164L305.94737747205505,33.81553229612308L312.65210662080824,33.57250222447374L319.35683576956154,32.995357522252846L326.06156491831473,30.649698983307474L332.7662940670679,31.05102626610062L339.47102321582116,31.38032690970823L346.1757523645744,28.91417325567801L352.8804815133276,29.623841479443854L359.58521066208084,31.9560105478634L366.2899398108341,32.90564885816781L372.99466895958733,31.39634021895364L379.6993981083405,36.28777605106478L386.4041272570937,32.288469629908434L393.10885640584695,32.634803632784894L399.81358555460025,31.149738847243327L406.51831470335344,27.36792935164965L413.2230438521066,27.651451892370005L419.9277730008599,26.882709507850507L426.63250214961306,24.319572379561066L433.33723129836636,22.432904346818134L440.04196044711955,22.051181235334013L446.7466895958728,21.81682675645385L453.451418744626,24.29191976616721L460.15614789337917,24.351979987687457L466.8608770421324,22.938274334218477L473.5656061908857,21.977300389401876L480.2703353396389,24.332748171304956L486.9750644883921,23.184249293811092L493.67979363714534,20.318698284270283L500.3845227858985,21.82071256788072L507.0892519346518,24.039826015259848L513.793981083405,22.306764412827988L520.4987102321583,19.022468348630298L527.2034393809115,21.10662555194432L533.9081685296646,20.380905316608846L540.612897678418,19.883661233433145L547.3176268271711,19.221816999974635L554.0223559759244,21.386620841756496L560.7270851246776,20.86053323435067L567.4318142734307,19.15637948461591L574.136543422184,18.24374537428099L580.8412725709372,19.945355427520838L587.5460017196905,22.979244668637136L594.2507308684437,20.93817084336939L600.9554600171969,19.942705660625165L607.6601891659501,19.693783801084294L614.3649183147035,16.896015722663208L621.0696474634566,19.456507842415704L627.7743766122098,21.990042919884672L634.4791057609631,23.31330132274627L641.1838349097162,20.041523210598257L647.8885640584696,22.243049324647927L654.5932932072227,19.7896692536699L661.298022355976,19.424917700232925L668.0027515047292,20.42891480567465L674.7074806534823,20.69157949531393L681.4122098022356,20.98812127052048L688.1169389509888,18.47376310563652L694.821668099742,18.664833775785553L701.5263972484954,17.206253342766104L708.2311263972485,16.06028950355801L714.9358555460018,15.547095150716359L721.640584694755,16.39059111151238L728.3453138435082,15.589228636327391L735.0500429922614,15.00776588347793L741.7547721410147,16.370714794649757L748.4595012897678,14.88558757874057L755.164230438521,15.653220964192599L761.8689595872743,14.67489683149131L768.5736887360275,14.463059060353942L775.2784178847809,15.427199633241742L781.983147033534,13.015125096294355L788.6878761822873,12.263077250112019L795.3926053310405,12.772790347432363" style="fill: none;" fill="none"></path></g><g><path stroke="rgb(0, 119, 187)" stroke-width="2px" d="M17.64402407566638,354.83038178254975L24.348753224419607,345.1573406843082L31.05348237317283,330.79539526408576L37.75821152192606,299.2608427705531L44.46294067067928,258.16748450253897L51.167669819432504,219.2058596408889L57.872398968185735,190.5331553548377L64.57712811693895,164.67561952414312L71.28185726569218,144.66298586156378L77.9865864144454,130.89316828658872L84.69131556319863,114.92997111708212L91.39604471195186,105.24522872486187L98.10077386070508,97.33924802244155L104.80550300945829,90.61516367807508L111.51023215821152,93.21800992815974L118.21496130696475,91.19327638494195L124.91969045571797,80.54368836371094L131.6244196044712,72.81171263677606L138.32914875322442,67.44111537813058L145.03387790197766,75.14792093983402L151.73860705073088,72.84203901767091L158.4433361994841,68.97153405021032L165.1480653482373,60.64451282571588L171.85279449699055,59.41692451139801L178.55752364574377,56.284789668070516L185.26225279449702,52.57584571967095L191.96698194325023,51.11051038966366L198.67171109200342,47.493282260499825L205.37644024075666,53.417885987187276L212.08116938950988,48.34302292225101L218.78589853826313,45.68368953209466L225.49062768701634,40.89956097272983L232.1953568357696,37.02659503292506L238.9000859845228,36.87955300325791L245.60481513327605,36.91293412669421L252.30954428202926,40.77767634350437L259.01427343078245,42.25424019784839L265.7190025795357,39.21040661232985L272.42373172828894,35.135737246324084L279.12846087704213,33.61413323159212L285.8331900257954,31.934145685592227L292.5379191745486,30.330226761316283L299.24264832330186,29.374160156979315L305.94737747205505,34.04967886578066L312.65210662080824,29.683108652495946L319.35683576956154,28.941092595667897L326.06156491831473,28.914158052499715L332.7662940670679,30.211831400037454L339.47102321582116,30.67060949386638L346.1757523645744,31.79217503578019L352.8804815133276,27.19424473695733L359.58521066208084,25.411497478547062L366.2899398108341,26.147750533952205L372.99466895958733,27.686244758781868L379.6993981083405,26.807242870997356L386.4041272570937,24.921460930305784L393.10885640584695,29.0582546470456L399.81358555460025,26.005341074745616L406.51831470335344,24.209158901444823L413.2230438521066,25.522296947531174L419.9277730008599,23.261540522682026L426.63250214961306,22.465679202179786L433.33723129836636,21.52910786334229L440.04196044711955,21.817231024612568L446.7466895958728,20.97529638354979L453.451418744626,24.02400088320195L460.15614789337917,25.385795321614353L466.8608770421324,22.136067566637678L473.5656061908857,19.713624875504138L480.2703353396389,18.832499992174803L486.9750644883921,20.78203400441066L493.67979363714534,18.266337888736416L500.3845227858985,17.345597729107567L507.0892519346518,16.872427181096725L513.793981083405,17.14060083663321L520.4987102321583,19.981290178107884L527.2034393809115,18.507709383292024L533.9081685296646,17.62334665357082L540.612897678418,15.078984504043888L547.3176268271711,19.3991841589538L554.0223559759244,19.523771942451106L560.7270851246776,17.96743565845162L567.4318142734307,16.82307691759962L574.136543422184,14.90963210379357L580.8412725709372,14.235831713104005L587.5460017196905,13.790772023037505L594.2507308684437,12.506481618009445L600.9554600171969,11.81543088439605L607.6601891659501,13.725265125241549L614.3649183147035,12.416756646248075L621.0696474634566,11.717977595665104L627.7743766122098,12.39568466413607L634.4791057609631,19.600051334987995L641.1838349097162,20.31613556539139L647.8885640584696,15.991819290815783L654.5932932072227,14.243528211684122L661.298022355976,15.495021928056985L668.0027515047292,14.875610608889929L674.7074806534823,13.458463561409133L681.4122098022356,12.429613452017236L688.1169389509888,9.906970807579171L694.821668099742,9.034983180146867L701.5263972484954,8.698226276159517L708.2311263972485,9.767459165660512L714.9358555460018,12.809791151703791L721.640584694755,15.37934399138237L728.3453138435082,13.80046534560637L735.0500429922614,11.882412140458712L741.7547721410147,9.4479379388427" style="fill: none;" fill="none"></path></g><g><path stroke="rgb(238, 51, 119)" stroke-width="2px" d="M17.64402407566638,360.5444155346672L24.348753224419607,339.3340965727309L31.05348237317283,313.1232200219947L37.75821152192606,286.95820845001606L44.46294067067928,249.02827040105896L51.167669819432504,219.3773217136642L57.872398968185735,192.4328765913481L64.57712811693895,185.10231121705525L71.28185726569218,166.36748365928193L77.9865864144454,153.7171866292269L84.69131556319863,135.51792479909884L91.39604471195186,129.42062172865747L98.10077386070508,116.37952639153957L104.80550300945829,107.01297844875495L111.51023215821152,99.23883345514923L118.21496130696475,96.30412307310235L124.91969045571797,88.99963196082336L131.6244196044712,86.48091768939821L138.32914875322442,80.76868801044742L145.03387790197766,76.3200674047248L151.73860705073088,79.58864670266024L158.4433361994841,72.30836648681651L165.1480653482373,67.74875185011956L171.85279449699055,70.66327285831687L178.55752364574377,73.66380591673004L185.26225279449702,68.2863703668827L191.96698194325023,63.175273652606904L198.67171109200342,59.93178885954819L205.37644024075666,58.4484676912661L212.08116938950988,55.26852271314232L218.78589853826313,54.313535044045295L225.49062768701634,55.00729463809489L232.1953568357696,50.44993844746921L238.9000859845228,48.376655567044224L245.60481513327605,52.21613792351684L252.30954428202926,53.167838349341366L259.01427343078245,47.52145563404508L265.7190025795357,47.54924468448445L272.42373172828894,44.92810866128292L279.12846087704213,43.25110377627544L285.8331900257954,43.567965647345545L292.5379191745486,47.45924687775914L299.24264832330186,47.80062512156002L305.94737747205505,42.885184329303854L312.65210662080824,41.46566721931026L319.35683576956154,40.91687474878864L326.06156491831473,42.19363849373735L332.7662940670679,42.641317032612676L339.47102321582116,41.92498603372684L346.1757523645744,39.07045242808533L352.8804815133276,37.085666877132155L359.58521066208084,34.90285849853302L366.2899398108341,38.242531339076436L372.99466895958733,36.24161038338491L379.6993981083405,36.42413125685778L386.4041272570937,35.78832959671632L393.10885640584695,36.28316053710029L399.81358555460025,37.14095516058279L406.51831470335344,38.134254906512865L413.2230438521066,35.224897736183664L419.9277730008599,33.067310947238354L426.63250214961306,34.099616044839934L433.33723129836636,31.771505041912746L440.04196044711955,38.0929717249665L446.7466895958728,36.20270609926581L453.451418744626,35.025803283900984L460.15614789337917,36.16625318876652L466.8608770421324,32.59614035941996L473.5656061908857,33.64017296031585L480.2703353396389,33.07600738893808L486.9750644883921,30.917376676754657L493.67979363714534,31.046211841606805L500.3845227858985,31.42857326419727L507.0892519346518,29.630015647145285L513.793981083405,28.94814153587828L520.4987102321583,27.42027805346686L527.2034393809115,27.59444611153708L533.9081685296646,26.821831561791612L540.612897678418,24.80166244570256L547.3176268271711,25.331097264940354L554.0223559759244,26.617395209054962L560.7270851246776,25.261375539700794L567.4318142734307,26.729092182299212L574.136543422184,25.578408923956374L580.8412725709372,26.445045715258516L587.5460017196905,25.09558256056357L594.2507308684437,24.822661574615893L600.9554600171969,26.48659276472506L607.6601891659501,24.772582045801414L614.3649183147035,24.760358941276365L621.0696474634566,24.64900532872207L627.7743766122098,24.000550286057774L634.4791057609631,24.36373680731498L641.1838349097162,22.52644628542157L647.8885640584696,21.520842834648874L654.5932932072227,23.95344339080441L661.298022355976,23.895111683201435L668.0027515047292,22.517711540990888L674.7074806534823,19.772405239652926L681.4122098022356,22.169904271990617L688.1169389509888,22.03210989902857L694.821668099742,21.745107491323836L701.5263972484954,22.219199713828516L708.2311263972485,20.14305305535396L714.9358555460018,20.175383201961836L721.640584694755,20.853555184506376L728.3453138435082,21.528327976992273L735.0500429922614,20.03551861241766L741.7547721410147,19.589871066870728L748.4595012897678,21.045682356912152L755.164230438521,21.57748942742245L761.8689595872743,23.906711592087504L768.5736887360275,21.889608238462017L775.2784178847809,19.97754322132016L781.983147033534,18.43252597439391L788.6878761822873,17.594216298603783L795.3926053310405,19.290035888291982L802.0973344797936,20.865870521778106L808.8020636285469,23.237491713544728L815.5067927773001,21.889139758065028L822.2115219260533,20.483630846640835L828.9162510748065,19.30794794005243L835.6209802235597,16.75101878688372L842.325709372313,17.352962028037723L849.0304385210663,16.66905622241319L855.7351676698195,16.05790427243295L862.4398968185726,14.080335332146944L869.1446259673257,17.942822638988105L875.849355116079,16.684488823543177L882.5540842648322,17.034693912718694L889.2588134135856,17.46788987293405L895.9635425623387,15.840668506560633L902.668271711092,16.679664221780683L909.3730008598452,19.225194662820513L916.0777300085985,15.857067828027766L922.7824591573516,15.53635936510301L929.4871883061048,13.480773807604578L936.1919174548581,19.119528489912398L942.8966466036112,19.419343816031358L949.6013757523644,18.023296307391035L956.3061049011177,16.59066983389306" style="fill: none;" fill="none"></path></g><g><path stroke="rgb(238, 51, 119)" stroke-width="2px" d="M17.64402407566638,345.56026433661305L24.348753224419607,298.9950197613183L31.05348237317283,247.94912459377977L37.75821152192606,220.0918790549165L44.46294067067928,194.58743619614694L51.167669819432504,169.16289281199178L57.872398968185735,152.91229813574301L64.57712811693895,140.87437438346404L71.28185726569218,131.6192442735935L77.9865864144454,114.21381338598508L84.69131556319863,103.00936545395336L91.39604471195186,100.05176402518589L98.10077386070508,95.427717855058L104.80550300945829,89.55173676056103L111.51023215821152,87.79229788237205L118.21496130696475,85.18091032354391L124.91969045571797,76.02985795792574L131.6244196044712,72.51020502259445L138.32914875322442,68.39946988723273L145.03387790197766,68.99584893439294L151.73860705073088,67.81857861016226L158.4433361994841,66.49435535358407L165.1480653482373,64.69585371056183L171.85279449699055,56.942129573266016L178.55752364574377,54.18077663863812L185.26225279449702,49.73619657144542L191.96698194325023,48.241042629991114L198.67171109200342,45.18404926632428L205.37644024075666,45.22201423807394L212.08116938950988,44.82808921659847L218.78589853826313,42.25225371548743L225.49062768701634,44.12156810171433L232.1953568357696,40.17082772955143L238.9000859845228,41.111714800558104L245.60481513327605,43.06210578343223L252.30954428202926,48.95211603212283L259.01427343078245,44.734347513509306L265.7190025795357,39.37240665389493L272.42373172828894,38.19646459278903L279.12846087704213,39.22158017219573L285.8331900257954,35.85047558010933L292.5379191745486,36.210500715789976L299.24264832330186,33.85321430559691L305.94737747205505,31.76683845285646L312.65210662080824,29.330926811970016L319.35683576956154,30.945497005971333L326.06156491831473,29.959092760037663L332.7662940670679,29.447255790777888L339.47102321582116,28.691758141069442L346.1757523645744,27.7845827814794L352.8804815133276,29.909064401863475L359.58521066208084,27.354198258466283L366.2899398108341,25.722222346529918L372.99466895958733,24.184568938877646L379.6993981083405,24.902064467321736L386.4041272570937,24.30950451253807L393.10885640584695,24.00542492810564L399.81358555460025,25.274986472963974L406.51831470335344,23.25791773462845L413.2230438521066,22.90067057823478L419.9277730008599,23.030412332270885L426.63250214961306,21.42248039527749L433.33723129836636,23.080015204701L440.04196044711955,22.537147041364904L446.7466895958728,21.574148949574067L453.451418744626,20.482964600699177L460.15614789337917,21.820269695043407L466.8608770421324,21.97341310808514L473.5656061908857,21.5844265293357L480.2703353396389,20.323406583158146L486.9750644883921,20.333694772480385L493.67979363714534,22.323438257289354L500.3845227858985,20.37437384968166L507.0892519346518,19.749512340346996L513.793981083405,19.318889698478017L520.4987102321583,17.252668573023016L527.2034393809115,18.967875245143205L533.9081685296646,19.61302246502271L540.612897678418,19.43043037159441L547.3176268271711,18.249664519740804L554.0223559759244,17.46452034924647L560.7270851246776,17.247519851063146L567.4318142734307,16.479238910244703L574.136543422184,17.348798285640044L580.8412725709372,16.74051091275112L587.5460017196905,16.801651662664597L594.2507308684437,15.219048918666488L600.9554600171969,14.68608404930194L607.6601891659501,17.42921004790128L614.3649183147035,17.884482660743117L621.0696474634566,16.027848099528512L627.7743766122098,16.30408257074538L634.4791057609631,17.04562773894054L641.1838349097162,15.631732979957974L647.8885640584696,14.565054634560624L654.5932932072227,15.027057067690237L661.298022355976,15.189865369789004L668.0027515047292,14.289971311780448L674.7074806534823,15.986334517702915L681.4122098022356,15.77041321813607" style="fill: none;" fill="none"></path></g><g><path stroke="rgb(187, 187, 187)" stroke-width="2px" d="M17.64402407566638,312.21375273308666L24.348753224419607,272.6182113610348L31.05348237317283,232.58334009377467L37.75821152192606,210.16943911069419L44.46294067067928,180.1211252458911L51.167669819432504,153.2513484046856L57.872398968185735,143.29511103795735L64.57712811693895,128.83942611186106L71.28185726569218,113.7796124833398L77.9865864144454,105.65407583839198L84.69131556319863,95.00605344455909L91.39604471195186,87.54599607339014L98.10077386070508,83.51914182492197L104.80550300945829,79.86784940248424L111.51023215821152,74.30698073740979L118.21496130696475,73.37996107256254L124.91969045571797,67.7519435936473L131.6244196044712,65.86009438902278L138.32914875322442,59.54146248263504L145.03387790197766,57.53380343227252L151.73860705073088,54.431165360310956L158.4433361994841,53.75667380756721L165.1480653482373,50.115562847971205L171.85279449699055,48.332105004011055L178.55752364574377,42.7501617658304L185.26225279449702,43.86015064784249L191.96698194325023,43.74101245954017L198.67171109200342,43.202101076174245L205.37644024075666,41.998639209440796L212.08116938950988,41.29241708624994L218.78589853826313,43.60574634716704L225.49062768701634,38.40793251287806L232.1953568357696,38.800705722732744L238.9000859845228,38.25465030301643L245.60481513327605,37.39741976068865L252.30954428202926,33.73713566533115L259.01427343078245,32.90909455261328L265.7190025795357,33.08634500841629L272.42373172828894,30.00177428714869L279.12846087704213,31.92238162679803L285.8331900257954,31.5610854798623L292.5379191745486,29.842502566655014L299.24264832330186,28.122547819223712L305.94737747205505,30.798541605287937L312.65210662080824,28.686047796377977L319.35683576956154,25.61131102041628L326.06156491831473,26.086202219360075L332.7662940670679,27.92618399196101L339.47102321582116,25.240397548938688L346.1757523645744,22.58987086651615L352.8804815133276,21.119340044456237L359.58521066208084,23.318495050208128L366.2899398108341,24.131047999210466L372.99466895958733,21.573386415818618L379.6993981083405,19.67564877028508L386.4041272570937,21.43049067643824L393.10885640584695,20.329797772477036L399.81358555460025,17.7366250888266L406.51831470335344,17.28605183789773L413.2230438521066,17.67249994322617L419.9277730008599,17.127737999950114L426.63250214961306,20.175934275734107L433.33723129836636,18.197400676075347L440.04196044711955,17.85113360908548L446.7466895958728,15.956328716888379L453.451418744626,14.631242523235642L460.15614789337917,15.264310911815869L466.8608770421324,14.338941548035393L473.5656061908857,13.168457214445311L480.2703353396389,11.906377528003475L486.9750644883921,11.040949890481443L493.67979363714534,13.37130953412867L500.3845227858985,14.25485430952574L507.0892519346518,13.398461828166944L513.793981083405,15.46096307854998L520.4987102321583,15.216673389641869L527.2034393809115,14.56217752970764L533.9081685296646,13.268314748789692L540.612897678418,13.059570686082225L547.3176268271711,13.123170265287627L554.0223559759244,13.184951387516946L560.7270851246776,11.173566590408484L567.4318142734307,10.10078656724022L574.136543422184,12.565355801885914L580.8412725709372,9.651467930688L587.5460017196905,9.680755244616307L594.2507308684437,9.807632285996988L600.9554600171969,10.166250869554972L607.6601891659501,9.674155567512287L614.3649183147035,9.87025154721681L621.0696474634566,9.51399972549848L627.7743766122098,8.188919193916092L634.4791057609631,7.472733771472065L641.1838349097162,7.330335565450639L647.8885640584696,6.300791538506985" style="fill: none;" fill="none"></path></g></g></g></g><g opacity="0.2"><g><g><g><path stroke="rgb(187, 187, 187)" stroke-width="2px" d="M17.64402407566638,338.0569069869114L24.348753224419607,337.4278294275392L31.05348237317283,324.694493499567L37.75821152192606,277.4960453240377L44.46294067067928,202.38770651592404L51.167669819432504,167.24778712020733L57.872398968185735,162.53368918850742L64.57712811693895,149.72110203077213L71.28185726569218,119.8473833327024L77.9865864144454,117.71726382453494L84.69131556319863,113.84772377419029L91.39604471195186,113.2412989881804L98.10077386070508,95.09506612678751L104.80550300945829,112.01688869044472L111.51023215821152,88.78982846691929L118.21496130696475,80.0828165625627L124.91969045571797,71.77266339311069L131.6244196044712,70.51245501806159L138.32914875322442,71.65027146294437L145.03387790197766,96.41530993074747L151.73860705073088,61.58065618434051L158.4433361994841,60.309378079648354L165.1480653482373,59.64086460842287L171.85279449699055,56.51348744023528L178.55752364574377,59.336580951258895L185.26225279449702,60.29817444198545L191.96698194325023,61.999565106517935L198.67171109200342,48.12147183463264L205.37644024075666,43.91475139024135L212.08116938950988,45.7718770818891L218.78589853826313,43.10978564676253L225.49062768701634,48.824533574986106L232.1953568357696,43.5462365195437L238.9000859845228,38.483129652041384L245.60481513327605,38.650827128932235L252.30954428202926,35.55822140990574L259.01427343078245,33.56517907808421L265.7190025795357,39.12771822371582L272.42373172828894,37.38347699282315L279.12846087704213,36.39867277865147L285.8331900257954,39.40459537281191L292.5379191745486,32.64375799332032L299.24264832330186,30.000726133022738L305.94737747205505,34.249895419714676L312.65210662080824,33.20795711706279L319.35683576956154,32.12964046901135L326.06156491831473,27.131211175108945L332.7662940670679,31.653017190267576L339.47102321582116,31.874277875108646L346.1757523645744,25.214942774682754L352.8804815133276,30.688343815083897L359.58521066208084,35.45426415047564L366.2899398108341,34.33010632362016L372.99466895958733,29.132377260136252L379.6993981083405,43.624929799223935L386.4041272570937,26.289509998177664L393.10885640584695,33.1543046370993L399.81358555460025,28.9221416689316L406.51831470335344,21.69521510825973L413.2230438521066,28.076735703450424L419.9277730008599,25.72959593107123L426.63250214961306,20.474866687126962L433.33723129836636,19.602902297703793L440.04196044711955,21.478596568107662L446.7466895958728,21.465295038133377L453.451418744626,28.004559280737453L460.15614789337917,24.44207031996757L466.8608770421324,20.81771585401509L473.5656061908857,20.535839472176974L480.2703353396389,27.865919844159635L486.9750644883921,21.461500977570267L493.67979363714534,16.020371769959183L500.3845227858985,24.073733993296457L507.0892519346518,27.368496186328457L513.793981083405,19.707172009180283L520.4987102321583,14.096024252333791L527.2034393809115,24.232861356915237L533.9081685296646,19.292324963605722L540.612897678418,19.13779510866931L547.3176268271711,18.229050649786984L554.0223559759244,24.633826604429373L560.7270851246776,20.071401823241843L567.4318142734307,16.600148860013803L574.136543422184,16.87479420877861L580.8412725709372,22.49777050738072L587.5460017196905,27.53007853031164L594.2507308684437,17.87656010546783L600.9554600171969,18.449507886508798L607.6601891659501,19.320401011772958L614.3649183147035,12.699363605031522L621.0696474634566,23.297246022044533L627.7743766122098,25.790345536088125L634.4791057609631,25.298188927038723L641.1838349097162,15.13385604237618L647.8885640584696,25.545338495722433L654.5932932072227,16.109599147202914L661.298022355976,18.87779037007755L668.0027515047292,21.93491046383707L674.7074806534823,21.085576529772823L681.4122098022356,21.432933933330105L688.1169389509888,14.702225858310555L694.821668099742,18.95143978100907L701.5263972484954,15.018382693236788L708.2311263972485,14.34134374474587L714.9358555460018,14.777303621454166L721.640584694755,17.655835052706266L728.3453138435082,14.387184923549967L735.0500429922614,14.135571754203738L741.7547721410147,18.415138161407413L748.4595012897678,12.657896754876731L755.164230438521,16.804671042370444L761.8689595872743,13.207410632439462L768.5736887360275,14.145302403648031L775.2784178847809,16.873410492573214L781.983147033534,9.39701329087319L788.6878761822873,11.135005480838345L795.3926053310405,13.537359993412906" style="fill: none;" fill="none"></path></g><g><path stroke="rgb(0, 119, 187)" stroke-width="2px" d="M17.64402407566638,354.83038178254975L24.348753224419607,339.3535160253633L31.05348237317283,317.0079276606722L37.75821152192606,262.1762090381587L44.46294067067928,204.51599594781987L51.167669819432504,165.30790627227643L57.872398968185735,149.53072946251567L64.57712811693895,126.97508405064642L71.28185726569218,115.1482384632219L77.9865864144454,110.44659397737041L84.69131556319863,91.12996038625835L91.39604471195186,90.77081907695202L98.10077386070508,85.50609136752371L104.80550300945829,80.54221034274917L111.51023215821152,97.11921975522677L118.21496130696475,88.15760406908004L124.91969045571797,64.57381288060611L131.6244196044712,61.21571219417291L138.32914875322442,59.38603764659962L145.03387790197766,86.70742484983413L151.73860705073088,69.38334259447066L158.4433361994841,63.16590395963425L165.1480653482373,48.1541453914823L171.85279449699055,57.57555658187516L178.55752364574377,51.58660966495307L185.26225279449702,47.012445614023136L191.96698194325023,48.912511144044345L198.67171109200342,42.067445620051046L205.37644024075666,62.30478611982102L212.08116938950988,40.73073112964636L218.78589853826313,41.69469032872405L225.49062768701634,33.72336908556389L232.1953568357696,31.21714658557255L238.9000859845228,36.65898996928962L245.60481513327605,36.96300581041379L252.30954428202926,46.574789569063114L259.01427343078245,44.469085956519564L265.7190025795357,34.644656262307876L272.42373172828894,29.023733220010513L279.12846087704213,31.331727214579416L285.8331900257954,29.4141643699611L292.5379191745486,27.92434837683203L299.24264832330186,27.940060251164084L305.94737747205505,41.062956926957725L312.65210662080824,23.133253333703635L319.35683576956154,27.82806851054147L326.06156491831473,28.873756237749888L332.7662940670679,32.15834142127136L339.47102321582116,31.358776634594278L346.1757523645744,33.474523348628395L352.8804815133276,20.297349288778605L359.58521066208084,22.73737659094479L366.2899398108341,27.252130117056595L372.99466895958733,29.993986096022354L379.6993981083405,25.48874003932167L386.4041272570937,22.09278801927036L393.10885640584695,35.26344522215294L399.81358555460025,21.425970716296547L406.51831470335344,21.514885641493947L413.2230438521066,27.492004016660417L419.9277730008599,19.870405885408616L426.63250214961306,21.271887221426425L433.33723129836636,20.124250855086075L440.04196044711955,22.249415766518155L446.7466895958728,19.712394421955423L453.451418744626,28.597057632680333L460.15614789337917,27.42848697923273L466.8608770421324,17.261475934172665L473.5656061908857,16.0799608388038L480.2703353396389,17.51081266718103L486.9750644883921,23.706335022764506L493.67979363714534,14.492793715225162L500.3845227858985,15.964487489664407L507.0892519346518,16.162671359080264L513.793981083405,17.542861319937856L520.4987102321583,24.242324190319778L527.2034393809115,16.29733819106849L533.9081685296646,16.296802558988986L540.612897678418,11.262441279753261L547.3176268271711,25.879483641318643L554.0223559759244,19.710653617697062L560.7270851246776,15.63293123245245L567.4318142734307,15.106538806321566L574.136543422184,12.03946488308469L580.8412725709372,13.225131127069687L587.5460017196905,13.123182487937697L594.2507308684437,10.5800460104673L600.9554600171969,10.77885478397593L607.6601891659501,16.590016486509853L614.3649183147035,10.453993927757779L621.0696474634566,10.669809019790591L627.7743766122098,13.41224526684249L634.4791057609631,30.406601341265628L641.1838349097162,21.390261910996458L647.8885640584696,9.505344878952542L654.5932932072227,11.621091592986716L661.298022355976,17.372262502616366L668.0027515047292,13.946493630139457L674.7074806534823,11.332742990187967L681.4122098022356,10.88633828792939L688.1169389509888,6.123006840921903L694.821668099742,7.727001738998183L701.5263972484954,8.19309092017852L708.2311263972485,11.371308499912118L714.9358555460018,17.373289130768796L721.640584694755,19.23367325090021L728.3453138435082,11.432147376942282L735.0500429922614,9.005332332737112L741.7547721410147,5.796226636418851" style="fill: none;" fill="none"></path></g><g><path stroke="rgb(238, 51, 119)" stroke-width="2px" d="M17.64402407566638,360.5444155346673L24.348753224419607,326.6079051955691L31.05348237317283,287.9607785332878L37.75821152192606,256.18815484136906L44.46294067067928,199.50694328434068L51.167669819432504,178.35938533746977L57.872398968185735,153.90188895531426L64.57712811693895,174.41427652790867L71.28185726569218,138.73725206447105L77.9865864144454,134.93296985581242L84.69131556319863,108.38409801924013L91.39604471195186,120.30784837704789L98.10077386070508,96.86046482482055L104.80550300945829,92.981506577078L111.51023215821152,87.58675418035045L118.21496130696475,91.90412728516571L124.91969045571797,78.04598630824188L131.6244196044712,82.70348578354105L138.32914875322442,72.20121369271914L145.03387790197766,69.64754311768525L151.73860705073088,84.49133639290653L158.4433361994841,61.388185723772665L165.1480653482373,60.909419916710874L171.85279449699055,75.03501984533278L178.55752364574377,78.16458417784497L185.26225279449702,60.22023997441784L191.96698194325023,55.50864165908894L198.67171109200342,55.06656664947303L205.37644024075666,56.223487305191384L212.08116938950988,50.498607003463974L218.78589853826313,52.88105385708366L225.49062768701634,56.04793389113456L232.1953568357696,43.613904705587515L238.9000859845228,45.2667313949118L245.60481513327605,57.97536129321702L252.30954428202926,54.595388963537516L259.01427343078245,39.051881648459585L265.7190025795357,47.59092825988563L272.42373172828894,40.99640464107955L279.12846087704213,40.73559645436853L285.8331900257954,44.04325845331522L292.5379191745486,53.29616871869797L299.24264832330186,48.312692487015L305.94737747205505,35.51202314304868L312.65210662080824,39.33639155468859L319.35683576956154,40.09368604309162L326.06156491831473,44.10878411104102L332.7662940670679,43.312834840900564L339.47102321582116,40.85048953542179L346.1757523645744,34.78865201968074L352.8804815133276,34.108488550726065L359.58521066208084,31.62864593065018L366.2899398108341,43.25204059987709L372.99466895958733,33.24022894985279L379.6993981083405,36.697912567066794L386.4041272570937,34.83462710650474L393.10885640584695,37.02540694767583L399.81358555460025,38.427647095806265L406.51831470335344,39.62420452540783L413.2230438521066,30.86086198069023L419.9277730008599,29.830930763820504L426.63250214961306,35.648073691242246L433.33723129836636,28.279338537522165L440.04196044711955,47.57517174954694L446.7466895958728,33.367307660714744L453.451418744626,33.260449060854L460.15614789337917,37.87692804606468L466.8608770421324,27.240971115400328L473.5656061908857,35.2062218616594L480.2703353396389,32.22975903187165L486.9750644883921,27.67943060847955L493.67979363714534,31.23946458888514L500.3845227858985,32.00211539808316L507.0892519346518,26.932179221567253L513.793981083405,27.925330368977768L520.4987102321583,25.12848282984976L527.2034393809115,27.85569819864247L533.9081685296646,25.66290973717321L540.612897678418,21.771408771568986L547.3176268271711,26.125249493796957L554.0223559759244,28.546842125226988L560.7270851246776,23.22734603566954L567.4318142734307,28.93066714619698L574.136543422184,23.852384036442118L580.8412725709372,27.745000902211984L587.5460017196905,23.071387828521097L594.2507308684437,24.41328009569429L600.9554600171969,28.98248954988884L607.6601891659501,22.201565967415945L614.3649183147035,24.74202428448882L621.0696474634566,24.481974909890482L627.7743766122098,23.027867722061558L634.4791057609631,24.908516589200815L641.1838349097162,19.77051050258143L647.8885640584696,20.012437658489944L654.5932932072227,27.602344225037882L661.298022355976,23.80761412179703L668.0027515047292,20.451611327675266L674.7074806534823,15.654445787645841L681.4122098022356,25.76615282049727L688.1169389509888,21.82541833958544L694.821668099742,21.314603879766764L701.5263972484954,22.930338047585508L708.2311263972485,17.028833067642154L714.9358555460018,20.223878421873508L721.640584694755,21.8708131583233L728.3453138435082,22.540487165721004L735.0500429922614,17.796304565555715L741.7547721410147,18.921399748550357L748.4595012897678,23.22939929197429L755.164230438521,22.375200033187923L761.8689595872743,27.40054483908534L768.5736887360275,18.86395320802376L775.2784178847809,17.109445695607235L781.983147033534,16.115000104004594L788.6878761822873,16.336751784918533L795.3926053310405,21.833765272824337L802.0973344797936,23.229622472007406L808.8020636285469,26.794923501194717L815.5067927773001,19.86661182484545L822.2115219260533,18.375367479504348L828.9162510748065,17.544423580169735L835.6209802235597,12.915625057130569L842.325709372313,18.25587688976873L849.0304385210663,15.643197513976247L855.7351676698195,15.141176347462704L862.4398968185726,11.11398192171788L869.1446259673257,23.736553599249703L875.849355116079,14.79698810037587L882.5540842648322,17.560001546481942L889.2588134135856,18.117683813257145L895.9635425623387,13.399836457000674L902.668271711092,17.938157794610618L909.3730008598452,23.043490324380343L916.0777300085985,10.804877575838418L922.7824591573516,15.055296670715848L929.4871883061048,10.397395471357072L936.1919174548581,27.5776605133741L942.8966466036112,19.869066805209854L949.6013757523644,15.929225044430495L956.3061049011177,14.441730123645925" style="fill: none;" fill="none"></path></g><g><path stroke="rgb(238, 51, 119)" stroke-width="2px" d="M17.64402407566638,345.56026433661305L24.348753224419607,271.0558730161415L31.05348237317283,198.94506523294274L37.75821152192606,187.33175830121314L44.46294067067928,161.2888355997374L51.167669819432504,133.99159647608712L57.872398968185735,129.6736877391924L64.57712811693895,123.32296598857312L71.28185726569218,117.969725078007L77.9865864144454,88.36877701642385L84.69131556319863,86.30431707400203L91.39604471195186,95.63145701840244L98.10077386070508,88.50674691290232L104.80550300945829,80.74927677748349L111.51023215821152,85.15520771944307L118.21496130696475,81.26567073813032L124.91969045571797,62.30715182817215L131.6244196044712,67.23161925909665L138.32914875322442,62.23399341331344L145.03387790197766,69.89036299372628L151.73860705073088,66.05273768811861L158.4433361994841,64.5080640428472L165.1480653482373,61.998136754305904L171.85279449699055,45.311635217576736L178.55752364574377,50.03876686321121L185.26225279449702,43.06934542476017L191.96698194325023,45.99831554349868L198.67171109200342,40.59856391402917L205.37644024075666,45.27896166072708L212.08116938950988,44.23720190210173L218.78589853826313,38.388501317995974L225.49062768701634,46.92553930912385L232.1953568357696,34.24471764294617L238.9000859845228,42.52304533967441L245.60481513327605,45.987692173921914L252.30954428202926,57.787131253278574L259.01427343078245,38.40769480084481L265.7190025795357,31.32949541424813L272.42373172828894,36.43255150767999L279.12846087704213,40.759253537879886L285.8331900257954,30.793818698739187L292.5379191745486,36.75053841887791L299.24264832330186,30.317284692008627L305.94737747205505,28.637274674649632L312.65210662080824,25.677059351273385L319.35683576956154,33.36735229672132L326.06156491831473,28.479486391229557L332.7662940670679,28.679500336916988L339.47102321582116,27.558511666531956L346.1757523645744,26.42381974211287L352.8804815133276,33.095786832413694L359.58521066208084,23.52189904338917L366.2899398108341,23.27425847863259L372.99466895958733,21.878088827403133L379.6993981083405,25.97830775998682L386.4041272570937,23.420664580363223L393.10885640584695,23.549305551457053L399.81358555460025,27.179328790250906L406.51831470335344,20.232314627125675L413.2230438521066,22.364799843644278L419.9277730008599,23.225024963324984L426.63250214961306,19.010582489787453L433.33723129836636,25.56631741883632L440.04196044711955,21.722844796360732L446.7466895958728,20.129651811887754L453.451418744626,18.846188077386955L460.15614789337917,23.826227336559725L466.8608770421324,22.20312822764788L473.5656061908857,21.000946661211515L480.2703353396389,18.431876663891842L486.9750644883921,20.34912705646377L493.67979363714534,25.30805348450292L500.3845227858985,17.45077723827012L507.0892519346518,18.81222007634517L513.793981083405,18.67295573567452L520.4987102321583,14.153336884840542L527.2034393809115,21.540685253323318L533.9081685296646,20.58074329484191L540.612897678418,19.15654223145185L547.3176268271711,16.478515741960166L554.0223559759244,16.28680409350494L560.7270851246776,16.922019103788102L567.4318142734307,15.326817499016897L574.136543422184,18.65313734873297L580.8412725709372,15.828079853417819L587.5460017196905,16.893362787534727L594.2507308684437,12.845144802669381L600.9554600171969,13.886636745255032L607.6601891659501,21.543899045800345L614.3649183147035,18.56739158000596L621.0696474634566,13.24289625770649L627.7743766122098,16.718434277570566L634.4791057609631,18.157945491233022L641.1838349097162,13.510890841484127L647.8885640584696,12.965037116464714L654.5932932072227,15.720060717384854L661.298022355976,15.43407782293724L668.0027515047292,12.940130224767813L674.7074806534823,18.530879326586557L681.4122098022356,15.44653126878569" style="fill: none;" fill="none"></path></g><g><path stroke="rgb(187, 187, 187)" stroke-width="2px" d="M17.64402407566638,312.21375273308666L24.348753224419607,248.86088653780385L31.05348237317283,194.14986367720482L37.75821152192606,183.8106915545914L44.46294067067928,140.89004666400413L51.167669819432504,116.08077391363548L57.872398968185735,129.05753230373818L64.57712811693895,107.7628987150373L71.28185726569218,91.5693125994701L77.9865864144454,93.58860090318723L84.69131556319863,79.13059663322741L91.39604471195186,76.39650731941447L98.10077386070508,77.49200883001657L104.80550300945829,74.39806403079132L111.51023215821152,65.9722143321668L118.21496130696475,71.99008538138196L124.91969045571797,59.312298963654825L131.6244196044712,63.022800922393856L138.32914875322442,50.064477203027366L145.03387790197766,54.5224983647185L151.73860705073088,49.77737840841411L158.4433361994841,52.744958672883456L165.1480653482373,44.653968295961135L171.85279449699055,45.65693936482921L178.55752364574377,34.37728658262296L185.26225279449702,45.52512923726505L191.96698194325023,43.562305481928774L198.67171109200342,42.39373482848123L205.37644024075666,40.1934475178989L212.08116938950988,40.23308429178206L218.78589853826313,47.07573947141765L225.49062768701634,30.611212795635538L232.1953568357696,39.389865490625596L238.9000859845228,37.4355672125547L245.60481513327605,36.111573984038216L252.30954428202926,28.24670961667914L259.01427343078245,31.66703289634785L265.7190025795357,33.352220690475406L272.42373172828894,25.374918222427425L279.12846087704213,34.80329262985384L285.8331900257954,31.019141260183176L292.5379191745486,27.26462819891168L299.24264832330186,25.542615699318276L305.94737747205505,34.81253228322521L312.65210662080824,25.517307083561832L319.35683576956154,20.999205856953097L326.06156491831473,26.7985390177314L332.7662940670679,30.686156650759244L339.47102321582116,21.21171788449567L346.1757523645744,18.61408084293589L352.8804815133276,18.91354381138433L359.58521066208084,26.61722755881982L366.2899398108341,25.349877422710733L372.99466895958733,17.73689404073758L379.6993981083405,16.829042301987784L386.4041272570937,24.062753535666616L393.10885640584695,18.6787584165358L399.81358555460025,13.846866063352024L406.51831470335344,16.610191961504484L413.2230438521066,18.252172101218832L419.9277730008599,16.31059508503614L426.63250214961306,24.748228689409757L433.33723129836636,15.229600276587234L440.04196044711955,17.331733008600736L446.7466895958728,13.114121378592813L453.451418744626,12.64361323275665L460.15614789337917,16.213913494685983L466.8608770421324,12.95088750236448L473.5656061908857,11.41273071406033L480.2703353396389,10.013257998340634L486.9750644883921,9.742808434198594L493.67979363714534,16.866848999599313L500.3845227858985,15.580171472621487L507.0892519346518,12.113873106128835L513.793981083405,18.554714954124393L520.4987102321583,14.850238856279702L527.2034393809115,13.58043373980621L533.9081685296646,11.327520577412827L540.612897678418,12.746454592021053L547.3176268271711,13.218569634095786L554.0223559759244,13.277623070860898L560.7270851246776,8.156489394745847L567.4318142734307,8.491616532487797L574.136543422184,16.262209653854427L580.8412725709372,5.28063612389127L587.5460017196905,9.724686215508768L594.2507308684437,9.99794784806818L600.9554600171969,10.704178744891976L607.6601891659501,8.936012614448202L614.3649183147035,10.164395516773538L621.0696474634566,8.979621992921011L627.7743766122098,6.201298396542484L634.4791057609631,6.3984556378059665L641.1838349097162,7.116738256418557L647.8885640584696,4.756475498091561" style="fill: none;" fill="none"></path></g></g></g></g></g></g><g transform="translate(58, 378)" clip-path="url(#clip_1)"><clipPath id="clip_1"><rect width="1368" height="22"></rect></clipPath><g><g><line x1="17.64402407566638" y1="0" x2="17.64402407566638" y2="5" style="visibility: inherit;" fill="rgb(0, 0, 0)" stroke="rgb(204, 204, 204)" stroke-width="1px"></line><line x1="151.73860705073088" y1="0" x2="151.73860705073088" y2="5" style="visibility: inherit;" fill="rgb(0, 0, 0)" stroke="rgb(204, 204, 204)" stroke-width="1px"></line><line x1="285.8331900257954" y1="0" x2="285.8331900257954" y2="5" style="visibility: inherit;" fill="rgb(0, 0, 0)" stroke="rgb(204, 204, 204)" stroke-width="1px"></line><line x1="419.9277730008599" y1="0" x2="419.9277730008599" y2="5" style="visibility: inherit;" fill="rgb(0, 0, 0)" stroke="rgb(204, 204, 204)" stroke-width="1px"></line><line x1="554.0223559759244" y1="0" x2="554.0223559759244" y2="5" style="visibility: inherit;" fill="rgb(0, 0, 0)" stroke="rgb(204, 204, 204)" stroke-width="1px"></line><line x1="688.1169389509888" y1="0" x2="688.1169389509888" y2="5" style="visibility: inherit;" fill="rgb(0, 0, 0)" stroke="rgb(204, 204, 204)" stroke-width="1px"></line><line x1="822.2115219260533" y1="0" x2="822.2115219260533" y2="5" style="visibility: inherit;" fill="rgb(0, 0, 0)" stroke="rgb(204, 204, 204)" stroke-width="1px"></line><line x1="956.3061049011177" y1="0" x2="956.3061049011177" y2="5" style="visibility: inherit;" fill="rgb(0, 0, 0)" stroke="rgb(204, 204, 204)" stroke-width="1px"></line><line x1="1090.4006878761822" y1="0" x2="1090.4006878761822" y2="5" style="visibility: inherit;" fill="rgb(0, 0, 0)" stroke="rgb(204, 204, 204)" stroke-width="1px"></line><line x1="1224.4952708512467" y1="0" x2="1224.4952708512467" y2="5" style="visibility: inherit;" fill="rgb(0, 0, 0)" stroke="rgb(204, 204, 204)" stroke-width="1px"></line><line x1="1358.5898538263111" y1="0" x2="1358.5898538263111" y2="5" style="visibility: inherit;" fill="rgb(0, 0, 0)" stroke="rgb(204, 204, 204)" stroke-width="1px"></line></g><g transform="translate(0, 8)"><text x="17.64402407566638" y="0" dx="0em" dy="0.95em" style="text-anchor: middle; visibility: inherit; font-family: &quot;Helvetica Neue&quot;, sans-serif; font-size: 12px; font-weight: 200;" fill="rgb(50, 49, 63)" stroke="none" stroke-width="1px">0</text><text x="151.73860705073088" y="0" dx="0em" dy="0.95em" style="text-anchor: middle; visibility: inherit; font-family: &quot;Helvetica Neue&quot;, sans-serif; font-size: 12px; font-weight: 200;" fill="rgb(50, 49, 63)" stroke="none" stroke-width="1px">20</text><text x="285.8331900257954" y="0" dx="0em" dy="0.95em" style="text-anchor: middle; visibility: inherit; font-family: &quot;Helvetica Neue&quot;, sans-serif; font-size: 12px; font-weight: 200;" fill="rgb(50, 49, 63)" stroke="none" stroke-width="1px">40</text><text x="419.9277730008599" y="0" dx="0em" dy="0.95em" style="text-anchor: middle; visibility: inherit; font-family: &quot;Helvetica Neue&quot;, sans-serif; font-size: 12px; font-weight: 200;" fill="rgb(50, 49, 63)" stroke="none" stroke-width="1px">60</text><text x="554.0223559759244" y="0" dx="0em" dy="0.95em" style="text-anchor: middle; visibility: inherit; font-family: &quot;Helvetica Neue&quot;, sans-serif; font-size: 12px; font-weight: 200;" fill="rgb(50, 49, 63)" stroke="none" stroke-width="1px">80</text><text x="688.1169389509888" y="0" dx="0em" dy="0.95em" style="text-anchor: middle; visibility: inherit; font-family: &quot;Helvetica Neue&quot;, sans-serif; font-size: 12px; font-weight: 200;" fill="rgb(50, 49, 63)" stroke="none" stroke-width="1px">100</text><text x="822.2115219260533" y="0" dx="0em" dy="0.95em" style="text-anchor: middle; visibility: inherit; font-family: &quot;Helvetica Neue&quot;, sans-serif; font-size: 12px; font-weight: 200;" fill="rgb(50, 49, 63)" stroke="none" stroke-width="1px">120</text><text x="956.3061049011177" y="0" dx="0em" dy="0.95em" style="text-anchor: middle; visibility: inherit; font-family: &quot;Helvetica Neue&quot;, sans-serif; font-size: 12px; font-weight: 200;" fill="rgb(50, 49, 63)" stroke="none" stroke-width="1px">140</text><text x="1090.4006878761822" y="0" dx="0em" dy="0.95em" style="text-anchor: middle; visibility: inherit; font-family: &quot;Helvetica Neue&quot;, sans-serif; font-size: 12px; font-weight: 200;" fill="rgb(50, 49, 63)" stroke="none" stroke-width="1px">160</text><text x="1224.4952708512467" y="0" dx="0em" dy="0.95em" style="text-anchor: middle; visibility: inherit; font-family: &quot;Helvetica Neue&quot;, sans-serif; font-size: 12px; font-weight: 200;" fill="rgb(50, 49, 63)" stroke="none" stroke-width="1px">180</text><text x="1358.5898538263111" y="0" dx="0em" dy="0.95em" style="text-anchor: middle; visibility: hidden; font-family: &quot;Helvetica Neue&quot;, sans-serif; font-size: 12px; font-weight: 200;" fill="rgb(50, 49, 63)" stroke="none" stroke-width="1px">200</text></g><line x1="0" y1="0" x2="1368" y2="0" fill="rgb(0, 0, 0)" stroke="rgb(204, 204, 204)" stroke-width="1px"></line></g></g></g></g></svg>