<svg viewBox="0 0 1426 400" xmlns="http://www.w3.org/2000/svg"><g><g><g><g><g><line x1="58" y1="368.6244514816632" x2="53" y2="368.6244514816632" style="visibility: inherit;" fill="rgb(0, 0, 0)" stroke="rgb(204, 204, 204)" stroke-width="1px"></line><line x1="58" y1="329.9301716220869" x2="53" y2="329.9301716220869" style="visibility: inherit;" fill="rgb(0, 0, 0)" stroke="rgb(204, 204, 204)" stroke-width="1px"></line><line x1="58" y1="291.2358917625106" x2="53" y2="291.2358917625106" style="visibility: inherit;" fill="rgb(0, 0, 0)" stroke="rgb(204, 204, 204)" stroke-width="1px"></line><line x1="58" y1="252.54161190293428" x2="53" y2="252.54161190293428" style="visibility: inherit;" fill="rgb(0, 0, 0)" stroke="rgb(204, 204, 204)" stroke-width="1px"></line><line x1="58" y1="213.84733204335802" x2="53" y2="213.84733204335802" style="visibility: inherit;" fill="rgb(0, 0, 0)" stroke="rgb(204, 204, 204)" stroke-width="1px"></line><line x1="58" y1="175.15305218378168" x2="53" y2="175.15305218378168" style="visibility: inherit;" fill="rgb(0, 0, 0)" stroke="rgb(204, 204, 204)" stroke-width="1px"></line><line x1="58" y1="136.45877232420546" x2="53" y2="136.45877232420546" style="visibility: inherit;" fill="rgb(0, 0, 0)" stroke="rgb(204, 204, 204)" stroke-width="1px"></line><line x1="58" y1="97.76449246462914" x2="53" y2="97.76449246462914" style="visibility: inherit;" fill="rgb(0, 0, 0)" stroke="rgb(204, 204, 204)" stroke-width="1px"></line><line x1="58" y1="59.0702126050528" x2="53" y2="59.0702126050528" style="visibility: inherit;" fill="rgb(0, 0, 0)" stroke="rgb(204, 204, 204)" stroke-width="1px"></line><line x1="58" y1="20.37593274547652" x2="53" y2="20.37593274547652" style="visibility: inherit;" fill="rgb(0, 0, 0)" stroke="rgb(204, 204, 204)" stroke-width="1px"></line></g><g transform="translate(48, 0)"><text x="0" y="368.6244514816632" dx="0em" dy="0.3em" style="text-anchor: end; visibility: inherit; font-family: &quot;Helvetica Neue&quot;, sans-serif; font-size: 12px; font-weight: 200;" fill="rgb(50, 49, 63)" stroke="none" stroke-width="1px">0.4</text><text x="0" y="329.9301716220869" dx="0em" dy="0.3em" style="text-anchor: end; visibility: inherit; font-family: &quot;Helvetica Neue&quot;, sans-serif; font-size: 12px; font-weight: 200;" fill="rgb(50, 49, 63)" stroke="none" stroke-width="1px">0.45</text><text x="0" y="291.2358917625106" dx="0em" dy="0.3em" style="text-anchor: end; visibility: inherit; font-family: &quot;Helvetica Neue&quot;, sans-serif; font-size: 12px; font-weight: 200;" fill="rgb(50, 49, 63)" stroke="none" stroke-width="1px">0.5</text><text x="0" y="252.54161190293428" dx="0em" dy="0.3em" style="text-anchor: end; visibility: inherit; font-family: &quot;Helvetica Neue&quot;, sans-serif; font-size: 12px; font-weight: 200;" fill="rgb(50, 49, 63)" stroke="none" stroke-width="1px">0.55</text><text x="0" y="213.84733204335802" dx="0em" dy="0.3em" style="text-anchor: end; visibility: inherit; font-family: &quot;Helvetica Neue&quot;, sans-serif; font-size: 12px; font-weight: 200;" fill="rgb(50, 49, 63)" stroke="none" stroke-width="1px">0.6</text><text x="0" y="175.15305218378168" dx="0em" dy="0.3em" style="text-anchor: end; visibility: inherit; font-family: &quot;Helvetica Neue&quot;, sans-serif; font-size: 12px; font-weight: 200;" fill="rgb(50, 49, 63)" stroke="none" stroke-width="1px">0.65</text><text x="0" y="136.45877232420546" dx="0em" dy="0.3em" style="text-anchor: end; visibility: inherit; font-family: &quot;Helvetica Neue&quot;, sans-serif; font-size: 12px; font-weight: 200;" fill="rgb(50, 49, 63)" stroke="none" stroke-width="1px">0.7</text><text x="0" y="97.76449246462914" dx="0em" dy="0.3em" style="text-anchor: end; visibility: inherit; font-family: &quot;Helvetica Neue&quot;, sans-serif; font-size: 12px; font-weight: 200;" fill="rgb(50, 49, 63)" stroke="none" stroke-width="1px">0.75</text><text x="0" y="59.0702126050528" dx="0em" dy="0.3em" style="text-anchor: end; visibility: inherit; font-family: &quot;Helvetica Neue&quot;, sans-serif; font-size: 12px; font-weight: 200;" fill="rgb(50, 49, 63)" stroke="none" stroke-width="1px">0.8</text><text x="0" y="20.37593274547652" dx="0em" dy="0.3em" style="text-anchor: end; visibility: inherit; font-family: &quot;Helvetica Neue&quot;, sans-serif; font-size: 12px; font-weight: 200;" fill="rgb(50, 49, 63)" stroke="none" stroke-width="1px">0.85</text></g><line x1="58" y1="0" x2="58" y2="378" fill="rgb(0, 0, 0)" stroke="rgb(204, 204, 204)" stroke-width="1px"></line></g></g><g transform="translate(58, 0)" clip-path="url(#clip_0)"><clipPath id="clip_0"><rect width="1368" height="378"></rect></clipPath><g><g><g><line x1="4.808570217223912" y1="0" x2="4.808570217223912" y2="378" fill="rgb(0, 0, 0)" stroke="rgb(60, 60, 60)" stroke-width="1px" opacity="0.25"></line><line x1="115.23315131503627" y1="0" x2="115.23315131503627" y2="378" fill="rgb(0, 0, 0)" stroke="rgb(60, 60, 60)" stroke-width="1px" opacity="0.25"></line><line x1="225.65773241284865" y1="0" x2="225.65773241284865" y2="378" fill="rgb(0, 0, 0)" stroke="rgb(60, 60, 60)" stroke-width="1px" opacity="0.25"></line><line x1="336.082313510661" y1="0" x2="336.082313510661" y2="378" fill="rgb(0, 0, 0)" stroke="rgb(60, 60, 60)" stroke-width="1px" opacity="0.25"></line><line x1="446.50689460847326" y1="0" x2="446.50689460847326" y2="378" fill="rgb(0, 0, 0)" stroke="rgb(60, 60, 60)" stroke-width="1px" opacity="0.25"></line><line x1="556.9314757062856" y1="0" x2="556.9314757062856" y2="378" fill="rgb(0, 0, 0)" stroke="rgb(60, 60, 60)" stroke-width="1px" opacity="0.25"></line><line x1="667.356056804098" y1="0" x2="667.356056804098" y2="378" fill="rgb(0, 0, 0)" stroke="rgb(60, 60, 60)" stroke-width="1px" opacity="0.25"></line><line x1="777.7806379019104" y1="0" x2="777.7806379019104" y2="378" fill="rgb(0, 0, 0)" stroke="rgb(60, 60, 60)" stroke-width="1px" opacity="0.25"></line><line x1="888.2052189997228" y1="0" x2="888.2052189997228" y2="378" fill="rgb(0, 0, 0)" stroke="rgb(60, 60, 60)" stroke-width="1px" opacity="0.25"></line><line x1="998.629800097535" y1="0" x2="998.629800097535" y2="378" fill="rgb(0, 0, 0)" stroke="rgb(60, 60, 60)" stroke-width="1px" opacity="0.25"></line><line x1="1109.0543811953476" y1="0" x2="1109.0543811953476" y2="378" fill="rgb(0, 0, 0)" stroke="rgb(60, 60, 60)" stroke-width="1px" opacity="0.25"></line><line x1="1219.4789622931598" y1="0" x2="1219.4789622931598" y2="378" fill="rgb(0, 0, 0)" stroke="rgb(60, 60, 60)" stroke-width="1px" opacity="0.25"></line><line x1="1329.9035433909721" y1="0" x2="1329.9035433909721" y2="378" fill="rgb(0, 0, 0)" stroke="rgb(60, 60, 60)" stroke-width="1px" opacity="0.25"></line></g><g><line x1="0" y1="368.6244514816632" x2="1368" y2="368.6244514816632" fill="rgb(0, 0, 0)" stroke="rgb(60, 60, 60)" stroke-width="1px" opacity="0.25"></line><line x1="0" y1="329.9301716220869" x2="1368" y2="329.9301716220869" fill="rgb(0, 0, 0)" stroke="rgb(60, 60, 60)" stroke-width="1px" opacity="0.25"></line><line x1="0" y1="291.2358917625106" x2="1368" y2="291.2358917625106" fill="rgb(0, 0, 0)" stroke="rgb(60, 60, 60)" stroke-width="1px" opacity="0.25"></line><line x1="0" y1="252.54161190293428" x2="1368" y2="252.54161190293428" fill="rgb(0, 0, 0)" stroke="rgb(60, 60, 60)" stroke-width="1px" opacity="0.25"></line><line x1="0" y1="213.84733204335802" x2="1368" y2="213.84733204335802" fill="rgb(0, 0, 0)" stroke="rgb(60, 60, 60)" stroke-width="1px" opacity="0.25"></line><line x1="0" y1="175.15305218378168" x2="1368" y2="175.15305218378168" fill="rgb(0, 0, 0)" stroke="rgb(60, 60, 60)" stroke-width="1px" opacity="0.25"></line><line x1="0" y1="136.45877232420546" x2="1368" y2="136.45877232420546" fill="rgb(0, 0, 0)" stroke="rgb(60, 60, 60)" stroke-width="1px" opacity="0.25"></line><line x1="0" y1="97.76449246462914" x2="1368" y2="97.76449246462914" fill="rgb(0, 0, 0)" stroke="rgb(60, 60, 60)" stroke-width="1px" opacity="0.25"></line><line x1="0" y1="59.0702126050528" x2="1368" y2="59.0702126050528" fill="rgb(0, 0, 0)" stroke="rgb(60, 60, 60)" stroke-width="1px" opacity="0.25"></line><line x1="0" y1="20.37593274547652" x2="1368" y2="20.37593274547652" fill="rgb(0, 0, 0)" stroke="rgb(60, 60, 60)" stroke-width="1px" opacity="0.25"></line></g></g></g><g><g><line x1="0" y1="678.1786903582736" x2="1368" y2="678.1786903582736" fill="rgb(0, 0, 0)" stroke="rgb(153, 153, 153)" stroke-width="1.5px"></line></g></g><g><g><line x1="4.808570217223912" y1="0" x2="4.808570217223912" y2="378" fill="rgb(0, 0, 0)" stroke="rgb(153, 153, 153)" stroke-width="1.5px"></line></g></g><g><g><g><g><g><path stroke="rgb(51, 187, 238)" stroke-width="2px" d="M4.808570217223912,329.47172284409135L10.32979927211453,329.9027813049084L15.851028327005146,339.4293610924675L21.372257381895768,343.166423977251L26.893486436786382,332.3978794071377L32.414715491677,311.3807722455641L37.93594454656762,293.9260643366208L43.45717360145824,282.09154785654573L48.978402656348855,267.05326243738193L54.499631711239466,252.88199357528467L60.02086076613009,237.77736554591908L65.54208982102071,226.85221477536862L71.06331887591132,216.51612147361962L76.58454793080195,211.32607549081013L82.10577698569256,205.04882083386738L87.62700604058318,199.81021526716953L93.14823509547381,195.86109703126922L98.6694641503644,194.88084440068812L104.19069320525503,191.31091417535055L109.71192226014566,185.92645764245404L115.23315131503627,181.24515975381516L120.75438036992689,180.08688037917176L126.2756094248175,176.5746368540617L131.79683847970813,173.52645724697575L137.31806753459875,172.49805201671703L142.83929658948935,168.44595098648236L148.36052564437998,168.98095201545883L153.88175469927057,166.33025326331074L159.4029837541612,164.23619990851287L164.92421280905182,160.73449991924753L170.44544186394245,156.96362107157626L175.96667091883305,154.85425477086213L181.4878999737237,152.7141745021547L187.0091290286143,150.98839410430716L192.5303580835049,148.53549310340108L198.05158713839555,146.06735016282002L203.57281619328614,145.80710020760716L209.0940452481768,148.06266352058708L214.6152743030674,144.05161386818563L220.136503357958,140.89877552798018L225.65773241284865,142.25086470982404L231.17896146773924,141.5543315354559L236.70019052262987,137.82582729840752L242.2214195775205,134.74885958484697L247.7426486324111,132.54775801309717L253.26387768730172,130.86898412566651L258.78510674219234,132.71863412251824L264.3063357970829,130.4520255339389L269.8275648519736,127.22780288170858L275.34879390686416,124.61702643764133L280.87002296175484,122.97734751728078L286.3912520166454,122.15939503951756L291.91248107153604,121.86353854826314L297.43371012642666,121.97509444080373L302.9549391813173,122.62644084686514L308.4761682362079,120.75762593947343L313.9973972910985,120.63493500536924L319.5186263459891,119.83555545587564L325.03985540087973,119.41471219942355L330.56108445577036,119.81426000714782L336.082313510661,117.30949551627924L341.6035425655516,116.4430442452146L347.1247716204422,115.60002493756781L352.64600067533286,111.80490287491898L358.1672297302234,109.844262065495L363.68845878511405,109.62189828717095L369.2096878400046,111.4637933084868L374.73091689489524,108.97318778683257L380.25214594978587,107.13392235257498L385.77337500467655,107.38395584975007L391.2946040595671,108.09303732259792L396.81583311445775,108.52564514404003L402.33706216934837,104.25950653019396L407.85829122423894,105.09902722432923L413.37952027912957,102.6044731931799L418.90074933402025,100.85834035865878L424.4219783889108,101.81350264496331L429.94320744380144,98.63500297963668L435.46443649869207,97.12599916120428L440.9856655535827,95.9227260176491L446.50689460847326,96.36137723524098L452.02812366336394,96.66944048272308L457.54935271825457,94.17698332587713L463.07058177314514,91.92749576008424L468.59181082803576,91.48062276244855L474.1130398829264,90.1770361143839L479.63426893781696,93.05976207155368L485.15549799270764,88.78725568597878L490.67672704759826,86.49472133801777L496.19795610248883,85.93782894923174L501.71918515737946,87.01514820341146L507.2404142122701,85.54083360848693L512.7616432671607,84.3714925679244L518.2828723220513,82.37266259507271L523.804101376942,81.90252456055498L529.3253304318326,78.62898366340869L534.8465594867232,77.13177685265168L540.3677885416138,76.937279670267L545.8890175965045,75.277110695337L551.410246651395,76.22150580615585L556.9314757062856,75.96058443136025L562.4527047611763,74.44671177292298L567.973933816067,74.57580681961127L573.4951628709575,74.22452097104832L579.0163919258481,72.32973851621676L584.5376209807388,71.68893914615472L590.0588500356293,71.20285058056606L595.58007909052,69.1607818127805L601.1013081454106,67.62626706167731L606.6225372003012,69.0466231041957L612.1437662551918,66.94138360750492L617.6649953100824,67.35058990506167L623.186224364973,67.51378589966151L628.7074534198637,66.41309805044614L634.2286824747544,64.87049387223664L639.7499115296449,63.0595663469137L645.2711405845355,62.302892944441055L650.7923696394262,61.974889897239734L656.3135986943169,62.03907563139114L661.8348277492073,62.588270264112964L667.356056804098,60.834960533341246L672.8772858589887,59.53726445313606L678.3985149138792,59.46356231043893L683.9197439687698,61.73337539279618L689.4409730236604,59.04252954853649L694.9622020785512,57.93411096747025L700.4834311334417,60.08776239527117L706.0046601883323,57.85024638283761L711.525889243223,57.25455420758857L717.0471182981136,57.72567523985964L722.5683473530042,56.91939593631338L728.0895764078948,56.139491883511994L733.6108054627854,55.52453291610982L739.1320345176761,55.238973920959154L744.6532635725666,54.903370424279444L750.1744926274572,53.688225249563686L755.695721682348,53.06497233761792L761.2169507372386,51.74030258893009L766.7381797921291,50.87258289971106L772.2594088470198,50.059504789595394L777.7806379019104,50.50986623488325L783.301866956801,50.21404729848422L788.8230960116916,49.284904376376744L794.3443250665822,49.40689037819192L799.8655541214728,48.97096711103808L805.3867831763635,50.31467578137193L810.908012231254,48.33255008901682L816.4292412861446,46.287523302273826L821.9504703410354,46.28042343156943L827.471699395926,46.39419372739604L832.9929284508165,44.62622527801091L838.5141575057072,44.93711881914737L844.0353865605978,44.19699687737182L849.5566156154885,43.58072173842504L855.077844670379,42.92712691497144L860.5990737252696,47.23232177537864L866.1203027801603,44.878041112628694L871.6415318350508,43.8957101120609L877.1627608899414,43.00511950254406L882.6839899448322,43.389323271165324L888.2052189997228,42.346993783684184L893.7264480546133,43.700082929222674L899.247677109504,44.2136965466413L904.7689061643946,43.30755758036679L910.2901352192852,42.92758877407789L915.8113642741758,42.96293831332355L921.3325933290664,44.68005979400306L926.853822383957,43.378474773583434L932.3750514388477,40.95011934260458L937.8962804937382,40.09412473795652L943.4175095486288,39.08979017389004L948.9387386035196,39.070402999407975L954.4599676584102,39.57109601441937L959.9811967133007,39.17154115128011L965.5024257681914,38.115191158284574L971.023654823082,40.12788176504654L976.5448838779727,40.23495705955395L982.0661129328632,36.79964408945466L987.5873419877538,39.12343482520748L993.1085710426445,36.72847245383821L998.629800097535,36.42174000198577L1004.1510291524256,35.933833145483334L1009.6722582073164,34.94683812927428L1015.193487262207,34.099391777785684L1020.7147163170976,33.93732060866364L1026.2359453719882,32.99785102389819L1031.7571744268787,32.869499110364416L1037.2784034817694,35.178609881055934L1042.79963253666,34.37820172161986L1048.3208615915507,34.89166535561998L1053.8420906464412,33.405359483312736L1059.3633197013319,32.14396812313487L1064.8845487562226,31.323090335706752L1070.405777811113,30.2717606008934L1075.9270068660037,30.669635689164068L1081.4482359208944,31.499139162967595L1086.9694649757848,30.262736188292422L1092.4906940306755,31.436131657622354L1098.0119230855662,32.841984698411295L1103.5331521404569,31.526873836683762L1109.0543811953476,31.59152909522794L1114.575610250238,31.150894832660754L1120.0968393051287,31.453620229178L1125.6180683600194,31.475157264220172L1131.1392974149098,29.66175697579439L1136.6605264698005,30.642576004215243L1142.1817555246912,30.871404603645203L1147.7029845795817,30.190534815073818L1153.2242136344723,29.16053227266616L1158.745442689363,29.248682460967473L1164.2666717442535,27.38877083471226L1169.7879007991444,27.773580759373715L1175.3091298540348,28.79672864029243L1180.8303589089253,31.877812412399408L1186.3515879638162,31.729875533727977L1191.8728170187067,30.245858583326196L1197.3940460735973,29.595199023672933L1202.915275128488,29.20437891786071L1208.4365041833785,27.42672985367159L1213.9577332382692,26.650243451195706L1219.4789622931598,27.446298893929736L1225.0001913480503,26.804554751294177L1230.5214204029412,25.303710326303644" style="fill: none;" fill="none"></path></g><g><path stroke="rgb(204, 51, 17)" stroke-width="2px" d="M4.808570217223912,354.9864167873133L10.32979927211453,360.28027422813847L15.851028327005146,347.9790491891321L21.372257381895768,342.34887506534756L26.893486436786382,346.5889044354216L32.414715491677,331.6451303858202L37.93594454656762,303.9316740991086L43.45717360145824,279.93883672000965L48.978402656348855,262.2044633173319L54.499631711239466,246.12735767031694L60.02086076613009,235.19197792585325L65.54208982102071,225.23432183450123L71.06331887591132,215.79276244771847L76.58454793080195,206.7391733663088L82.10577698569256,205.88340249811176L87.62700604058318,196.2359527963456L93.14823509547381,187.8585058046495L98.6694641503644,182.49374688631514L104.19069320525503,179.70865916389334L109.71192226014566,175.00854344838933L115.23315131503627,173.823957426014L120.75438036992689,169.20603314191052L126.2756094248175,165.72080187137155L131.79683847970813,161.4923402152041L137.31806753459875,158.59701447460432L142.83929658948935,155.26114590148018L148.36052564437998,158.21812039833785L153.88175469927057,154.90281193001732L159.4029837541612,151.51685984278515L164.92421280905182,145.60043930657852L170.44544186394245,143.18847160422115L175.96667091883305,140.3699116815805L181.4878999737237,137.3240759969147L187.0091290286143,134.37201254410812L192.5303580835049,131.96434864128796L198.05158713839555,132.53192847430287L203.57281619328614,131.1620253167354L209.0940452481768,128.8238462412712L214.6152743030674,127.85813217776388L220.136503357958,125.621114439607L225.65773241284865,124.62793891515167L231.17896146773924,125.61336545340575L236.70019052262987,124.75471507417319L242.2214195775205,123.89141227400941L247.7426486324111,121.3416945436586L253.26387768730172,118.74789446122753L258.78510674219234,118.8250699726027L264.3063357970829,119.63068395094655L269.8275648519736,116.83302630066709L275.34879390686416,114.21100180282195L280.87002296175484,114.13749230493494L286.3912520166454,115.2212329640173L291.91248107153604,118.05641098692672L297.43371012642666,116.78993515058892L302.9549391813173,112.95530434315197L308.4761682362079,115.58194151677566L313.9973972910985,112.49891297525767L319.5186263459891,112.58761810298665L325.03985540087973,110.90363637443158L330.56108445577036,110.14213112875763L336.082313510661,108.15458067081465L341.6035425655516,108.13591322475474L347.1247716204422,107.89186277207813L352.64600067533286,106.47176891351882L358.1672297302234,104.0332145030016L363.68845878511405,103.92000289120188L369.2096878400046,107.33770366373852L374.73091689489524,109.0529611060166L380.25214594978587,104.27608791348729L385.77337500467655,101.37479663889792L391.2946040595671,101.18712389401685L396.81583311445775,103.78838497764917L402.33706216934837,102.62595920769178L407.85829122423894,102.24347855511746L413.37952027912957,99.69089641820784L418.90074933402025,97.78390882420734L424.4219783889108,96.84679038683328L429.94320744380144,96.0711350076898L435.46443649869207,96.55205002368723L440.9856655535827,96.99366745451363L446.50689460847326,94.50742862066375L452.02812366336394,95.00834242688421L457.54935271825457,95.38162404191843L463.07058177314514,95.22960117297083L468.59181082803576,93.5789014305551L474.1130398829264,91.7842265931933L479.63426893781696,91.83087674142092L485.15549799270764,92.72993242415839L490.67672704759826,90.80038105581167L496.19795610248883,89.16861047128049L501.71918515737946,89.67117146832288L507.2404142122701,89.35419798742538L512.7616432671607,88.81230340642708L518.2828723220513,86.40297478301017L523.804101376942,84.87569560549144L529.3253304318326,84.96349827218535L534.8465594867232,85.77807166556784L540.3677885416138,84.65435723149699L545.8890175965045,83.0837483830004L551.410246651395,81.15773026863423L556.9314757062856,81.39412687001476L562.4527047611763,81.0441199773386L567.973933816067,80.78308073407652L573.4951628709575,80.44541724729385L579.0163919258481,80.95087130862618L584.5376209807388,79.48250961597921L590.0588500356293,78.27373133777132L595.58007909052,76.71278754656299L601.1013081454106,75.50028850430374L606.6225372003012,75.68889324751012L612.1437662551918,74.92132224351889L617.6649953100824,73.43474518643939L623.186224364973,73.25520551101897L628.7074534198637,72.83721186833077L634.2286824747544,70.70614282807986L639.7499115296449,73.10710314455446L645.2711405845355,72.71716847739668L650.7923696394262,73.09110850571795L656.3135986943169,76.4686340277434L661.8348277492073,73.88518090891597L667.356056804098,71.35675163216962L672.8772858589887,73.91181962463571L678.3985149138792,73.85470905238526L683.9197439687698,72.36575763212653L689.4409730236604,69.7417135829171L694.9622020785512,68.74850802334106L700.4834311334417,67.9244396745188L706.0046601883323,67.77726249790766L711.525889243223,67.38912954717784L717.0471182981136,66.70221075678137L722.5683473530042,65.09459068454419L728.0895764078948,65.32790450322972L733.6108054627854,66.44125001399976L739.1320345176761,67.14595610178071L744.6532635725666,65.13653065952013L750.1744926274572,65.02135873931985L755.695721682348,63.53303308329015L761.2169507372386,62.51626925071423L766.7381797921291,64.16638722830942L772.2594088470198,65.41023128699408L777.7806379019104,65.33501271555411L783.301866956801,64.26451134934138L788.8230960116916,62.983275336906104L794.3443250665822,62.618460185269726L799.8655541214728,61.590039153427654L805.3867831763635,60.86027016676201L810.908012231254,60.01768893150853L816.4292412861446,61.35329719964693L821.9504703410354,60.661267157423765L827.471699395926,59.197283205014344L832.9929284508165,58.33780497577692L838.5141575057072,58.31842800238712L844.0353865605978,58.144231198845034L849.5566156154885,56.05331085527092L855.077844670379,55.294515087165735L860.5990737252696,56.46466705832722L866.1203027801603,54.44660176364073L871.6415318350508,52.827832292116966L877.1627608899414,53.32592412811658L882.6839899448322,53.2019959842948L888.2052189997228,54.38550873985258L893.7264480546133,57.530282552145025L899.247677109504,57.15088177513206L904.7689061643946,55.334861224757105L910.2901352192852,54.05223433878655L915.8113642741758,52.71086573205304L921.3325933290664,56.73799542240283L926.853822383957,55.09358721777602L932.3750514388477,54.64781111128207L937.8962804937382,52.813515979900444L943.4175095486288,51.55332042083495L948.9387386035196,51.92968061168892L954.4599676584102,51.379268606497874L959.9811967133007,51.85327639529561L965.5024257681914,50.06516859474942L971.023654823082,50.27369841609237L976.5448838779727,50.71185377690125L982.0661129328632,49.85784200175044L987.5873419877538,50.59103474966366L993.1085710426445,51.79217796044162L998.629800097535,51.1490677978216L1004.1510291524256,51.778018025702636L1009.6722582073164,50.911245968192986L1015.193487262207,51.54648398672339L1020.7147163170976,50.9555242374733L1026.2359453719882,49.034469486976604L1031.7571744268787,49.149872708145665L1037.2784034817694,49.1832645995687L1042.79963253666,46.946094047423514" style="fill: none;" fill="none"></path></g><g><path stroke="rgb(255, 112, 67)" stroke-width="2px" d="M4.808570217223912,336.36035532546265L10.32979927211453,337.33779018739017L15.851028327005146,345.3962784579191L21.372257381895768,350.476382848412L26.893486436786382,354.4926122266534L32.414715491677,347.4661952301929L37.93594454656762,345.4143531568455L43.45717360145824,328.05197030491036L48.978402656348855,304.152249365053L54.499631711239466,284.1521414796431L60.02086076613009,268.4216846689518L65.54208982102071,256.172252664604L71.06331887591132,242.93207798632952L76.58454793080195,233.23001408367674L82.10577698569256,225.36491077332835L87.62700604058318,220.69725400610042L93.14823509547381,213.3041191693307L98.6694641503644,206.55032273499842L104.19069320525503,205.1066180011842L109.71192226014566,200.735248353182L115.23315131503627,194.4443599882071L120.75438036992689,188.28577313782705L126.2756094248175,184.2705662272819L131.79683847970813,182.19726980832274L137.31806753459875,179.46477003913256L142.83929658948935,174.62308421935242L148.36052564437998,168.98677441467333L153.88175469927057,167.87994904524865L159.4029837541612,161.47122898090535L164.92421280905182,158.92532748854688L170.44544186394245,154.22041748482536L175.96667091883305,152.59572685680544L181.4878999737237,149.22451339466411L187.0091290286143,145.6418196320343L192.5303580835049,145.10183895474415L198.05158713839555,142.5395200846921L203.57281619328614,139.32518450688488L209.0940452481768,137.47298822773624L214.6152743030674,137.42984670981417L220.136503357958,132.94088074074196L225.65773241284865,130.59452513478388L231.17896146773924,130.96127959111465L236.70019052262987,129.47165615782117L242.2214195775205,126.32575040010417L247.7426486324111,123.54500030739271L253.26387768730172,122.9382317884054L258.78510674219234,122.5818462391434L264.3063357970829,119.87092945585897L269.8275648519736,118.34375577415591L275.34879390686416,116.15659251049141L280.87002296175484,114.18504495123108L286.3912520166454,113.50416460054419L291.91248107153604,111.63126460623761L297.43371012642666,112.56110649040414L302.9549391813173,110.32066035456398L308.4761682362079,107.47205630377891L313.9973972910985,108.02159408081417L319.5186263459891,107.2334892118767L325.03985540087973,105.78918796148196L330.56108445577036,105.31245565291903L336.082313510661,103.62468518905547L341.6035425655516,102.23651079540076L347.1247716204422,101.77251286292449L352.64600067533286,101.60635074836767L358.1672297302234,99.5649023246662L363.68845878511405,98.97548124863846L369.2096878400046,97.79314465863769L374.73091689489524,97.44842415902127L380.25214594978587,95.0580789488177L385.77337500467655,94.09368633688638L391.2946040595671,94.28646321224443L396.81583311445775,93.82871318570875L402.33706216934837,92.59445184871151L407.85829122423894,92.32278701718172L413.37952027912957,90.99948667933654L418.90074933402025,90.89296745861265L424.4219783889108,92.05642627918019L429.94320744380144,87.98906610509215L435.46443649869207,88.02073452486343L440.9856655535827,86.01384845252085L446.50689460847326,84.01391231586763L452.02812366336394,82.11835281802536L457.54935271825457,81.4505548704542L463.07058177314514,83.63803505211746L468.59181082803576,81.73147359771667L474.1130398829264,80.92740175870915L479.63426893781696,80.32606124614449L485.15549799270764,80.33837044078399L490.67672704759826,79.682668575445L496.19795610248883,79.61280192039948L501.71918515737946,77.78496682419978L507.2404142122701,75.50574947953459L512.7616432671607,74.4738404061656L518.2828723220513,74.8407279297L523.804101376942,74.1578379424057L529.3253304318326,72.39146679867565L534.8465594867232,73.5927982857122L540.3677885416138,76.36919020355919L545.8890175965045,75.16966052646626L551.410246651395,73.90043889655925L556.9314757062856,71.98849414624726L562.4527047611763,72.85535051056814L567.973933816067,70.41738387736376L573.4951628709575,71.42120851314246L579.0163919258481,71.8037534275864L584.5376209807388,70.16012955760732L590.0588500356293,69.01378322926973L595.58007909052,66.53620409717155L601.1013081454106,65.98819704493798L606.6225372003012,66.1615886054231L612.1437662551918,64.87321015256418L617.6649953100824,64.71413579497124L623.186224364973,66.50263575827239L628.7074534198637,65.29007880702511L634.2286824747544,62.8795669393279L639.7499115296449,62.49484910074585L645.2711405845355,62.483805166360696L650.7923696394262,64.51725464930865L656.3135986943169,65.16562411827857L661.8348277492073,64.34792197068862L667.356056804098,63.137569127739766L672.8772858589887,60.50230120943513L678.3985149138792,60.71945454656503L683.9197439687698,59.9005046169583L689.4409730236604,58.16528767888326L694.9622020785512,57.999319203078244L700.4834311334417,58.51127376768915L706.0046601883323,57.5439341794617L711.525889243223,57.19660182201119L717.0471182981136,56.855429943804495L722.5683473530042,55.70393885076544L728.0895764078948,54.12240222759692L733.6108054627854,53.250604892164176L739.1320345176761,53.207083064691346L744.6532635725666,56.32200925135675L750.1744926274572,54.40623016292392L755.695721682348,54.195376940371204L761.2169507372386,53.80796969871972L766.7381797921291,52.80953746712339L772.2594088470198,53.39775473968638L777.7806379019104,52.67664148363639L783.301866956801,53.92049342229865L788.8230960116916,52.8446888745068L794.3443250665822,51.249871959594884L799.8655541214728,50.45879978335455L805.3867831763635,49.04803311461359L810.908012231254,47.951305506626454L816.4292412861446,46.810760228775735L821.9504703410354,46.8355369150828L827.471699395926,46.56247709354233L832.9929284508165,47.75920838737659L838.5141575057072,49.43401705070414L844.0353865605978,49.61636244417531L849.5566156154885,48.67336893170449L855.077844670379,47.69550953453006L860.5990737252696,48.21049537061327L866.1203027801603,46.707519140019826L871.6415318350508,45.849259005048054L877.1627608899414,44.189961488074346L882.6839899448322,45.07063354277062L888.2052189997228,44.955451963528105L893.7264480546133,44.519908728906046L899.247677109504,46.02569645431964L904.7689061643946,47.255454282551796L910.2901352192852,46.48384326822554L915.8113642741758,46.13315020629955L921.3325933290664,45.03410354667756L926.853822383957,45.071380418981505L932.3750514388477,44.511640030632805L937.8962804937382,45.66671838408996L943.4175095486288,45.21038687254145L948.9387386035196,44.288445788551655L954.4599676584102,43.71705167815628L959.9811967133007,44.97665485936676L965.5024257681914,44.2342060878002L971.023654823082,44.35645165764271L976.5448838779727,42.663995345163016L982.0661129328632,42.78716167469781L987.5873419877538,42.576973420146885L993.1085710426445,41.73860151555243L998.629800097535,41.5221019399666L1004.1510291524256,42.196309579563945L1009.6722582073164,41.95319015976372L1015.193487262207,41.38791177175386L1020.7147163170976,41.487580241658236L1026.2359453719882,41.23037691845184L1031.7571744268787,40.10699675778329L1037.2784034817694,39.979409640539245L1042.79963253666,39.644711241769414L1048.3208615915507,40.32014249090395L1053.8420906464412,39.67257612181089L1059.3633197013319,39.089268911916975L1064.8845487562226,39.372057187958944L1070.405777811113,40.05787480346743L1075.9270068660037,39.65167814717472L1081.4482359208944,38.8778481945875L1086.9694649757848,38.56250410015349L1092.4906940306755,39.198309864658256L1098.0119230855662,38.2976607868726L1103.5331521404569,37.71953931013718L1109.0543811953476,36.849233680386135L1114.575610250238,37.15237618849835L1120.0968393051287,37.69962582995635L1125.6180683600194,38.58736910504206L1131.1392974149098,37.67977702474491" style="fill: none;" fill="none"></path></g><g><path stroke="rgb(204, 51, 17)" stroke-width="2px" d="M4.808570217223912,340.44881451703964L10.32979927211453,337.85687083203334L15.851028327005146,338.31047630360507L21.372257381895768,337.296747854099L26.893486436786382,334.16292210076216L32.414715491677,307.626530345045L37.93594454656762,285.0423422175264L43.45717360145824,266.87086103667076L48.978402656348855,252.7812153272099L54.499631711239466,241.9679670653762L60.02086076613009,232.1696742397364L65.54208982102071,228.50282914868848L71.06331887591132,226.23988615557795L76.58454793080195,218.24380304041136L82.10577698569256,212.2804575027336L87.62700604058318,202.888956742682L93.14823509547381,199.1853018411165L98.6694641503644,193.4473581471193L104.19069320525503,187.27812911340266L109.71192226014566,181.2204777333918L115.23315131503627,178.08341967986854L120.75438036992689,172.33210423620335L126.2756094248175,167.3296698612137L131.79683847970813,166.25543707001611L137.31806753459875,161.6271249870543L142.83929658948935,159.21824165200368L148.36052564437998,156.01030082299383L153.88175469927057,151.67393437504788L159.4029837541612,147.25249069662914L164.92421280905182,142.85387758805987L170.44544186394245,139.24378851181925L175.96667091883305,136.08744017510065L181.4878999737237,133.1138678928522L187.0091290286143,130.50522899396387L192.5303580835049,130.40637330383257L198.05158713839555,128.3588863253228L203.57281619328614,126.00548147536105L209.0940452481768,122.11432425963525L214.6152743030674,119.72198942004223L220.136503357958,117.29249252042757L225.65773241284865,114.51474530642145L231.17896146773924,113.53485682868023L236.70019052262987,111.51085559329516L242.2214195775205,109.3275811942301L247.7426486324111,106.80921369672501L253.26387768730172,105.49482412475504L258.78510674219234,103.58371322707245L264.3063357970829,102.85001407086156L269.8275648519736,100.94121599477091L275.34879390686416,97.35438881547861L280.87002296175484,96.1952999045115L286.3912520166454,95.01650755570489L291.91248107153604,96.36552630512875L297.43371012642666,94.77232055778762L302.9549391813173,92.23694724651227L308.4761682362079,90.06258089679591L313.9973972910985,87.67472893389612L319.5186263459891,86.0310505034659L325.03985540087973,85.23540403518416L330.56108445577036,82.66546603508476L336.082313510661,81.09066068562964L341.6035425655516,80.16232790674763L347.1247716204422,80.53438491903398L352.64600067533286,81.45472991363266L358.1672297302234,84.06007597024745L363.68845878511405,80.57056808492848L369.2096878400046,79.45459342959191L374.73091689489524,76.62443015792178L380.25214594978587,74.76675061642385L385.77337500467655,73.58003688981842L391.2946040595671,73.68185809839991L396.81583311445775,72.72012682032192L402.33706216934837,71.031552265139L407.85829122423894,69.42449246321235L413.37952027912957,68.73364312946882L418.90074933402025,69.05757426625075L424.4219783889108,68.27471949683769L429.94320744380144,69.04617823928629L435.46443649869207,67.94192880334322L440.9856655535827,68.41176441371829L446.50689460847326,66.7657343269409L452.02812366336394,65.02738725812873L457.54935271825457,66.47766359120908L463.07058177314514,66.10868738271012L468.59181082803576,64.68758915940879L474.1130398829264,64.47779545354086L479.63426893781696,65.09246336627905L485.15549799270764,62.87736731478935L490.67672704759826,61.413101705260146L496.19795610248883,60.01188453239172L501.71918515737946,59.44821249930209L507.2404142122701,59.74597388201414L512.7616432671607,59.04638772923664L518.2828723220513,58.45015346174495L523.804101376942,57.24101593534567L529.3253304318326,55.1939344711314L534.8465594867232,55.49033637024621L540.3677885416138,55.205651089350795L545.8890175965045,54.674734282300335L551.410246651395,54.779687027439024L556.9314757062856,55.502387998223696L562.4527047611763,53.65037010233675L567.973933816067,53.377400860080286L573.4951628709575,52.791703260215854L579.0163919258481,51.9701011686974L584.5376209807388,51.81462478513157L590.0588500356293,51.96747356675445L595.58007909052,52.531340610465804L601.1013081454106,51.89729996413803L606.6225372003012,50.800483629497364L612.1437662551918,52.179019359518634L617.6649953100824,51.99084474944658L623.186224364973,50.08490284423863L628.7074534198637,50.53397993635423L634.2286824747544,49.104931312628935L639.7499115296449,48.72849788007545L645.2711405845355,48.37720880324497L650.7923696394262,49.11025273311981L656.3135986943169,48.24176476939192L661.8348277492073,47.72700063971848L667.356056804098,47.32419032959859L672.8772858589887,48.558610681024106L678.3985149138792,47.01484217097129L683.9197439687698,48.07976210183415L689.4409730236604,46.62295348976397L694.9622020785512,46.63294177998773L700.4834311334417,46.20153841930647L706.0046601883323,45.22386894115465L711.525889243223,45.75016840701272L717.0471182981136,46.69440318482128L722.5683473530042,46.22802742214492L728.0895764078948,46.40808991042951L733.6108054627854,45.30490156203928L739.1320345176761,44.26343569704079L744.6532635725666,43.95956442207785L750.1744926274572,43.46929662934042L755.695721682348,44.56051956120774L761.2169507372386,44.35311794782359L766.7381797921291,43.2406144164882L772.2594088470198,42.0477791143212L777.7806379019104,42.108472110558466L783.301866956801,42.53230083507549L788.8230960116916,41.60092668399392L794.3443250665822,40.159781568571475L799.8655541214728,40.19247103437618L805.3867831763635,40.551027203969625L810.908012231254,41.302675316582224L816.4292412861446,41.163162526365454L821.9504703410354,39.50083527853474L827.471699395926,38.90467155857567L832.9929284508165,38.98424050532276" style="fill: none;" fill="none"></path></g><g><path stroke="rgb(51, 187, 238)" stroke-width="2px" d="M4.808570217223912,339.34441460284904L10.32979927211453,343.8126388354005L15.851028327005146,337.9572527456314L21.372257381895768,335.05868228270106L26.893486436786382,339.7503503181322L32.414715491677,314.669407446044L37.93594454656762,291.0416719304651L43.45717360145824,272.0473243110463L48.978402656348855,256.95537192398245L54.499631711239466,243.02789481128238L60.02086076613009,238.73217897643895L65.54208982102071,228.5245838420607L71.06331887591132,218.11917948158978L76.58454793080195,212.98473253687246L82.10577698569256,210.53129337126967L87.62700604058318,202.53541289773466L93.14823509547381,194.07454983583818L98.6694641503644,187.2592423629766L104.19069320525503,180.1294091690278L109.71192226014566,175.47218368274062L115.23315131503627,173.1696838540974L120.75438036992689,168.67556882263844L126.2756094248175,165.68984417916315L131.79683847970813,160.9632830070376L137.31806753459875,157.83996906225823L142.83929658948935,152.76394305544255L148.36052564437998,150.05159295607476L153.88175469927057,146.39833320660804L159.4029837541612,143.06120664562684L164.92421280905182,141.96975891694763L170.44544186394245,143.21202763603716L175.96667091883305,137.48646502171027L181.4878999737237,134.5313116710598L187.0091290286143,131.70312514511429L192.5303580835049,129.64286028344858L198.05158713839555,126.9168304868983L203.57281619328614,126.21665331354254L209.0940452481768,124.56225757829955L214.6152743030674,123.16471578822484L220.136503357958,120.35847918385616L225.65773241284865,117.28957502546041L231.17896146773924,115.54220281522981L236.70019052262987,114.88296370007976L242.2214195775205,113.89095894206946L247.7426486324111,111.68589918983832L253.26387768730172,110.00797929644756L258.78510674219234,107.78835939160393L264.3063357970829,106.10002437735551L269.8275648519736,105.0205633334798L275.34879390686416,103.909013373253L280.87002296175484,102.66713582312235L286.3912520166454,104.50276944421199L291.91248107153604,101.78585268308069L297.43371012642666,103.04247046392754L302.9549391813173,101.26878258642284L308.4761682362079,99.7711589131215L313.9973972910985,98.69523494240485L319.5186263459891,96.9802865597398L325.03985540087973,97.00916128547618L330.56108445577036,96.05772316810061L336.082313510661,94.9920633048992L341.6035425655516,94.23913918111839L347.1247716204422,94.67577566800026L352.64600067533286,92.34601914105684L358.1672297302234,90.60032941522473L363.68845878511405,93.32211474724107L369.2096878400046,90.56994911645234L374.73091689489524,89.18150083836633L380.25214594978587,88.0455239313871L385.77337500467655,86.90275828037772L391.2946040595671,87.0193242859354L396.81583311445775,87.3397713573284L402.33706216934837,85.82347054590548L407.85829122423894,84.82811492191888L413.37952027912957,83.62074971271647L418.90074933402025,82.66888670719538L424.4219783889108,81.90193136495873L429.94320744380144,82.24771063161023L435.46443649869207,81.58435245911613L440.9856655535827,79.50522339658608L446.50689460847326,78.19147043242253L452.02812366336394,79.53667435283563L457.54935271825457,78.62956323359765L463.07058177314514,78.74535800142422L468.59181082803576,77.56617220462243L474.1130398829264,76.07031038495421L479.63426893781696,75.87285621965168L485.15549799270764,75.73502875737137L490.67672704759826,74.72456716131876L496.19795610248883,73.75347959321005L501.71918515737946,73.87267971327657L507.2404142122701,74.54981270599694L512.7616432671607,73.0093780625117L518.2828723220513,73.97374837537103L523.804101376942,72.09325700078665L529.3253304318326,69.85903545231588L534.8465594867232,70.39205926102875L540.3677885416138,69.69447409894082L545.8890175965045,69.49641090352924L551.410246651395,70.01765213295761L556.9314757062856,68.3960445146966L562.4527047611763,67.09179456486481L567.973933816067,66.43007934552293L573.4951628709575,65.60476860910296L579.0163919258481,65.52465294882586L584.5376209807388,64.84451208375816L590.0588500356293,68.63079013994235L595.58007909052,66.64867189036613L601.1013081454106,65.18302535219544L606.6225372003012,63.53641333436775L612.1437662551918,63.55597435529762L617.6649953100824,62.99152718553796L623.186224364973,63.55883352436865L628.7074534198637,63.232624280159314L634.2286824747544,62.36030531434392L639.7499115296449,61.8985951947588L645.2711405845355,60.71146148734118L650.7923696394262,61.356943917341255L656.3135986943169,59.911379257752L661.8348277492073,58.7031975322318L667.356056804098,58.9173086465766L672.8772858589887,59.48614224014108L678.3985149138792,59.227143326287944L683.9197439687698,60.49998895753407L689.4409730236604,62.27764547082387L694.9622020785512,61.26061948096378L700.4834311334417,61.054976123338065L706.0046601883323,59.920021136508296L711.525889243223,58.96579075309103L717.0471182981136,59.86651762648927L722.5683473530042,57.942415632316795L728.0895764078948,58.896999633123244L733.6108054627854,57.35834312488004L739.1320345176761,56.41057266049876L744.6532635725666,56.06520281601911L750.1744926274572,55.78447264147064L755.695721682348,54.508391882069816L761.2169507372386,54.2880220007483L766.7381797921291,54.80944060840915L772.2594088470198,56.15495009018099L777.7806379019104,55.139088368639364L783.301866956801,54.53025401792098L788.8230960116916,54.07245919393927L794.3443250665822,55.57618789845071L799.8655541214728,54.95117277078117L805.3867831763635,54.14445022746156L810.908012231254,54.494525201765384L816.4292412861446,55.50924954828031L821.9504703410354,54.790931495810185L827.471699395926,53.42470294311278L832.9929284508165,53.69098404600214L838.5141575057072,52.99145876928014L844.0353865605978,53.16134116837941L849.5566156154885,52.08573605591414L855.077844670379,50.75512611090551L860.5990737252696,50.894175067828314L866.1203027801603,49.50249425148877L871.6415318350508,50.43696113928905L877.1627608899414,49.96280575208118L882.6839899448322,49.51662754202982L888.2052189997228,50.98018424090748L893.7264480546133,49.96832179687044L899.247677109504,52.33972834670038L904.7689061643946,50.97813296657779L910.2901352192852,50.155086951256635L915.8113642741758,49.451915765972785L921.3325933290664,49.733286432758746L926.853822383957,49.74704771759406L932.3750514388477,49.93287566567682L937.8962804937382,49.99588354699176L943.4175095486288,48.37602517308534L948.9387386035196,48.24641083551546L954.4599676584102,47.87555015592358L959.9811967133007,47.03293689418717L965.5024257681914,46.79014623405084L971.023654823082,45.516071954044605L976.5448838779727,45.80233065451324L982.0661129328632,45.8901528651312L987.5873419877538,45.39437561659577L993.1085710426445,46.563937976712054L998.629800097535,46.00906041012138L1004.1510291524256,46.11869644870757L1009.6722582073164,45.87651459322916L1015.193487262207,44.352870104943236L1020.7147163170976,44.01289295115123L1026.2359453719882,44.29119396148923L1031.7571744268787,43.89691753956595L1037.2784034817694,45.317092245585116L1042.79963253666,45.27294603723573L1048.3208615915507,43.60095433315513L1053.8420906464412,43.8573448835092L1059.3633197013319,42.82934560898269L1064.8845487562226,43.50809236357031L1070.405777811113,43.46226084162737L1075.9270068660037,44.103772039997864L1081.4482359208944,43.32690125045707L1086.9694649757848,42.671749609003484L1092.4906940306755,41.90812824381561L1098.0119230855662,42.16265719745746L1103.5331521404569,40.740149956104005L1109.0543811953476,41.286199487305L1114.575610250238,40.53227608216588L1120.0968393051287,43.35646451479391L1125.6180683600194,43.11149587646844L1131.1392974149098,41.238952387532834L1136.6605264698005,39.95630598743685L1142.1817555246912,40.7892315983089L1147.7029845795817,39.50452948042505L1153.2242136344723,39.354008023251026L1158.745442689363,39.340155556078855L1164.2666717442535,39.54814363002515L1169.7879007991444,40.80882741171894L1175.3091298540348,39.52927638126573L1180.8303589089253,39.91867365220435L1186.3515879638162,39.58369308933317" style="fill: none;" fill="none"></path></g></g></g></g><g opacity="0.2"><g><g><g><path stroke="rgb(51, 187, 238)" stroke-width="2px" d="M4.808570217223912,329.4717228440914L10.32979927211453,330.1614163813986L15.851028327005146,348.5748776885242L21.372257381895768,347.56120992975644L26.893486436786382,318.3384676163977L32.414715491677,282.30654688252974L37.93594454656762,268.9655527515054L43.45717360145824,264.8367092172377L48.978402656348855,244.87471248067513L54.499631711239466,231.83931089142854L60.02086076613009,215.25742136639624L65.54208982102071,210.52394280758173L71.06331887591132,201.04573065898L76.58454793080195,203.55117435697227L82.10577698569256,195.64031752566342L87.62700604058318,191.956001587639L93.14823509547381,189.93909081190603L98.6694641503644,193.4107143408532L104.19069320525503,185.95656268028262L109.71192226014566,177.85026500376443L115.23315131503627,174.22346965435838L120.75438036992689,178.349499430883L126.2756094248175,171.30634090951838L131.79683847970813,168.95422394494034L137.31806753459875,170.95545148079339L142.83929658948935,162.36781672149016L148.36052564437998,169.78345219000266L153.88175469927057,162.35420920453555L159.4029837541612,161.0951218052352L164.92421280905182,155.4819518706859L170.44544186394245,151.30730405053356L175.96667091883305,151.69020573948404L181.4878999737237,149.5040543545764L187.0091290286143,148.39972363114987L192.5303580835049,144.8561417074596L198.05158713839555,142.36513581559208L203.57281619328614,145.41672527881428L209.0940452481768,151.4460084691186L214.6152743030674,138.03503941192415L220.136503357958,136.16951802820847L225.65773241284865,144.2789984798788L231.17896146773924,140.50953177474165L236.70019052262987,132.23307094552638L242.2214195775205,130.1334080158388L247.7426486324111,129.24610565604465L253.26387768730172,128.35082329478217L258.78510674219234,135.49310911762302L264.3063357970829,127.052112651197L269.8275648519736,122.39146890347186L275.34879390686416,120.70086177159328L280.87002296175484,120.51782913675953L286.3912520166454,120.93246632287872L291.91248107153604,121.41975381138286L297.43371012642666,122.14242827961405L302.9549391813173,123.60346045595634L308.4761682362079,117.95440357838771L313.9973972910985,120.4508986042132L319.5186263459891,118.63648613163554L325.03985540087973,118.78344731474556L330.56108445577036,120.41358171873418L336.082313510661,113.55234877997663L341.6035425655516,115.14336733861774L347.1247716204422,114.33549597609766L352.64600067533286,106.1122197809458L358.1672297302234,106.90330085135906L363.68845878511405,109.28835261968493L369.2096878400046,114.22663584046063L374.73091689489524,105.23727950435108L380.25214594978587,104.37502420118864L385.77337500467655,107.7590060955128L391.2946040595671,109.15665953186976L396.81583311445775,109.17455687620333L402.33706216934837,97.86029860942494L407.85829122423894,106.35830826553206L413.37952027912957,98.86264214645587L418.90074933402025,98.23914110687707L424.4219783889108,103.24624607441996L429.94320744380144,93.8672534816468L435.46443649869207,94.86249343355564L440.9856655535827,94.1178163023165L446.50689460847326,97.0193540616288L452.02812366336394,97.13153535394628L457.54935271825457,90.43829759060822L463.07058177314514,88.55326441139488L468.59181082803576,90.81031326599498L474.1130398829264,88.22165614228697L479.63426893781696,97.38385100730841L485.15549799270764,82.37849610761629L490.67672704759826,83.05591981607637L496.19795610248883,85.10249036605279L501.71918515737946,88.63112708468105L507.2404142122701,83.32936171610021L512.7616432671607,82.61748100708053L518.2828723220513,79.37441763579506L523.804101376942,81.19731750877827L529.3253304318326,73.71867231768937L534.8465594867232,74.88596663651612L540.3677885416138,76.64553389669015L545.8890175965045,72.78685723294194L551.410246651395,77.63809847238423L556.9314757062856,75.56920236916693L562.4527047611763,72.17590278526711L567.973933816067,74.76944938964357L573.4951628709575,73.69759219820378L579.0163919258481,69.48756483396943L584.5376209807388,70.7277400910616L590.0588500356293,70.4737177321831L595.58007909052,66.09767866110224L601.1013081454106,65.32449493502253L606.6225372003012,71.17715716797335L612.1437662551918,63.783524362468825L617.6649953100824,67.96439935139699L623.186224364973,67.75857989156123L628.7074534198637,64.76206627662322L634.2286824747544,62.5565876049223L639.7499115296449,60.34317505892926L645.2711405845355,61.16788284073209L650.7923696394262,61.48288532643778L656.3135986943169,62.13535423261828L661.8348277492073,63.41206221319544L667.356056804098,58.204995937183696L672.8772858589887,57.59072033282837L678.3985149138792,59.35300909639335L683.9197439687698,65.13809501633216L689.4409730236604,55.00626078214697L694.9622020785512,56.27148309587096L700.4834311334417,63.31823953697267L706.0046601883323,54.4939723641873L711.525889243223,56.361015944714836L717.0471182981136,58.432356788266304L722.5683473530042,55.70997698099393L728.0895764078948,54.9696358043098L733.6108054627854,54.60209446500642L739.1320345176761,54.81063542823313L744.6532635725666,54.39996517925999L750.1744926274572,51.865507487489936L755.695721682348,52.13009296969926L761.2169507372386,49.75329796589841L766.7381797921291,49.57100336588252L772.2594088470198,48.839887624421806L777.7806379019104,51.185408402815085L783.301866956801,49.7703188938857L788.8230960116916,47.89118999321545L794.3443250665822,49.589869380914536L799.8655541214728,48.31708221030726L805.3867831763635,52.330238786872656L810.908012231254,45.35936155048404L816.4292412861446,43.21998312215936L821.9504703410354,46.26977362551298L827.471699395926,46.56484917113596L832.9929284508165,41.974272603933116L838.5141575057072,45.40345913085224L844.0353865605978,43.086813964708426L849.5566156154885,42.65630903000488L855.077844670379,41.94673467979101L860.5990737252696,53.69011406598946L866.1203027801603,41.34662011850372L871.6415318350508,42.42221361120909L877.1627608899414,41.66923358826881L882.6839899448322,43.96562892409702L888.2052189997228,40.783499552462615L893.7264480546133,45.72971664753055L899.247677109504,44.984116972769016L904.7689061643946,41.94834913095514L910.2901352192852,42.35763556464474L915.8113642741758,43.01596262219215L921.3325933290664,47.255742015022236L926.853822383957,41.42609724295403L932.3750514388477,37.307586196136526L937.8962804937382,38.81013283098446L943.4175095486288,37.58328832779017L948.9387386035196,39.04132223768488L954.4599676584102,40.32213553693646L959.9811967133007,38.57220885657097L965.5024257681914,36.5306661687913L971.023654823082,43.14691767518946L976.5448838779727,40.39557000131532L982.0661129328632,31.646674634305725L987.5873419877538,42.60912092883672L993.1085710426445,33.136028896784126L998.629800097535,35.961641324207164L1004.1510291524256,35.20197286072988L1009.6722582073164,33.466345604960736L1015.193487262207,32.828222250552756L1020.7147163170976,33.69421385498066L1026.2359453719882,31.58864664675002L1031.7571744268787,32.676971240063835L1037.2784034817694,38.64227603709327L1042.79963253666,33.17758948246586L1048.3208615915507,35.66186080662027L1053.8420906464412,31.17590067485162L1059.3633197013319,30.251881082868067L1064.8845487562226,30.091773654564577L1070.405777811113,28.694765998673233L1075.9270068660037,31.266448321570067L1081.4482359208944,32.74339437367286L1086.9694649757848,28.40813172627975L1092.4906940306755,33.19622486161728L1098.0119230855662,34.95076425959451L1103.5331521404569,29.554207544092492L1109.0543811953476,31.688511983044236L1114.575610250238,30.489943438809917L1120.0968393051287,31.90770832395407L1125.6180683600194,31.50746281678346L1131.1392974149098,26.94165654315566L1136.6605264698005,32.11380454684655L1142.1817555246912,31.21464750279023L1147.7029845795817,29.16923013221674L1153.2242136344723,27.615528459054588L1158.745442689363,29.380907743419414L1164.2666717442535,24.598903395329387L1169.7879007991444,28.35079564636584L1175.3091298540348,30.3314504616705L1180.8303589089253,36.49943807055985L1186.3515879638162,31.507970215720718L1191.8728170187067,28.019833157723554L1197.3940460735973,28.61920968419298L1202.915275128488,28.61814875914223L1208.4365041833785,24.76025625738805L1213.9577332382692,25.485513847481798L1219.4789622931598,28.640382058030866L1225.0001913480503,25.841938537340866L1230.5214204029412,23.052443688817732" style="fill: none;" fill="none"></path></g><g><path stroke="rgb(204, 51, 17)" stroke-width="2px" d="M4.808570217223912,354.9864167873133L10.32979927211453,363.4565886926336L15.851028327005146,336.1698731516859L21.372257381895768,335.72779029577686L26.893486436786382,352.1246867809903L32.414715491677,310.97251111656357L37.93594454656762,264.3009881938103L43.45717360145824,244.95704949004468L48.978402656348855,236.04970727307185L54.499631711239466,222.25472947470013L60.02086076613009,218.88809139859617L65.54208982102071,210.35202682219222L71.06331887591132,201.66125169709048L76.58454793080195,193.1765266677052L82.10577698569256,204.60075212234742L87.62700604058318,181.77158237268003L93.14823509547381,175.2958803719116L98.6694641503644,174.44797062052172L104.19069320525503,175.53145186034314L109.71192226014566,167.95879948432702L115.23315131503627,172.0471433579637L120.75438036992689,162.2792986705209L126.2756094248175,160.4930237753749L131.79683847970813,155.1496978211123L137.31806753459875,154.25404644244094L142.83929658948935,150.2573572677495L148.36052564437998,162.65357457753743L153.88175469927057,149.92985431731603L159.4029837541612,146.4379348308772L164.92421280905182,136.72581177218424L170.44544186394245,139.5705208505199L175.96667091883305,136.1420723584186L181.4878999737237,132.7553228335275L187.0091290286143,129.94391757634855L192.5303580835049,128.35285289053135L198.05158713839555,133.38329820918963L203.57281619328614,129.10717060157907L209.0940452481768,125.31657764978016L214.6152743030674,126.40956108788174L220.136503357958,122.26558783984751L225.65773241284865,123.13817563046018L231.17896146773924,127.09150525960126L236.70019052262987,123.46673950594439L242.2214195775205,122.59645807413756L247.7426486324111,117.5171179487948L253.26387768730172,114.85719433798545L258.78510674219234,118.9408332396581L264.3063357970829,120.83910491841715L269.8275648519736,112.63653982534191L275.34879390686416,110.27796505610746L280.87002296175484,114.02722805810521L286.3912520166454,116.84684395263298L291.91248107153604,122.3091780212784L297.43371012642666,114.89022139608545L302.9549391813173,107.20335813200268L308.4761682362079,119.5218972772089L313.9973972910985,107.87437016298236L319.5186263459891,112.72067579458007L325.03985540087973,108.37766378159927L330.56108445577036,108.99987326024672L336.082313510661,105.17325498390016L341.6035425655516,108.10791205566471L347.1247716204422,107.52578709306323L352.64600067533286,104.34162812567968L358.1672297302234,100.37538288722573L363.68845878511405,103.75018547350248L369.2096878400046,112.46425482254347L374.73091689489524,111.62584726943373L380.25214594978587,97.11077812469341L385.77337500467655,97.02285972701367L391.2946040595671,100.90561477669513L396.81583311445775,107.69027660309786L402.33706216934837,100.88232055275586L407.85829122423894,101.66975757625585L413.37952027912957,95.86202321284338L418.90074933402025,94.92342743320671L424.4219783889108,95.4411127307722L429.94320744380144,94.9076519389746L435.46443649869207,97.27342254768337L440.9856655535827,97.65609360075325L446.50689460847326,90.7780703698889L452.02812366336394,95.759713136215L457.54935271825457,95.94154646446981L463.07058177314514,95.00156686954955L468.59181082803576,91.10285181693149L474.1130398829264,89.0922143371505L479.63426893781696,91.90085196376236L485.15549799270764,94.07851594826445L490.67672704759826,87.90605400329179L496.19795610248883,86.72095459448371L501.71918515737946,90.42501296388645L507.2404142122701,88.87873776607921L512.7616432671607,87.99946153492948L518.2828723220513,82.788981847885L523.804101376942,82.5847768392133L529.3253304318326,85.09520227222623L534.8465594867232,86.99993175564174L540.3677885416138,82.9687855803906L545.8890175965045,80.72783511025546L551.410246651395,78.26870309708505L556.9314757062856,81.74872177208556L562.4527047611763,80.51910963832427L567.973933816067,80.39152186918358L573.4951628709575,79.9389220171197L579.0163919258481,81.70905240062461L584.5376209807388,77.27996707700879L590.0588500356293,76.46056392045938L595.58007909052,74.37137185975052L601.1013081454106,73.68153994091489L606.6225372003012,75.97180036231953L612.1437662551918,73.76996573753195L617.6649953100824,71.20487960081988L623.186224364973,72.98589599788852L628.7074534198637,72.21022140429847L634.2286824747544,67.50953926770342L639.7499115296449,76.7085436192665L645.2711405845355,72.13226647666005L650.7923696394262,73.6520185481998L656.3135986943169,81.5349223107815L661.8348277492073,70.01000123067496L667.356056804098,67.56410771705026L672.8772858589887,77.7444216133348L678.3985149138792,73.76904319400956L683.9197439687698,70.1323305017383L689.4409730236604,65.80564750910304L694.9622020785512,67.258699683977L700.4834311334417,66.68833715128545L706.0046601883323,67.55649673299087L711.525889243223,66.80693012108327L717.0471182981136,65.67183257118648L722.5683473530042,62.68316057618847L728.0895764078948,65.67787523125787L733.6108054627854,68.11126828015477L739.1320345176761,68.20301523345228L744.6532635725666,62.122392496129294L750.1744926274572,64.84860085901937L755.695721682348,61.30054459924571L761.2169507372386,60.99112350185027L766.7381797921291,66.64156419470243L772.2594088470198,67.275997375021L777.7806379019104,65.22218485839414L783.301866956801,62.658759300022325L788.8230960116916,61.06142131825317L794.3443250665822,62.07123745781513L799.8655541214728,60.047407605664546L805.3867831763635,59.765616686763394L810.908012231254,58.7538170786284L816.4292412861446,63.35670960185462L821.9504703410354,59.62322209408899L827.471699395926,57.001307276400325L832.9929284508165,57.04858763192067L838.5141575057072,58.2893625423024L844.0353865605978,57.882935993532044L849.5566156154885,52.916930339909754L855.077844670379,54.15632143500795L860.5990737252696,58.219895015069596L866.1203027801603,51.419503821610874L871.6415318350508,50.399678084831464L877.1627608899414,54.073061882116065L882.6839899448322,53.01610376856212L888.2052189997228,56.160777873189204L893.7264480546133,62.247443270583574L899.247677109504,56.58178060961262L904.7689061643946,52.610830399194754L910.2901352192852,52.12829400983071L915.8113642741758,50.69881282195274L921.3325933290664,62.778689957927554L926.853822383957,52.62697491083583L932.3750514388477,53.979146951541054L937.8962804937382,50.06207328282824L943.4175095486288,49.66302708223668L948.9387386035196,52.49422089796997L954.4599676584102,50.55365059871127L959.9811967133007,52.56428807849227L965.5024257681914,47.383006893930144L971.023654823082,50.586493148106854L976.5448838779727,51.36908681811457L982.0661129328632,48.57682433902431L987.5873419877538,51.690823871533325L993.1085710426445,53.593892776608584L998.629800097535,50.18440255389157L1004.1510291524256,52.72144336752427L1009.6722582073164,49.61108788192848L1015.193487262207,52.49934101451896L1020.7147163170976,50.06908461359808L1026.2359453719882,46.152887361231535L1031.7571744268787,49.322977539899284L1037.2784034817694,49.23335243670317L1042.79963253666,43.590338219205876" style="fill: none;" fill="none"></path></g><g><path stroke="rgb(255, 112, 67)" stroke-width="2px" d="M4.808570217223912,336.3603553254627L10.32979927211453,337.9242511045467L15.851028327005146,353.132427197627L21.372257381895768,356.4505856116316L26.893486436786382,359.7362013028853L32.414715491677,337.74613101396943L37.93594454656762,342.48018616248544L43.45717360145824,302.73744942791365L48.978402656348855,268.9048032605588L54.499631711239466,254.45431216238288L60.02086076613009,244.9686735384263L65.54208982102071,237.8647655261151L71.06331887591132,223.1150474364656L76.58454793080195,218.6959255828911L82.10577698569256,213.57650094150236L87.62700604058318,213.69906084844627L93.14823509547381,202.21754544106625L98.6694641503644,196.42134287168312L104.19069320525503,202.94128083434813L109.71192226014566,194.17859344167942L115.23315131503627,185.00837244801355L120.75438036992689,179.04809551318087L126.2756094248175,178.24783513472022L131.79683847970813,179.08734974005677L137.31806753459875,175.36603980678618L142.83929658948935,167.36057613726058L148.36052564437998,160.53232412942688L153.88175469927057,166.21971269034913L159.4029837541612,151.85815478772747L164.92421280905182,155.10647665709033L170.44544186394245,147.1630540394426L175.96667091883305,150.1586912380344L181.4878999737237,144.1676936039075L187.0091290286143,140.2677792447104L192.5303580835049,144.29186796201554L198.05158713839555,138.69604184568638L203.57281619328614,134.50368118990497L209.0940452481768,134.69469382620707L214.6152743030674,137.36513443317128L220.136503357958,126.20743180213532L225.65773241284865,127.07499173055123L231.17896146773924,131.51141127516976L236.70019052262987,127.23722100895614L242.2214195775205,121.60689176489115L247.7426486324111,119.37387516904818L253.26387768730172,122.02807901001904L258.78510674219234,122.04726791528387L264.3063357970829,115.80455428108439L269.8275648519736,116.05299525165265L275.34879390686416,112.87584761503894L280.87002296175484,111.22772361236457L286.3912520166454,112.48284407451877L291.91248107153604,108.82191461478584L297.43371012642666,113.95586931665156L302.9549391813173,106.9599911508073L308.4761682362079,103.19915022760415L313.9973972910985,108.84590074636685L319.5186263459891,106.05133190847079L325.03985540087973,103.6227360858901L330.56108445577036,104.59735719007449L336.082313510661,101.09302949326013L341.6035425655516,100.15424920491898L347.1247716204422,101.0765159642101L352.64600067533286,101.3571075765322L358.1672297302234,96.502729689114L363.68845878511405,98.09134963459695L369.2096878400046,96.01963977363653L374.73091689489524,96.93134340959676L380.25214594978587,91.47256113351239L385.77337500467655,92.64709741898952L391.2946040595671,94.57562852528162L396.81583311445775,93.14208814590529L402.33706216934837,90.74305984321586L407.85829122423894,91.91528976988712L413.37952027912957,89.0145361725688L418.90074933402025,90.73318862752672L424.4219783889108,93.80161451003175L429.94320744380144,81.88802584396007L435.46443649869207,88.06823715452049L440.9856655535827,83.00351934400697L446.50689460847326,81.01400811088774L452.02812366336394,79.2750135712621L457.54935271825457,80.44885794909749L463.07058177314514,86.91925532461238L468.59181082803576,78.87163141611546L474.1130398829264,79.72129400019787L479.63426893781696,79.42405047729738L485.15549799270764,80.35683423274327L490.67672704759826,78.69911577743642L496.19795610248883,79.50800193783101L501.71918515737946,75.0432141799003L507.2404142122701,72.08692346253667L512.7616432671607,72.92597679611202L518.2828723220513,75.39105921500158L523.804101376942,73.13350296146416L529.3253304318326,69.74191008308071L534.8465594867232,75.39479551626704L540.3677885416138,80.53377808032963L545.8890175965045,73.37036601082701L551.410246651395,71.99660645169877L556.9314757062856,69.12057702077942L562.4527047611763,74.1556350570495L567.973933816067,66.7604339275569L573.4951628709575,72.92694546681048L579.0163919258481,72.37757079925234L584.5376209807388,67.69469375263861L590.0588500356293,67.29426373676353L595.58007909052,62.81983539902427L601.1013081454106,65.16618646658765L606.6225372003012,66.4216759461508L612.1437662551918,62.940642473275716L617.6649953100824,64.47552425858191L623.186224364973,69.18538570322437L628.7074534198637,63.47124338015408L634.2286824747544,59.263799137782314L639.7499115296449,61.91777234287258L645.2711405845355,62.467239264782904L650.7923696394262,67.5674288737307L656.3135986943169,66.13817832173333L661.8348277492073,63.121368749303656L667.356056804098,61.322039863316434L672.8772858589887,56.549399331978236L678.3985149138792,61.045184552259855L683.9197439687698,58.6720797225484L689.4409730236604,55.56246227177053L694.9622020785512,57.75036648937066L700.4834311334417,59.27920561460547L706.0046601883323,56.09292479712053L711.525889243223,56.67560328583545L717.0471182981136,56.34367212649471L722.5683473530042,53.97670221120683L728.0895764078948,51.7500972928442L733.6108054627854,51.942908889014916L739.1320345176761,53.14180032348207L744.6532635725666,60.99439853135459L750.1744926274572,51.53256153027456L755.695721682348,53.87909710654242L761.2169507372386,53.22685883624246L766.7381797921291,51.31188911972902L772.2594088470198,54.280080648530884L777.7806379019104,51.594971599561404L783.301866956801,55.786271330292095L788.8230960116916,51.23098205281906L794.3443250665822,48.85764658722701L799.8655541214728,49.27219151899402L805.3867831763635,46.93188311150203L810.908012231254,46.306214094645725L816.4292412861446,45.099942311999826L821.9504703410354,46.87270194454345L827.471699395926,46.152887361231535L832.9929284508165,49.55430532812795L838.5141575057072,51.94623004569536L844.0353865605978,49.88988053438203L849.5566156154885,47.2588786629982L855.077844670379,46.228720438768505L860.5990737252696,48.98297412473801L866.1203027801603,44.453054794129514L871.6415318350508,44.561868802590425L877.1627608899414,41.7010152126137L882.6839899448322,46.39164162481512L888.2052189997228,44.78267959466439L893.7264480546133,43.866593876972956L899.247677109504,48.28437804244004L904.7689061643946,49.100091024899996L910.2901352192852,45.32642674673616L915.8113642741758,45.6071106134105L921.3325933290664,43.385533557244685L926.853822383957,45.1272957274374L932.3750514388477,43.67202944810981L937.8962804937382,47.39933591427564L943.4175095486288,44.52588960521888L948.9387386035196,42.90553416256711L954.4599676584102,42.859960512563134L959.9811967133007,46.86605963118251L965.5024257681914,43.12053293045028L971.023654823082,44.539820012406324L976.5448838779727,40.125310876443564L982.0661129328632,42.97191116900001L987.5873419877538,42.26169103832058L993.1085710426445,40.481043658660894L998.629800097535,41.19735257658789L1004.1510291524256,43.20762103895987L1009.6722582073164,41.58851103006333L1015.193487262207,40.539994189738934L1020.7147163170976,41.637082946514965L1026.2359453719882,40.844571933642044L1031.7571744268787,38.4219265167805L1037.2784034817694,39.788028964673174L1042.79963253666,39.14266364361475L1048.3208615915507,41.333289364605776L1053.8420906464412,38.70122656817131L1059.3633197013319,38.21430809707607L1064.8845487562226,39.79623960202207L1070.405777811113,41.08660122673001L1075.9270068660037,39.04238316273552L1081.4482359208944,37.717103265706726L1086.9694649757848,38.089487958502446L1092.4906940306755,40.15201851141552L1098.0119230855662,36.94668717019408L1103.5331521404569,36.852357095033994L1109.0543811953476,35.54377523575971L1114.575610250238,37.60708995066676L1120.0968393051287,38.52050029214337L1125.6180683600194,39.918984017670425L1131.1392974149098,36.31838890429907" style="fill: none;" fill="none"></path></g><g><path stroke="rgb(204, 51, 17)" stroke-width="2px" d="M4.808570217223912,340.44881451703964L10.32979927211453,336.30170462102944L15.851028327005146,338.7459375563139L21.372257381895768,336.10460319747983L26.893486436786382,330.07139919720555L32.414715491677,270.91714744585613L37.93594454656762,252.74659184816477L43.45717360145824,240.3766670287638L48.978402656348855,232.00172467853787L54.499631711239466,225.9115536157586L60.02086076613009,217.56110479605104L65.54208982102071,223.02251632117412L71.06331887591132,222.85286056741433L76.58454793080195,206.26534352689572L82.10577698569256,203.34244888504108L87.62700604058318,188.8083292165643L93.14823509547381,193.6313867513988L98.6694641503644,184.84189946940586L104.19069320525503,178.02522538277768L109.71192226014566,172.13455435670616L115.23315131503627,173.37800464330272L120.75438036992689,163.70532032019008L126.2756094248175,159.82611706306963L131.79683847970813,164.64410060853123L137.31806753459875,154.68468975867287L142.83929658948935,155.60492692221487L148.36052564437998,151.1983977877204L153.88175469927057,145.16939136047282L159.4029837541612,140.62032925177562L164.92421280905182,136.25596035625247L170.44544186394245,133.82865609460308L175.96667091883305,131.35291829803043L181.4878999737237,128.65350982446452L187.0091290286143,126.59227083248274L192.5303580835049,130.25808977288412L198.05158713839555,125.28765591035454L203.57281619328614,122.4753742368294L209.0940452481768,116.27758847216825L214.6152743030674,116.13348717397753L220.136503357958,113.64824717912467L225.65773241284865,110.348124490982L231.17896146773924,112.06502411324743L236.70019052262987,108.47485374167854L242.2214195775205,106.0526695965782L247.7426486324111,103.03166245112186L253.26387768730172,103.52323976700495L258.78510674219234,100.71704688072725L264.3063357970829,101.74946533658675L269.8275648519736,98.07801888069906L275.34879390686416,91.97414804661292L280.87002296175484,94.45666653807484L286.3912520166454,93.24831903250362L291.91248107153604,98.38905442925864L297.43371012642666,92.38251193678019L302.9549391813173,88.43388727960308L308.4761682362079,86.80103137222352L313.9973972910985,84.09295098954755L319.5186263459891,83.56553285782127L325.03985540087973,84.04193433276174L330.56108445577036,78.81055903493609L336.082313510661,78.72845266144714L341.6035425655516,78.7698287384244L347.1247716204422,81.09247043746342L352.64600067533286,82.83524740553077L358.1672297302234,87.96809505516967L363.68845878511405,75.33630625695025L369.2096878400046,77.78063144658694L374.73091689489524,72.37918525041647L380.25214594978587,71.98023130417715L385.77337500467655,71.79996629991035L391.2946040595671,73.83458991127242L396.81583311445775,71.27752990320477L402.33706216934837,68.49869043236475L407.85829122423894,67.01390276032203L413.37952027912957,67.69736912885338L418.90074933402025,69.54347097142369L424.4219783889108,67.10043734271824L429.94320744380144,70.20336635295905L435.46443649869207,66.28555464942843L440.9856655535827,69.11651782928112L446.50689460847326,64.29668919677482L452.02812366336394,62.41986665491038L457.54935271825457,68.65307809082964L463.07058177314514,65.5552230699617L468.59181082803576,62.55594182445668L474.1130398829264,64.16310489473886L479.63426893781696,66.01446523538647L485.15549799270764,59.5547232375547L490.67672704759826,59.21670329096645L496.19795610248883,57.91005877308908L501.71918515737946,58.60270444966784L507.2404142122701,60.19261595608208L512.7616432671607,57.99700850007031L518.2828723220513,57.55580206050752L523.804101376942,55.42730964574656L529.3253304318326,52.12331227481002L534.8465594867232,55.93493921891849L540.3677885416138,54.7786231680077L545.8890175965045,53.87835907172456L551.410246651395,54.93711614514706L556.9314757062856,56.586439454400534L562.4527047611763,50.87234325850636L567.973933816067,52.96794699669556L573.4951628709575,51.91315686041918L579.0163919258481,50.73769803141971L584.5376209807388,51.58141020978286L590.0588500356293,52.19674673918894L595.58007909052,53.37714117603298L601.1013081454106,50.94623899464642L606.6225372003012,49.15525912753645L612.1437662551918,54.24682295455028L617.6649953100824,51.70858283433853L623.186224364973,47.2259899864265L628.7074534198637,51.207595574527545L634.2286824747544,46.96135837704105L639.7499115296449,48.16384773124531L645.2711405845355,47.85027518799927L650.7923696394262,50.209818627932236L656.3135986943169,46.939032823800176L661.8348277492073,46.95485444520847L667.356056804098,46.71997486441876L672.8772858589887,50.41024120816229L678.3985149138792,44.6991894058919L683.9197439687698,49.677141998128604L689.4409730236604,44.43774057165854L694.9622020785512,46.64792421532337L700.4834311334417,45.55443337828444L706.0046601883323,43.75736472392697L711.525889243223,46.53961760579972L717.0471182981136,48.11075535153424L722.5683473530042,45.528463778130345L728.0895764078948,46.67818364285637L733.6108054627854,43.65011903945407L739.1320345176761,42.701236899543176L744.6532635725666,43.503757509633544L750.1744926274572,42.733894940234336L755.695721682348,46.197353959008694L761.2169507372386,44.042015527747424L766.7381797921291,41.57185911948494L772.2594088470198,40.25852616107056L777.7806379019104,42.19951160491428L783.301866956801,43.16804392185122L788.8230960116916,40.20386545737142L794.3443250665822,37.99806389543778L799.8655541214728,40.241505233083274L805.3867831763635,41.08886145835976L810.908012231254,42.430147485501266L816.4292412861446,40.95389334104027L821.9504703410354,37.007344406788434L827.471699395926,38.010425978637215L832.9929284508165,39.103593925443306" style="fill: none;" fill="none"></path></g><g><path stroke="rgb(51, 187, 238)" stroke-width="2px" d="M4.808570217223912,339.34441460284904L10.32979927211453,346.4935733749314L15.851028327005146,332.33608209945305L21.372257381895768,331.64996341829493L26.893486436786382,345.8757921051911L32.414715491677,279.9734343145121L37.93594454656762,257.25363209941906L43.45717360145824,244.35338313619638L48.978402656348855,234.69767361389495L54.499631711239466,222.34721446281551L60.02086076613009,232.32756705063113L65.54208982102071,213.2687404224471L71.06331887591132,202.54504839149973L76.58454793080195,205.29312103586946L82.10577698569256,206.8540185485059L87.62700604058318,190.54723150183773L93.14823509547381,181.38683559668485L98.6694641503644,177.03801155951325L104.19069320525503,169.43574553642978L109.71192226014566,168.4867711421667L115.23315131503627,169.71606038569516L120.75438036992689,161.93454415621952L126.2756094248175,161.21131616187492L131.79683847970813,153.87349723947244L137.31806753459875,153.15502034426797L142.83929658948935,145.14992569215127L148.36052564437998,145.9830747471836L153.88175469927057,140.91844919102232L159.4029837541612,138.05551987812026L164.92421280905182,140.33258792715532L170.44544186394245,145.07543030272168L175.96667091883305,128.89812223941504L181.4878999737237,130.09858199787018L187.0091290286143,127.46084555877323L192.5303580835049,126.55246307949344L198.05158713839555,122.82778586236628L203.57281619328614,125.1663875643419L209.0940452481768,122.08066399079286L214.6152743030674,121.06840311089672L220.136503357958,116.14912428668134L225.65773241284865,112.68621879402036L231.17896146773924,112.92114450198625L236.70019052262987,113.89410502783039L242.2214195775205,112.40295180548344L247.7426486324111,108.37830956206489L253.26387768730172,107.49109945662298L258.78510674219234,104.4589295345462L264.3063357970829,103.56752185607763L269.8275648519736,103.40137176770276L275.34879390686416,102.2416884329354L280.87002296175484,100.80431949794138L286.3912520166454,107.25621987583321L291.91248107153604,97.71047754139562L297.43371012642666,104.92739713519444L302.9549391813173,98.60825077016847L308.4761682362079,97.52472340317087L313.9973972910985,97.08134898633057L319.5186263459891,94.40786398574261L325.03985540087973,97.05247337408105L330.56108445577036,94.63056599203736L336.082313510661,93.39357351009727L341.6035425655516,93.10975299544702L347.1247716204422,95.33073039832328L352.64600067533286,88.85138435064158L358.1672297302234,87.98179482647652L363.68845878511405,97.4047927452657L369.2096878400046,86.44170067026903L374.73091689489524,87.09882842123739L380.25214594978587,86.34155857091821L385.77337500467655,85.18860980386398L391.2946040595671,87.19417329427205L396.81583311445775,87.82044196441785L402.33706216934837,83.5490193287713L407.85829122423894,83.33508148593876L413.37952027912957,81.80970189891275L418.90074933402025,81.24109219891369L424.4219783889108,80.75149835160369L429.94320744380144,82.76637953158746L435.46443649869207,80.58931520037493L440.9856655535827,76.38652980279102L446.50689460847326,76.22084098617734L452.02812366336394,81.55448023345525L457.54935271825457,77.26889655474059L463.07058177314514,78.91905015316416L468.59181082803576,75.79739350941963L474.1130398829264,73.82651765545182L479.63426893781696,75.57667497169797L485.15549799270764,75.52828756395081L490.67672704759826,73.20887476723999L496.19795610248883,72.29684824104692L501.71918515737946,74.05147989337638L507.2404142122701,75.56551219507753L512.7616432671607,70.69872609728378L518.2828723220513,75.42030384466L523.804101376942,69.27251993891008L529.3253304318326,66.50770312960975L534.8465594867232,71.19159497409805L540.3677885416138,68.64809635580895L545.8890175965045,69.19931611041181L551.410246651395,70.79951397710028L556.9314757062856,65.96363308730508L562.4527047611763,65.13541964011733L567.973933816067,65.43750651651015L573.4951628709575,64.36680250447324L579.0163919258481,65.4044794584101L584.5376209807388,63.82430078615664L590.0588500356293,74.3102072242188L595.58007909052,63.67549451600189L601.1013081454106,62.98455554493944L606.6225372003012,61.0664953076261L612.1437662551918,63.5853158866924L617.6649953100824,62.14485643089847L623.186224364973,64.40979303261469L628.7074534198637,62.743310413845506L634.2286824747544,61.05182686562074L639.7499115296449,61.2060300153812L645.2711405845355,58.9307609262147L650.7923696394262,62.32516756234139L656.3135986943169,57.74303226836798L661.8348277492073,56.890924943951404L667.356056804098,59.23847531809383L672.8772858589887,60.33939263048762L678.3985149138792,58.838644955508244L683.9197439687698,62.40925740440338L689.4409730236604,64.94413024075851L694.9622020785512,59.73508049617368L700.4834311334417,60.746511086899716L706.0046601883323,58.21758865626373L711.525889243223,57.534445177965154L717.0471182981136,61.21760793658666L722.5683473530042,55.056262641058254L728.0895764078948,60.32887563433286L733.6108054627854,55.050358362515226L739.1320345176761,54.9889169639269L744.6532635725666,55.54714804929955L750.1744926274572,55.36337737964783L755.695721682348,52.594270742968604L761.2169507372386,53.95746717876591L766.7381797921291,55.59156851990059L772.2594088470198,58.17321431283881L777.7806379019104,53.61529578632707L783.301866956801,53.61700249184338L788.8230960116916,53.385766957966894L794.3443250665822,57.83178095521782L799.8655541214728,54.01365007927683L805.3867831763635,52.93436641248212L810.908012231254,55.01963766322103L816.4292412861446,57.03133606805278L821.9504703410354,53.713454417104856L827.471699395926,51.375360114066495L832.9929284508165,54.09040570033619L838.5141575057072,51.942170854197L844.0353865605978,53.416164767028306L849.5566156154885,50.472328387216294L855.077844670379,48.7592111933925L860.5990737252696,51.102748503212695L866.1203027801603,47.41497302697951L871.6415318350508,51.838661470989564L877.1627608899414,49.25157267126957L882.6839899448322,48.847360226952844L888.2052189997228,53.175519289223814L893.7264480546133,48.45052813081492L899.247677109504,55.896838171445495L904.7689061643946,48.93573989639373L910.2901352192852,48.920517928275046L915.8113642741758,48.397158988047124L921.3325933290664,50.15534243293763L926.853822383957,49.76768964484705L932.3750514388477,50.21161758780079L937.8962804937382,50.09039536896432L943.4175095486288,45.946237612225616L948.9387386035196,48.051989329160676L954.4599676584102,47.31925913653589L959.9811967133007,45.7690170015826L965.5024257681914,46.425960243846475L971.023654823082,43.604960534035115L976.5448838779727,46.23171870521611L982.0661129328632,46.02188618105811L987.5873419877538,44.650709743792504L993.1085710426445,48.31828151688637L998.629800097535,45.17674406023525L1004.1510291524256,46.28315050658699L1009.6722582073164,45.513241810011664L1015.193487262207,42.06740337251409L1020.7147163170976,43.50292722046345L1026.2359453719882,44.70864547699597L1031.7571744268787,43.305502906681L1037.2784034817694,47.447354304613896L1042.79963253666,45.20672672471159L1048.3208615915507,41.09296677703418L1053.8420906464412,44.24193070904016L1059.3633197013319,41.2873466971929L1064.8845487562226,44.526212495451716L1070.405777811113,43.39351355871298L1075.9270068660037,45.06603883755349L1081.4482359208944,42.16159506614582L1086.9694649757848,41.68902214682316L1092.4906940306755,40.76269619603369L1098.0119230855662,42.54445062792013L1103.5331521404569,38.60638909407396L1109.0543811953476,42.10527378410649L1114.575610250238,39.40139097445717L1120.0968393051287,47.59274716373591L1125.6180683600194,42.74404291898014L1131.1392974149098,38.4301371541294L1136.6605264698005,38.032336387293014L1142.1817555246912,42.03862001461687L1147.7029845795817,37.57747630359938L1153.2242136344723,39.12822583748999L1158.745442689363,39.319376855320456L1164.2666717442535,39.860125740944625L1169.7879007991444,42.699853084259644L1175.3091298540348,37.609949835586065L1180.8303589089253,40.50276955861216L1186.3515879638162,39.08122224502637" style="fill: none;" fill="none"></path></g></g></g></g></g></g><g transform="translate(58, 378)" clip-path="url(#clip_1)"><clipPath id="clip_1"><rect width="1368" height="22"></rect></clipPath><g><g><line x1="4.808570217223912" y1="0" x2="4.808570217223912" y2="5" style="visibility: inherit;" fill="rgb(0, 0, 0)" stroke="rgb(204, 204, 204)" stroke-width="1px"></line><line x1="115.23315131503627" y1="0" x2="115.23315131503627" y2="5" style="visibility: inherit;" fill="rgb(0, 0, 0)" stroke="rgb(204, 204, 204)" stroke-width="1px"></line><line x1="225.65773241284865" y1="0" x2="225.65773241284865" y2="5" style="visibility: inherit;" fill="rgb(0, 0, 0)" stroke="rgb(204, 204, 204)" stroke-width="1px"></line><line x1="336.082313510661" y1="0" x2="336.082313510661" y2="5" style="visibility: inherit;" fill="rgb(0, 0, 0)" stroke="rgb(204, 204, 204)" stroke-width="1px"></line><line x1="446.50689460847326" y1="0" x2="446.50689460847326" y2="5" style="visibility: inherit;" fill="rgb(0, 0, 0)" stroke="rgb(204, 204, 204)" stroke-width="1px"></line><line x1="556.9314757062856" y1="0" x2="556.9314757062856" y2="5" style="visibility: inherit;" fill="rgb(0, 0, 0)" stroke="rgb(204, 204, 204)" stroke-width="1px"></line><line x1="667.356056804098" y1="0" x2="667.356056804098" y2="5" style="visibility: inherit;" fill="rgb(0, 0, 0)" stroke="rgb(204, 204, 204)" stroke-width="1px"></line><line x1="777.7806379019104" y1="0" x2="777.7806379019104" y2="5" style="visibility: inherit;" fill="rgb(0, 0, 0)" stroke="rgb(204, 204, 204)" stroke-width="1px"></line><line x1="888.2052189997228" y1="0" x2="888.2052189997228" y2="5" style="visibility: inherit;" fill="rgb(0, 0, 0)" stroke="rgb(204, 204, 204)" stroke-width="1px"></line><line x1="998.629800097535" y1="0" x2="998.629800097535" y2="5" style="visibility: inherit;" fill="rgb(0, 0, 0)" stroke="rgb(204, 204, 204)" stroke-width="1px"></line><line x1="1109.0543811953476" y1="0" x2="1109.0543811953476" y2="5" style="visibility: inherit;" fill="rgb(0, 0, 0)" stroke="rgb(204, 204, 204)" stroke-width="1px"></line><line x1="1219.4789622931598" y1="0" x2="1219.4789622931598" y2="5" style="visibility: inherit;" fill="rgb(0, 0, 0)" stroke="rgb(204, 204, 204)" stroke-width="1px"></line><line x1="1329.9035433909721" y1="0" x2="1329.9035433909721" y2="5" style="visibility: inherit;" fill="rgb(0, 0, 0)" stroke="rgb(204, 204, 204)" stroke-width="1px"></line></g><g transform="translate(0, 8)"><text x="4.808570217223912" y="0" dx="0em" dy="0.95em" style="text-anchor: middle; visibility: inherit; font-family: &quot;Helvetica Neue&quot;, sans-serif; font-size: 12px; font-weight: 200;" fill="rgb(50, 49, 63)" stroke="none" stroke-width="1px">0</text><text x="115.23315131503627" y="0" dx="0em" dy="0.95em" style="text-anchor: middle; visibility: inherit; font-family: &quot;Helvetica Neue&quot;, sans-serif; font-size: 12px; font-weight: 200;" fill="rgb(50, 49, 63)" stroke="none" stroke-width="1px">20</text><text x="225.65773241284865" y="0" dx="0em" dy="0.95em" style="text-anchor: middle; visibility: inherit; font-family: &quot;Helvetica Neue&quot;, sans-serif; font-size: 12px; font-weight: 200;" fill="rgb(50, 49, 63)" stroke="none" stroke-width="1px">40</text><text x="336.082313510661" y="0" dx="0em" dy="0.95em" style="text-anchor: middle; visibility: inherit; font-family: &quot;Helvetica Neue&quot;, sans-serif; font-size: 12px; font-weight: 200;" fill="rgb(50, 49, 63)" stroke="none" stroke-width="1px">60</text><text x="446.50689460847326" y="0" dx="0em" dy="0.95em" style="text-anchor: middle; visibility: inherit; font-family: &quot;Helvetica Neue&quot;, sans-serif; font-size: 12px; font-weight: 200;" fill="rgb(50, 49, 63)" stroke="none" stroke-width="1px">80</text><text x="556.9314757062856" y="0" dx="0em" dy="0.95em" style="text-anchor: middle; visibility: inherit; font-family: &quot;Helvetica Neue&quot;, sans-serif; font-size: 12px; font-weight: 200;" fill="rgb(50, 49, 63)" stroke="none" stroke-width="1px">100</text><text x="667.356056804098" y="0" dx="0em" dy="0.95em" style="text-anchor: middle; visibility: inherit; font-family: &quot;Helvetica Neue&quot;, sans-serif; font-size: 12px; font-weight: 200;" fill="rgb(50, 49, 63)" stroke="none" stroke-width="1px">120</text><text x="777.7806379019104" y="0" dx="0em" dy="0.95em" style="text-anchor: middle; visibility: inherit; font-family: &quot;Helvetica Neue&quot;, sans-serif; font-size: 12px; font-weight: 200;" fill="rgb(50, 49, 63)" stroke="none" stroke-width="1px">140</text><text x="888.2052189997228" y="0" dx="0em" dy="0.95em" style="text-anchor: middle; visibility: inherit; font-family: &quot;Helvetica Neue&quot;, sans-serif; font-size: 12px; font-weight: 200;" fill="rgb(50, 49, 63)" stroke="none" stroke-width="1px">160</text><text x="998.629800097535" y="0" dx="0em" dy="0.95em" style="text-anchor: middle; visibility: inherit; font-family: &quot;Helvetica Neue&quot;, sans-serif; font-size: 12px; font-weight: 200;" fill="rgb(50, 49, 63)" stroke="none" stroke-width="1px">180</text><text x="1109.0543811953476" y="0" dx="0em" dy="0.95em" style="text-anchor: middle; visibility: inherit; font-family: &quot;Helvetica Neue&quot;, sans-serif; font-size: 12px; font-weight: 200;" fill="rgb(50, 49, 63)" stroke="none" stroke-width="1px">200</text><text x="1219.4789622931598" y="0" dx="0em" dy="0.95em" style="text-anchor: middle; visibility: inherit; font-family: &quot;Helvetica Neue&quot;, sans-serif; font-size: 12px; font-weight: 200;" fill="rgb(50, 49, 63)" stroke="none" stroke-width="1px">220</text><text x="1329.9035433909721" y="0" dx="0em" dy="0.95em" style="text-anchor: middle; visibility: inherit; font-family: &quot;Helvetica Neue&quot;, sans-serif; font-size: 12px; font-weight: 200;" fill="rgb(50, 49, 63)" stroke="none" stroke-width="1px">240</text></g><line x1="0" y1="0" x2="1368" y2="0" fill="rgb(0, 0, 0)" stroke="rgb(204, 204, 204)" stroke-width="1px"></line></g></g></g></g></svg>