<svg viewBox="0 0 1426 400" xmlns="http://www.w3.org/2000/svg"><g><g><g><g><g><line x1="70" y1="366.7873303167421" x2="65" y2="366.7873303167421" style="visibility: inherit;" fill="rgb(0, 0, 0)" stroke="rgb(204, 204, 204)" stroke-width="1px"></line><line x1="70" y1="330.868778280543" x2="65" y2="330.868778280543" style="visibility: inherit;" fill="rgb(0, 0, 0)" stroke="rgb(204, 204, 204)" stroke-width="1px"></line><line x1="70" y1="294.95022624434387" x2="65" y2="294.95022624434387" style="visibility: inherit;" fill="rgb(0, 0, 0)" stroke="rgb(204, 204, 204)" stroke-width="1px"></line><line x1="70" y1="259.0316742081448" x2="65" y2="259.0316742081448" style="visibility: inherit;" fill="rgb(0, 0, 0)" stroke="rgb(204, 204, 204)" stroke-width="1px"></line><line x1="70" y1="223.1131221719457" x2="65" y2="223.1131221719457" style="visibility: inherit;" fill="rgb(0, 0, 0)" stroke="rgb(204, 204, 204)" stroke-width="1px"></line><line x1="70" y1="187.1945701357466" x2="65" y2="187.1945701357466" style="visibility: inherit;" fill="rgb(0, 0, 0)" stroke="rgb(204, 204, 204)" stroke-width="1px"></line><line x1="70" y1="151.2760180995475" x2="65" y2="151.2760180995475" style="visibility: inherit;" fill="rgb(0, 0, 0)" stroke="rgb(204, 204, 204)" stroke-width="1px"></line><line x1="70" y1="115.35746606334845" x2="65" y2="115.35746606334845" style="visibility: inherit;" fill="rgb(0, 0, 0)" stroke="rgb(204, 204, 204)" stroke-width="1px"></line><line x1="70" y1="79.43891402714934" x2="65" y2="79.43891402714934" style="visibility: inherit;" fill="rgb(0, 0, 0)" stroke="rgb(204, 204, 204)" stroke-width="1px"></line><line x1="70" y1="43.52036199095022" x2="65" y2="43.52036199095022" style="visibility: inherit;" fill="rgb(0, 0, 0)" stroke="rgb(204, 204, 204)" stroke-width="1px"></line><line x1="70" y1="7.601809954751104" x2="65" y2="7.601809954751104" style="visibility: inherit;" fill="rgb(0, 0, 0)" stroke="rgb(204, 204, 204)" stroke-width="1px"></line></g><g transform="translate(60, 0)"><text x="0" y="366.7873303167421" dx="0em" dy="0.3em" style="text-anchor: end; visibility: inherit; font-family: &quot;Helvetica Neue&quot;, sans-serif; font-size: 12px; font-weight: 200;" fill="rgb(50, 49, 63)" stroke="none" stroke-width="1px">0</text><text x="0" y="330.868778280543" dx="0em" dy="0.3em" style="text-anchor: end; visibility: inherit; font-family: &quot;Helvetica Neue&quot;, sans-serif; font-size: 12px; font-weight: 200;" fill="rgb(50, 49, 63)" stroke="none" stroke-width="1px">2e-3</text><text x="0" y="294.95022624434387" dx="0em" dy="0.3em" style="text-anchor: end; visibility: inherit; font-family: &quot;Helvetica Neue&quot;, sans-serif; font-size: 12px; font-weight: 200;" fill="rgb(50, 49, 63)" stroke="none" stroke-width="1px">4e-3</text><text x="0" y="259.0316742081448" dx="0em" dy="0.3em" style="text-anchor: end; visibility: inherit; font-family: &quot;Helvetica Neue&quot;, sans-serif; font-size: 12px; font-weight: 200;" fill="rgb(50, 49, 63)" stroke="none" stroke-width="1px">6e-3</text><text x="0" y="223.1131221719457" dx="0em" dy="0.3em" style="text-anchor: end; visibility: inherit; font-family: &quot;Helvetica Neue&quot;, sans-serif; font-size: 12px; font-weight: 200;" fill="rgb(50, 49, 63)" stroke="none" stroke-width="1px">8e-3</text><text x="0" y="187.1945701357466" dx="0em" dy="0.3em" style="text-anchor: end; visibility: inherit; font-family: &quot;Helvetica Neue&quot;, sans-serif; font-size: 12px; font-weight: 200;" fill="rgb(50, 49, 63)" stroke="none" stroke-width="1px">0.01</text><text x="0" y="151.2760180995475" dx="0em" dy="0.3em" style="text-anchor: end; visibility: inherit; font-family: &quot;Helvetica Neue&quot;, sans-serif; font-size: 12px; font-weight: 200;" fill="rgb(50, 49, 63)" stroke="none" stroke-width="1px">0.012</text><text x="0" y="115.35746606334845" dx="0em" dy="0.3em" style="text-anchor: end; visibility: inherit; font-family: &quot;Helvetica Neue&quot;, sans-serif; font-size: 12px; font-weight: 200;" fill="rgb(50, 49, 63)" stroke="none" stroke-width="1px">0.014</text><text x="0" y="79.43891402714934" dx="0em" dy="0.3em" style="text-anchor: end; visibility: inherit; font-family: &quot;Helvetica Neue&quot;, sans-serif; font-size: 12px; font-weight: 200;" fill="rgb(50, 49, 63)" stroke="none" stroke-width="1px">0.016</text><text x="0" y="43.52036199095022" dx="0em" dy="0.3em" style="text-anchor: end; visibility: inherit; font-family: &quot;Helvetica Neue&quot;, sans-serif; font-size: 12px; font-weight: 200;" fill="rgb(50, 49, 63)" stroke="none" stroke-width="1px">0.018</text><text x="0" y="7.601809954751104" dx="0em" dy="0.3em" style="text-anchor: end; visibility: inherit; font-family: &quot;Helvetica Neue&quot;, sans-serif; font-size: 12px; font-weight: 200;" fill="rgb(50, 49, 63)" stroke="none" stroke-width="1px">0.02</text></g><line x1="70" y1="0" x2="70" y2="378" fill="rgb(0, 0, 0)" stroke="rgb(204, 204, 204)" stroke-width="1px"></line></g></g><g transform="translate(70, 0)" clip-path="url(#clip_0)"><clipPath id="clip_0"><rect width="1356" height="378"></rect></clipPath><g><g><g><line x1="7.761507274028135" y1="0" x2="7.761507274028135" y2="378" fill="rgb(0, 0, 0)" stroke="rgb(60, 60, 60)" stroke-width="1px" opacity="0.25"></line><line x1="117.39279751967565" y1="0" x2="117.39279751967565" y2="378" fill="rgb(0, 0, 0)" stroke="rgb(60, 60, 60)" stroke-width="1px" opacity="0.25"></line><line x1="227.02408776532315" y1="0" x2="227.02408776532315" y2="378" fill="rgb(0, 0, 0)" stroke="rgb(60, 60, 60)" stroke-width="1px" opacity="0.25"></line><line x1="336.65537801097065" y1="0" x2="336.65537801097065" y2="378" fill="rgb(0, 0, 0)" stroke="rgb(60, 60, 60)" stroke-width="1px" opacity="0.25"></line><line x1="446.2866682566182" y1="0" x2="446.2866682566182" y2="378" fill="rgb(0, 0, 0)" stroke="rgb(60, 60, 60)" stroke-width="1px" opacity="0.25"></line><line x1="555.9179585022657" y1="0" x2="555.9179585022657" y2="378" fill="rgb(0, 0, 0)" stroke="rgb(60, 60, 60)" stroke-width="1px" opacity="0.25"></line><line x1="665.5492487479132" y1="0" x2="665.5492487479132" y2="378" fill="rgb(0, 0, 0)" stroke="rgb(60, 60, 60)" stroke-width="1px" opacity="0.25"></line><line x1="775.1805389935608" y1="0" x2="775.1805389935608" y2="378" fill="rgb(0, 0, 0)" stroke="rgb(60, 60, 60)" stroke-width="1px" opacity="0.25"></line><line x1="884.8118292392082" y1="0" x2="884.8118292392082" y2="378" fill="rgb(0, 0, 0)" stroke="rgb(60, 60, 60)" stroke-width="1px" opacity="0.25"></line><line x1="994.4431194848559" y1="0" x2="994.4431194848559" y2="378" fill="rgb(0, 0, 0)" stroke="rgb(60, 60, 60)" stroke-width="1px" opacity="0.25"></line><line x1="1104.0744097305035" y1="0" x2="1104.0744097305035" y2="378" fill="rgb(0, 0, 0)" stroke="rgb(60, 60, 60)" stroke-width="1px" opacity="0.25"></line><line x1="1213.7056999761508" y1="0" x2="1213.7056999761508" y2="378" fill="rgb(0, 0, 0)" stroke="rgb(60, 60, 60)" stroke-width="1px" opacity="0.25"></line><line x1="1323.3369902217985" y1="0" x2="1323.3369902217985" y2="378" fill="rgb(0, 0, 0)" stroke="rgb(60, 60, 60)" stroke-width="1px" opacity="0.25"></line></g><g><line x1="0" y1="366.7873303167421" x2="1356" y2="366.7873303167421" fill="rgb(0, 0, 0)" stroke="rgb(60, 60, 60)" stroke-width="1px" opacity="0.25"></line><line x1="0" y1="330.868778280543" x2="1356" y2="330.868778280543" fill="rgb(0, 0, 0)" stroke="rgb(60, 60, 60)" stroke-width="1px" opacity="0.25"></line><line x1="0" y1="294.95022624434387" x2="1356" y2="294.95022624434387" fill="rgb(0, 0, 0)" stroke="rgb(60, 60, 60)" stroke-width="1px" opacity="0.25"></line><line x1="0" y1="259.0316742081448" x2="1356" y2="259.0316742081448" fill="rgb(0, 0, 0)" stroke="rgb(60, 60, 60)" stroke-width="1px" opacity="0.25"></line><line x1="0" y1="223.1131221719457" x2="1356" y2="223.1131221719457" fill="rgb(0, 0, 0)" stroke="rgb(60, 60, 60)" stroke-width="1px" opacity="0.25"></line><line x1="0" y1="187.1945701357466" x2="1356" y2="187.1945701357466" fill="rgb(0, 0, 0)" stroke="rgb(60, 60, 60)" stroke-width="1px" opacity="0.25"></line><line x1="0" y1="151.2760180995475" x2="1356" y2="151.2760180995475" fill="rgb(0, 0, 0)" stroke="rgb(60, 60, 60)" stroke-width="1px" opacity="0.25"></line><line x1="0" y1="115.35746606334845" x2="1356" y2="115.35746606334845" fill="rgb(0, 0, 0)" stroke="rgb(60, 60, 60)" stroke-width="1px" opacity="0.25"></line><line x1="0" y1="79.43891402714934" x2="1356" y2="79.43891402714934" fill="rgb(0, 0, 0)" stroke="rgb(60, 60, 60)" stroke-width="1px" opacity="0.25"></line><line x1="0" y1="43.52036199095022" x2="1356" y2="43.52036199095022" fill="rgb(0, 0, 0)" stroke="rgb(60, 60, 60)" stroke-width="1px" opacity="0.25"></line><line x1="0" y1="7.601809954751104" x2="1356" y2="7.601809954751104" fill="rgb(0, 0, 0)" stroke="rgb(60, 60, 60)" stroke-width="1px" opacity="0.25"></line></g></g></g><g><g><line x1="0" y1="366.7873303167421" x2="1356" y2="366.7873303167421" fill="rgb(0, 0, 0)" stroke="rgb(153, 153, 153)" stroke-width="1.5px"></line></g></g><g><g><line x1="7.761507274028135" y1="0" x2="7.761507274028135" y2="378" fill="rgb(0, 0, 0)" stroke="rgb(153, 153, 153)" stroke-width="1.5px"></line></g></g><g><g><g><g><g><path stroke="rgb(51, 187, 238)" stroke-width="2px" d="M7.761507274028135,30.889460275210922L13.24307178631051,32.72832433954386L18.724636298592888,32.54161531299485L24.206200810875263,34.06005482778096L29.687765323157635,50.99568792245026L35.16932983544002,86.82330004921783L40.65089434772239,118.70288803664221L46.13245886000477,143.28012295230755L51.61402337228714,161.6579824837974L57.09558788456951,182.0024334028161L62.57715239685189,200.09776815822804L68.05871690913428,213.38316870655277L73.54028142141664,224.12574387414034L79.02184593369903,231.99660673557895L84.5034104459814,239.81057696828188L89.98497495826378,244.19589463554732L95.46653947054615,247.9786639540516L100.94810398282853,249.62995883511334L106.4296684951109,253.59990648922246L111.91123300739326,256.57579502307567L117.39279751967565,261.40936262100496L122.87436203195803,263.93738999941655L128.35592654424042,266.169988163825L133.8374910565228,268.3897359956197L139.31905556880514,269.8966683093626L144.80062008108752,273.2636312365517L150.28218459336992,273.2067902051183L155.7637491056523,275.9419376169937L161.24531361793467,277.6638076701757L166.72687813021702,280.9272990162906L172.2084426424994,283.2796458030017L177.6900071547818,285.1583680864449L183.17157166706411,287.42789198874567L188.65313617934652,289.429809375756L194.1347006916289,291.1043556829821L199.61626520391127,292.4780195504632L205.09782971619364,292.05905350347774L210.57939422847602,290.7507956742573L216.0609587407584,293.9195310704773L221.54252325304077,295.6564338501821L227.02408776532315,295.17146260410436L232.50565227760555,295.2541159266994L237.98721678988792,298.67791486557826L243.46878130217027,300.5815893943516L248.95034581445265,302.9338345311162L254.43191032673502,303.75520967668643L259.9134748390174,302.6569921973469L265.3950393512998,303.280727569369L270.87660386358215,305.45499452918193L276.3581683758645,307.21144112802045L281.8397328881469,308.4058951195818L287.3212974004293,309.7326640286406L292.80286191271165,310.43666278989394L298.284426424994,310.41278882873144L303.7659909372764,309.9484981599976L309.2475554495588,311.4518838732409L314.72911996184115,311.5157329904566L320.2106844741235,312.53386787934664L325.6922489864059,312.62749765388156L331.1738134986883,312.2916961770935L336.65537801097065,312.9833253889756L342.136942523253,312.53220511302465L347.6185070355354,313.34056959095517L353.1000715478178,315.19654503570854L358.58163606010015,316.58094904788186L364.0632005723825,316.4704697210465L369.5447650846649,316.33369257973163L375.0263295969473,317.6778921902082L380.50789410922965,318.7982680615319L385.98945862151203,318.3538086593802L391.4710231337944,318.4268122079921L396.9525876460768,318.3312944539464L402.4341521583592,320.1768971112876L407.9157166706416,320.3121322093181L413.39728118292396,321.64553649712275L418.87884569520634,322.3643632182741L424.3604102074887,322.21460388086024L429.8419747197711,323.5912499486314L435.32353923205346,323.85464926239143L440.80510374433584,324.84222220925346L446.2866682566182,324.554452849576L451.76823276890053,324.96367286230566L457.2497972811829,326.05867045876755L462.7313617934653,327.20273163611273L468.21292630574766,327.32687271850284L473.69449081803003,327.82352357618885L479.1760553303124,326.8923710446038L484.6576198425948,328.45252560821547L490.13918435487716,329.2092115485404L495.62074886715953,330.19737409985714L501.1023133794419,329.9375595486744L506.58387789172434,330.6129436680054L512.0654424040067,331.1171712732911L517.5470069162891,331.9123000315873L523.0285714285715,332.0552460707859L528.5101359408538,332.9864332929557L533.9917004531362,333.4647317806328L539.4732649654186,333.21936209959875L544.954829477701,333.9012354315499L550.4363939899833,333.6975374345844L555.9179585022657,333.7896724862046L561.3995230145481,334.5796277246047L566.8810875268304,334.87141339238906L572.3626520391128,334.6964372306535L577.8442165513952,335.40662070717883L583.3257810636776,335.6907941460837L588.80734557596,336.0635567396975L594.2889100882423,336.2788229222815L599.7704746005247,336.6616548421124L605.2520391128071,336.6920367095937L610.7336036250895,337.5686814368555L616.2151681373718,337.441294383006L621.6967326496542,337.7013985479013L627.1782971619366,337.85962872078017L632.659861674219,338.269734238473L638.1414261865013,338.6645039956969L643.6229906987837,338.86044431403093L649.1045552110661,339.2101361103409L654.5861197233485,339.7223617740422L660.0676842356308,339.5015549572363L665.5492487479132,339.78363516331774L671.0308132601956,340.0213381289781L676.512377772478,339.8018136812637L681.9939422847604,339.6848671276565L687.4755067970427,340.531820965597L692.9570713093251,340.96645375907923L698.4386358216075,340.6706438448336L703.9202003338899,341.23315260588106L709.4017648461722,341.0708894289229L714.8833293584546,341.35717050460414L720.364893870737,341.6449239228885L725.8464583830195,342.07309053973125L731.3280228953018,342.02497988600317L736.8095874075842,342.55375848707746L742.2911519198666,342.5811118024356L747.772716432149,343.0459295591591L753.2542809444313,343.0204685889991L758.7358454567137,343.15466617136576L764.2174099689961,343.28642779682764L769.6989744812785,343.2358115397087L775.1805389935608,343.142222143609L780.6621035058432,343.7503326160895L786.1436680181256,344.0632257389097L791.625232530408,343.94635408245625L797.1067970426903,343.76250598198567L802.5883615549727,343.5456909045587L808.0699260672551,343.77430171780816L813.5514905795375,344.21328920443216L819.0330550918198,344.6949477293461L824.5146196041022,344.1432867760342L829.9961841163846,344.6482964778955L835.477748628667,345.13086130235484L840.9593131409493,345.4620384369536L846.4408776532317,345.67121260919737L851.9224421655141,345.5749185739213L857.4040066777965,344.72542015291657L862.8855711900788,345.1840432954686L868.3671357023611,345.47148728596585L873.8487002146435,345.7036642326407L879.3302647269259,345.8571982697695L884.8118292392082,346.02719104033037L890.2933937514906,345.639428707769L895.774958263773,345.6532003765341L901.2565227760554,345.949575009598L906.7380872883377,346.6345978585545L912.2196518006201,346.3621979987156L917.7012163129025,345.6072732907453L923.1827808251849,345.83772701741213L928.6643453374672,346.36134762012057L934.1459098497497,346.5828343585669L939.6274743620321,347.1044140901212L945.1090388743145,346.88190966853176L950.5906033865969,346.91299970223093L956.0721678988792,346.69778913458816L961.5537324111616,346.86326072175314L967.035296923444,346.8964329640076L972.5168614357264,346.749938900344L977.9984259480087,347.4317816389794L983.4799904602911,346.73327447408155L988.9615549725735,347.23970422618095L994.4431194848559,347.2308608943601L999.9246839971382,347.4223290097556L1005.4062485094206,348.0397706981086L1010.887813021703,347.9695179939766L1016.3693775339854,347.99705307451046L1021.8509420462677,348.34252617012197L1027.3325065585502,348.4932556485135L1032.8140710708326,348.1467238879287L1038.295635583115,348.4082509188002L1043.7772000953973,347.808280126051L1049.2587646076797,348.264163456836L1054.740329119962,348.02600281504124L1060.2218936322445,348.30192746238043L1065.7034581445268,348.73953787487056L1071.1850226568092,348.63105972753056L1076.6665871690916,348.578519757393L1082.148151681374,348.9587844118256L1087.6297161936563,348.7432173379709L1093.1112807059387,348.59298981573886L1098.592845218221,348.9641823204562L1104.0744097305035,348.88014018137255L1109.5559742427856,348.5907932404902L1115.037538755068,348.8830606061253L1120.5191032673504,349.20336038597645L1126.0006677796327,349.51292540099706L1131.4822322919151,349.13918166072335L1136.9637968041975,348.93304954371047L1142.4453613164799,349.40765371730913L1147.9269258287623,349.34934125994505L1153.4084903410446,349.55585708241017L1158.890054853327,349.70644937094414L1164.3716193656094,349.86661981820026L1169.8531838778918,349.824731910736L1175.3347483901741,349.48399478869834L1180.8163129024565,349.3667871746299L1186.2978774147389,349.3956223990509L1191.7794419270213,349.5859757518984L1197.2610064393036,349.9622567833824L1202.742570951586,349.8779857247168L1208.2241354638684,349.97596729509763L1213.7056999761508,349.8541844819992L1219.1872644884334,349.9564580396356L1224.6688290007157,350.245627812347" style="fill: none;" fill="none"></path></g><g><path stroke="rgb(204, 51, 17)" stroke-width="2px" d="M7.761507274028135,23.42968470943731L13.24307178631051,19.730861065656427L18.724636298592888,23.715646041734203L24.206200810875263,25.408811258662297L29.687765323157635,28.885690292383003L35.16932983544002,66.22788843869915L40.65089434772239,111.31005526382171L46.13245886000477,145.10968926456962L51.61402337228714,169.6401116916421L57.09558788456951,191.0051969363595L62.57715239685189,206.66966120762044L68.05871690913428,220.039791200813L73.54028142141664,232.25114822550643L79.02184593369903,241.8127545875956L84.5034104459814,245.24626276105104L89.98497495826378,253.6334824970664L95.46653947054615,260.917138514667L100.94810398282853,265.6471895844678L106.4296684951109,267.35740940898285L111.91123300739326,270.77587460884297L117.39279751967565,273.2161503529577L122.87436203195803,276.6979375198024L128.35592654424042,279.1708056512535L133.8374910565228,282.10977946135085L139.31905556880514,285.0875675065953L144.80062008108752,286.97865141218966L150.28218459336992,285.1562281290676L155.7637491056523,288.67820426258936L161.24531361793467,291.9278121121821L166.72687813021702,295.7201110214957L172.2084426424994,297.17926681829925L177.6900071547818,298.91320260901034L183.17157166706411,301.18536484233744L188.65313617934652,303.4118262214962L194.1347006916289,305.0279334105183L199.61626520391127,304.98045851323803L205.09782971619364,306.5894204311016L210.57939422847602,307.84470389516434L216.0609587407584,308.1283902491224L221.54252325304077,308.9178593400709L227.02408776532315,309.1337063484435L232.50565227760555,309.32347120571706L237.98721678988792,309.8947862608874L243.46878130217027,310.59234791721985L248.95034581445265,311.8177998632176L254.43191032673502,313.0351694092924L259.9134748390174,312.6088243150339L265.3950393512998,312.45106938000464L270.87660386358215,314.2934388141946L276.3581683758645,316.00706194671045L281.8397328881469,316.54947615272874L287.3212974004293,316.4436345009924L292.80286191271165,315.4359820642663L298.284426424994,315.6266911039221L303.7659909372764,317.2551063141021L309.2475554495588,316.55255770630407L314.72911996184115,317.86724839431656L320.2106844741235,318.39807782889693L325.6922489864059,319.4174048805536L331.1738134986883,320.1770284874611L336.65537801097065,321.1309929984917L342.136942523253,321.5417880041216L347.6185070355354,321.64067083185665L353.1000715478178,322.2009004678109L358.58163606010015,322.50029818317796L364.0632005723825,322.46300717720504L369.5447650846649,321.38414910560573L375.0263295969473,321.13677846782036L380.50789410922965,322.9428135367849L385.98945862151203,324.468670168843L391.4710231337944,325.06490718559803L396.9525876460768,324.2371558763489L402.4341521583592,325.1954859754401L407.9157166706416,325.4748390671076L413.39728118292396,326.30686640145495L418.87884569520634,326.70667086657267L424.3604102074887,327.4108371902569L429.8419747197711,327.6007034213128L435.32353923205346,326.7895080921817L440.80510374433584,326.77503438521813L446.2866682566182,327.62857592309007L451.76823276890053,327.5705908910436L457.2497972811829,328.19695045954677L462.7313617934653,328.399119795596L468.21292630574766,328.927760113585L473.69449081803003,330.003777371693L479.1760553303124,330.41521705510655L484.6576198425948,329.70220105751565L490.13918435487716,330.69206192491635L495.62074886715953,331.74652636485564L501.1023133794419,331.97353221002606L506.58387789172434,332.1466823479417L512.0654424040067,332.17909522231184L517.5470069162891,333.128785332961L523.0285714285715,333.8048706178927L528.5101359408538,334.1845858043022L533.9917004531362,333.84842830574576L539.4732649654186,334.3977023655365L544.954829477701,334.9268165755487L550.4363939899833,335.59036946689065L555.9179585022657,335.8980125227473L561.3995230145481,335.9617279540774L566.8810875268304,336.4213799557979L572.3626520391128,336.5174039162918L577.8442165513952,336.43364196253026L583.3257810636776,337.16931127297676L588.80734557596,337.5830992690134L594.2889100882423,338.1140394247674L599.7704746005247,338.83755712420816L605.2520391128071,339.0610755443006L610.7336036250895,339.27836857498505L616.2151681373718,339.4624227574462L621.6967326496542,339.4025741087611L627.1782971619366,339.7057001631045L632.659861674219,340.38598943308375L638.1414261865013,339.8902153637021L643.6229906987837,340.13497465478093L649.1045552110661,340.22761998241987L654.5861197233485,339.59003322299526L660.0676842356308,339.8190621032415L665.5492487479132,340.90292835804723L671.0308132601956,340.3114176490825L676.512377772478,340.3523701328883L681.9939422847604,341.17671964271767L687.4755067970427,341.48953158634447L692.9570713093251,341.779979209023L698.4386358216075,341.75817615506764L703.9202003338899,341.85568499953473L709.4017648461722,341.7902239437949L714.8833293584546,341.7977839535232L720.364893870737,342.32282931942325L725.8464583830195,342.2973460728652L731.3280228953018,342.68852509557246L736.8095874075842,342.5927592431943L742.2911519198666,343.2839584467772L747.772716432149,343.21249931217346L753.2542809444313,344.0345023178992L758.7358454567137,344.10507042475956L764.2174099689961,343.4280906022406L769.6989744812785,343.16711511917697L775.1805389935608,343.59331883682034L780.6621035058432,343.9741431170227L786.1436680181256,344.0927963276911L791.625232530408,344.02116680807313L797.1067970426903,344.49114504932805L802.5883615549727,344.74674022932385L808.0699260672551,345.0650287230276L813.5514905795375,345.07246958330813L819.0330550918198,345.07202839911315L824.5146196041022,345.3666484651747L829.9961841163846,345.4790208522072L835.477748628667,345.0824591967564L840.9593131409493,345.30429069701506L846.4408776532317,345.913820411538L851.9224421655141,345.71018596780885L857.4040066777965,345.32782087023236L862.8855711900788,345.88507343230737L868.3671357023611,346.61927132833335L873.8487002146435,346.86013826394816L879.3302647269259,346.9848834183632L884.8118292392082,346.9353644000798L890.2933937514906,346.25290130160863L895.774958263773,346.26874749676693L901.2565227760554,346.57593153967554L906.7380872883377,346.62781147184194L912.2196518006201,347.2086605391917L917.7012163129025,346.32026696175967L923.1827808251849,346.6079136749387L928.6643453374672,346.83055975034813L934.1459098497497,347.26445888367215L939.6274743620321,347.4601277518194L945.1090388743145,347.5248300088832L950.5906033865969,347.76468890421233L956.0721678988792,347.5155310274025L961.5537324111616,348.0338212090242L967.035296923444,347.89641714818924L972.5168614357264,348.1111877306486L977.9984259480087,348.3590036965542L983.4799904602911,348.17640462348504L988.9615549725735,347.734373171079L994.4431194848559,347.72970502772847L999.9246839971382,347.5914086307797L1005.4062485094206,347.86390088504663L1010.887813021703,347.90965524741733L1016.3693775339854,347.9956676767287L1021.8509420462677,348.4240146910102L1027.3325065585502,348.54671659865033L1032.8140710708326,348.6248988904867L1038.295635583115,349.01765303270383" style="fill: none;" fill="none"></path></g><g><path stroke="rgb(255, 112, 67)" stroke-width="2px" d="M7.761507274028135,14.75360320973715L13.24307178631051,15.610177297212545L18.724636298592888,16.138659610804893L24.206200810875263,15.236990341852561L29.687765323157635,14.389709132314806L35.16932983544002,15.37468408210907L40.65089434772239,34.82539802437435L46.13245886000477,72.50911097977371L51.61402337228714,109.32414252667962L57.09558788456951,134.080617119185L62.57715239685189,153.14174162115282L68.05871690913428,174.73823321991537L73.54028142141664,191.0167583004342L79.02184593369903,204.28677741244522L84.5034104459814,215.58438517036245L89.98497495826378,222.08197853096993L95.46653947054615,232.09399942106023L100.94810398282853,239.75031284587044L106.4296684951109,244.0687802809986L111.91123300739326,250.05508965021082L117.39279751967565,256.4625953785971L122.87436203195803,261.69865042664975L128.35592654424042,264.8415908094205L133.8374910565228,266.3123982317207L139.31905556880514,269.0972918216045L144.80062008108752,273.22603148795037L150.28218459336992,276.84661290910685L155.7637491056523,278.7452502448693L161.24531361793467,283.39131817322226L166.72687813021702,285.96563926959686L172.2084426424994,290.1638227535671L177.6900071547818,291.1044516411699L183.17157166706411,293.83964074606587L188.65313617934652,296.22455232124366L194.1347006916289,296.8282773662948L199.61626520391127,299.5607300592927L205.09782971619364,301.40356493290324L210.57939422847602,303.22826122072547L216.0609587407584,303.5582446746143L221.54252325304077,305.91494529236155L227.02408776532315,307.0931759242488L232.50565227760555,307.2412056690241L237.98721678988792,307.9994734850169L243.46878130217027,309.58902415327657L248.95034581445265,311.2119151653958L254.43191032673502,312.1938153467753L259.9134748390174,312.5387174774253L265.3950393512998,314.3818394525745L270.87660386358215,315.45758932923513L276.3581683758645,316.3041679523562L281.8397328881469,317.56150476215805L287.3212974004293,318.0475752409472L292.80286191271165,319.1210704230504L298.284426424994,318.94935775757097L303.7659909372764,320.39982814387974L309.2475554495588,321.86013081700946L314.72911996184115,320.6257121967593L320.2106844741235,321.2146396301027L325.6922489864059,322.1594047794254L331.1738134986883,323.1161340771635L336.65537801097065,323.962042458928L342.136942523253,324.9470711964487L347.6185070355354,325.5144898960269L353.1000715478178,325.7224888785521L358.58163606010015,326.633513307714L364.0632005723825,326.6017671342422L369.5447650846649,327.07228758632834L375.0263295969473,327.4485558112824L380.50789410922965,328.3297855528287L385.98945862151203,328.5561077940773L391.4710231337944,328.7934489690885L396.9525876460768,329.1682614378809L402.4341521583592,329.5378679161683L407.9157166706416,329.4599174289491L413.39728118292396,329.96587053998024L418.87884569520634,330.6996888870825L424.3604102074887,330.4851784513492L429.8419747197711,332.07915997005L435.32353923205346,331.9422843686454L440.80510374433584,332.80450632774176L446.2866682566182,333.658450330567L451.76823276890053,334.6797191684687L457.2497972811829,334.5855511521646L462.7313617934653,333.8743852143029L468.21292630574766,334.65780133762803L473.69449081803003,335.24481926619444L479.1760553303124,335.7837803184301L484.6576198425948,336.02696890351564L490.13918435487716,336.3297574205664L495.62074886715953,336.42346996848636L501.1023133794419,336.79452955732626L506.58387789172434,337.7139386758376L512.0654424040067,337.92586314234353L517.5470069162891,337.838227427001L523.0285714285715,337.9913851835237L528.5101359408538,338.62553200413964L533.9917004531362,338.36425145757124L539.4732649654186,337.5401673828336L544.954829477701,337.94663300375885L550.4363939899833,338.397989380889L555.9179585022657,338.8966130267664L561.3995230145481,338.38879197788106L566.8810875268304,338.8870586303156L572.3626520391128,338.6613587347949L577.8442165513952,338.6666051139691L583.3257810636776,339.44851405753667L588.80734557596,340.1445902983256L594.2889100882423,341.0607742879721L599.7704746005247,341.3722604934896L605.2520391128071,341.64471010656644L610.7336036250895,342.02826233783105L616.2151681373718,342.1370382239097L621.6967326496542,340.8545324112803L627.1782971619366,341.55496525321166L632.659861674219,342.51740938526217L638.1414261865013,342.7136127937738L643.6229906987837,342.70042723660123L649.1045552110661,342.2289790681894L654.5861197233485,342.0644047839327L660.0676842356308,342.3851803875444L665.5492487479132,342.96242710911554L671.0308132601956,343.5961508351792L676.512377772478,343.5024321954502L681.9939422847604,343.80651910012904L687.4755067970427,344.4532866667205L692.9570713093251,344.65737842528705L698.4386358216075,344.77748934846L703.9202003338899,345.09923397269625L709.4017648461722,344.7684303928088L714.8833293584546,344.71276550942554L720.364893870737,345.1384267319415L725.8464583830195,345.6189981227856L731.3280228953018,345.83912195017706L736.8095874075842,345.7905517337106L742.2911519198666,345.44620706551893L747.772716432149,345.90424488849567L753.2542809444313,346.06491847464594L758.7358454567137,346.23888638214873L764.2174099689961,346.6910366243124L769.6989744812785,346.2782550370521L775.1805389935608,346.50970892931747L780.6621035058432,345.7660201787203L786.1436680181256,346.3329661878331L791.625232530408,346.5210311569251L797.1067970426903,346.95714960374784L802.5883615549727,347.2598091113585L808.0699260672551,347.567103143134L813.5514905795375,347.8339548724329L819.0330550918198,347.8971712193381L824.5146196041022,348.09411646972165L829.9961841163846,347.7172394109393L835.477748628667,347.6195001879571L840.9593131409493,347.658362675726L846.4408776532317,347.5423050897732L851.9224421655141,347.8519390478282L857.4040066777965,347.6174674912812L862.8855711900788,348.1817368774792L868.3671357023611,348.7359975378305L873.8487002146435,349.0539267345519L879.3302647269259,348.4477153444471L884.8118292392082,348.7840656548765L890.2933937514906,349.06958970272103L895.774958263773,348.8787909379285L901.2565227760554,348.3552485245501L906.7380872883377,348.7601100818687L912.2196518006201,348.6511078279734L917.7012163129025,348.682060920413L923.1827808251849,348.94419795551613L928.6643453374672,349.28169608882536L934.1459098497497,349.22170822020286L939.6274743620321,349.2393374132376L945.1090388743145,349.2075545493017L950.5906033865969,348.76942629103974L956.0721678988792,348.75374612223874L961.5537324111616,348.74323160405044L967.035296923444,348.87227205263304L972.5168614357264,349.51100511892804L977.9984259480087,349.67175271424384L983.4799904602911,349.5500757358788L988.9615549725735,349.80869021017406L994.4431194848559,349.5867823115911L999.9246839971382,349.3151092414607L1005.4062485094206,349.2120768754741L1010.887813021703,349.4752396157502L1016.3693775339854,349.42064876379175L1021.8509420462677,349.60563342036215L1027.3325065585502,349.82749797664974L1032.8140710708326,349.8171584265536L1038.295635583115,350.08146317675835L1043.7772000953973,350.1801029847841L1049.2587646076797,350.1143432976885L1054.740329119962,350.0817818928289L1060.2218936322445,349.9207232047063L1065.7034581445268,349.705639915101L1071.1850226568092,350.09630022252315L1076.6665871690916,349.9646225252875L1082.148151681374,350.2336032591844L1087.6297161936563,350.39455808110483L1093.1112807059387,350.5115988507559L1098.592845218221,350.53286959121726L1104.0744097305035,350.6447282700153L1109.5559742427856,350.5216652132605L1115.037538755068,350.44756269216964L1120.5191032673504,350.2158499443379L1126.0006677796327,350.3138179680835" style="fill: none;" fill="none"></path></g><g><path stroke="rgb(204, 51, 17)" stroke-width="2px" d="M7.761507274028135,32.21602320468804L13.24307178631051,28.700494289364485L18.724636298592888,30.48453971136746L24.206200810875263,27.92436737628782L29.687765323157635,44.44372487501914L35.16932983544002,91.84726620278741L40.65089434772239,127.2536661889485L46.13245886000477,156.03663751797785L51.61402337228714,177.92338032790315L57.09558788456951,191.10468007589324L62.57715239685189,206.42411652199044L68.05871690913428,213.51255962971L73.54028142141664,218.00609618987846L79.02184593369903,227.33207656827773L84.5034104459814,234.34872736008649L89.98497495826378,244.03881154103976L95.46653947054615,247.94120532488367L100.94810398282853,254.12785553779884L106.4296684951109,260.37621482924595L111.91123300739326,265.77680796168295L117.39279751967565,268.30347908269056L122.87436203195803,273.07308071799133L128.35592654424042,276.71879984698455L133.8374910565228,278.1463158090951L139.31905556880514,281.6176788484715L144.80062008108752,283.4505751879757L150.28218459336992,286.04979428415305L155.7637491056523,289.18359820615876L161.24531361793467,291.767480456048L166.72687813021702,294.7952348652024L172.2084426424994,297.45519096910004L177.6900071547818,299.8750361197016L183.17157166706411,302.4366366472456L188.65313617934652,304.10820676497895L194.1347006916289,304.71305949295106L199.61626520391127,305.8640694693234L205.09782971619364,307.4927212983122L210.57939422847602,309.7673856744808L216.0609587407584,311.6848591943208L221.54252325304077,313.72184835294263L227.02408776532315,314.9046256394672L232.50565227760555,315.6562087366065L237.98721678988792,316.9037637151542L243.46878130217027,318.41860958266864L248.95034581445265,320.0778835303614L254.43191032673502,320.8672161359839L259.9134748390174,321.8183161336849L265.3950393512998,322.09319568486745L270.87660386358215,322.74688203919646L276.3581683758645,324.4349229782837L281.8397328881469,324.86736120678694L287.3212974004293,326.1304906306333L292.80286191271165,325.84123291079476L298.284426424994,326.73838208938696L303.7659909372764,327.6743996227249L309.2475554495588,328.79483514681476L314.72911996184115,329.33153655569515L320.2106844741235,329.8057378127371L325.6922489864059,330.7357186074352L331.1738134986883,331.83843802625086L336.65537801097065,332.2953273542111L342.136942523253,332.62962728357144L347.6185070355354,332.48271873829583L353.1000715478178,332.487325301532L358.58163606010015,331.8755520044277L364.0632005723825,333.16517046930005L369.5447650846649,333.6742319302725L375.0263295969473,334.616157922031L380.50789410922965,335.2063529945116L385.98945862151203,335.2214406485032L391.4710231337944,335.10647753713454L396.9525876460768,335.3568226289609L402.4341521583592,336.1322873713628L407.9157166706416,336.9457070289837L413.39728118292396,337.14096561816905L418.87884569520634,337.3092350584525L424.3604102074887,338.0334924643009L429.8419747197711,338.13550046908307L435.32353923205346,338.16830054763597L440.80510374433584,337.2301681057952L446.2866682566182,338.2162012265091L451.76823276890053,338.9520057041095L457.2497972811829,338.62910567664346L462.7313617934653,338.74069240311405L468.21292630574766,339.3951944679864L473.69449081803003,339.30624140047445L479.1760553303124,339.3358215577575L484.6576198425948,339.62588536363523L490.13918435487716,340.01834188560196L495.62074886715953,340.657433007024L501.1023133794419,340.9675982224889L506.58387789172434,340.9006490167807L512.0654424040067,340.95185798907664L517.5470069162891,341.1295285839849L523.0285714285715,341.8487798242165L528.5101359408538,342.4943105947553L533.9917004531362,342.2845737109509L539.4732649654186,342.374548108602L544.954829477701,342.32465416566714L550.4363939899833,342.27023111278754L555.9179585022657,342.2347071201926L561.3995230145481,342.68837675045427L566.8810875268304,342.5959459995606L572.3626520391128,342.8121141543101L577.8442165513952,343.547154721245L583.3257810636776,343.2907592409683L588.80734557596,343.5143071284333L594.2889100882423,343.56581001776595L599.7704746005247,343.62003431729335L605.2520391128071,343.55463552923857L610.7336036250895,343.7475046269541L616.2151681373718,344.1084885238125L621.6967326496542,344.61711020351817L627.1782971619366,344.13825678851293L632.659861674219,344.25331419716497L638.1414261865013,344.7088151340877L643.6229906987837,344.7602477452204L649.1045552110661,344.5307154796592L654.5861197233485,344.8203005186584L660.0676842356308,344.67644382232015L665.5492487479132,344.72019609507396L671.0308132601956,344.5461341482039L676.512377772478,345.3003601298667L681.9939422847604,345.41798005935186L687.4755067970427,345.691621752454L692.9570713093251,345.43326339148786L698.4386358216075,345.52265946588705L703.9202003338899,345.6662279814044L709.4017648461722,345.54193244181914L714.8833293584546,345.14811244364046L720.364893870737,345.37482037811986L725.8464583830195,345.5074899274441L731.3280228953018,345.7456872797117L736.8095874075842,345.8819186845764L742.2911519198666,345.8941815705598L747.772716432149,345.88746865629014L753.2542809444313,345.61443190253425L758.7358454567137,346.03037816398256L764.2174099689961,346.66473480690127L769.6989744812785,346.96158558972206L775.1805389935608,346.899211368573L780.6621035058432,346.91923855827696L786.1436680181256,347.2212013328501L791.625232530408,347.80055025957523L797.1067970426903,347.6182452936846L802.5883615549727,347.5426126294524L808.0699260672551,347.5074583971494L813.5514905795375,347.7945000395381L819.0330550918198,347.9443274001622L824.5146196041022,347.7722547338892L829.9961841163846,347.7474387815977" style="fill: none;" fill="none"></path></g><g><path stroke="rgb(51, 187, 238)" stroke-width="2px" d="M7.761507274028135,32.14661080609352L13.24307178631051,28.326566352959844L18.724636298592888,26.769636609503095L24.206200810875263,29.070216159093093L29.687765323157635,32.318648138622734L35.16932983544002,73.74316705594532L40.65089434772239,112.6090029372856L46.13245886000477,142.83345033384413L51.61402337228714,164.13977470010622L57.09558788456951,182.89521024547622L62.57715239685189,189.96769335042217L68.05871690913428,202.49957356430556L73.54028142141664,216.71872713152072L79.02184593369903,223.50349812655725L84.5034104459814,229.94126820686108L89.98497495826378,238.92420925195174L95.46653947054615,246.6834089321101L100.94810398282853,253.6449013988331L106.4296684951109,261.0981671894807L111.91123300739326,266.78708961927845L117.39279751967565,269.08428463810577L122.87436203195803,271.8828560862144L128.35592654424042,274.5247513506241L133.8374910565228,279.76737393888874L139.31905556880514,282.80626032288944L144.80062008108752,287.72079863819806L150.28218459336992,289.73628149738784L155.7637491056523,293.1479463683427L161.24531361793467,295.2723011697691L166.72687813021702,295.81274597408196L172.2084426424994,296.10640107206893L177.6900071547818,299.22442058176824L183.17157166706411,301.2850608309936L188.65313617934652,302.87072644470015L194.1347006916289,304.65865559209544L199.61626520391127,306.2359040516383L205.09782971619364,306.47457614672817L210.57939422847602,307.0538163843113L216.0609587407584,307.7892838421569L221.54252325304077,309.80163785735283L227.02408776532315,311.92814401674593L232.50565227760555,313.09421555301793L237.98721678988792,313.80595463024804L243.46878130217027,314.16625011040173L248.95034581445265,315.82057870361393L254.43191032673502,316.9378907049523L259.9134748390174,317.7332419668285L265.3950393512998,318.6575371469986L270.87660386358215,319.181316893754L276.3581683758645,319.8452860785127L281.8397328881469,320.4013842670875L287.3212974004293,320.19869441258305L292.80286191271165,321.58066511683154L298.284426424994,320.9738823067759L303.7659909372764,321.7894052498714L309.2475554495588,323.0804506179626L314.72911996184115,323.7593974469712L320.2106844741235,324.96443275796975L325.6922489864059,324.77962005517224L331.1738134986883,325.2089398614665L336.65537801097065,325.8570592804393L342.136942523253,325.9149592346208L347.6185070355354,325.35560434161675L353.1000715478178,326.5578590573166L358.58163606010015,327.4490598446275L364.0632005723825,326.50154293966256L369.5447650846649,327.58522685014077L375.0263295969473,328.2582579859801L380.50789410922965,329.0397470193547L385.98945862151203,329.8065116216855L391.4710231337944,330.1745747024214L396.9525876460768,330.0315276686116L402.4341521583592,330.4377162732068L407.9157166706416,330.7547356192314L413.39728118292396,331.28780935155686L418.87884569520634,331.81751737848595L424.3604102074887,332.26670557713055L429.8419747197711,331.84825381537973L435.32353923205346,332.17292766179446L440.80510374433584,332.9056504610503L446.2866682566182,333.4592074488706L451.76823276890053,332.6863589779847L457.2497972811829,333.5519792853465L462.7313617934653,333.3745755956743L468.21292630574766,333.6706726071999L473.69449081803003,334.07521402000805L479.1760553303124,333.8143694780627L484.6576198425948,334.2071297533258L490.13918435487716,334.9042897219776L495.62074886715953,335.60476466562864L501.1023133794419,335.8320823274325L506.58387789172434,335.2833993117934L512.0654424040067,335.95651875511237L517.5470069162891,335.65901074877036L523.0285714285715,336.39513974054205L528.5101359408538,337.2462574586834L533.9917004531362,336.32868268650174L539.4732649654186,336.9368281211099L544.954829477701,337.5013136610622L550.4363939899833,337.3559630593454L555.9179585022657,338.0190781471853L561.3995230145481,338.38909861105554L566.8810875268304,338.5702219688418L572.3626520391128,338.8228238464402L577.8442165513952,339.13657164193216L583.3257810636776,339.2176868816135L588.80734557596,337.7997088400539L594.2889100882423,338.6590177171186L599.7704746005247,338.9318202167167L605.2520391128071,339.5840579569543L610.7336036250895,339.9176068344743L616.2151681373718,340.3458922062847L621.6967326496542,339.78486423704703L627.1782971619366,340.05787982648104L632.659861674219,340.0625181872246L638.1414261865013,339.7717026472011L643.6229906987837,340.25989934662675L649.1045552110661,340.2764974792987L654.5861197233485,340.5800590968414L660.0676842356308,341.4881962338525L665.5492487479132,341.7363354943037L671.0308132601956,341.5427123507963L676.512377772478,341.64340370525014L681.9939422847604,340.59345263013046L687.4755067970427,340.4666248647698L692.9570713093251,340.90996961823095L698.4386358216075,340.7487548650737L703.9202003338899,341.38407676645795L709.4017648461722,341.5217620137853L714.8833293584546,341.0250664827453L720.364893870737,341.4291087434433L725.8464583830195,341.5916663541925L731.3280228953018,342.22844661056195L736.8095874075842,342.1436001389751L742.2911519198666,342.1175418947198L747.772716432149,342.2080602492606L753.2542809444313,342.73480710011074L758.7358454567137,342.99275201523346L764.2174099689961,343.2082874285417L769.6989744812785,342.98189940401824L775.1805389935608,343.429053798454L780.6621035058432,343.7610469459703L786.1436680181256,343.5671779834123L791.625232530408,343.19841625659853L797.1067970426903,343.5536802047694L802.5883615549727,343.6128576210645L808.0699260672551,343.7473344431219L813.5514905795375,343.45406332966314L819.0330550918198,343.4951030543555L824.5146196041022,344.04681955527906L829.9961841163846,343.82323268294743L835.477748628667,343.72959482039073L840.9593131409493,343.85761170137766L846.4408776532317,343.9762064213358L851.9224421655141,344.48734503177064L857.4040066777965,344.54881593743994L862.8855711900788,344.7713691204363L868.3671357023611,344.6568219539512L873.8487002146435,344.72944489529925L879.3302647269259,345.0289798069543L884.8118292392082,344.5278345361335L890.2933937514906,344.85406510445563L895.774958263773,343.8288661155777L901.2565227760554,344.5108378163199L906.7380872883377,345.0299893109001L912.2196518006201,344.56796850876566L917.7012163129025,344.605648300738L923.1827808251849,344.9454532753253L928.6643453374672,345.1157373139821L934.1459098497497,345.28512486412836L939.6274743620321,345.8528532878389L945.1090388743145,345.8528653036947L950.5906033865969,345.8753286785945L956.0721678988792,345.9540702477984L961.5537324111616,345.640740358559L967.035296923444,346.00605708820706L972.5168614357264,346.00380484860017L977.9984259480087,345.7732587824406L983.4799904602911,346.2120074261927L988.9615549725735,346.0716887455456L994.4431194848559,346.1121128636895L999.9246839971382,345.94364339173114L1005.4062485094206,346.162633986591L1010.887813021703,346.42338545678643L1016.3693775339854,346.29244726507943L1021.8509420462677,346.57176882315093L1027.3325065585502,346.5481214006323L1032.8140710708326,345.9978233595474L1038.295635583115,345.8142083963818L1043.7772000953973,346.33032741994595L1049.2587646076797,345.93936597225644L1054.740329119962,346.64312848778053L1060.2218936322445,346.70615843590116L1065.7034581445268,346.76811435731133L1071.1850226568092,346.1139387475679L1076.6665871690916,346.58551153489105L1082.148151681374,346.9579913474142L1087.6297161936563,347.25998549403243L1093.1112807059387,347.23172881480343L1098.592845218221,347.623467483545L1104.0744097305035,347.56931856119013L1109.5559742427856,347.6105451750846L1115.037538755068,346.99561662008404L1120.5191032673504,346.78924339564713L1126.0006677796327,347.2274457983473L1131.4822322919151,347.570396390371L1136.9637968041975,347.44231485198844L1142.4453613164799,347.6998890113297L1147.9269258287623,347.70286358981065L1153.4084903410446,347.9626542224751L1158.890054853327,348.1893158679369L1164.3716193656094,348.09441209314224L1169.8531838778918,348.4139225361322L1175.3347483901741,348.17835283758484L1180.8163129024565,348.21971532337875" style="fill: none;" fill="none"></path></g></g></g></g><g opacity="0.2"><g><g><g><path stroke="rgb(51, 187, 238)" stroke-width="2px" d="M7.761507274028135,30.889460275210922L13.24307178631051,33.83164277814359L18.724636298592888,32.36237464750786L24.206200810875263,35.84573969716939L29.687765323157635,73.10685049085055L35.16932983544002,136.3857855609032L40.65089434772239,164.29120893206667L46.13245886000477,179.11396740080275L51.61402337228714,188.76175557730963L57.09558788456951,212.21157199387096L62.57715239685189,227.07664693693096L68.05871690913428,233.23897096593927L73.54028142141664,240.2045302537198L79.02184593369903,243.78748118801556L84.5034104459814,251.52234728865292L89.98497495826378,250.77077827066586L95.46653947054615,253.65121719060778L100.94810398282853,252.1064818931145L106.4296684951109,259.5542231888186L111.91123300739326,261.039355815856L117.39279751967565,268.6594489335643L122.87436203195803,267.72934788121626L128.35592654424042,269.5188413316814L133.8374910565228,271.71933144828245L139.31905556880514,272.1570560693471L144.80062008108752,278.3140612687764L150.28218459336992,273.1215288034088L155.7637491056523,280.04465453571123L161.24531361793467,280.24661116386295L166.72687813021702,285.8225342317809L172.2084426424994,286.80816520300453L177.6900071547818,287.97645113780686L183.17157166706411,290.83217757126124L188.65313617934652,292.4326853128782L194.1347006916289,293.6161750718546L199.61626520391127,294.53851531626344L205.09782971619364,291.4306044394816L210.57939422847602,288.7884089425712L216.0609587407584,298.6726341471582L221.54252325304077,298.26178801393485L227.02408776532315,294.4440057359602L232.50565227760555,295.3780959104925L237.98721678988792,303.813613271425L243.46878130217027,303.4371011866872L248.95034581445265,306.4622022356518L254.43191032673502,304.98727239491376L259.9134748390174,301.00966597844035L265.3950393512998,304.21633062736714L270.87660386358215,308.7163949688281L276.3581683758645,309.8461110262428L281.8397328881469,310.1975761069094L287.3212974004293,311.7228173922191L292.80286191271165,311.4926609317709L298.284426424994,310.3769778869878L303.7659909372764,309.2520621568976L309.2475554495588,313.7069624431043L314.72911996184115,311.61150666628015L320.2106844741235,314.0610702126814L325.6922489864059,312.7679423156839L331.1738134986883,311.78799396191147L336.65537801097065,314.0207692067986L342.136942523253,311.8555246990983L347.6185070355354,314.5531163078509L353.1000715478178,317.9805082028386L358.58163606010015,318.6575550661418L364.0632005723825,316.30475073079344L369.5447650846649,316.1285268677592L375.0263295969473,319.69419160592304L380.50789410922965,320.4788318685176L385.98945862151203,317.68711955615265L391.4710231337944,318.53631753090986L396.9525876460768,318.1880178228779L402.4341521583592,322.94530109729936L407.9157166706416,320.51498485636387L413.39728118292396,323.6456429288297L418.87884569520634,323.4426033000011L424.3604102074887,321.9899648747394L429.8419747197711,325.6562190502882L435.32353923205346,324.2497482330315L440.80510374433584,326.32358162954654L446.2866682566182,324.1227988100598L451.76823276890053,325.5775028814001L457.2497972811829,327.7011668534604L462.7313617934653,328.91882340213056L468.21292630574766,327.51308434208795L473.69449081803003,328.5684998627179L479.1760553303124,325.49564224722633L484.6576198425948,330.79275745363293L490.13918435487716,330.34424045902773L495.62074886715953,331.67961792683235L501.1023133794419,329.5478377219003L506.58387789172434,331.62601984700194L512.0654424040067,331.87351268121967L517.5470069162891,333.1049931690316L523.0285714285715,332.26966512958387L528.5101359408538,334.3832141262104L533.9917004531362,334.1821795121484L539.4732649654186,332.85130757804774L544.954829477701,334.9240454294765L550.4363939899833,333.3919904391361L555.9179585022657,333.92787506363493L561.3995230145481,335.76456058220475L566.8810875268304,335.30909189406566L572.3626520391128,334.43397298805013L577.8442165513952,336.47189592196696L583.3257810636776,336.11705430444096L588.80734557596,336.6227006301183L594.2889100882423,336.6017221961575L599.7704746005247,337.2359027218588L605.2520391128071,336.7376095108157L610.7336036250895,338.8836485277482L616.2151681373718,337.25021380223166L621.6967326496542,338.09155479524435L627.1782971619366,338.0969739800985L632.659861674219,338.88489251501215L638.1414261865013,339.25665863153284L643.6229906987837,339.154354791532L649.1045552110661,339.73467380480577L654.5861197233485,340.49070026959413L660.0676842356308,339.1703447320275L665.5492487479132,340.20675547243985L671.0308132601956,340.37789257746863L676.512377772478,339.47252700969204L681.9939422847604,339.5094472972457L687.4755067970427,341.8022517225077L692.9570713093251,341.61840294930255L698.4386358216075,340.2269289734651L703.9202003338899,342.07691574745235L709.4017648461722,340.8274946634856L714.8833293584546,341.786592118126L720.364893870737,342.0765540503151L725.8464583830195,342.7153404649954L731.3280228953018,341.95281390541095L736.8095874075842,343.346926388689L742.2911519198666,342.6221417754728L747.772716432149,343.7431561942444L753.2542809444313,342.9822771337591L758.7358454567137,343.35596254491566L764.2174099689961,343.4840702350205L769.6989744812785,343.15988715403034L775.1805389935608,343.0018380494594L780.6621035058432,344.66249832481026L786.1436680181256,344.53256542313994L791.625232530408,343.77104659777604L797.1067970426903,343.4867338312798L802.5883615549727,343.22046828841815L808.0699260672551,344.1172179376824L813.5514905795375,344.8717704343681L819.0330550918198,345.4174355167171L824.5146196041022,343.3157953460663L829.9961841163846,345.4058110306874L835.477748628667,345.8547085390439L840.9593131409493,345.9588041388518L846.4408776532317,345.98497386756287L851.9224421655141,345.4304775210072L857.4040066777965,343.4511725214095L862.8855711900788,345.87197800929664L868.3671357023611,345.90265327171164L873.8487002146435,346.051929652653L879.3302647269259,346.0874993254629L884.8118292392082,346.28218019617157L890.2933937514906,345.057785208927L895.774958263773,345.67385787968163L901.2565227760554,346.3941369591938L906.7380872883377,347.6621321319893L912.2196518006201,345.9535982089572L917.7012163129025,344.4748862287898L923.1827808251849,346.1834076074125L928.6643453374672,347.1467785241832L934.1459098497497,346.91506446623646L939.6274743620321,347.88678368745263L945.1090388743145,346.5481530361476L950.5906033865969,346.9596347527798L956.0721678988792,346.374973283124L961.5537324111616,347.1114681025006L967.035296923444,346.94619132738933L972.5168614357264,346.5301978048485L977.9984259480087,348.45454574693247L983.4799904602911,345.6855137267348L988.9615549725735,347.99934885433004L994.4431194848559,347.21759589662884L999.9246839971382,347.7095311828489L1005.4062485094206,348.96593323063814L1010.887813021703,347.8641389377786L1016.3693775339854,348.0383556953113L1021.8509420462677,348.86073581353924L1027.3325065585502,348.71934986610086L1032.8140710708326,347.6269262470516L1038.295635583115,348.8005414651075L1043.7772000953973,346.9083239369271L1049.2587646076797,348.9479884530135L1054.740329119962,347.66876185234906L1060.2218936322445,348.71581443338926L1065.7034581445268,349.39595349360576L1071.1850226568092,348.46834250652057L1076.6665871690916,348.49970980218666L1082.148151681374,349.52918139347446L1087.6297161936563,348.4198667271889L1093.1112807059387,348.3676485323908L1098.592845218221,349.52097107753224L1104.0744097305035,348.7540769727471L1109.5559742427856,348.1567728291666L1115.037538755068,349.32146165457794L1120.5191032673504,349.68381005575316L1126.0006677796327,349.977272923528L1131.4822322919151,348.5785660503129L1136.9637968041975,348.62385136819114L1142.4453613164799,350.1195599777072L1147.9269258287623,349.261872573899L1153.4084903410446,349.8656308161078L1158.890054853327,349.93233780374504L1164.3716193656094,350.10687548908453L1169.8531838778918,349.76190004953946L1175.3347483901741,348.97288910564185L1180.8163129024565,349.19097575352725L1186.2978774147389,349.4388752356825L1191.7794419270213,349.87150578116956L1197.2610064393036,350.52667833060843L1202.742570951586,349.7515791367183L1208.2241354638684,350.12293965066885L1213.7056999761508,349.6715102623516L1219.1872644884334,350.10986837609016L1224.6688290007157,350.67938247141404" style="fill: none;" fill="none"></path></g><g><path stroke="rgb(204, 51, 17)" stroke-width="2px" d="M7.761507274028135,23.42968470943731L13.24307178631051,17.511566879387885L18.724636298592888,27.54103961876882L24.206200810875263,27.399973553769712L29.687765323157635,33.425103558808985L35.16932983544002,117.88559166638697L40.65089434772239,175.77827513841618L46.13245886000477,194.38988011414648L51.61402337228714,205.8177199823217L57.09558788456951,222.72985855227006L62.57715239685189,230.0242820764761L68.05871690913428,240.02222653360388L73.54028142141664,250.5283115631416L79.02184593369903,256.13643194847987L84.5034104459814,250.39248906126522L89.98497495826378,266.2083967839161L95.46653947054615,271.8395403419448L100.94810398282853,272.7410652297149L106.4296684951109,269.9224786109784L111.91123300739326,275.90325994737344L117.39279751967565,276.87643013860844L122.87436203195803,281.9205037003796L128.35592654424042,282.88005902596257L133.8374910565228,286.5182053615504L139.31905556880514,289.5542284096191L144.80062008108752,289.8152692059721L150.28218459336992,282.4225978674662L155.7637491056523,293.9611630558091L161.24531361793467,296.8022208932231L166.72687813021702,301.4085572895202L172.2084426424994,299.36800002963264L177.6900071547818,301.51410595008184L183.17157166706411,304.5936079210775L188.65313617934652,306.7515181307575L194.1347006916289,307.4520941245964L199.61626520391127,304.9092461685418L205.09782971619364,309.0028632830036L210.57939422847602,309.72762907960566L216.0609587407584,308.5539197784794L221.54252325304077,310.1020629738554L227.02408776532315,309.45747686056967L232.50565227760555,309.608118491399L237.98721678988792,310.7517588432305L243.46878130217027,311.6386904014165L248.95034581445265,313.65597778189573L254.43191032673502,314.8612237282148L259.9134748390174,311.969306673686L265.3950393512998,312.21443697746963L270.87660386358215,317.05699296541746L276.3581683758645,318.57749664544957L281.8397328881469,317.3630974617496L287.3212974004293,316.28487202338874L292.80286191271165,313.9245034091815L298.284426424994,315.9127546634053L303.7659909372764,319.6977291293695L309.2475554495588,315.4987347946077L314.72911996184115,319.83928442633464L320.2106844741235,319.1943219807673L325.6922489864059,320.9463954580383L331.1738134986883,321.31646389782225L336.65537801097065,322.56193976503755L342.136942523253,322.1579805125664L347.6185070355354,321.78899507345926L353.1000715478178,323.04124492174225L358.58163606010015,322.94939475622857L364.0632005723825,322.40707066824564L369.5447650846649,319.7658619982068L375.0263295969473,320.76572251114237L380.50789410922965,325.65186614023173L385.98945862151203,326.75745511693015L391.4710231337944,325.95926271073046L396.9525876460768,322.99552891247515L402.4341521583592,326.632981124077L407.9157166706416,325.8938687046088L413.39728118292396,327.5549074029761L418.87884569520634,327.30637756424926L424.3604102074887,328.4670866757834L429.8419747197711,327.88550276789664L435.32353923205346,325.572715098485L440.80510374433584,326.7533238247728L446.2866682566182,328.90888822989797L451.76823276890053,327.48361334297385L457.2497972811829,329.13648981230153L462.7313617934653,328.7023737996699L468.21292630574766,329.7207205905684L473.69449081803003,331.6178032588551L479.1760553303124,331.03237658022687L484.6576198425948,328.63267706112924L490.13918435487716,332.17685322601733L495.62074886715953,333.32822302476467L501.1023133794419,332.31404097778176L506.58387789172434,332.40640755481513L512.0654424040067,332.227714533867L517.5470069162891,334.55332049893474L523.0285714285715,334.81899854529024L528.5101359408538,334.75415858391636L533.9917004531362,333.3441920579112L539.4732649654186,335.22161345522244L544.954829477701,335.72048789056703L550.4363939899833,336.5856988039036L555.9179585022657,336.3594771065324L561.3995230145481,336.0573011010725L566.8810875268304,337.11085795837863L572.3626520391128,336.6614398570327L577.8442165513952,336.30799903188796L583.3257810636776,338.2728152386465L588.80734557596,338.2037812630684L594.2889100882423,338.9104496583983L599.7704746005247,339.92283367336944L605.2520391128071,339.39635317443924L610.7336036250895,339.6043081210117L616.2151681373718,339.7385040311379L621.6967326496542,339.3128011357334L627.1782971619366,340.16038924461964L632.659861674219,341.4064233380526L638.1414261865013,339.1465542596297L643.6229906987837,340.50211359139917L649.1045552110661,340.36658797387827L654.5861197233485,338.6336530838583L660.0676842356308,340.1626054236109L665.5492487479132,342.5287277402559L671.0308132601956,339.4241515856354L676.512377772478,340.41379885859703L681.9939422847604,342.41324390746166L687.4755067970427,341.9587495017847L692.9570713093251,342.2156506430408L698.4386358216075,341.72547157413464L703.9202003338899,342.00194826623533L709.4017648461722,341.69203236018524L714.8833293584546,341.80912396811556L720.364893870737,343.11039736827337L725.8464583830195,342.2591212030281L731.3280228953018,343.2752936296333L736.8095874075842,342.449110464627L742.2911519198666,344.32075725215157L747.772716432149,343.10531061026796L753.2542809444313,345.26750682648776L758.7358454567137,344.2109225850502L764.2174099689961,342.4126208684622L769.6989744812785,342.7756518945814L775.1805389935608,344.23262441328546L780.6621035058432,344.54537953732626L786.1436680181256,344.2707761436937L791.625232530408,343.9137225286462L797.1067970426903,345.1961124112105L802.5883615549727,345.1301329993175L808.0699260672551,345.54246146358315L813.5514905795375,345.08363087372896L819.0330550918198,345.0713666228207L824.5146196041022,345.80857856426707L829.9961841163846,345.6475794327559L835.477748628667,344.4876167135802L840.9593131409493,345.6370379474031L846.4408776532317,346.8281149833223L851.9224421655141,345.4047343022152L857.4040066777965,344.7542732238677L862.8855711900788,346.72095227541985L868.3671357023611,347.7205681723724L873.8487002146435,347.2214386673703L879.3302647269259,347.17200114998576L884.8118292392082,346.8610858726547L890.2933937514906,345.2292066539018L895.774958263773,346.2925167895044L901.2565227760554,347.03670760403844L906.7380872883377,346.7056313700915L912.2196518006201,348.0799341402164L917.7012163129025,344.9876765956116L923.1827808251849,347.03938374470715L928.6643453374672,347.1645288634624L934.1459098497497,347.9153075836582L939.6274743620321,347.7536310540403L945.1090388743145,347.62188339447897L950.5906033865969,348.1244772472061L956.0721678988792,347.1417942121878L961.5537324111616,348.8112564814568L967.035296923444,347.6903110569368L972.5168614357264,348.43334360433767L977.9984259480087,348.7307276454126L983.4799904602911,347.90250601388124L988.9615549725735,347.07132599247007L994.4431194848559,347.72270281270266L999.9246839971382,347.3839640353566L1005.4062485094206,348.272639266447L1010.887813021703,347.97828679097336L1016.3693775339854,348.1246863206958L1021.8509420462677,349.0665352124325L1027.3325065585502,348.7307694601106L1032.8140710708326,348.7421723282411L1038.295635583115,349.60678424602963" style="fill: none;" fill="none"></path></g><g><path stroke="rgb(255, 112, 67)" stroke-width="2px" d="M7.761507274028135,14.75360320973715L13.24307178631051,16.124121749697792L18.724636298592888,16.646002631853605L24.206200810875263,14.176627281564379L29.687765323157635,13.283498785142456L35.16932983544002,16.737259028656467L40.65089434772239,62.64023017323666L46.13245886000477,127.45232623239045L51.61402337228714,163.6191631066381L57.09558788456951,170.8410966704806L62.57715239685189,181.5605453777704L68.05871690913428,207.01544346447983L73.54028142141664,215.38139371243537L79.02184593369903,224.16580873158048L84.5034104459814,232.51751689341475L89.98497495826378,231.82378596563012L95.46653947054615,247.10779400449667L100.94810398282853,251.23283904593654L106.4296684951109,250.54582355864244L111.91123300739326,259.03400653164107L117.39279751967565,266.0735025683342L122.87436203195803,269.55256070410707L128.35592654424042,269.5559393317013L133.8374910565228,268.5185919420549L139.31905556880514,273.27461241259834L144.80062008108752,279.41912338028055L150.28218459336992,282.2774757767661L155.7637491056523,281.59320333365736L161.24531361793467,290.3604157860665L166.72687813021702,289.8271194913707L172.2084426424994,296.46109658735907L177.6900071547818,292.51539478542037L183.17157166706411,297.94242407688324L188.65313617934652,299.801919513184L194.1347006916289,297.7338649079254L199.61626520391127,303.65940902833046L205.09782971619364,304.1678172148073L210.57939422847602,305.96530563552017L216.0609587407584,304.05321985360956L221.54252325304077,309.4499962111067L227.02408776532315,308.8605218697171L232.50565227760555,307.46325028600904L237.98721678988792,309.13687520845883L243.46878130217027,311.97335015497765L248.95034581445265,313.6462516831529L254.43191032673502,313.66666561869135L259.9134748390174,313.05607067336797L265.3950393512998,317.146522415195L270.87660386358215,317.07121414418975L276.3581683758645,317.57403588702067L281.8397328881469,319.4475099768456L287.3212974004293,318.77668095912736L292.80286191271165,320.7313131962005L298.284426424994,318.6917887593522L303.7659909372764,322.57553372334064L309.2475554495588,324.05058482670273L314.72911996184115,318.77408426638476L320.2106844741235,322.0980307801176L325.6922489864059,323.57655250340935L331.1738134986883,324.5512280237705L336.65537801097065,325.23090503157465L342.136942523253,326.4246143027297L347.6185070355354,326.36561794539415L353.1000715478178,326.03448735233985L358.58163606010015,328.0000499514568L364.0632005723825,326.55414787403464L369.5447650846649,327.7780682644575L375.0263295969473,328.0129581487135L380.50789410922965,329.6516301651481L385.98945862151203,328.89559115595034L391.4710231337944,329.1494607316052L396.9525876460768,329.7304801410696L402.4341521583592,330.09227763359934L407.9157166706416,329.34299169812033L413.39728118292396,330.724800206527L418.87884569520634,331.80041640773584L424.3604102074887,330.1634127977494L429.8419747197711,334.4701322481011L435.32353923205346,331.73697096653854L440.80510374433584,334.09783926638625L446.2866682566182,334.93936633480484L451.76823276890053,336.2116224253213L457.2497972811829,334.4442991277085L462.7313617934653,332.80763630751034L468.21292630574766,335.83292552261565L473.69449081803003,336.1253461590441L479.1760553303124,336.5922218967836L484.6576198425948,336.3917517811439L490.13918435487716,336.7839401961426L495.62074886715953,336.5640387903663L501.1023133794419,337.3511189405861L506.58387789172434,339.09305235360455L512.0654424040067,338.2437498421025L517.5470069162891,337.7067738539872L523.0285714285715,338.22112181830767L528.5101359408538,339.5767522350636L533.9917004531362,337.97233063771864L539.4732649654186,336.3040412707271L544.954829477701,338.55633143514683L550.4363939899833,339.07502394658405L555.9179585022657,339.64454849558246L561.3995230145481,337.62706040455305L566.8810875268304,339.63445860896746L572.3626520391128,338.3228088915137L577.8442165513952,338.67447468273053L583.3257810636776,340.62137747288796L588.80734557596,341.18870465950914L594.2889100882423,342.4350502724418L599.7704746005247,341.83948980176575L605.2520391128071,342.05338452618184L610.7336036250895,342.603590684728L616.2151681373718,342.30020205302765L621.6967326496542,338.9307736923362L627.1782971619366,342.6056145161087L632.659861674219,343.961075583338L638.1414261865013,343.00791790654114L643.6229906987837,342.6806489008424L649.1045552110661,341.5218068155717L654.5861197233485,341.8175433575475L660.0676842356308,342.86634379296197L665.5492487479132,343.8282971914723L671.0308132601956,344.5467364242747L676.512377772478,343.3618542358566L681.9939422847604,344.2626494571474L687.4755067970427,345.4234380166076L692.9570713093251,344.9635160631369L698.4386358216075,344.95765573321944L703.9202003338899,345.5818509090506L709.4017648461722,344.2722250229776L714.8833293584546,344.62926818435056L720.364893870737,345.7769185657154L725.8464583830195,346.33985520905196L731.3280228953018,346.16930769126424L736.8095874075842,345.7176964090109L742.2911519198666,344.9296900632315L747.772716432149,346.59130162296066L753.2542809444313,346.3059288538714L758.7358454567137,346.49983824340296L764.2174099689961,347.36926198755793L769.6989744812785,345.65908265616156L775.1805389935608,346.8568897677156L780.6621035058432,344.6504870528246L786.1436680181256,347.1833852015023L791.625232530408,346.80312861056314L797.1067970426903,347.6113272739819L802.5883615549727,347.7137983727745L808.0699260672551,348.0280441907972L813.5514905795375,348.23423246638134L819.0330550918198,347.99199573969577L824.5146196041022,348.389534345297L829.9961841163846,347.1519238227658L835.477748628667,347.4728913534837L840.9593131409493,347.7166564073793L846.4408776532317,347.3682187108441L851.9224421655141,348.3163899849106L857.4040066777965,347.26576015646083L862.8855711900788,349.02814095677616L868.3671357023611,349.56738852835747L873.8487002146435,349.530820529634L879.3302647269259,347.53839825928986L884.8118292392082,349.2885911205206L890.2933937514906,349.49787577448785L895.774958263773,348.5925927907397L901.2565227760554,347.56993490448264L906.7380872883377,349.3674024178465L912.2196518006201,348.4876044471306L917.7012163129025,348.7284905590724L923.1827808251849,349.33740350817084L928.6643453374672,349.7879432887892L934.1459098497497,349.1317264172691L939.6274743620321,349.2657812027897L945.1090388743145,349.15988025339783L950.5906033865969,348.1122339036467L956.0721678988792,348.7302258690372L961.5537324111616,348.7274598267679L967.035296923444,349.06583272550694L972.5168614357264,350.46910471837055L977.9984259480087,349.9128741072175L983.4799904602911,349.36756026833126L988.9615549725735,350.1966119216169L994.4431194848559,349.2539204637166L999.9246839971382,348.90759963626505L1005.4062485094206,349.0575283264944L1010.887813021703,349.8699837261642L1016.3693775339854,349.33876248585415L1021.8509420462677,349.88311040521774L1027.3325065585502,350.1602948110812L1032.8140710708326,349.80164910140934L1038.295635583115,350.47792030206557L1043.7772000953973,350.32806269682277L1049.2587646076797,350.015703767045L1054.740329119962,350.0329397855394L1060.2218936322445,349.67913517252254L1065.7034581445268,349.3830149806931L1071.1850226568092,350.6822906836564L1076.6665871690916,349.76710597943406L1082.148151681374,350.63707436002977L1087.6297161936563,350.6359903139854L1093.1112807059387,350.6871600052325L1098.592845218221,350.5647757019093L1104.0744097305035,350.81251628821235L1109.5559742427856,350.33707062812834L1115.037538755068,350.3364089105333L1120.5191032673504,349.8682808225903L1126.0006677796327,350.460770003702" style="fill: none;" fill="none"></path></g><g><path stroke="rgb(204, 51, 17)" stroke-width="2px" d="M7.761507274028135,32.21602320468804L13.24307178631051,26.591176940170385L18.724636298592888,32.19722331649035L24.206200810875263,24.913604710234267L29.687765323157635,66.01139802536272L35.16932983544002,157.4234291339689L40.65089434772239,177.88538467155863L46.13245886000477,198.0024860322273L51.61402337228714,210.20207469161954L57.09558788456951,210.67737400026073L62.57715239685189,229.26432503008058L68.05871690913428,224.1066492969229L73.54028142141664,224.7317288536157L79.02184593369903,241.30277656945842L84.5034104459814,244.86545573818873L89.98497495826378,258.56710361434796L95.46653947054615,253.79314463838463L100.94810398282853,263.4062600673526L106.4296684951109,269.7478018917683L111.91123300739326,273.8772040247344L117.39279751967565,272.0933471955527L122.87436203195803,280.2273262251691L128.35592654424042,282.1873065621099L133.8374910565228,280.2875728419733L139.31905556880514,286.82469873457336L144.80062008108752,286.19991188076625L150.28218459336992,289.9486162777299L155.7637491056523,293.88429927804015L161.24531361793467,295.6433014507612L166.72687813021702,299.33686480554013L172.2084426424994,301.4451242428762L177.6900071547818,303.5048033641356L183.17157166706411,306.2790371327581L188.65313617934652,306.61556182184773L194.1347006916289,305.6203385589147L199.61626520391127,307.5905844042019L205.09782971619364,309.9356990165975L210.57939422847602,313.1793822176181L216.0609587407584,314.56106946340077L221.54252325304077,316.777332084068L227.02408776532315,316.6787915668825L232.50565227760555,316.7835833814113L237.98721678988792,318.77509618207506L243.46878130217027,320.6908783832843L248.95034581445265,322.56679445146943L254.43191032673502,322.0512150442944L259.9134748390174,323.2449661301474L265.3950393512998,322.50551501162585L270.87660386358215,323.727411570668L276.3581683758645,326.9669843868803L281.8397328881469,325.5160185495366L287.3212974004293,328.02518476639364L292.80286191271165,325.4073463310382L298.284426424994,328.0841058572729L303.7659909372764,329.0784259227303L309.2475554495588,330.4754884329485L314.72911996184115,330.1365886690154L320.2106844741235,330.5170396983L325.6922489864059,332.1306897994822L331.1738134986883,333.49251715447417L336.65537801097065,332.98066134615146L342.136942523253,333.13107717761187L347.6185070355354,332.2623559203825L353.1000715478178,332.4942351463862L358.58163606010015,330.95789205877117L364.0632005723825,335.09959816660864L369.5447650846649,334.4378241217312L375.0263295969473,336.0290469096687L380.50789410922965,336.0916456032325L385.98945862151203,335.2440721294906L391.4710231337944,334.9340328700815L396.9525876460768,335.73234026670053L402.4341521583592,337.29548448496564L407.9157166706416,338.165836515415L413.39728118292396,337.43385350194706L418.87884569520634,337.5616392188777L424.3604102074887,339.11987857307344L429.8419747197711,338.28851247625636L435.32353923205346,338.2175006654653L440.80510374433584,335.82296944303414L446.2866682566182,339.6952509075799L451.76823276890053,340.0557124205102L457.2497972811829,338.14475563544426L462.7313617934653,338.90807249281994L468.21292630574766,340.376947565295L473.69449081803003,339.1728117992065L479.1760553303124,339.3801917936821L484.6576198425948,340.06098107245174L490.13918435487716,340.607026668552L495.62074886715953,341.61606968915703L501.1023133794419,341.43284604568623L506.58387789172434,340.8002252082184L512.0654424040067,341.0286714475206L517.5470069162891,341.39603447634727L523.0285714285715,342.9276566845639L528.5101359408538,343.4626067505635L533.9917004531362,341.96996838524433L539.4732649654186,342.5095097050787L544.954829477701,342.24981325126475L550.4363939899833,342.1885965334681L555.9179585022657,342.18142113130017L561.3995230145481,343.3688811958468L566.8810875268304,342.4572998732202L572.3626520391128,343.1363663864343L577.8442165513952,344.6497155716474L583.3257810636776,342.90616602055326L588.80734557596,343.8496289596307L594.2889100882423,343.643064351765L599.7704746005247,343.70137076658443L605.2520391128071,343.4565373471563L610.7336036250895,344.03680827352747L616.2151681373718,344.6499643691002L621.6967326496542,345.3800427230766L627.1782971619366,343.419976666005L632.659861674219,344.4259003101431L638.1414261865013,345.3920665394717L643.6229906987837,344.8373966619195L649.1045552110661,344.1864170813175L654.5861197233485,345.25467807715717L660.0676842356308,344.4606587778128L665.5492487479132,344.78582450420475L671.0308132601956,344.28504122789883L676.512377772478,346.431699102361L681.9939422847604,345.5944099535795L687.4755067970427,346.1020842921073L692.9570713093251,345.04572585003865L698.4386358216075,345.6567535774858L703.9202003338899,345.8815807546805L709.4017648461722,345.3554891324412L714.8833293584546,344.5573824463724L720.364893870737,345.71488227983895L725.8464583830195,345.70649425143046L731.3280228953018,346.1029833081132L736.8095874075842,346.08626579187336L742.2911519198666,345.91257589953483L747.772716432149,345.87739928488566L753.2542809444313,345.2048767719005L758.7358454567137,346.654297556155L764.2174099689961,347.6162697712794L769.6989744812785,347.4068617639532L775.1805389935608,346.80565003684944L780.6621035058432,346.9492793428328L786.1436680181256,347.67414549470993L791.625232530408,348.66957364966294L797.1067970426903,347.34478784484867L802.5883615549727,347.42916363310405L808.0699260672551,347.4547270486949L813.5514905795375,348.2250625031212L819.0330550918198,348.1690684410984L824.5146196041022,347.5141457344797L829.9961841163846,347.7102148531603" style="fill: none;" fill="none"></path></g><g><path stroke="rgb(51, 187, 238)" stroke-width="2px" d="M7.761507274028135,32.14661080609352L13.24307178631051,26.034539681079707L18.724636298592888,25.2749840557845L24.206200810875263,31.775697709410963L29.687765323157635,36.55980093109662L35.16932983544002,131.04818954541267L40.65089434772239,168.18777010097628L46.13245886000477,186.90098479272146L51.61402337228714,195.56246459989794L57.09558788456951,210.74484619687047L62.57715239685189,200.51227110661398L68.05871690913428,221.22919594641456L73.54028142141664,238.00102947886646L79.02184593369903,233.66736254642183L84.5034104459814,239.590355970252L89.98497495826378,252.39228535359263L95.46653947054615,258.3189250190839L100.94810398282853,264.08537257673447L106.4296684951109,272.27693044542593L111.91123300739326,275.3199532739312L117.39279751967565,272.5299511827124L122.87436203195803,276.0806211701919L128.35592654424042,278.4875420876252L133.8374910565228,287.6312457174231L139.31905556880514,287.3645682997867L144.80062008108752,295.0925851529L150.28218459336992,292.75950062910425L155.7637491056523,298.2654384370657L161.24531361793467,298.4588314150776L166.72687813021702,296.62341288185564L172.2084426424994,296.54688362167025L177.6900071547818,303.90144922593566L183.17157166706411,304.37602095883256L188.65313617934652,305.24922475168205L194.1347006916289,307.3405492363489L199.61626520391127,308.60177670028145L205.09782971619364,306.83258428567035L210.57939422847602,307.922676735309L216.0609587407584,308.89248502482894L221.54252325304077,312.8201688734216L227.02408776532315,315.11790325157176L232.50565227760555,314.843322856023L237.98721678988792,314.87356324557936L243.46878130217027,314.70669333047624L248.95034581445265,318.3020715930023L254.43191032673502,318.6138587067856L259.9134748390174,318.9262688595684L265.3950393512998,320.04397991720197L270.87660386358215,319.9669865138694L276.3581683758645,320.84123985563735L281.8397328881469,321.2355315499429L287.3212974004293,319.89465963082785L292.80286191271165,323.65362117319825L298.284426424994,320.0637080916941L303.7659909372764,323.01268966451323L309.2475554495588,325.0170186700982L314.72911996184115,324.77781769048374L320.2106844741235,326.77198572446724L325.6922489864059,324.502401000976L331.1738134986883,325.85291957090783L336.65537801097065,326.82923840889833L342.136942523253,326.00180916589306L347.6185070355354,324.51657200211076L353.1000715478178,328.3612411308663L358.58163606010015,328.7858610255939L364.0632005723825,325.08026758221513L369.5447650846649,329.2107527158581L375.0263295969473,329.2678046897391L380.50789410922965,330.2119805694166L385.98945862151203,330.9566585251817L391.4710231337944,330.72666932352524L396.9525876460768,329.81695711789695L402.4341521583592,331.0469991800995L407.9157166706416,331.23026463826824L413.39728118292396,332.08741995004505L418.87884569520634,332.6120794188796L424.3604102074887,332.94048787509746L429.8419747197711,331.22057617275357L435.32353923205346,332.65993843141655L440.80510374433584,334.0047346599341L446.2866682566182,334.28954293060104L451.76823276890053,331.5270862716558L457.2497972811829,334.8504097463892L462.7313617934653,333.10847006116603L468.21292630574766,334.11481812448824L473.69449081803003,334.6820261392203L479.1760553303124,333.4231026651447L484.6576198425948,334.7962701662203L490.13918435487716,335.9500296749554L495.62074886715953,336.65547708110523L501.1023133794419,336.1730588201383L506.58387789172434,334.4603747883348L512.0654424040067,336.96619792009085L517.5470069162891,335.21274873925734L523.0285714285715,337.49933322819953L528.5101359408538,338.52293403589533L533.9917004531362,334.9523205282293L539.4732649654186,337.84904627302217L544.954829477701,338.3480419709908L550.4363939899833,337.1379371567701L555.9179585022657,339.0137507789452L561.3995230145481,338.94412930686093L566.8810875268304,338.8419070055211L572.3626520391128,339.20172666283787L577.8442165513952,339.60719333517017L583.3257810636776,339.3393597411354L588.80734557596,335.67274177771446L594.2889100882423,339.9479810327157L599.7704746005247,339.34102396611377L605.2520391128071,340.5624145673107L610.7336036250895,340.41793015075433L616.2151681373718,340.98832026400027L621.6967326496542,338.9433222831905L627.1782971619366,340.46740321063214L632.659861674219,340.06947572833997L638.1414261865013,339.3354793371658L643.6229906987837,340.9921943957652L649.1045552110661,340.30139467830674L654.5861197233485,341.0354015231554L660.0676842356308,342.8504019393691L665.5492487479132,342.1085443849806L671.0308132601956,341.25227763553517L676.512377772478,341.79444073693094L681.9939422847604,339.01852601745094L687.4755067970427,340.27638321672885L692.9570713093251,341.57498674842265L698.4386358216075,340.5069327353377L703.9202003338899,342.33705961853434L709.4017648461722,341.72828988477636L714.8833293584546,340.28002318618525L720.364893870737,342.0351721344903L725.8464583830195,341.8355027703164L731.3280228953018,343.18361699511615L736.8095874075842,342.0163304315947L742.2911519198666,342.07845452833686L747.772716432149,342.3438377810718L753.2542809444313,343.524927376386L758.7358454567137,343.37966938791755L764.2174099689961,343.5315905485041L769.6989744812785,342.642317367233L775.1805389935608,344.0997853901077L780.6621035058432,344.25903666724463L786.1436680181256,343.27637453957533L791.625232530408,342.645273666378L797.1067970426903,344.08657612702575L802.5883615549727,343.70162374550705L808.0699260672551,343.949049676208L813.5514905795375,343.0141566594751L819.0330550918198,343.55666264139404L824.5146196041022,344.8743943066644L829.9961841163846,343.48785237445L835.477748628667,343.58913802655576L840.9593131409493,344.04963702285806L846.4408776532317,344.15409850127304L851.9224421655141,345.25405294742285L857.4040066777965,344.6410222959439L862.8855711900788,345.1051988949308L868.3671357023611,344.4850012042235L873.8487002146435,344.8383793073213L879.3302647269259,345.47828217443686L884.8118292392082,343.77611662990233L890.2933937514906,345.3434109569388L895.774958263773,342.29106763226076L901.2565227760554,345.5337953674333L906.7380872883377,345.8087165527703L912.2196518006201,343.87493730556406L917.7012163129025,344.66216798869647L923.1827808251849,345.4551607372062L928.6643453374672,345.3711633719672L934.1459098497497,345.53920618934785L939.6274743620321,346.70444592340465L945.1090388743145,345.8528833274784L950.5906033865969,345.9090237409441L956.0721678988792,346.0721826016043L961.5537324111616,345.1707455247L967.035296923444,346.5540321826791L972.5168614357264,346.00042648918975L977.9984259480087,345.42743968320127L983.4799904602911,346.87013039182096L988.9615549725735,345.8612107245749L994.4431194848559,346.1727490409054L999.9246839971382,345.6909391837936L1005.4062485094206,346.4911198788807L1010.887813021703,346.81451266207966L1016.3693775339854,346.09603997751884L1021.8509420462677,346.9907511602581L1027.3325065585502,346.5126502668544L1032.8140710708326,345.17237629792L1038.295635583115,345.5387859516335L1043.7772000953973,347.1045059552922L1049.2587646076797,345.3529238007221L1054.740329119962,347.6987722610667L1060.2218936322445,346.80070335808216L1065.7034581445268,346.86104823942657L1071.1850226568092,345.1326753329528L1076.6665871690916,347.2928707158758L1082.148151681374,347.51671106619887L1087.6297161936563,347.7129767139598L1093.1112807059387,347.1893437959599L1098.592845218221,348.2110754866574L1104.0744097305035,347.4880951776578L1109.5559742427856,347.6723850959263L1115.037538755068,346.07322378758323L1120.5191032673504,346.4796835589918L1126.0006677796327,347.8847494023974L1131.4822322919151,348.0848222784066L1136.9637968041975,347.25019254441463L1142.4453613164799,348.08625025034155L1147.9269258287623,347.7073254575321L1153.4084903410446,348.3523401714718L1158.890054853327,348.52930833612953L1164.3716193656094,347.9520564309503L1169.8531838778918,348.8931882006171L1175.3347483901741,347.82499828976387L1180.8163129024565,348.2817590520696" style="fill: none;" fill="none"></path></g></g></g></g></g></g><g transform="translate(70, 378)" clip-path="url(#clip_1)"><clipPath id="clip_1"><rect width="1356" height="22"></rect></clipPath><g><g><line x1="7.761507274028135" y1="0" x2="7.761507274028135" y2="5" style="visibility: inherit;" fill="rgb(0, 0, 0)" stroke="rgb(204, 204, 204)" stroke-width="1px"></line><line x1="117.39279751967565" y1="0" x2="117.39279751967565" y2="5" style="visibility: inherit;" fill="rgb(0, 0, 0)" stroke="rgb(204, 204, 204)" stroke-width="1px"></line><line x1="227.02408776532315" y1="0" x2="227.02408776532315" y2="5" style="visibility: inherit;" fill="rgb(0, 0, 0)" stroke="rgb(204, 204, 204)" stroke-width="1px"></line><line x1="336.65537801097065" y1="0" x2="336.65537801097065" y2="5" style="visibility: inherit;" fill="rgb(0, 0, 0)" stroke="rgb(204, 204, 204)" stroke-width="1px"></line><line x1="446.2866682566182" y1="0" x2="446.2866682566182" y2="5" style="visibility: inherit;" fill="rgb(0, 0, 0)" stroke="rgb(204, 204, 204)" stroke-width="1px"></line><line x1="555.9179585022657" y1="0" x2="555.9179585022657" y2="5" style="visibility: inherit;" fill="rgb(0, 0, 0)" stroke="rgb(204, 204, 204)" stroke-width="1px"></line><line x1="665.5492487479132" y1="0" x2="665.5492487479132" y2="5" style="visibility: inherit;" fill="rgb(0, 0, 0)" stroke="rgb(204, 204, 204)" stroke-width="1px"></line><line x1="775.1805389935608" y1="0" x2="775.1805389935608" y2="5" style="visibility: inherit;" fill="rgb(0, 0, 0)" stroke="rgb(204, 204, 204)" stroke-width="1px"></line><line x1="884.8118292392082" y1="0" x2="884.8118292392082" y2="5" style="visibility: inherit;" fill="rgb(0, 0, 0)" stroke="rgb(204, 204, 204)" stroke-width="1px"></line><line x1="994.4431194848559" y1="0" x2="994.4431194848559" y2="5" style="visibility: inherit;" fill="rgb(0, 0, 0)" stroke="rgb(204, 204, 204)" stroke-width="1px"></line><line x1="1104.0744097305035" y1="0" x2="1104.0744097305035" y2="5" style="visibility: inherit;" fill="rgb(0, 0, 0)" stroke="rgb(204, 204, 204)" stroke-width="1px"></line><line x1="1213.7056999761508" y1="0" x2="1213.7056999761508" y2="5" style="visibility: inherit;" fill="rgb(0, 0, 0)" stroke="rgb(204, 204, 204)" stroke-width="1px"></line><line x1="1323.3369902217985" y1="0" x2="1323.3369902217985" y2="5" style="visibility: inherit;" fill="rgb(0, 0, 0)" stroke="rgb(204, 204, 204)" stroke-width="1px"></line></g><g transform="translate(0, 8)"><text x="7.761507274028135" y="0" dx="0em" dy="0.95em" style="text-anchor: middle; visibility: inherit; font-family: &quot;Helvetica Neue&quot;, sans-serif; font-size: 12px; font-weight: 200;" fill="rgb(50, 49, 63)" stroke="none" stroke-width="1px">0</text><text x="117.39279751967565" y="0" dx="0em" dy="0.95em" style="text-anchor: middle; visibility: inherit; font-family: &quot;Helvetica Neue&quot;, sans-serif; font-size: 12px; font-weight: 200;" fill="rgb(50, 49, 63)" stroke="none" stroke-width="1px">20</text><text x="227.02408776532315" y="0" dx="0em" dy="0.95em" style="text-anchor: middle; visibility: inherit; font-family: &quot;Helvetica Neue&quot;, sans-serif; font-size: 12px; font-weight: 200;" fill="rgb(50, 49, 63)" stroke="none" stroke-width="1px">40</text><text x="336.65537801097065" y="0" dx="0em" dy="0.95em" style="text-anchor: middle; visibility: inherit; font-family: &quot;Helvetica Neue&quot;, sans-serif; font-size: 12px; font-weight: 200;" fill="rgb(50, 49, 63)" stroke="none" stroke-width="1px">60</text><text x="446.2866682566182" y="0" dx="0em" dy="0.95em" style="text-anchor: middle; visibility: inherit; font-family: &quot;Helvetica Neue&quot;, sans-serif; font-size: 12px; font-weight: 200;" fill="rgb(50, 49, 63)" stroke="none" stroke-width="1px">80</text><text x="555.9179585022657" y="0" dx="0em" dy="0.95em" style="text-anchor: middle; visibility: inherit; font-family: &quot;Helvetica Neue&quot;, sans-serif; font-size: 12px; font-weight: 200;" fill="rgb(50, 49, 63)" stroke="none" stroke-width="1px">100</text><text x="665.5492487479132" y="0" dx="0em" dy="0.95em" style="text-anchor: middle; visibility: inherit; font-family: &quot;Helvetica Neue&quot;, sans-serif; font-size: 12px; font-weight: 200;" fill="rgb(50, 49, 63)" stroke="none" stroke-width="1px">120</text><text x="775.1805389935608" y="0" dx="0em" dy="0.95em" style="text-anchor: middle; visibility: inherit; font-family: &quot;Helvetica Neue&quot;, sans-serif; font-size: 12px; font-weight: 200;" fill="rgb(50, 49, 63)" stroke="none" stroke-width="1px">140</text><text x="884.8118292392082" y="0" dx="0em" dy="0.95em" style="text-anchor: middle; visibility: inherit; font-family: &quot;Helvetica Neue&quot;, sans-serif; font-size: 12px; font-weight: 200;" fill="rgb(50, 49, 63)" stroke="none" stroke-width="1px">160</text><text x="994.4431194848559" y="0" dx="0em" dy="0.95em" style="text-anchor: middle; visibility: inherit; font-family: &quot;Helvetica Neue&quot;, sans-serif; font-size: 12px; font-weight: 200;" fill="rgb(50, 49, 63)" stroke="none" stroke-width="1px">180</text><text x="1104.0744097305035" y="0" dx="0em" dy="0.95em" style="text-anchor: middle; visibility: inherit; font-family: &quot;Helvetica Neue&quot;, sans-serif; font-size: 12px; font-weight: 200;" fill="rgb(50, 49, 63)" stroke="none" stroke-width="1px">200</text><text x="1213.7056999761508" y="0" dx="0em" dy="0.95em" style="text-anchor: middle; visibility: inherit; font-family: &quot;Helvetica Neue&quot;, sans-serif; font-size: 12px; font-weight: 200;" fill="rgb(50, 49, 63)" stroke="none" stroke-width="1px">220</text><text x="1323.3369902217985" y="0" dx="0em" dy="0.95em" style="text-anchor: middle; visibility: inherit; font-family: &quot;Helvetica Neue&quot;, sans-serif; font-size: 12px; font-weight: 200;" fill="rgb(50, 49, 63)" stroke="none" stroke-width="1px">240</text></g><line x1="0" y1="0" x2="1356" y2="0" fill="rgb(0, 0, 0)" stroke="rgb(204, 204, 204)" stroke-width="1px"></line></g></g></g></g></svg>