<svg viewBox="0 0 1426 400" xmlns="http://www.w3.org/2000/svg"><g><g><g><g><g><line x1="58" y1="378" x2="53" y2="378" style="visibility: inherit;" fill="rgb(0, 0, 0)" stroke="rgb(204, 204, 204)" stroke-width="1px"></line><line x1="58" y1="348.9230769230769" x2="53" y2="348.9230769230769" style="visibility: inherit;" fill="rgb(0, 0, 0)" stroke="rgb(204, 204, 204)" stroke-width="1px"></line><line x1="58" y1="319.8461538461538" x2="53" y2="319.8461538461538" style="visibility: inherit;" fill="rgb(0, 0, 0)" stroke="rgb(204, 204, 204)" stroke-width="1px"></line><line x1="58" y1="290.7692307692308" x2="53" y2="290.7692307692308" style="visibility: inherit;" fill="rgb(0, 0, 0)" stroke="rgb(204, 204, 204)" stroke-width="1px"></line><line x1="58" y1="261.6923076923077" x2="53" y2="261.6923076923077" style="visibility: inherit;" fill="rgb(0, 0, 0)" stroke="rgb(204, 204, 204)" stroke-width="1px"></line><line x1="58" y1="232.61538461538464" x2="53" y2="232.61538461538464" style="visibility: inherit;" fill="rgb(0, 0, 0)" stroke="rgb(204, 204, 204)" stroke-width="1px"></line><line x1="58" y1="203.53846153846155" x2="53" y2="203.53846153846155" style="visibility: inherit;" fill="rgb(0, 0, 0)" stroke="rgb(204, 204, 204)" stroke-width="1px"></line><line x1="58" y1="174.46153846153848" x2="53" y2="174.46153846153848" style="visibility: inherit;" fill="rgb(0, 0, 0)" stroke="rgb(204, 204, 204)" stroke-width="1px"></line><line x1="58" y1="145.38461538461542" x2="53" y2="145.38461538461542" style="visibility: inherit;" fill="rgb(0, 0, 0)" stroke="rgb(204, 204, 204)" stroke-width="1px"></line><line x1="58" y1="116.30769230769232" x2="53" y2="116.30769230769232" style="visibility: inherit;" fill="rgb(0, 0, 0)" stroke="rgb(204, 204, 204)" stroke-width="1px"></line><line x1="58" y1="87.23076923076928" x2="53" y2="87.23076923076928" style="visibility: inherit;" fill="rgb(0, 0, 0)" stroke="rgb(204, 204, 204)" stroke-width="1px"></line><line x1="58" y1="58.15384615384613" x2="53" y2="58.15384615384613" style="visibility: inherit;" fill="rgb(0, 0, 0)" stroke="rgb(204, 204, 204)" stroke-width="1px"></line><line x1="58" y1="29.076923076923038" x2="53" y2="29.076923076923038" style="visibility: inherit;" fill="rgb(0, 0, 0)" stroke="rgb(204, 204, 204)" stroke-width="1px"></line><line x1="58" y1="0" x2="53" y2="0" style="visibility: inherit;" fill="rgb(0, 0, 0)" stroke="rgb(204, 204, 204)" stroke-width="1px"></line></g><g transform="translate(48, 0)"><text x="0" y="378" dx="0em" dy="0.3em" style="text-anchor: end; visibility: hidden; font-family: &quot;Helvetica Neue&quot;, sans-serif; font-size: 12px; font-weight: 200;" fill="rgb(50, 49, 63)" stroke="none" stroke-width="1px">-0.1</text><text x="0" y="348.9230769230769" dx="0em" dy="0.3em" style="text-anchor: end; visibility: inherit; font-family: &quot;Helvetica Neue&quot;, sans-serif; font-size: 12px; font-weight: 200;" fill="rgb(50, 49, 63)" stroke="none" stroke-width="1px">0</text><text x="0" y="319.8461538461538" dx="0em" dy="0.3em" style="text-anchor: end; visibility: inherit; font-family: &quot;Helvetica Neue&quot;, sans-serif; font-size: 12px; font-weight: 200;" fill="rgb(50, 49, 63)" stroke="none" stroke-width="1px">0.1</text><text x="0" y="290.7692307692308" dx="0em" dy="0.3em" style="text-anchor: end; visibility: inherit; font-family: &quot;Helvetica Neue&quot;, sans-serif; font-size: 12px; font-weight: 200;" fill="rgb(50, 49, 63)" stroke="none" stroke-width="1px">0.2</text><text x="0" y="261.6923076923077" dx="0em" dy="0.3em" style="text-anchor: end; visibility: inherit; font-family: &quot;Helvetica Neue&quot;, sans-serif; font-size: 12px; font-weight: 200;" fill="rgb(50, 49, 63)" stroke="none" stroke-width="1px">0.3</text><text x="0" y="232.61538461538464" dx="0em" dy="0.3em" style="text-anchor: end; visibility: inherit; font-family: &quot;Helvetica Neue&quot;, sans-serif; font-size: 12px; font-weight: 200;" fill="rgb(50, 49, 63)" stroke="none" stroke-width="1px">0.4</text><text x="0" y="203.53846153846155" dx="0em" dy="0.3em" style="text-anchor: end; visibility: inherit; font-family: &quot;Helvetica Neue&quot;, sans-serif; font-size: 12px; font-weight: 200;" fill="rgb(50, 49, 63)" stroke="none" stroke-width="1px">0.5</text><text x="0" y="174.46153846153848" dx="0em" dy="0.3em" style="text-anchor: end; visibility: inherit; font-family: &quot;Helvetica Neue&quot;, sans-serif; font-size: 12px; font-weight: 200;" fill="rgb(50, 49, 63)" stroke="none" stroke-width="1px">0.6</text><text x="0" y="145.38461538461542" dx="0em" dy="0.3em" style="text-anchor: end; visibility: inherit; font-family: &quot;Helvetica Neue&quot;, sans-serif; font-size: 12px; font-weight: 200;" fill="rgb(50, 49, 63)" stroke="none" stroke-width="1px">0.7</text><text x="0" y="116.30769230769232" dx="0em" dy="0.3em" style="text-anchor: end; visibility: inherit; font-family: &quot;Helvetica Neue&quot;, sans-serif; font-size: 12px; font-weight: 200;" fill="rgb(50, 49, 63)" stroke="none" stroke-width="1px">0.8</text><text x="0" y="87.23076923076928" dx="0em" dy="0.3em" style="text-anchor: end; visibility: inherit; font-family: &quot;Helvetica Neue&quot;, sans-serif; font-size: 12px; font-weight: 200;" fill="rgb(50, 49, 63)" stroke="none" stroke-width="1px">0.9</text><text x="0" y="58.15384615384613" dx="0em" dy="0.3em" style="text-anchor: end; visibility: inherit; font-family: &quot;Helvetica Neue&quot;, sans-serif; font-size: 12px; font-weight: 200;" fill="rgb(50, 49, 63)" stroke="none" stroke-width="1px">1</text><text x="0" y="29.076923076923038" dx="0em" dy="0.3em" style="text-anchor: end; visibility: inherit; font-family: &quot;Helvetica Neue&quot;, sans-serif; font-size: 12px; font-weight: 200;" fill="rgb(50, 49, 63)" stroke="none" stroke-width="1px">1.1</text><text x="0" y="0" dx="0em" dy="0.3em" style="text-anchor: end; visibility: hidden; font-family: &quot;Helvetica Neue&quot;, sans-serif; font-size: 12px; font-weight: 200;" fill="rgb(50, 49, 63)" stroke="none" stroke-width="1px">1.2</text></g><line x1="58" y1="0" x2="58" y2="378" fill="rgb(0, 0, 0)" stroke="rgb(204, 204, 204)" stroke-width="1px"></line></g></g><g transform="translate(58, 0)" clip-path="url(#clip_0)"><clipPath id="clip_0"><rect width="1368" height="378"></rect></clipPath><g><g><g><line x1="0" y1="0" x2="0" y2="378" fill="rgb(0, 0, 0)" stroke="rgb(60, 60, 60)" stroke-width="1px" opacity="0.25"></line><line x1="136.8" y1="0" x2="136.8" y2="378" fill="rgb(0, 0, 0)" stroke="rgb(60, 60, 60)" stroke-width="1px" opacity="0.25"></line><line x1="273.6" y1="0" x2="273.6" y2="378" fill="rgb(0, 0, 0)" stroke="rgb(60, 60, 60)" stroke-width="1px" opacity="0.25"></line><line x1="410.4" y1="0" x2="410.4" y2="378" fill="rgb(0, 0, 0)" stroke="rgb(60, 60, 60)" stroke-width="1px" opacity="0.25"></line><line x1="547.2" y1="0" x2="547.2" y2="378" fill="rgb(0, 0, 0)" stroke="rgb(60, 60, 60)" stroke-width="1px" opacity="0.25"></line><line x1="684" y1="0" x2="684" y2="378" fill="rgb(0, 0, 0)" stroke="rgb(60, 60, 60)" stroke-width="1px" opacity="0.25"></line><line x1="820.8" y1="0" x2="820.8" y2="378" fill="rgb(0, 0, 0)" stroke="rgb(60, 60, 60)" stroke-width="1px" opacity="0.25"></line><line x1="957.5999999999999" y1="0" x2="957.5999999999999" y2="378" fill="rgb(0, 0, 0)" stroke="rgb(60, 60, 60)" stroke-width="1px" opacity="0.25"></line><line x1="1094.4" y1="0" x2="1094.4" y2="378" fill="rgb(0, 0, 0)" stroke="rgb(60, 60, 60)" stroke-width="1px" opacity="0.25"></line><line x1="1231.2" y1="0" x2="1231.2" y2="378" fill="rgb(0, 0, 0)" stroke="rgb(60, 60, 60)" stroke-width="1px" opacity="0.25"></line><line x1="1368" y1="0" x2="1368" y2="378" fill="rgb(0, 0, 0)" stroke="rgb(60, 60, 60)" stroke-width="1px" opacity="0.25"></line></g><g><line x1="0" y1="378" x2="1368" y2="378" fill="rgb(0, 0, 0)" stroke="rgb(60, 60, 60)" stroke-width="1px" opacity="0.25"></line><line x1="0" y1="348.9230769230769" x2="1368" y2="348.9230769230769" fill="rgb(0, 0, 0)" stroke="rgb(60, 60, 60)" stroke-width="1px" opacity="0.25"></line><line x1="0" y1="319.8461538461538" x2="1368" y2="319.8461538461538" fill="rgb(0, 0, 0)" stroke="rgb(60, 60, 60)" stroke-width="1px" opacity="0.25"></line><line x1="0" y1="290.7692307692308" x2="1368" y2="290.7692307692308" fill="rgb(0, 0, 0)" stroke="rgb(60, 60, 60)" stroke-width="1px" opacity="0.25"></line><line x1="0" y1="261.6923076923077" x2="1368" y2="261.6923076923077" fill="rgb(0, 0, 0)" stroke="rgb(60, 60, 60)" stroke-width="1px" opacity="0.25"></line><line x1="0" y1="232.61538461538464" x2="1368" y2="232.61538461538464" fill="rgb(0, 0, 0)" stroke="rgb(60, 60, 60)" stroke-width="1px" opacity="0.25"></line><line x1="0" y1="203.53846153846155" x2="1368" y2="203.53846153846155" fill="rgb(0, 0, 0)" stroke="rgb(60, 60, 60)" stroke-width="1px" opacity="0.25"></line><line x1="0" y1="174.46153846153848" x2="1368" y2="174.46153846153848" fill="rgb(0, 0, 0)" stroke="rgb(60, 60, 60)" stroke-width="1px" opacity="0.25"></line><line x1="0" y1="145.38461538461542" x2="1368" y2="145.38461538461542" fill="rgb(0, 0, 0)" stroke="rgb(60, 60, 60)" stroke-width="1px" opacity="0.25"></line><line x1="0" y1="116.30769230769232" x2="1368" y2="116.30769230769232" fill="rgb(0, 0, 0)" stroke="rgb(60, 60, 60)" stroke-width="1px" opacity="0.25"></line><line x1="0" y1="87.23076923076928" x2="1368" y2="87.23076923076928" fill="rgb(0, 0, 0)" stroke="rgb(60, 60, 60)" stroke-width="1px" opacity="0.25"></line><line x1="0" y1="58.15384615384613" x2="1368" y2="58.15384615384613" fill="rgb(0, 0, 0)" stroke="rgb(60, 60, 60)" stroke-width="1px" opacity="0.25"></line><line x1="0" y1="29.076923076923038" x2="1368" y2="29.076923076923038" fill="rgb(0, 0, 0)" stroke="rgb(60, 60, 60)" stroke-width="1px" opacity="0.25"></line><line x1="0" y1="0" x2="1368" y2="0" fill="rgb(0, 0, 0)" stroke="rgb(60, 60, 60)" stroke-width="1px" opacity="0.25"></line></g></g></g><g><g><line x1="0" y1="348.9230769230769" x2="1368" y2="348.9230769230769" fill="rgb(0, 0, 0)" stroke="rgb(153, 153, 153)" stroke-width="1.5px"></line></g></g><g><g><line x1="136.8" y1="0" x2="136.8" y2="378" fill="rgb(0, 0, 0)" stroke="rgb(153, 153, 153)" stroke-width="1.5px"></line></g></g><g><g><g><g><g><path stroke="rgb(187, 187, 187)" stroke-width="2px" d="M136.8,58.59450916143561L138.168,58.63354768202851L139.536,58.54226267730792L140.904,59.35582211910338L142.272,61.86724966144959L143.64,61.29846629957166L145.008,61.75969591261253L146.376,62.740777140738146L147.744,63.008207934343886L149.112,65.57022865911472L150.48,75.85788744462661L151.848,82.81939228215833L153.216,87.9084282398627L154.584,90.4913300197249L155.952,90.23841780627305L157.32,92.0556823318264L158.68800000000002,93.43491552090404L160.056,94.20497551726231L161.42399999999998,93.93576917403317L162.792,96.33954701613743L164.16,97.40523936367231L165.528,96.34505096544467L166.896,98.32779455208288L168.264,94.9336887192785L169.632,96.97249776084664L171,98.23309707250621L172.368,100.44589428830494L173.736,101.17052834218117L175.104,103.17873216163105L176.472,106.2433264604166L177.84,106.99617900088481L179.208,108.58773562977882L180.57600000000002,109.05083786980185L181.94400000000002,106.70594832871319L183.312,109.72180440679733L184.68,108.12192496819267L186.048,113.1124557689883L187.41600000000003,118.40807292992088L188.78400000000002,119.02787157698623L190.15200000000002,115.23731724454922L191.52,119.85008333302954L192.88799999999998,119.97289837710457L194.25599999999997,120.44106623821813L195.624,127.30773851660959L196.992,127.53559877968598L198.35999999999999,127.31345517838358L199.72799999999998,131.9772778880767L201.09599999999998,140.02150985166494L202.464,137.55161521401467L203.832,130.21996972755045L205.2,130.0332119443503L206.56799999999998,139.08680225026643L207.936,135.816498088811L209.304,138.71887747983433L210.672,141.43760436453616L212.04,143.6822054119378L213.408,141.95041863601492L214.776,139.91651508177864L216.144,144.64154292645497L217.512,145.17782595869755L218.88,146.449906888613L220.24800000000002,145.52365493128463L221.616,143.76690728460224L222.984,139.00076593019784L224.352,146.23850668840998L225.72,144.63386086952417L227.08800000000002,154.21293322504144L228.45600000000002,158.52778685064845L229.824,154.7175844539278L231.192,150.38498837570938L232.56000000000003,144.056353389606L233.92800000000003,146.03918196109652L235.296,149.80038501735848L236.664,151.17086570854931L238.03199999999998,153.21987702394784L239.39999999999998,150.47846400980234L240.76799999999997,153.82067498756055L242.136,153.10547509904268L243.504,155.22233569278276L244.87199999999999,158.3488173262438L246.23999999999998,159.3456056167992L247.608,156.9520436720392L248.976,160.23946177662535L250.344,161.84539942379854L251.712,169.2722713368071L253.07999999999998,158.01961269204494L254.448,165.96996768846915L255.816,159.64634995412482L257.184,158.18845236015846L258.552,164.15669418860531L259.92,163.28156677179965L261.288,165.49010531664567L262.656,166.40131787120785L264.024,160.28148273668535L265.392,158.8832682850471L266.76,159.86368545510513L268.128,168.92821505254776L269.49600000000004,169.0771604105241L270.86400000000003,169.4517505958323L272.232,163.70187966975053L273.6,163.67423760908488L274.968,161.41778930711257L276.336,165.84996114553743L277.704,171.24477874268135L279.072,173.79898653001857L280.44,165.0775156004734L281.808,161.75428135113347L283.176,162.73042957687085L284.544,165.13206050632007L285.912,166.99024949618894L287.28,171.80333523930648L288.64799999999997,175.4601372208779L290.016,178.1048295243227L291.384,180.0892502888687L292.752,176.83367435345474L294.12,174.88680372729783L295.488,167.4835961576762L296.856,173.85080624595975L298.224,166.3788593643831L299.592,163.84723944499422L300.96,173.02312714477975L302.328,174.2700797035455L303.696,172.17260045585294L305.064,173.2526043470568L306.432,169.1058964491178L307.8,169.3519165189622L309.168,175.68625971597095L310.536,174.61005405645255L311.904,172.28196366603052L313.272,178.85666961654948L314.64,172.80014483809654L316.00800000000004,182.48456139603144L317.37600000000003,175.67886269739293L318.744,174.56332079285076L320.112,178.84958098314263L321.47999999999996,181.20651344783798L322.84799999999996,182.30753286446978L324.216,185.94086069921164L325.584,186.80296547219095L326.952,183.71974847640632L328.32,179.40938453905332L329.688,172.77469567951013L331.056,177.8679700936051L332.424,177.47989319648755L333.792,188.4288925397962L335.15999999999997,186.85843217598205L336.528,176.65365038970268L337.896,177.67057577764484L339.264,180.50381054508753L340.632,177.1632501411277L342,178.4884100990199L343.368,183.05714538591252L344.736,184.82940628238038L346.104,176.50383657097714L347.472,174.8978806277599L348.84000000000003,177.42578755904307L350.208,168.04344124434445L351.576,175.3374077049103L352.944,175.52931571728308L354.312,184.2250666918398L355.68,176.60474527398682L357.048,181.48870985084278L358.416,177.70548906182125L359.784,178.56851701796668L361.15200000000004,182.6623835963414L362.52000000000004,181.18343349067652L363.88800000000003,181.19702915457015L365.25600000000003,181.20042394004994L366.624,194.42601832024667L367.992,191.79401051243516L369.36,192.61267394750158L370.728,189.32288426897844L372.096,187.1010564967508L373.46400000000006,183.6281532326969L374.83200000000005,183.47130758961904L376.20000000000005,174.70484961372676L377.56800000000004,187.22321589402364L378.93600000000004,190.13345805450408L380.30400000000003,187.47964231939207L381.672,182.56549626956726L383.04,187.3832773331562L384.408,186.27774636346044L385.77599999999995,180.91614832748505L387.14399999999995,183.2244859372212L388.51199999999994,186.73419616520516L389.87999999999994,193.55927943665316L391.248,190.8610964817363L392.616,184.25307590885L393.984,185.7049072580152L395.352,180.96284046886507L396.71999999999997,183.81039937667472L398.08799999999997,185.61297379471776L399.45599999999996,184.93832055284102L400.82399999999996,181.9777663534402L402.19199999999995,188.79271601810706L403.56,187.7992291914823L404.928,191.57658832841759L406.296,186.97669563497826L407.664,191.83719015830957L409.032,193.74075572366195L410.4,191.10369590281104L411.768,197.40153227387137L413.13599999999997,191.18977667175693L414.50399999999996,186.7944947575966L415.872,193.2262763722159L417.24,183.02179325481757L418.608,188.73040426657136L419.976,191.2238180084925L421.344,197.4792416424509L422.712,198.4966485697601L424.08,198.86825497050222L425.448,195.77243329024716L426.816,195.026036370797L428.184,191.1074943605313L429.552,192.23329837882628L430.92,188.50505542247728L432.288,183.59059920373332L433.656,185.7691035179065L435.024,187.16399901647276L436.392,191.8204409067474L437.76,187.9104258408929L439.128,186.72640421610706L440.49600000000004,187.4923111044816L441.86400000000003,190.6961323846527L443.232,194.73150704814347L444.6,199.80823860382736L445.968,198.70771939919734L447.336,201.06337926193498L448.704,205.73412507417453L450.072,195.40515809304645L451.44,191.78353342717094L452.80800000000005,196.08473807892784L454.17600000000004,197.24807400803408L455.54400000000004,202.11815562381577L456.91200000000003,199.22383071319183L458.28000000000003,203.2184961398597L459.648,194.92594706499588L461.016,195.22715696063963L462.384,195.57441490098847L463.752,199.63469052666207L465.12000000000006,191.75070365603113L466.48800000000006,188.36821416174425L467.85600000000005,194.59440135635583L469.22400000000005,196.87475762541908L470.592,196.93359254281597L471.96,199.29419242613653L473.328,196.33026569923567L474.69599999999997,199.97040432780088L476.06399999999996,201.2784994983482L477.43199999999996,198.44521278541592L478.79999999999995,202.87639076490447L480.16799999999995,192.76975955354717L481.53599999999994,194.57797086203928L482.904,188.79237452449382L484.272,195.37938817415136L485.64,185.39961925697122L487.008,186.10357559377107L488.376,193.439498947448L489.74399999999997,194.6756797260057L491.11199999999997,186.93861320540606L492.47999999999996,196.41302123346188L493.84799999999996,200.1268732799096L495.216,193.72924686252628L496.584,197.06414345325612L497.952,198.7704302661605L499.32,199.06370627746597L500.688,195.5513713847L502.056,194.2533650653875L503.424,198.22083774413105L504.792,199.01625516124446L506.15999999999997,200.22602597172553L507.528,200.0068737611594L508.896,206.10476219878973L510.264,199.3661152027859L511.632,197.0995410476124L513,203.27256654281777L514.368,203.13720287429905L515.736,203.88336907172157L517.104,186.98124450833586L518.472,192.03025068461108L519.84,189.09897750022307L521.208,187.84626373613335L522.576,184.7322893787063L523.944,187.74291393771668L525.312,200.79265297054957L526.6800000000001,190.1682173342871L528.048,187.85666091216424L529.416,185.10548457853918L530.784,184.526810349679L532.152,187.9064231634841L533.52,198.81859209981872L534.888,201.22785187364315L536.256,201.9554767791166L537.624,195.04847705175575L538.9920000000001,198.69705570731315L540.36,195.64630968429438L541.7280000000001,199.22225955988415L543.096,197.593656372222L544.464,203.00626405044267L545.832,208.81046440396415L547.2,212.85907349426844L548.568,208.79938690603282L549.936,203.31702093785847L551.3040000000001,204.43658500936212L552.672,200.385333177835L554.0400000000001,201.78273840345204L555.408,198.01448012808854L556.776,195.95140583444496L558.144,194.67255564683913L559.512,195.3947301745438L560.88,190.4421852685869L562.2479999999999,190.03251422805135L563.616,197.80829655469063L564.9839999999999,200.83178411054055L566.352,203.35058043354144L567.72,198.44501037478176L569.088,204.69727202197058L570.456,196.33995618967913L571.824,194.60706934063853L573.192,199.07885882738913L574.56,200.89773319285098L575.928,206.50861796579582L577.2959999999999,202.60316933253347L578.664,204.10473602082465L580.032,203.51960910552268L581.4,199.0671815118037L582.768,200.971694688297L584.136,198.94476935239285L585.504,195.7651836728277L586.872,196.10921226152038L588.24,192.22950169338964L589.608,191.95572719189957L590.976,200.39551776728936L592.344,199.28657097590192L593.712,198.6044678975247L595.08,208.13835624070504L596.448,208.95037648574663L597.816,207.71590408520058L599.184,198.8925293605465L600.552,202.26776323030637L601.92,201.85819624067878L603.288,196.6670337276367L604.656,201.68288587073727L606.024,207.97779239371337L607.392,205.30548258332743L608.76,201.17696213364985L610.128,205.50988017748182L611.496,208.33473551915012L612.864,212.9003222889153L614.232,203.87709166354318L615.6,201.31443324396378L616.968,205.96557976613676L618.336,211.22075345311399L619.7040000000001,213.07147022601268L621.072,210.07896824007395L622.44,213.44572343607462L623.808,210.7138119845832L625.176,210.67772455224704L626.544,207.53597141124706L627.912,207.2732824521031L629.28,205.3507951868404L630.648,207.1962480455489L632.0160000000001,208.38947556398497L633.384,205.7121890644699L634.7520000000001,204.0872034594926L636.12,209.5839582477701L637.488,201.9030030329915L638.856,203.49310918623942L640.224,209.054564070551L641.592,207.49459056001578L642.9599999999999,196.2923611619114L644.328,200.85984754945L645.6959999999999,201.63171301117634L647.064,202.61618934769092L648.432,201.41843429853483L649.8,203.79151424786198L651.168,205.97889155482773L652.536,210.030496248081L653.904,214.55116464129648L655.2719999999999,216.85940216991088L656.64,212.4386156280069L658.0079999999999,213.66990543892737L659.376,207.5719485701872L660.744,203.60895648682484L662.112,206.1543649618886L663.48,199.82203019034773L664.848,207.46279629598894L666.216,206.7224294804155L667.584,210.65069700944449L668.952,201.57265872115556L670.3199999999999,198.9337946445257L671.688,198.0975616964773L673.056,201.67086461557784L674.424,197.2172202678185L675.792,203.95301035987228L677.16,207.19112798769177L678.528,208.66719664591352L679.896,204.04963175285386L681.264,203.27364319185608L682.632,209.39635197064626L684,218.6759607886523L685.368,213.47799916468333L686.736,215.4913257618269L688.104,207.34454486082961L689.472,208.16191667641246L690.84,215.06790164352637L692.208,218.73657623902437L693.576,223.6386053670742L694.944,222.0628554372644L696.312,218.9371929266477L697.6800000000001,215.64085912924327L699.048,213.8993003931766L700.416,208.48730566397364L701.784,213.06861038108778L703.152,213.91998419408682L704.52,215.0912795911298L705.888,219.34058467356448L707.256,219.92137843897945L708.624,214.9684010711556L709.9920000000001,209.7387271403083L711.36,211.78337347977214L712.7280000000001,211.97898974150286L714.096,204.4701546044021L715.464,214.59819643012054L716.832,214.25510951741282L718.2,210.30123703261006L719.568,215.12047281977638L720.936,205.2821116578223L722.3040000000001,215.58527516636178L723.672,218.87971964206514L725.0400000000001,214.6423169426922L726.408,214.59492292902306L727.7760000000001,208.04358214310437L729.144,205.63740997875252L730.5120000000001,212.6183667392633L731.88,212.4490391123493L733.248,214.82071869284647L734.6160000000001,209.93292124878423L735.984,212.91760901191773L737.3520000000001,219.0281219292266L738.72,215.8337714741394L740.0880000000001,218.89118692740547L741.456,216.39584225097147L742.8240000000001,212.83652459925185L744.192,211.42721860385632L745.5600000000001,205.99942950931745L746.9280000000001,201.09467016497862L748.296,200.09375435247557L749.6640000000001,197.14301140113474L751.032,201.3967440252347L752.4000000000001,203.06909607384281L753.768,211.9425621348793L755.1360000000001,204.20895421384054L756.504,205.6206908383817L757.8720000000001,204.72525429572076L759.2400000000001,208.795220649238L760.6080000000001,210.40069985334426L761.9760000000001,206.71372226901997L763.344,215.3160499519412L764.7120000000001,207.98478028050732L766.08,206.109967587238L767.4480000000001,209.43522868211411L768.816,214.28775201096877L770.184,208.8192892405215L771.5519999999999,215.27023313011895L772.92,213.48095055376575L774.2879999999999,209.5899904743599L775.656,216.92789638539904L777.0239999999999,210.61392217531105L778.3919999999999,211.00796096577363L779.7599999999999,213.24805429059884L781.1279999999999,211.33679507339096L782.496,212.71014112698722L783.8639999999999,210.9563238914563L785.232,217.13444243873448L786.5999999999999,219.70609245257597L787.968,220.79675209166513L789.3359999999999,214.9752907639947L790.704,219.32990358114557L792.0719999999999,221.72529646980033L793.4399999999999,217.33063650312536L794.808,216.58098253945784L796.1759999999999,217.66286933303962L797.544,222.43809487015199L798.9119999999999,220.1591888925995L800.28,213.98636546777004L801.6479999999999,223.48951818191185L803.016,224.71794370750337L804.3839999999999,227.71734065056617L805.752,219.05985465651753L807.12,215.59929729749516L808.4879999999999,215.27767375810643L809.856,213.9824181924178L811.2239999999999,215.32854442453788L812.592,215.31919982090972L813.9599999999999,220.80038650343965L815.328,217.35150566909496L816.6959999999999,218.86906936983843L818.064,220.35963075063208L819.432,215.99747800878401L820.8,218.3294839385254L822.168,218.14303897802802L823.536,215.2616363684957L824.904,214.87343565944582L826.2719999999999,211.26281750945347L827.64,217.6724912156166L829.0079999999999,208.07217070223513L830.376,219.42645888965913L831.744,218.52597334877373L833.112,221.06226060465866L834.48,227.54625613954738L835.848,218.43535121820156L837.216,218.53369608248343L838.584,210.26764879567162L839.952,210.72980108318674L841.3199999999999,211.50452899747322L842.688,212.8869174285907L844.056,217.00984632571993L845.424,218.69207751146L846.792,212.20020045320967L848.16,210.8562679690811L849.528,212.51817591939988L850.896,206.2293618492943L852.264,206.1189906360764L853.632,205.30023348197003L855,209.5908123430108L856.368,216.50346322561427L857.736,220.9139888067276L859.104,220.81863362023464L860.472,221.48030814921856L861.84,221.43873306886417L863.208,216.74990752572685L864.576,216.85691884575135L865.944,212.23022580716795L867.312,215.62936389971662L868.6800000000001,215.56525888941636L870.048,219.06805157740544L871.416,219.03548736986528L872.784,219.4288264783626L874.152,217.53987617832547L875.52,219.64759923038466L876.888,210.44995460383186L878.256,208.2923028190031L879.624,204.83144387624918L880.9920000000001,214.1663776862114L882.36,219.01226972505387L883.7280000000001,216.23967507185577L885.096,212.34012353747008L886.464,216.71170443400783L887.832,217.458294426187L889.2,216.0754535919058L890.568,230.05924632289393L891.936,220.60943278706944L893.3040000000001,218.38703165305546L894.672,220.64581425010593L896.0400000000001,214.94515847575323L897.408,209.57522028792437L898.7760000000001,216.44008318617298L900.144,215.26768951436492L901.5120000000001,216.8990497399605L902.88,217.25801909116632L904.248,221.3760222462143L905.6160000000001,224.00901987678833L906.984,227.88748280490884L908.3520000000001,228.08762410774176L909.72,223.9558810625748L911.0880000000001,224.38528734283076L912.456,222.6576841225411L913.8240000000001,219.1633193261459L915.192,222.90308492812494L916.5600000000001,229.83332761004738L917.9280000000001,231.408837211305L919.296,235.8475472321081L920.6640000000001,223.2270737137684L922.032,220.52200316374922L923.4000000000001,215.20617502047946L924.768,214.80455364011175L926.1360000000001,216.5960067840227L927.504,211.80201552791556L928.8720000000001,214.43949594693964L930.2400000000001,218.30995866599847L931.6080000000001,217.83158076738448L932.9760000000001,209.61242231596282L934.344,221.88486444550938L935.7120000000001,221.8591601402835L937.08,221.47637164669123L938.4480000000001,227.08034470127157L939.816,226.14403715124485L941.184,221.70281675186516L942.5519999999999,216.27991467780697L943.92,215.28466406917056L945.2879999999999,210.18247709316535L946.656,222.1342308692532L948.0239999999999,230.30399334541266L949.3919999999999,215.68705847696478L950.7599999999999,226.03711051430528L952.1279999999999,220.92166222926326L953.496,217.2309658689465L954.8639999999999,227.44766085570205L956.232,226.82570357686143L957.5999999999999,224.9046384363707L958.968,222.08636389467063L960.3359999999999,216.89492031510437L961.704,219.18445856914383L963.0719999999999,216.8151733664783L964.4399999999999,216.94367328261163L965.808,214.7806432662894L967.1759999999999,209.28914012835745L968.544,211.1896006851206L969.9119999999999,212.74720183727618L971.28,218.91361406964853L972.6479999999999,220.02542846652008L974.016,215.08370510260775L975.3839999999999,225.30654019290057L976.752,215.00228748150056L978.12,224.76903999519166L979.4879999999999,226.7413123959457L980.856,213.38305655389573L982.2239999999999,211.82916625027664L983.592,215.37353563854444L984.9599999999999,222.14006178889895L986.328,219.08817983456984L987.6959999999999,220.706409418698L989.064,220.97832454596602L990.432,223.95680174351213L991.8,228.89249509598943L993.168,227.70474289121066L994.536,229.0983449722271L995.904,222.57710125521618L997.2719999999999,224.01419735330134L998.64,223.52786606867093L1000.0079999999999,228.42895137628537L1001.376,234.55447339080303L1002.744,225.47545737661437L1004.112,229.25241777084779L1005.48,226.32873248970174L1006.848,229.89547254438747L1008.216,223.60982704499233L1009.584,216.36377397519138L1010.952,217.04488938012636L1012.3199999999999,220.46964439450133L1013.688,225.19028849284445L1015.056,227.51465944760017L1016.424,224.8234177332973L1017.792,224.17641899917734L1019.16,221.46161751983013L1020.528,222.51769602550306L1021.896,229.78882751432386L1023.264,225.54251520650905L1024.632,228.75191913138227L1026,225.88030703396757L1027.368,217.6407751495586L1028.736,217.05923504148217L1030.104,220.6556539208549L1031.472,224.49193806153602L1032.84,226.40480689045413L1034.208,213.7261223324795L1035.576,212.7096884079739L1036.944,218.99516598336305L1038.312,222.50979483649422L1039.68,216.5577632330146L1041.048,214.7554320658616L1042.416,212.83949118279418L1043.784,224.6528610919526L1045.152,221.49615615950154L1046.52,224.1457178585803L1047.888,225.2372869597489L1049.256,223.0334405903907L1050.624,216.25985787860978L1051.992,215.2018771121968L1053.3600000000001,217.2304360433308L1054.728,223.41200257782998L1056.096,217.63401526432003L1057.464,215.10339173026725L1058.832,214.4592031719694L1060.2,212.36186521727913L1061.568,222.49720606951894L1062.936,225.7503856249666L1064.304,220.50523315835093L1065.672,227.36429770111363L1067.04,225.83044914793564L1068.4080000000001,225.87787591177258L1069.776,217.94001967166682L1071.144,218.47027073452685L1072.512,221.97742395948794L1073.88,223.21607461230965L1075.248,222.9783435338007L1076.616,215.85311824611736L1077.9840000000002,221.8828249403673L1079.352,220.69273581860108L1080.72,222.4912725888075L1082.088,227.16896807886528L1083.4560000000001,222.25242976435592L1084.824,215.35801652631002L1086.192,212.94142746480193L1087.56,219.1258523144055L1088.928,221.17406070695688L1090.296,228.3599294928692L1091.664,224.34820593597235L1093.0320000000002,224.2241479523469L1094.4,221.82873662974905L1095.768,214.54246398149277L1097.136,215.43308950222388L1098.5040000000001,216.52864203170589L1099.872,219.0304010983171L1101.24,221.9680151700341L1102.6080000000002,221.37624799321122L1103.976,220.73689366873887L1105.344,218.96848726064343L1106.712,215.3143358988372L1108.0800000000002,218.21211114441658L1109.448,215.69070574774145L1110.816,215.12626025618928L1112.184,217.45565790398473L1113.552,219.26156056111876L1114.9199999999998,227.06844528932558L1116.288,224.26947492335825L1117.656,219.18417285849023L1119.024,213.71478707359472L1120.3919999999998,219.2487069386524L1121.76,217.13048080223186L1123.128,221.06679329460678L1124.4959999999999,224.26585783564843L1125.864,229.03199068126742L1127.232,236.8603338426946L1128.6,231.43222584882963L1129.9679999999998,228.51071624264105L1131.336,214.21357002256687L1132.704,222.65821593870515L1134.072,229.11898283605728L1135.44,226.12183489881315L1136.808,231.84851951061336L1138.176,233.66217081847668L1139.5439999999999,231.33305516166752L1140.912,227.99260610167912L1142.28,223.68775201931436L1143.648,216.22163278058537L1145.0159999999998,219.7950855000843L1146.384,219.86267872385054L1147.752,220.4647862290026L1149.12,211.9569148021059L1150.488,219.53569550038537L1151.856,227.5984585227302L1153.224,230.12369101617205L1154.5919999999999,232.00609590175293L1155.96,229.4323092407048L1157.328,218.43228190027193L1158.696,224.76476288734617L1160.064,220.09552511970978L1161.432,225.66283953107788L1162.8,226.5384408414025L1164.168,216.26536381215118L1165.536,219.24038587148988L1166.904,217.88134324539993L1168.272,216.34554994466708L1169.6399999999999,215.79564788924574L1171.008,221.98026779561317L1172.376,227.71890067435135L1173.744,237.02879794189508L1175.112,228.12452828184425L1176.48,219.68378630181624L1177.848,220.32389411270898L1179.216,227.63439929495578L1180.584,221.5933705715648L1181.952,219.5147723414717L1183.32,228.45567766683303L1184.688,229.61107284020505L1186.056,234.2704052633894L1187.424,219.94622434189264L1188.792,226.05995026420376L1190.16,229.70548194989823L1191.528,219.29176617332993L1192.896,215.39849278408428L1194.264,222.10493851900827L1195.632,218.19758933489575L1197,226.86333553890344L1198.368,224.31382843333915L1199.736,222.31862555752335L1201.104,214.92558714267466L1202.472,217.83984489565586L1203.84,219.27918326819469L1205.208,228.9521157280935L1206.576,229.17671341333175L1207.944,227.11915883019978L1209.312,225.2598017764735L1210.68,219.75684015780422L1212.048,219.99101553457817L1213.416,217.77823194507081L1214.784,227.64950276538184L1216.152,224.8353143649L1217.52,221.18953382013888L1218.888,218.9390596607568L1220.256,216.0426521740058L1221.624,213.88709811129064L1222.992,204.5422948070914L1224.3600000000001,213.5653900141494L1225.728,219.64336473141583L1227.096,223.08247676405912L1228.464,225.22750806160934L1229.832,225.82801040847764L1231.2,221.17116260662246L1232.568,216.1853091944866L1233.936,219.36185567097004L1235.304,223.5697443002507L1236.672,220.76072196631517L1238.04,217.89804543444538L1239.4080000000001,221.27982871993567" style="fill: none;" fill="none"></path></g></g></g></g><g opacity="0.2"><g><g><g><path stroke="rgb(187, 187, 187)" stroke-width="2px" d="M136.8,58.59450916143561L138.168,58.65697079438428L139.536,58.454629072776186L140.904,60.3125680226546L142.272,65.14616946073676L143.64,60.51163414808417L145.008,62.419261638934756L146.376,64.17120298972497L147.744,63.40261640915503L149.112,69.37453084725598L150.48,91.19606731488159L151.848,93.22376533655023L153.216,95.5253655910492L154.584,94.36062251604523L155.952,89.8593467749082L157.32,94.78029744441693L158.68800000000002,95.50318165925836L160.056,95.35986999365002L161.42399999999998,93.53200067006622L162.792,99.94499406447778L164.16,99.00371943987335L165.528,94.7548032540542L166.896,101.30187078622674L168.264,89.84257017649139L169.632,100.03069683221673L171,100.1239906641153L172.368,103.76508445006152L173.736,102.25747831051171L175.104,106.19103604096637L176.472,110.84021621484027L177.84,108.1254575619331L179.208,110.97507025645331L180.57600000000002,109.74549117455115L181.94400000000002,103.18861418503985L183.312,114.24558839431177L184.68,105.72210585154022L186.048,120.59825189297021L187.41600000000003,126.3514986221607L188.78400000000002,119.95756954413196L190.15200000000002,109.5514857585614L191.52,126.76923245650073L192.88799999999998,120.15712094306946L194.25599999999997,121.14331802955041L195.624,137.6077469312228L196.992,127.87738917424133L198.35999999999999,126.98023977646463L199.72799999999998,138.97301195218017L201.09599999999998,152.08785779659567L202.464,133.84677325762235L203.832,119.22250149800232L205.2,129.7530752695524L206.56799999999998,152.66718770907477L207.936,130.91104184664212L209.304,143.07244656636163L210.672,145.51569469158468L212.04,147.04910698303812L213.408,139.35273847213162L214.776,136.86565975042492L216.144,151.72908469346856L217.512,145.9822505070613L218.88,148.358028283486L220.24800000000002,144.13427699529208L221.616,141.13178581457873L222.984,131.8515538985913L224.352,157.0951178257282L225.72,142.22689214119546L227.08800000000002,168.5815417583172L228.45600000000002,165.000067289059L229.824,149.00228085884683L231.192,143.88609425838177L232.56000000000003,134.56340091045087L233.92800000000003,149.0134248183324L235.296,155.4421896017515L236.664,153.2265867453355L238.03199999999998,156.29339399704568L239.39999999999998,146.3663444885841L240.76799999999997,158.83399145419781L242.136,152.03267526626587L243.504,158.39762658339282L244.87199999999999,163.03853977643527L246.23999999999998,160.84078805263226L247.608,153.36170075489923L248.976,165.17058893350458L250.344,164.25430589455826L251.712,180.41257920631998L253.07999999999998,141.14062472490167L254.448,177.89550018310547L255.816,150.1609233526083L257.184,156.00160596920892L258.552,173.10905693127557L259.92,161.9688756465912L261.288,168.80291313391467L262.656,167.76813670305108L264.024,151.10173003490155L265.392,156.78594660758972L266.76,161.3343112101922L268.128,182.5250094487117L269.49600000000004,169.30057844748868L270.86400000000003,170.01363587379456L272.232,155.07707328062793L273.6,163.63277451808636L274.968,158.03311685415417L276.336,172.49821890317477L277.704,179.33700513839722L279.072,177.63029821102438L280.44,151.99530920615567L281.808,156.76942997712356L283.176,164.1946519154769L284.544,168.73450690049393L285.912,169.77753298099225L287.28,179.02296385398282L288.64799999999997,180.94534019323498L290.016,182.07186797948987L291.384,183.06588143568774L292.752,171.9503104503338L294.12,171.96649778806247L295.488,156.3787848032438L296.856,183.40162137838513L298.224,155.17093904201803L299.592,160.04980956591092L300.96,186.786958694458L302.328,176.14050854169406L303.696,169.02638158431424L305.064,174.87261018386258L306.432,162.88583460220926L307.8,169.72094662372885L309.168,185.18777451148404L310.536,172.99574556717508L311.904,168.7898280803974L313.272,188.71872854232788L314.64,163.7153576704172L316.00800000000004,197.01118623293365L317.37600000000003,165.4703146494352L318.744,172.89000793603753L320.112,185.27897126858053L321.47999999999996,184.74191214488104L322.84799999999996,183.95906198941745L324.216,191.3908524513245L325.584,188.09612263165988L326.952,179.09492298272943L328.32,172.9438386330238L329.688,162.82266239019543L331.056,185.50788171474753L332.424,176.8977778508113L333.792,204.8523915547591L335.15999999999997,184.50274163026077L336.528,161.34647771028375L337.896,179.1959638595581L339.264,184.7536626962515L340.632,172.15240953518793L342,180.47615003585815L343.368,189.91024831625134L344.736,187.48779762708224L346.104,164.01548200387222L347.472,172.48894671293408L348.84000000000003,181.21764795596783L350.208,153.96992177229663L351.576,186.278357395759L352.944,175.81717773584222L354.312,197.2686931536748L355.68,165.17426314720743L357.048,188.81465671612665L358.416,172.03065787828885L359.784,179.86305895218484L361.15200000000004,188.8031834639036L362.52000000000004,178.96500833217917L363.88800000000003,181.21742265041058L365.25600000000003,181.2055161182697L366.624,214.26440989054169L367.992,187.8459988007179L369.36,193.8406691001012L370.728,184.38819975119372L372.096,183.76831483840942L373.46400000000006,178.41879833661594L374.83200000000005,183.23603912500238L376.20000000000005,161.55516264988825L377.56800000000004,206.000765314469L378.93600000000004,194.49882129522473L380.30400000000003,183.49891871672412L381.672,175.1942771948301L383.04,194.60994892853958L384.408,184.61944990891678L385.77599999999995,172.873751273522L387.14399999999995,186.68699235182544L388.51199999999994,191.99876150718103L389.87999999999994,203.79690434382513L391.248,186.81382204936102L392.616,174.34104504952066L393.984,187.88265428176297L395.352,173.84974028513983L396.71999999999997,188.08173773838922L398.08799999999997,188.3168354217823L399.45599999999996,183.9263406900259L400.82399999999996,177.53693505433893L402.19199999999995,199.0151405151074L403.56,186.30899895154514L404.928,197.24262703382053L406.296,180.07685659481928L407.664,199.12793194330658L409.032,196.5961040716905L410.4,187.14810617153464L411.768,206.84828683046194L413.13599999999997,181.8721432685852L414.50399999999996,180.20157188635608L415.872,202.87394879414487L417.24,167.7150685787201L418.608,197.293320784202L419.976,194.9639386213743L421.344,206.8623770933885L422.712,200.0227589607239L424.08,199.42566457161539L425.448,191.12870076986462L426.816,193.90644099162176L428.184,185.22968134513272L429.552,193.9220044062688L430.92,182.91269098795377L432.288,176.2189148756174L433.656,189.0368599891663L435.024,189.25634226432214L436.392,198.80510374215933L437.76,182.0454032421112L439.128,184.95037177892834L440.49600000000004,188.6411714370434L441.86400000000003,195.50186430490936L443.232,200.78456904337958L444.6,207.4233359373533L445.968,197.05694059225232L447.336,204.59686905604144L448.704,212.7402437925339L450.072,179.9117076213543L451.44,186.35109642835766L452.80800000000005,202.53654505656317L454.17600000000004,198.9930779016935L455.54400000000004,209.42327804748828L456.91200000000003,194.882343347256L458.28000000000003,209.21049427986148L459.648,182.48712345270013L461.016,195.67897180410534L462.384,196.09530181151172L463.752,205.72510396517242L465.12000000000006,179.92472335008478L466.48800000000006,183.29447992031393L467.85600000000005,203.9336821482732L469.22400000000005,200.295292029014L470.592,197.02184491891128L471.96,202.83509225111743L473.328,191.8843756088844L474.69599999999997,205.43061227064868L476.06399999999996,203.2406422541692L477.43199999999996,194.19528271601752L478.79999999999995,209.52315773413733L480.16799999999995,177.60981273651123L481.53599999999994,197.29028782477747L482.904,180.1139800181756L484.272,205.25990864863763L485.64,170.42996588120096L487.008,187.15951009897088L488.376,204.44338397796338L489.74399999999997,196.52995089384228L491.11199999999997,175.33301342450656L492.47999999999996,210.62463327554556L493.84799999999996,205.6976513495812L495.216,184.13280723645136L496.584,202.06648833935077L497.952,201.3298604855171L499.32,199.50362029442422L500.688,190.28286904555102L502.056,192.30635558641876L503.424,204.17204676224637L504.792,200.20938128691455L506.15999999999997,202.0406821874472L507.528,199.67814544531018L508.896,215.25159485523517L510.264,189.25814470878015L511.632,193.6996798148522L513,212.53210478562576L514.368,202.93415737152102L515.736,205.00261836785538L517.104,161.62805766325732L518.472,199.60375994902392L519.84,184.70206772364102L521.208,185.96719308999872L522.576,180.0613278425657L523.944,192.2588507762322L525.312,220.3672615197989L526.6800000000001,174.2315638798934L528.048,184.38932627897998L529.416,180.97872007810153L530.784,183.65879900638876L532.152,192.97584238419168L533.52,215.1868455043206L534.888,204.84174153437982L536.256,203.04691413732678L537.624,184.6879774607145L538.9920000000001,204.1699236906492L540.36,191.0701906497662L541.7280000000001,204.58618437326874L543.096,195.1507515907288L544.464,211.12517556777368L545.832,217.51676493424637L547.2,218.93198712972494L548.568,202.70985702367932L549.936,195.0934719855969L551.3040000000001,206.11593111661765L552.672,194.30845543054434L554.0400000000001,203.87884624187762L555.408,192.3620927150433L556.776,192.8567943939796L558.144,192.75428036543042L559.512,196.47799196610086L560.88,183.01336790965155L562.2479999999999,189.41800766724808L563.616,209.47197004464957L564.9839999999999,205.3670154443154L566.352,207.12877491804272L567.72,191.08665528664224L569.088,214.07566449275384L570.456,183.80398244124194L571.824,192.00773906707767L573.192,205.78654305751508L574.56,203.6260447410437L575.928,214.92494512521304L577.2959999999999,196.74499638263995L578.664,206.3570860532614L580.032,202.64191873256976L581.4,192.38854012122522L582.768,203.828464453037L584.136,195.90438134853656L585.504,190.99580515347995L586.872,196.62525514455945L588.24,186.40993584119357L589.608,191.54506543966443L590.976,213.05520363037402L592.344,197.6231507888207L593.712,197.5813132799589L595.08,222.43918875547558L596.448,210.16840685330905L597.816,205.86419548438147L599.184,185.65746727356546L600.552,207.33061403494617L601.92,201.24384575623733L603.288,188.88028995807355L604.656,209.2066640853882L606.024,217.4201521781775L607.392,201.29701786774856L608.76,194.98418145913345L610.128,212.0092572432298L611.496,212.57201853165262L612.864,219.74870244356305L614.232,190.34224572548501L615.6,197.4704456145947L616.968,212.9422995493962L618.336,219.1035139835798L619.7040000000001,215.84754538536075L621.072,205.59021526116592L622.44,218.49585623007553L623.808,206.61594480734607L625.176,210.62359340374286L626.544,202.82334169974695L627.912,206.87924901338727L629.28,202.46706428894632L630.648,209.96442733361172L632.0160000000001,210.179316841639L633.384,201.6962593151973L634.7520000000001,201.6497250520266L636.12,217.82909043018634L637.488,190.38157021082367L638.856,205.8782684161113L640.224,217.39674639701846L641.592,205.15463029421295L642.9599999999999,179.4890170647548L644.328,207.71107713075787L645.6959999999999,202.7895112037659L647.064,204.0929038524628L648.432,199.62180172480072L649.8,207.35113417185272L651.168,209.2599575152764L652.536,216.10790328796094L653.904,221.3321672311196L655.2719999999999,220.32175846283252L656.64,205.80743581515094L658.0079999999999,215.51684015530807L659.376,198.42501326707693L660.744,197.6644683617812L662.112,209.97247767448428L663.48,190.32352803303647L664.848,218.92394545445077L666.216,205.61187925705545L667.584,216.54309830298791L668.952,187.95560128872214L670.3199999999999,194.97549852958093L671.688,196.8432122744047L673.056,207.03081899422867L674.424,190.53675374617944L675.792,214.056695497953L677.16,212.04830442942108L678.528,210.88129963324621L679.896,197.12328441326434L681.264,202.1096603503594L682.632,218.5804151388315L684,232.5953740156614L685.368,205.68105672872986L686.736,218.5113156575423L688.104,195.12437350933368L689.472,209.38797439978674L690.84,225.4268790941972L692.208,224.23958813227142L693.576,230.99164905914895L694.944,219.69923054254974L696.312,214.2486991607226L697.6800000000001,210.6963584331366L699.048,211.2869622890766L700.416,200.3693135701693L701.784,219.94056745675894L703.152,215.19704491358536L704.52,216.8482226866942L705.888,225.71454229721658L707.256,220.79256908710187L708.624,207.53893501941974L709.9920000000001,201.89421624403735L711.36,214.85034298896792L712.7280000000001,212.27241413409894L714.096,193.2069018987509L715.464,229.79025916869824L716.832,213.74047914835126L718.2,204.37042830540585L719.568,222.34932650052585L720.936,190.52456991489117L722.3040000000001,231.04002042917105L723.672,223.82138635562018L725.0400000000001,208.28621289363275L726.408,214.52383190851944L727.7760000000001,198.21657096422638L729.144,202.0281517322247L730.5120000000001,223.08980188002954L731.88,212.1950476719783L733.248,218.3782380635922L734.6160000000001,202.60122508269092L735.984,217.39464065661798L737.3520000000001,228.19389130518988L738.72,211.0422457915086L740.0880000000001,223.4773101073045L741.456,212.65282523632052L742.8240000000001,207.49754812167242L744.192,209.31325961076297L745.5600000000001,197.85774586750912L746.9280000000001,193.73753114847037L748.296,198.592380633721L749.6640000000001,192.71689697412344L751.032,207.7773429613847L752.4000000000001,205.57762414675494L753.768,225.252761226434L755.1360000000001,192.60854233228244L756.504,207.73829577519345L757.8720000000001,203.38209948172937L759.2400000000001,214.9001701795138L760.6080000000001,212.80891865950363L761.9760000000001,201.18325589253354L763.344,228.21954147632306L764.7120000000001,196.9878757733565L766.08,203.29774854733395L767.4480000000001,214.42312032442825L768.816,221.56653700425076L770.184,200.61659508485062L771.5519999999999,224.9466489645151L772.92,210.797026689236L774.2879999999999,203.75355035525104L775.656,227.93475525195782L777.0239999999999,201.14296086017902L778.3919999999999,211.59901915146756L779.7599999999999,216.60819427783673L781.1279999999999,208.46990624757916L782.496,214.77016020738162L783.8639999999999,208.3255980381599L785.232,226.4016202596518L786.5999999999999,223.5635674733382L787.968,222.43274155029886L789.3359999999999,206.24309877248913L790.704,225.86182280687186L792.0719999999999,225.3183858027825L793.4399999999999,210.73864655311291L794.808,215.4565015939566L796.1759999999999,219.2856995234123L797.544,229.6009331758206L798.9119999999999,216.74082992627072L800.28,204.72713033052594L801.6479999999999,237.74424725312454L803.016,226.5605819958907L804.3839999999999,232.21643606516034L805.752,206.0736256654446L807.12,210.4084612589616L808.4879999999999,214.79523844902332L809.856,212.039534843885L811.2239999999999,217.34773377271802L812.592,215.3051829154675L813.9599999999999,229.02216652723462L815.328,212.1781844175779L816.6959999999999,221.1454149209536L818.064,222.59547282182254L819.432,209.45424889601196L820.8,221.82749283313754L822.168,217.86337153728192L823.536,210.93953245419723L824.904,214.291134595871L826.2719999999999,205.8468902844649L827.64,227.28700177486127L829.0079999999999,193.67168993216296L830.376,236.45789117079514L831.744,217.17524503744568L833.112,224.86669148848608L834.48,237.27224944188046L835.848,204.76899383618283L837.216,218.68121337890628L838.584,197.8685778654539L839.952,211.42302951445947L841.3199999999999,212.66662086890295L842.688,214.9605000752669L844.056,223.19423967141373L845.424,221.2154242900702L846.792,202.46238486583417L848.16,208.84036924288824L849.528,215.011037844878L850.896,196.79614074413593L852.264,205.95343381624957L853.632,204.07209775081049L855,216.02668063457196L856.368,226.87243954951947L857.736,227.52977717839755L859.104,220.67560084049518L860.472,222.47281994269446L861.84,221.37637044833258L863.208,209.71666921102084L864.576,217.01743582578808L865.944,205.29018624929282L867.312,220.72807103853958L868.6800000000001,215.4691013739659L870.048,224.3222406093891L871.416,218.98664105855502L872.784,220.01883514110858L874.152,214.70645072826974L875.52,222.80918380847345L876.888,196.65348766400265L878.256,205.05582514176004L879.624,199.64015546211832L880.9920000000001,228.16877840115475L882.36,226.2811077833176L883.7280000000001,212.08078309205862L885.096,206.4907962358915L886.464,223.26907577881448L887.832,218.57817941445572L889.2,214.00119234048404L890.568,251.0349354193761L891.936,206.4347124833327L893.3040000000001,215.0534299520346L894.672,224.03398814568155L896.0400000000001,206.39417481422427L897.408,201.520313006181L898.7760000000001,226.73737753354587L900.144,213.50909900665286L901.5120000000001,219.3460900783539L902.88,217.7964731179751L904.248,227.55302697878616L905.6160000000001,227.95851632264944L906.984,233.70517719708957L908.3520000000001,228.38783606199118L909.72,217.75826649482434L911.0880000000001,225.02939676321472L912.456,220.06627929210666L913.8240000000001,213.92177213155307L915.192,228.51273333109344L916.5600000000001,240.22869163293106L917.9280000000001,233.77210161319147L919.296,242.5056122633127L920.6640000000001,204.29636343625876L922.032,216.4643973387205L923.4000000000001,207.23243280557486L924.768,214.20212156956012L926.1360000000001,219.28318649988907L927.504,204.61102864375482L928.8720000000001,218.39571657547586L930.2400000000001,224.11565274458664L931.6080000000001,217.11401391946353L932.9760000000001,197.28368463883035L934.344,240.29352763982922L935.7120000000001,221.82060368244464L937.08,220.90218890630283L938.4480000000001,235.48630428314212L939.816,224.73957582620474L941.184,215.04098615279565L942.5519999999999,208.14556156671966L943.92,213.79178815621597L945.2879999999999,202.52919662915744L946.656,240.06186153338507L948.0239999999999,242.55863705965191L949.3919999999999,193.76165617429294L950.7599999999999,241.562188570316L952.1279999999999,213.2484898017003L953.496,211.69492132847125L954.8639999999999,242.7727033358354L956.232,225.89276765860046L957.5999999999999,222.02304072563464L958.968,217.85895208212048L960.3359999999999,209.10775494575503L961.704,222.61876595020297L963.0719999999999,213.26124556248004L964.4399999999999,217.13642315681165L965.808,211.53609824180606L967.1759999999999,201.0518854214595L968.544,214.04029152026544L969.9119999999999,215.0836035655095L971.28,228.16323241820703L972.6479999999999,221.69315006182745L974.016,207.67112005673923L975.3839999999999,240.6407928283398L976.752,199.54590841440054L978.12,239.4191687657283L979.4879999999999,229.69972099707678L980.856,193.3456727908208L982.2239999999999,209.49833079484793L983.592,220.6900897209461L984.9599999999999,232.2898510144307L986.328,214.5103569030762L987.6959999999999,223.1337537948902L989.064,221.38619723686807L990.432,228.42451753983133L991.8,236.29603512470538L993.168,225.92311458404248L994.536,231.18874809375177L995.904,212.79523567969983L997.2719999999999,226.16984150042902L998.64,222.7983691417254L1000.0079999999999,235.78057933770694L1001.376,243.74275641257947L1002.744,211.85693335533145L1004.112,234.9178583621979L1005.48,221.9432045679826L1006.848,235.24558262641614L1008.216,214.18135879589963L1009.584,205.49469437048987L1010.952,218.06656248752887L1012.3199999999999,225.60677691606375L1013.688,232.27125464035916L1015.056,231.00121587973373L1016.424,220.78655516184295L1017.792,223.20592089799734L1019.16,217.38941530080945L1020.528,224.10181378401245L1021.896,240.69552474755508L1023.264,219.1730467447868L1024.632,233.56602501869205L1026,221.57288888784558L1027.368,205.28147732294525L1028.736,216.18692487936752L1030.104,226.05028223991397L1031.472,230.2463642725578L1032.84,229.27411013383133L1034.208,194.70809549551745L1035.576,211.1850375212156L1036.944,228.4233823464467L1038.312,227.78173811619098L1039.68,207.6297158277952L1041.048,212.05193531513217L1042.416,209.96557985819305L1043.784,242.37291595569025L1045.152,216.76109876082495L1046.52,228.1200604071984L1047.888,226.87464061150186L1049.256,219.72767103635348L1050.624,206.09948381093832L1051.992,213.61490596257724L1053.3600000000001,220.2732744400318L1054.728,232.68435237957883L1056.096,208.96703429405505L1057.464,211.30745642918808L1058.832,213.49292033452255L1060.2,209.2158582852437L1061.568,237.7002173478787L1062.936,230.63015495813812L1064.304,212.63750445842746L1065.672,237.65289451525763L1067.04,223.52967631816867L1068.4080000000001,225.94901605752798L1069.776,206.0332353115082L1071.144,219.26564732881695L1072.512,227.2381537969296L1073.88,225.07405059154217L1075.248,222.62174691603735L1076.616,205.16528031459222L1077.9840000000002,230.92738498174228L1079.352,218.9076021359517L1080.72,225.18907774411716L1082.088,234.18551131395193L1083.4560000000001,214.87762229259198L1084.824,205.01639666924112L1086.192,209.31654387253982L1087.56,228.40248958881085L1088.928,224.24637329578403L1090.296,239.1387326717377L1091.664,218.33062060062701L1093.0320000000002,224.03806097690875L1094.4,218.23561964585232L1095.768,203.61305500910834L1097.136,216.7690277833205L1098.5040000000001,218.17197082592892L1099.872,222.78303969823398L1101.24,226.37443627760962L1102.6080000000002,220.48859722797687L1103.976,219.77786218203033L1105.344,216.3158776485003L1106.712,209.8331088561278L1108.0800000000002,222.5587740127857L1109.448,211.90859765272876L1110.816,214.27959201886105L1112.184,220.94975437567786L1113.552,221.97041454681985L1114.9199999999998,238.77877238163583L1116.288,220.07101937440726L1117.656,211.55621976118823L1119.024,205.5107083962514L1120.3919999999998,227.54958673623892L1121.76,213.9531415976011L1123.128,226.9712620331691L1124.4959999999999,229.06445464721094L1125.864,236.1811899496959L1127.232,248.60284858483536L1128.6,223.29006385803225L1129.9679999999998,224.12845183335818L1131.336,192.7678506924556L1132.704,235.3251848129126L1134.072,238.81013318208548L1135.44,221.62611299294693L1136.808,240.43854642831363L1138.176,236.3826477802717L1139.5439999999999,227.83938167645383L1140.912,222.98193251169647L1142.28,217.23047089576724L1143.648,205.02245392249182L1145.0159999999998,225.1552645793328L1146.384,219.9640685594999L1147.752,221.36794748673074L1149.12,199.19510766176077L1150.488,230.90386654780463L1151.856,239.6926030562474L1153.224,233.91153975633475L1154.5919999999999,234.82970323012427L1155.96,225.5716292491326L1157.328,201.93224088962262L1158.696,234.2634843679575L1160.064,213.09166846825528L1161.432,234.01381114813L1162.8,227.85184280688947L1164.168,200.85574826827417L1165.536,223.70291896049793L1166.904,215.84277930626504L1168.272,214.04185999356784L1169.6399999999999,214.97079480611362L1171.008,231.2571976551643L1172.376,236.32684999245865L1173.744,250.99364384321066L1175.112,214.768123791768L1176.48,207.0226733317742L1177.848,221.28405582904819L1179.216,238.60015706832593L1180.584,212.5318274864784L1181.952,216.39687499633203L1183.32,241.86703565487497L1184.688,231.34416560026318L1186.056,241.25940389816577L1187.424,198.45995295964755L1188.792,235.23053914767044L1190.16,235.17377947843994L1191.528,203.67119250847745L1192.896,209.55858270021588L1194.264,232.16460712139423L1195.632,212.336565558727L1197,239.86195484491498L1198.368,220.48956777499274L1199.736,219.32582124379965L1201.104,203.8360295204016L1202.472,222.21123152512772L1203.84,221.4381908270029L1205.208,243.46151441794174L1206.576,229.51360994118912L1207.944,224.03282695550186L1209.312,222.47076619588412L1210.68,211.5023977298003L1212.048,220.3422785997391L1213.416,214.45905656080978L1214.784,242.45640899584845L1216.152,220.61403176417718L1217.52,215.7208630029972L1218.888,215.56334842168368L1220.256,211.69804094387936L1221.624,210.6537670172178L1222.992,190.52508985079254L1224.3600000000001,227.1000328247364L1225.728,228.76032680731552L1227.096,228.2411448130241L1228.464,228.4450550079346L1229.832,226.7287639287802L1231.2,214.18589090383972L1232.568,208.7065290762828L1233.936,224.12667538569525L1235.304,229.88157724417175L1236.672,216.54718846541184L1238.04,213.60403063664072L1239.4080000000001,226.35250364817108" style="fill: none;" fill="none"></path></g></g></g></g></g></g><g transform="translate(58, 378)" clip-path="url(#clip_1)"><clipPath id="clip_1"><rect width="1368" height="22"></rect></clipPath><g><g><line x1="0" y1="0" x2="0" y2="5" style="visibility: inherit;" fill="rgb(0, 0, 0)" stroke="rgb(204, 204, 204)" stroke-width="1px"></line><line x1="136.8" y1="0" x2="136.8" y2="5" style="visibility: inherit;" fill="rgb(0, 0, 0)" stroke="rgb(204, 204, 204)" stroke-width="1px"></line><line x1="273.6" y1="0" x2="273.6" y2="5" style="visibility: inherit;" fill="rgb(0, 0, 0)" stroke="rgb(204, 204, 204)" stroke-width="1px"></line><line x1="410.4" y1="0" x2="410.4" y2="5" style="visibility: inherit;" fill="rgb(0, 0, 0)" stroke="rgb(204, 204, 204)" stroke-width="1px"></line><line x1="547.2" y1="0" x2="547.2" y2="5" style="visibility: inherit;" fill="rgb(0, 0, 0)" stroke="rgb(204, 204, 204)" stroke-width="1px"></line><line x1="684" y1="0" x2="684" y2="5" style="visibility: inherit;" fill="rgb(0, 0, 0)" stroke="rgb(204, 204, 204)" stroke-width="1px"></line><line x1="820.8" y1="0" x2="820.8" y2="5" style="visibility: inherit;" fill="rgb(0, 0, 0)" stroke="rgb(204, 204, 204)" stroke-width="1px"></line><line x1="957.5999999999999" y1="0" x2="957.5999999999999" y2="5" style="visibility: inherit;" fill="rgb(0, 0, 0)" stroke="rgb(204, 204, 204)" stroke-width="1px"></line><line x1="1094.4" y1="0" x2="1094.4" y2="5" style="visibility: inherit;" fill="rgb(0, 0, 0)" stroke="rgb(204, 204, 204)" stroke-width="1px"></line><line x1="1231.2" y1="0" x2="1231.2" y2="5" style="visibility: inherit;" fill="rgb(0, 0, 0)" stroke="rgb(204, 204, 204)" stroke-width="1px"></line><line x1="1368" y1="0" x2="1368" y2="5" style="visibility: inherit;" fill="rgb(0, 0, 0)" stroke="rgb(204, 204, 204)" stroke-width="1px"></line></g><g transform="translate(0, 8)"><text x="0" y="0" dx="0em" dy="0.95em" style="text-anchor: middle; visibility: hidden; font-family: &quot;Helvetica Neue&quot;, sans-serif; font-size: 12px; font-weight: 200;" fill="rgb(50, 49, 63)" stroke="none" stroke-width="1px">-100</text><text x="136.8" y="0" dx="0em" dy="0.95em" style="text-anchor: middle; visibility: inherit; font-family: &quot;Helvetica Neue&quot;, sans-serif; font-size: 12px; font-weight: 200;" fill="rgb(50, 49, 63)" stroke="none" stroke-width="1px">0</text><text x="273.6" y="0" dx="0em" dy="0.95em" style="text-anchor: middle; visibility: inherit; font-family: &quot;Helvetica Neue&quot;, sans-serif; font-size: 12px; font-weight: 200;" fill="rgb(50, 49, 63)" stroke="none" stroke-width="1px">100</text><text x="410.4" y="0" dx="0em" dy="0.95em" style="text-anchor: middle; visibility: inherit; font-family: &quot;Helvetica Neue&quot;, sans-serif; font-size: 12px; font-weight: 200;" fill="rgb(50, 49, 63)" stroke="none" stroke-width="1px">200</text><text x="547.2" y="0" dx="0em" dy="0.95em" style="text-anchor: middle; visibility: inherit; font-family: &quot;Helvetica Neue&quot;, sans-serif; font-size: 12px; font-weight: 200;" fill="rgb(50, 49, 63)" stroke="none" stroke-width="1px">300</text><text x="684" y="0" dx="0em" dy="0.95em" style="text-anchor: middle; visibility: inherit; font-family: &quot;Helvetica Neue&quot;, sans-serif; font-size: 12px; font-weight: 200;" fill="rgb(50, 49, 63)" stroke="none" stroke-width="1px">400</text><text x="820.8" y="0" dx="0em" dy="0.95em" style="text-anchor: middle; visibility: inherit; font-family: &quot;Helvetica Neue&quot;, sans-serif; font-size: 12px; font-weight: 200;" fill="rgb(50, 49, 63)" stroke="none" stroke-width="1px">500</text><text x="957.5999999999999" y="0" dx="0em" dy="0.95em" style="text-anchor: middle; visibility: inherit; font-family: &quot;Helvetica Neue&quot;, sans-serif; font-size: 12px; font-weight: 200;" fill="rgb(50, 49, 63)" stroke="none" stroke-width="1px">600</text><text x="1094.4" y="0" dx="0em" dy="0.95em" style="text-anchor: middle; visibility: inherit; font-family: &quot;Helvetica Neue&quot;, sans-serif; font-size: 12px; font-weight: 200;" fill="rgb(50, 49, 63)" stroke="none" stroke-width="1px">700</text><text x="1231.2" y="0" dx="0em" dy="0.95em" style="text-anchor: middle; visibility: inherit; font-family: &quot;Helvetica Neue&quot;, sans-serif; font-size: 12px; font-weight: 200;" fill="rgb(50, 49, 63)" stroke="none" stroke-width="1px">800</text><text x="1368" y="0" dx="0em" dy="0.95em" style="text-anchor: middle; visibility: hidden; font-family: &quot;Helvetica Neue&quot;, sans-serif; font-size: 12px; font-weight: 200;" fill="rgb(50, 49, 63)" stroke="none" stroke-width="1px">900</text></g><line x1="0" y1="0" x2="1368" y2="0" fill="rgb(0, 0, 0)" stroke="rgb(204, 204, 204)" stroke-width="1px"></line></g></g></g></g></svg>