<svg viewBox="0 0 1426 400" xmlns="http://www.w3.org/2000/svg"><g><g><g><g><g><line x1="58" y1="378" x2="53" y2="378" style="visibility: inherit;" fill="rgb(0, 0, 0)" stroke="rgb(204, 204, 204)" stroke-width="1px"></line><line x1="58" y1="348.9230769230769" x2="53" y2="348.9230769230769" style="visibility: inherit;" fill="rgb(0, 0, 0)" stroke="rgb(204, 204, 204)" stroke-width="1px"></line><line x1="58" y1="319.8461538461538" x2="53" y2="319.8461538461538" style="visibility: inherit;" fill="rgb(0, 0, 0)" stroke="rgb(204, 204, 204)" stroke-width="1px"></line><line x1="58" y1="290.7692307692308" x2="53" y2="290.7692307692308" style="visibility: inherit;" fill="rgb(0, 0, 0)" stroke="rgb(204, 204, 204)" stroke-width="1px"></line><line x1="58" y1="261.6923076923077" x2="53" y2="261.6923076923077" style="visibility: inherit;" fill="rgb(0, 0, 0)" stroke="rgb(204, 204, 204)" stroke-width="1px"></line><line x1="58" y1="232.61538461538464" x2="53" y2="232.61538461538464" style="visibility: inherit;" fill="rgb(0, 0, 0)" stroke="rgb(204, 204, 204)" stroke-width="1px"></line><line x1="58" y1="203.53846153846155" x2="53" y2="203.53846153846155" style="visibility: inherit;" fill="rgb(0, 0, 0)" stroke="rgb(204, 204, 204)" stroke-width="1px"></line><line x1="58" y1="174.46153846153848" x2="53" y2="174.46153846153848" style="visibility: inherit;" fill="rgb(0, 0, 0)" stroke="rgb(204, 204, 204)" stroke-width="1px"></line><line x1="58" y1="145.38461538461542" x2="53" y2="145.38461538461542" style="visibility: inherit;" fill="rgb(0, 0, 0)" stroke="rgb(204, 204, 204)" stroke-width="1px"></line><line x1="58" y1="116.30769230769232" x2="53" y2="116.30769230769232" style="visibility: inherit;" fill="rgb(0, 0, 0)" stroke="rgb(204, 204, 204)" stroke-width="1px"></line><line x1="58" y1="87.23076923076928" x2="53" y2="87.23076923076928" style="visibility: inherit;" fill="rgb(0, 0, 0)" stroke="rgb(204, 204, 204)" stroke-width="1px"></line><line x1="58" y1="58.15384615384613" x2="53" y2="58.15384615384613" style="visibility: inherit;" fill="rgb(0, 0, 0)" stroke="rgb(204, 204, 204)" stroke-width="1px"></line><line x1="58" y1="29.076923076923038" x2="53" y2="29.076923076923038" style="visibility: inherit;" fill="rgb(0, 0, 0)" stroke="rgb(204, 204, 204)" stroke-width="1px"></line><line x1="58" y1="0" x2="53" y2="0" style="visibility: inherit;" fill="rgb(0, 0, 0)" stroke="rgb(204, 204, 204)" stroke-width="1px"></line></g><g transform="translate(48, 0)"><text x="0" y="378" dx="0em" dy="0.3em" style="text-anchor: end; visibility: hidden; font-family: &quot;Helvetica Neue&quot;, sans-serif; font-size: 12px; font-weight: 200;" fill="rgb(50, 49, 63)" stroke="none" stroke-width="1px">-0.1</text><text x="0" y="348.9230769230769" dx="0em" dy="0.3em" style="text-anchor: end; visibility: inherit; font-family: &quot;Helvetica Neue&quot;, sans-serif; font-size: 12px; font-weight: 200;" fill="rgb(50, 49, 63)" stroke="none" stroke-width="1px">0</text><text x="0" y="319.8461538461538" dx="0em" dy="0.3em" style="text-anchor: end; visibility: inherit; font-family: &quot;Helvetica Neue&quot;, sans-serif; font-size: 12px; font-weight: 200;" fill="rgb(50, 49, 63)" stroke="none" stroke-width="1px">0.1</text><text x="0" y="290.7692307692308" dx="0em" dy="0.3em" style="text-anchor: end; visibility: inherit; font-family: &quot;Helvetica Neue&quot;, sans-serif; font-size: 12px; font-weight: 200;" fill="rgb(50, 49, 63)" stroke="none" stroke-width="1px">0.2</text><text x="0" y="261.6923076923077" dx="0em" dy="0.3em" style="text-anchor: end; visibility: inherit; font-family: &quot;Helvetica Neue&quot;, sans-serif; font-size: 12px; font-weight: 200;" fill="rgb(50, 49, 63)" stroke="none" stroke-width="1px">0.3</text><text x="0" y="232.61538461538464" dx="0em" dy="0.3em" style="text-anchor: end; visibility: inherit; font-family: &quot;Helvetica Neue&quot;, sans-serif; font-size: 12px; font-weight: 200;" fill="rgb(50, 49, 63)" stroke="none" stroke-width="1px">0.4</text><text x="0" y="203.53846153846155" dx="0em" dy="0.3em" style="text-anchor: end; visibility: inherit; font-family: &quot;Helvetica Neue&quot;, sans-serif; font-size: 12px; font-weight: 200;" fill="rgb(50, 49, 63)" stroke="none" stroke-width="1px">0.5</text><text x="0" y="174.46153846153848" dx="0em" dy="0.3em" style="text-anchor: end; visibility: inherit; font-family: &quot;Helvetica Neue&quot;, sans-serif; font-size: 12px; font-weight: 200;" fill="rgb(50, 49, 63)" stroke="none" stroke-width="1px">0.6</text><text x="0" y="145.38461538461542" dx="0em" dy="0.3em" style="text-anchor: end; visibility: inherit; font-family: &quot;Helvetica Neue&quot;, sans-serif; font-size: 12px; font-weight: 200;" fill="rgb(50, 49, 63)" stroke="none" stroke-width="1px">0.7</text><text x="0" y="116.30769230769232" dx="0em" dy="0.3em" style="text-anchor: end; visibility: inherit; font-family: &quot;Helvetica Neue&quot;, sans-serif; font-size: 12px; font-weight: 200;" fill="rgb(50, 49, 63)" stroke="none" stroke-width="1px">0.8</text><text x="0" y="87.23076923076928" dx="0em" dy="0.3em" style="text-anchor: end; visibility: inherit; font-family: &quot;Helvetica Neue&quot;, sans-serif; font-size: 12px; font-weight: 200;" fill="rgb(50, 49, 63)" stroke="none" stroke-width="1px">0.9</text><text x="0" y="58.15384615384613" dx="0em" dy="0.3em" style="text-anchor: end; visibility: inherit; font-family: &quot;Helvetica Neue&quot;, sans-serif; font-size: 12px; font-weight: 200;" fill="rgb(50, 49, 63)" stroke="none" stroke-width="1px">1</text><text x="0" y="29.076923076923038" dx="0em" dy="0.3em" style="text-anchor: end; visibility: inherit; font-family: &quot;Helvetica Neue&quot;, sans-serif; font-size: 12px; font-weight: 200;" fill="rgb(50, 49, 63)" stroke="none" stroke-width="1px">1.1</text><text x="0" y="0" dx="0em" dy="0.3em" style="text-anchor: end; visibility: hidden; font-family: &quot;Helvetica Neue&quot;, sans-serif; font-size: 12px; font-weight: 200;" fill="rgb(50, 49, 63)" stroke="none" stroke-width="1px">1.2</text></g><line x1="58" y1="0" x2="58" y2="378" fill="rgb(0, 0, 0)" stroke="rgb(204, 204, 204)" stroke-width="1px"></line></g></g><g transform="translate(58, 0)" clip-path="url(#clip_0)"><clipPath id="clip_0"><rect width="1368" height="378"></rect></clipPath><g><g><g><line x1="0" y1="0" x2="0" y2="378" fill="rgb(0, 0, 0)" stroke="rgb(60, 60, 60)" stroke-width="1px" opacity="0.25"></line><line x1="136.8" y1="0" x2="136.8" y2="378" fill="rgb(0, 0, 0)" stroke="rgb(60, 60, 60)" stroke-width="1px" opacity="0.25"></line><line x1="273.6" y1="0" x2="273.6" y2="378" fill="rgb(0, 0, 0)" stroke="rgb(60, 60, 60)" stroke-width="1px" opacity="0.25"></line><line x1="410.4" y1="0" x2="410.4" y2="378" fill="rgb(0, 0, 0)" stroke="rgb(60, 60, 60)" stroke-width="1px" opacity="0.25"></line><line x1="547.2" y1="0" x2="547.2" y2="378" fill="rgb(0, 0, 0)" stroke="rgb(60, 60, 60)" stroke-width="1px" opacity="0.25"></line><line x1="684" y1="0" x2="684" y2="378" fill="rgb(0, 0, 0)" stroke="rgb(60, 60, 60)" stroke-width="1px" opacity="0.25"></line><line x1="820.8" y1="0" x2="820.8" y2="378" fill="rgb(0, 0, 0)" stroke="rgb(60, 60, 60)" stroke-width="1px" opacity="0.25"></line><line x1="957.5999999999999" y1="0" x2="957.5999999999999" y2="378" fill="rgb(0, 0, 0)" stroke="rgb(60, 60, 60)" stroke-width="1px" opacity="0.25"></line><line x1="1094.4" y1="0" x2="1094.4" y2="378" fill="rgb(0, 0, 0)" stroke="rgb(60, 60, 60)" stroke-width="1px" opacity="0.25"></line><line x1="1231.2" y1="0" x2="1231.2" y2="378" fill="rgb(0, 0, 0)" stroke="rgb(60, 60, 60)" stroke-width="1px" opacity="0.25"></line><line x1="1368" y1="0" x2="1368" y2="378" fill="rgb(0, 0, 0)" stroke="rgb(60, 60, 60)" stroke-width="1px" opacity="0.25"></line></g><g><line x1="0" y1="378" x2="1368" y2="378" fill="rgb(0, 0, 0)" stroke="rgb(60, 60, 60)" stroke-width="1px" opacity="0.25"></line><line x1="0" y1="348.9230769230769" x2="1368" y2="348.9230769230769" fill="rgb(0, 0, 0)" stroke="rgb(60, 60, 60)" stroke-width="1px" opacity="0.25"></line><line x1="0" y1="319.8461538461538" x2="1368" y2="319.8461538461538" fill="rgb(0, 0, 0)" stroke="rgb(60, 60, 60)" stroke-width="1px" opacity="0.25"></line><line x1="0" y1="290.7692307692308" x2="1368" y2="290.7692307692308" fill="rgb(0, 0, 0)" stroke="rgb(60, 60, 60)" stroke-width="1px" opacity="0.25"></line><line x1="0" y1="261.6923076923077" x2="1368" y2="261.6923076923077" fill="rgb(0, 0, 0)" stroke="rgb(60, 60, 60)" stroke-width="1px" opacity="0.25"></line><line x1="0" y1="232.61538461538464" x2="1368" y2="232.61538461538464" fill="rgb(0, 0, 0)" stroke="rgb(60, 60, 60)" stroke-width="1px" opacity="0.25"></line><line x1="0" y1="203.53846153846155" x2="1368" y2="203.53846153846155" fill="rgb(0, 0, 0)" stroke="rgb(60, 60, 60)" stroke-width="1px" opacity="0.25"></line><line x1="0" y1="174.46153846153848" x2="1368" y2="174.46153846153848" fill="rgb(0, 0, 0)" stroke="rgb(60, 60, 60)" stroke-width="1px" opacity="0.25"></line><line x1="0" y1="145.38461538461542" x2="1368" y2="145.38461538461542" fill="rgb(0, 0, 0)" stroke="rgb(60, 60, 60)" stroke-width="1px" opacity="0.25"></line><line x1="0" y1="116.30769230769232" x2="1368" y2="116.30769230769232" fill="rgb(0, 0, 0)" stroke="rgb(60, 60, 60)" stroke-width="1px" opacity="0.25"></line><line x1="0" y1="87.23076923076928" x2="1368" y2="87.23076923076928" fill="rgb(0, 0, 0)" stroke="rgb(60, 60, 60)" stroke-width="1px" opacity="0.25"></line><line x1="0" y1="58.15384615384613" x2="1368" y2="58.15384615384613" fill="rgb(0, 0, 0)" stroke="rgb(60, 60, 60)" stroke-width="1px" opacity="0.25"></line><line x1="0" y1="29.076923076923038" x2="1368" y2="29.076923076923038" fill="rgb(0, 0, 0)" stroke="rgb(60, 60, 60)" stroke-width="1px" opacity="0.25"></line><line x1="0" y1="0" x2="1368" y2="0" fill="rgb(0, 0, 0)" stroke="rgb(60, 60, 60)" stroke-width="1px" opacity="0.25"></line></g></g></g><g><g><line x1="0" y1="348.9230769230769" x2="1368" y2="348.9230769230769" fill="rgb(0, 0, 0)" stroke="rgb(153, 153, 153)" stroke-width="1.5px"></line></g></g><g><g><line x1="136.8" y1="0" x2="136.8" y2="378" fill="rgb(0, 0, 0)" stroke="rgb(153, 153, 153)" stroke-width="1.5px"></line></g></g><g><g><g><g><g><path stroke="rgb(51, 187, 238)" stroke-width="2px" d="M136.8,58.15384615384613L138.168,58.15442024973726L139.536,61.00983106959001L140.904,82.47384379777162L142.272,93.21615068704932L143.64,102.7221477480897L145.008,114.62282334465186L146.376,115.6551801929798L147.744,115.25571462064079L149.112,119.70691854485909L150.48,131.11258143766756L151.848,130.6435021490202L153.216,137.48688579215965L154.584,143.52296677618864L155.952,150.49872052451093L157.32,159.7845620500455L158.68800000000002,152.1164114917252L160.056,154.7581445886189L161.42399999999998,159.91621611367754L162.792,158.1558655325368L164.16,153.28032290622517L165.528,154.36801161784197L166.896,158.16559413680767L168.264,164.01351519492437L169.632,161.6683098017396L171,158.08040263077882L172.368,150.00161395330932L173.736,156.77514240942955L175.104,164.56061275004208L176.472,169.19702274300775L177.84,165.3558820980441L179.208,168.7265622862404L180.57600000000002,161.17282500154982L181.94400000000002,160.44183434525576L183.312,161.22351568136807L184.68,176.76081471674905L186.048,164.62235430093506L187.41600000000003,163.25085226510464L188.78400000000002,166.3190958813968L190.15200000000002,167.28438679801172L191.52,163.6012238791836L192.88799999999998,164.13963798084075L194.25599999999997,166.24327972737714L195.624,166.99171957693824L196.992,167.72736522296623L198.35999999999999,171.86729238133125L199.72799999999998,176.56352740915455L201.09599999999998,176.03444796115983L202.464,172.21761676940943L203.832,175.6633954582847L205.2,179.53577509202026L206.56799999999998,183.96514431459863L207.936,179.00173258308365L209.304,175.5518679773814L210.672,168.2907081330148L212.04,176.45215536675508L213.408,178.64105195072185L214.776,174.99963646552584L216.144,170.89394291294556L217.512,172.6884690544644L218.88,171.72270320691194L220.24800000000002,177.71877598803235L221.616,168.34180745736117L222.984,173.72595536540092L224.352,176.73881973935636L225.72,178.0352333983436L227.08800000000002,183.40963385567537L228.45600000000002,189.72883556019852L229.824,188.56835534137522L231.192,178.32078231000276L232.56000000000003,180.9124788449837L233.92800000000003,174.52479648996422L235.296,178.9839445872111L236.664,178.12941529933786L238.03199999999998,179.02864952527295L239.39999999999998,185.20747723916702L240.76799999999997,186.36086258503744L242.136,184.86408150002055L243.504,180.73769617514475L244.87199999999999,184.50156027247203L246.23999999999998,185.99144119859017L247.608,185.65142321078758L248.976,188.30608932850646L250.344,183.02459460809254L251.712,181.5872299093868L253.07999999999998,174.89072819327055L254.448,172.93903857060192L255.816,171.48165103501677L257.184,183.70816127207914L258.552,185.89166207896355L259.92,187.0908221067038L261.288,185.3584043997692L262.656,184.05892343262605L264.024,186.71888813890723L265.392,175.6488540519798L266.76,178.2821989157742L268.128,185.73594944149846L269.49600000000004,181.38228783154383L270.86400000000003,187.5367647606L272.232,187.72183854292098L273.6,188.33273532291255L274.968,182.2370247354416L276.336,181.13678872784288L277.704,183.39539396148646L279.072,190.25927797645903L280.44,194.30856783022216L281.808,186.99942341620485L283.176,180.47424108673604L284.544,175.79162310892028L285.912,176.74134140351092L287.28,182.9010448505341L288.64799999999997,188.66591370953122L290.016,193.46979134958022L291.384,190.0305847304846L292.752,189.15824084149511L294.12,187.99425961268278L295.488,190.31414731007374L296.856,195.38570096474436L298.224,195.7041621020024L299.592,199.6252728055881L300.96,193.75827256332255L302.328,198.69324924825494L303.696,198.90351783937L305.064,199.1578050650886L306.432,197.61735518607045L307.8,197.0547873340309L309.168,194.83725545823293L310.536,194.70238786397363L311.904,193.0059155422696L313.272,190.0422032346048L314.64,195.05122603868674L316.00800000000004,200.92463734912783L317.37600000000003,200.40400917034094L318.744,194.89317447181375L320.112,195.9812065532876L321.47999999999996,184.915897634506L322.84799999999996,184.39009088137686L324.216,180.97620480618397L325.584,188.23835841403547L326.952,188.19742959949596L328.32,195.6859634164535L329.688,198.08895178192546L331.056,196.43014518215014L332.424,200.98329133497697L333.792,201.24292541063352L335.15999999999997,202.52477263244978L336.528,207.35818871022596L337.896,209.13035180481458L339.264,200.34458013959042L340.632,194.91362160335828L342,187.47680691598975L343.368,184.8347225300847L344.736,188.86932040664283L346.104,189.15728820028926L347.472,191.90882616254885L348.84000000000003,194.6555381156718L350.208,192.97660637447603L351.576,196.89299178817723L352.944,200.2270755626078L354.312,204.38052493492046L355.68,202.1671261237542L357.048,201.7022428256009L358.416,195.22044288122902L359.784,200.80605779017637L361.15200000000004,206.4549714900132L362.52000000000004,206.60050894618948L363.88800000000003,205.70717338388332L365.25600000000003,201.51291690956958L366.624,196.52085807643869L367.992,196.65323133257397L369.36,195.08590736702578L370.728,194.56537162675377L372.096,190.61363752272536L373.46400000000006,195.60864682684885L374.83200000000005,202.8250258372275L376.20000000000005,205.39948724819433L377.56800000000004,201.7467080466893L378.93600000000004,194.96595454339024L380.30400000000003,196.0844245881346L381.672,203.44490833326762L383.04,198.9365022999413L384.408,200.2298142886656L385.77599999999995,200.2425494436781L387.14399999999995,193.4446386042773L388.51199999999994,204.6365620377706L389.87999999999994,203.10688453582435L391.248,198.1225622955091L392.616,205.33373179261804L393.984,211.75716513529375L395.352,194.53045175064273L396.71999999999997,197.9609745542144L398.08799999999997,198.59248013587714L399.45599999999996,204.5570028794706L400.82399999999996,205.24947607997612L402.19199999999995,206.55580084245304L403.56,201.3249148008327L404.928,211.93001176945202L406.296,206.9627481068161L407.664,197.34818805247468L409.032,198.10979148097636L410.4,202.35741555164472L411.768,196.58756670452667L413.13599999999997,196.89571261693317L414.50399999999996,194.9547763731666L415.872,197.28233984463785L417.24,205.4658438845753L418.608,205.3277083979003L419.976,195.46121404765836L421.344,190.5540000588088L422.712,200.91574646819123L424.08,189.61599435038306L425.448,199.9981283853376L426.816,206.86215348715513L428.184,204.0699237052175L429.552,198.5981733314186L430.92,203.0338488618038L432.288,200.3431587961707L433.656,203.8405430982485L435.024,213.24648212978323L436.392,213.16112835345726L437.76,200.5880086113833L439.128,213.29932473608022L440.49600000000004,210.43284430715036L441.86400000000003,211.50973979049633L443.232,208.10391608035485L444.6,210.84396386377028L445.968,218.52503760916275L447.336,209.12137465266528L448.704,216.78418407974144L450.072,213.99268628807596L451.44,214.22596970222205L452.80800000000005,210.6926480675127L454.17600000000004,208.0158695948904L455.54400000000004,206.31186045246037L456.91200000000003,210.67355760495352L458.28000000000003,209.00939248859257L459.648,211.06400209260528L461.016,204.56543192162104L462.384,207.67962546881432L463.752,213.30131969844982L465.12000000000006,211.18009037693824L466.48800000000006,216.44080492806725L467.85600000000005,215.61761307366984L469.22400000000005,207.32034397282413L470.592,210.2172782980739L471.96,215.5015403899936L473.328,209.96738624459985L474.69599999999997,201.3566638132812L476.06399999999996,204.372898380167L477.43199999999996,200.98984516412875L478.79999999999995,207.41305486136272L480.16799999999995,210.69776178738553L481.53599999999994,207.85740760722254L482.904,207.37893012159626L484.272,210.7964874482688L485.64,213.00782761984135L487.008,214.88132005937734L488.376,213.63281628815116L489.74399999999997,203.9754893143641L491.11199999999997,206.81448318992977L492.47999999999996,208.57979348240175L493.84799999999996,206.1152700672665L495.216,206.21155278302868L496.584,216.6195061561829L497.952,213.22036843229148L499.32,214.46921693979527L500.688,207.23216501753365L502.056,210.55890868556082L503.424,217.54658910855446L504.792,215.25094151309926L506.15999999999997,214.95627094303342L507.528,215.61277680256367L508.896,219.52480233108045L510.264,215.09762027499104L511.632,220.82535717408533L513,218.3886369924219L514.368,220.67988003944492L515.736,214.49166597655957L517.104,213.02578958479717L518.472,219.7963094380755L519.84,210.82716975796387L521.208,212.39117689703346L522.576,207.19902390015483L523.944,211.4887770611693L525.312,209.39295637691222L526.6800000000001,222.07074786566523L528.048,210.15757320177408L529.416,210.74872018560725L530.784,216.04799879773051L532.152,211.46583457881977L533.52,218.84529295574333L534.888,218.70012479705957L536.256,210.73671597420415L537.624,209.40002242433573L538.9920000000001,217.20005461811928L540.36,208.1106045265009L541.7280000000001,207.16811325846786L543.096,216.37527130708455L544.464,212.8415721557001L545.832,205.98939176302224L547.2,205.69480819459784L548.568,214.14571148726958L549.936,210.90257892125248L551.3040000000001,207.37615663385128L552.672,211.219961077197L554.0400000000001,219.0160736135752L555.408,220.1216393773255L556.776,215.06571165065793L558.144,213.68744374762625L559.512,213.15172336782788L560.88,219.30100088564942L562.2479999999999,209.39333542137376L563.616,212.82862937236632L564.9839999999999,210.63268150238005L566.352,215.44723680089137L567.72,221.6310048287249L569.088,228.09939041874398L570.456,218.6315805090577L571.824,224.57103561094377L573.192,212.03469937741878L574.56,213.7803911237082L575.928,221.40152561795756L577.2959999999999,219.4639779740648L578.664,215.5445620618554L580.032,226.13217600505993L581.4,222.86211733276056L582.768,220.07822291635884L584.136,219.13034760015944L585.504,225.82195880951818L586.872,222.39845216377438L588.24,214.73557776916493L589.608,214.02342424539884L590.976,213.48587105765986L592.344,219.44964149146617L593.712,223.0178481914178L595.08,225.98632645565033L596.448,218.51071379709745L597.816,215.0378867074483L599.184,220.97669742428445L600.552,221.10423701955787L601.92,223.05787842888137L603.288,220.66473108183442L604.656,226.6932192515705L606.024,220.36296088112255L607.392,220.2254284372546L608.76,221.45243686326666L610.128,217.10631354430464L611.496,215.22587389814348L612.864,217.4454808454685L614.232,215.35685015308235L615.6,217.16502659487534L616.968,218.9930803099878L618.336,224.0559454659081L619.7040000000001,222.03939885860652L621.072,217.39168244442465L622.44,214.2506504406996L623.808,222.32657155145165L625.176,225.83778498435777L626.544,220.61687267571315L627.912,218.40289951367797L629.28,215.92864968091115L630.648,217.15206460504726L632.0160000000001,220.8471242540327L633.384,231.33676311507693L634.7520000000001,220.27444479041526L636.12,223.3980392434285L637.488,225.5233630842205L638.856,224.053760305648L640.224,225.9025460116159L641.592,230.0601288337762L642.9599999999999,219.41966263592388L644.328,225.50674569140116L645.6959999999999,220.54107529103442L647.064,223.71552345951517L648.432,233.00064781785082L649.8,228.14884471766808L651.168,222.70472873465124L652.536,220.9126171166194L653.904,217.0178590711649L655.2719999999999,214.248039753882L656.64,216.61639317418167L658.0079999999999,221.83847635667388L659.376,213.47660900530963L660.744,216.89228045111014L662.112,223.48034245103435L663.48,212.5763093665416L664.848,213.7300015250411L666.216,217.90908028655036L667.584,221.7216567780633L668.952,222.52353436221878L670.3199999999999,217.43949926271466L671.688,213.07535962731453L673.056,218.70276461111607L674.424,220.55262380144796L675.792,220.1007142603046L677.16,227.93688745047226L678.528,228.3807461462078L679.896,222.3437501807467L681.264,219.752991043847L682.632,218.38632254431687L684,222.9702925664602L685.368,221.68763578016683L686.736,223.77507562134295L688.104,223.8719750528231L689.472,228.4360421460456L690.84,223.82775691977199L692.208,224.56977770227823L693.576,229.24905698825864L694.944,228.56961897762434L696.312,217.13331500235594L697.6800000000001,216.55841382561474L699.048,218.63627389891263L700.416,216.4363209878954L701.784,216.8135205442272L703.152,220.12277594139627L704.52,233.95872557442735L705.888,221.30689239486253L707.256,220.58002785159738L708.624,217.9342785996092L709.9920000000001,213.928558643894L711.36,223.4775934151079L712.7280000000001,213.02900073302L714.096,225.5863809538982L715.464,224.82594235947647L716.832,227.62676912946975L718.2,229.6791580105035L719.568,225.12447079601063L720.936,217.4260557025984L722.3040000000001,214.99333017924243L723.672,226.4046526432792L725.0400000000001,227.29537239739471L726.408,232.33079575937492L727.7760000000001,224.50478997998033L729.144,221.7487242025796L730.5120000000001,220.35936122231587L731.88,227.5396749286504L733.248,231.64702231247824L734.6160000000001,221.50625726501522L735.984,227.31966824529945L737.3520000000001,221.02389380087254L738.72,218.79507208134L740.0880000000001,213.6329988422066L741.456,209.40344542524863L742.8240000000001,218.6920020751776L744.192,215.71684218115112L745.5600000000001,225.63929544992837L746.9280000000001,228.164712161467L748.296,229.663809513055L749.6640000000001,214.9247606678667L751.032,215.0614320108075L752.4000000000001,220.5158111668281L753.768,223.29753597982332L755.1360000000001,219.7041817579356L756.504,215.63984155360524L757.8720000000001,220.608868204698L759.2400000000001,222.5789256774868L760.6080000000001,224.79628772407915L761.9760000000001,221.79024542538565L763.344,222.83265904792785L764.7120000000001,233.29102060185593L766.08,240.33438841050744" style="fill: none;" fill="none"></path></g></g></g></g><g opacity="0.2"><g><g><g><path stroke="rgb(51, 187, 238)" stroke-width="2px" d="M136.8,58.15384615384613L138.168,58.15476470727185L139.536,63.75102545664856L140.904,107.71552276611328L142.272,107.24130656169012L143.64,115.87236384245068L145.008,131.6409798585452L146.376,117.16036638846765L147.744,114.6665804936336L149.112,126.3164376112131L150.48,148.1176272538992L151.848,129.94243592482349L153.216,147.72961642191962L154.584,152.56526294121377L155.952,160.95415141032294L157.32,173.70677524346573L158.68800000000002,140.61743055857144L160.056,158.7200734982124L161.42399999999998,167.65253762098462L162.792,155.5155005638416L164.16,145.96727635310248L165.528,155.99950889440686L166.896,163.8618929386139L168.264,172.78532750789938L169.632,158.15051838067865L171,152.6985571751228L172.368,137.88345160851114L173.736,166.93542469464816L175.104,176.23881108944235L176.472,176.1516351699829L177.84,159.5941724043626L179.208,173.78258189788235L180.57600000000002,149.84221997627847L181.94400000000002,159.34534841317398L183.312,162.39603765194235L184.68,200.06676286917468L186.048,146.41466386501608L187.41600000000003,161.19359922409058L188.78400000000002,170.9214612887456L190.15200000000002,168.73232316970825L191.52,158.07647950832663L192.88799999999998,164.9472591326787L194.25599999999997,169.39874234566324L195.624,168.1143793509557L196.992,168.83083369181708L198.35999999999999,178.0771831182333L199.72799999999998,183.60787995045004L201.09599999999998,175.2408287891975L202.464,166.4923699819125L203.832,180.83206349152786L205.2,185.34434454257672L206.56799999999998,190.609198148434L207.936,171.5566149858328L209.304,170.3770710688371L210.672,157.39896836647623L212.04,188.69432621735794L213.408,181.92439682667074L214.776,169.5375132377331L216.144,164.73540258407593L217.512,175.38025826674243L218.88,170.27405443558328L220.24800000000002,186.71288515971258L221.616,154.27635466135465L222.984,181.80217722746045L224.352,181.25811630028946L225.72,179.9798538868244L227.08800000000002,191.47123454167294L228.45600000000002,199.20763811698328L229.824,186.8276350131402L231.192,162.94942276294415L232.56000000000003,184.8000236474551L233.92800000000003,164.94327295743503L235.296,185.67266673308154L236.664,176.8476213675279L238.03199999999998,180.3775008641757L239.39999999999998,194.47571881000812L240.76799999999997,188.0909406038431L242.136,182.61890987249524L243.504,174.54811818783102L244.87199999999999,190.14735641846292L246.23999999999998,188.2262625877674L247.608,185.14139622908374L248.976,192.28808850508472L250.344,175.1023525274717L251.712,179.43118286132812L253.07999999999998,164.845975619096L254.448,170.01150413659906L255.816,169.295569731639L257.184,202.04792662767264L258.552,189.16691328929022L259.92,188.88956214831427L261.288,182.75977783936722L262.656,182.1097019819113L264.024,190.70883519832904L265.392,159.04380292158862L266.76,182.23221621146573L268.128,196.91657523008496L269.49600000000004,174.85179541661188L270.86400000000003,196.7684801541842L272.232,187.99944921640252L273.6,189.24908049289996L274.968,173.09345885423517L276.336,179.48643471644476L277.704,186.78330181195184L279.072,200.55510399891782L280.44,200.38250261086685L281.808,176.03570679517895L283.176,170.68646759253284L284.544,168.76769614219666L285.912,178.1659188453968L287.28,192.14060002106888L288.64799999999997,197.31321699802692L290.016,200.67560780965366L291.384,184.87177480184116L292.752,187.84972500801086L294.12,186.24828776946438L295.488,193.7939788561601L296.856,202.99303144675036L298.224,196.18185380788952L299.592,205.5069388609666L300.96,184.9577721999242L302.328,206.09571427565356L303.696,199.21892072604254L305.064,199.53923590366657L306.432,195.30668036754315L307.8,196.2109355559716L309.168,191.51095764453595L310.536,194.50008647258466L311.904,190.46120705971353L313.272,185.5966347731077L314.64,202.5647602448097L316.00800000000004,209.73475431478943L317.37600000000003,199.62306690216067L318.744,186.62692242402298L320.112,197.61325467549838L321.47999999999996,168.31793425633356L322.84799999999996,183.60138075168317L324.216,175.8553756933946L325.584,199.1315888258127L326.952,188.1360363776867L328.32,206.91876414188974L329.688,201.6934343301333L331.056,193.94193528248715L332.424,207.81301056421722L333.792,201.63237652411829L335.15999999999997,204.44754346517416L336.528,214.60831282689023L337.896,211.78859644669754L339.264,187.16592264175415L340.632,186.76718379901007L342,176.321584884937L343.368,180.87159595122708L344.736,194.92121722148016L346.104,189.58923989075882L347.472,196.03613310593826L348.84000000000003,198.77560604535617L350.208,190.4582087626824L351.576,202.76756990872897L352.944,205.22820122425372L354.312,210.61069899338943L355.68,198.84702790700473L357.048,201.00491787837103L358.416,185.49774296467123L359.784,209.18448015359732L361.15200000000004,214.92834203976852L362.52000000000004,206.81881513045386L363.88800000000003,204.36717004042407L365.25600000000003,195.221532198099L366.624,189.03276982674234L367.992,196.85179121677692L369.36,192.73492141870352L370.728,193.7845680163457L372.096,184.6860363666828L373.46400000000006,203.10116078303412L374.83200000000005,213.64959435279553L376.20000000000005,209.2611793646446L377.56800000000004,196.26753924443173L378.93600000000004,184.7948242884416L380.30400000000003,197.76212965525116L381.672,214.48563395096707L383.04,192.1738932499519L384.408,202.169782271752L385.77599999999995,200.26165217619678L387.14399999999995,183.24777234517612L388.51199999999994,221.4244471880106L389.87999999999994,200.812368282905L391.248,190.64607893503631L392.616,216.15048603828137L393.984,221.39231514930728L395.352,168.69038167366617L396.71999999999997,203.10675875957196L398.08799999999997,199.53973850837122L399.45599999999996,213.50378699486072L400.82399999999996,206.28818588073437L402.19199999999995,208.51528798616852L403.56,193.47858573840216L404.928,227.837657222381L406.296,199.51185261286224L407.664,182.92634797096252L409.032,199.25219662372882L410.4,208.72885165764737L411.768,187.93279343384964L413.13599999999997,197.3579314855429L414.50399999999996,192.04337200751672L415.872,200.77368505184467L417.24,217.7410999444815L418.608,205.12050516788776L419.976,180.66147252229547L421.344,183.19317907553454L422.712,216.45836608226483L424.08,172.66636617367087L425.448,215.57132943776938L426.816,217.15819113988144L428.184,199.8815790323111L429.552,190.39054777072027L430.92,209.6873621573815L432.288,196.30712369772107L433.656,209.0866195513652L435.024,227.3553906770853L436.392,213.03309768896835L437.76,181.72832899827225L439.128,232.36629892312564L440.49600000000004,206.13312366375558L441.86400000000003,213.12508301551526L443.232,202.9951805151426L444.6,214.9540355388935L445.968,230.0466482272515L447.336,195.015880217919L448.704,228.27839822035568L450.072,209.80543960057773L451.44,214.57589482344116L452.80800000000005,205.3926656154486L454.17600000000004,204.000701885957L455.54400000000004,203.75584673881534L456.91200000000003,217.2161033336933L458.28000000000003,206.51314481405112L459.648,214.1459164986244L461.016,194.8175766651447L462.384,212.35091578960422L463.752,221.73386104290302L465.12000000000006,207.99824639467093L466.48800000000006,224.33187675476077L467.85600000000005,214.3828252920738L469.22400000000005,194.8744403215555L470.592,214.56267978594855L471.96,223.4279335278731L473.328,201.66615502650922L474.69599999999997,188.44058016630322L476.06399999999996,208.89725023049576L477.43199999999996,195.91526534007147L478.79999999999995,217.04786940721365L480.16799999999995,215.6248221764198L481.53599999999994,203.59687633697803L482.904,206.6612138931568L484.272,215.92282343827762L485.64,216.3248378772002L487.008,217.69155871868136L488.376,211.76006063131186L489.74399999999997,189.4894988536835L491.11199999999997,211.07297400327832L492.47999999999996,211.22775892110974L493.84799999999996,202.41848494456366L495.216,206.35597685667187L496.584,232.23143621591421L497.952,208.12166184645434L499.32,216.342489701051L500.688,196.3765871341412L502.056,215.54902418760153L503.424,228.02810974304492L504.792,211.8074701199165L506.15999999999997,214.51426508793466L507.528,216.5975355918591L508.896,225.39284062385562L510.264,208.45684719085696L511.632,229.4169625227268L513,214.7335567199267L514.368,224.1167446099795L515.736,205.2093448822315L517.104,210.82697499715366L518.472,229.95208921799295L519.84,197.3734602377965L521.208,214.73718760563779L522.576,199.41079440483682L523.944,217.92340680269095L525.312,206.24922535052667L526.6800000000001,241.0874350987948L528.048,192.28781120593732L529.416,211.635440661357L530.784,223.99691671591538L532.152,204.59258825045367L533.52,229.91448052112872L534.888,218.48237255903393L536.256,198.791602739921L537.624,207.3949820995331L538.9920000000001,228.9001029087947L540.36,194.4764293890733L541.7280000000001,205.75437635641833L543.096,230.18600838000958L544.464,207.5410234286235L545.832,195.71112117400537L547.2,205.2529328419612L548.568,226.8220664262772L549.936,206.0378800722269L551.3040000000001,202.08652320274942L552.672,216.9856677422157L554.0400000000001,230.71024241814249L555.408,221.779988022951L556.776,207.48182006065662L558.144,211.62004189307874L559.512,212.34814279813034L560.88,228.5249171623817L562.2479999999999,194.53183722496036L563.616,217.98157029885513L564.9839999999999,207.33875969740063L566.352,222.66906974865842L567.72,230.9066568704752L569.088,237.80196880377258L570.456,204.42986564452832L571.824,233.48021826377283L573.192,193.23019502713132L574.56,216.39892874314236L575.928,232.83322735933157L577.2959999999999,216.55765650822568L578.664,209.66543819354132L580.032,242.01359691986673L581.4,217.9570293243115L582.768,215.90238129175629L584.136,217.70853462586038L585.504,235.8593756235563L586.872,217.26319219515875L588.24,203.2412661772508L589.608,212.95519395974966L590.976,212.67954127605145L592.344,228.39529714217554L593.712,228.37015824134534L595.08,230.43904385199914L596.448,207.29729480926807L597.816,209.82864607297458L599.184,229.88491349953873L600.552,221.29554641246798L601.92,225.98834054286664L603.288,217.07501006126407L604.656,235.73595150617453L606.024,210.86757332545062L607.392,220.0191297714527L608.76,223.2929495022847L610.128,210.58712856586163L611.496,212.4052144289017L612.864,220.77489126645602L614.232,212.22390411450314L615.6,219.87729125756485L616.968,221.7351608826564L618.336,231.65024319978863L619.7040000000001,219.01457894765414L621.072,210.42010782315182L622.44,209.53910243511203L623.808,234.44045321757977L625.176,231.1046051337169L626.544,212.78550421274628L627.912,215.08193977062518L629.28,212.21727493176095L630.648,218.98718699125143L632.0160000000001,226.3897137275109L633.384,247.07122140664322L634.7520000000001,203.6809673034228L636.12,228.08343092294842L637.488,228.7113488454085L638.856,221.84935613778921L640.224,228.67572457056778L641.592,236.29650306701663L642.9599999999999,203.45896333914538L644.328,234.63737027461713L645.6959999999999,213.09256969048428L647.064,228.47719571223627L648.432,246.92833435535434L649.8,220.87114006739395L651.168,214.53855476012598L652.536,218.22444968957168L653.904,211.17572200298312L655.2719999999999,210.09331077795764L656.64,220.16892330463116L658.0079999999999,229.67160113041217L659.376,200.93380797826327L660.744,222.01578761981085L662.112,233.3624354509207L663.48,196.22025973980243L664.848,215.46053976279038L666.216,224.17769842881424L667.584,227.44052151533276L668.952,223.72635073845203L670.3199999999999,209.8134466134585L671.688,206.5291501742143L673.056,227.1438720868184L674.424,223.32741258694577L675.792,219.42284994858963L677.16,239.69114723572366L678.528,229.04653418981113L679.896,213.28825623255509L681.264,215.86685233849747L682.632,216.33631979502167L684,229.8462475996751L685.368,219.76365060072678L686.736,226.90623538310712L688.104,224.01732420004333L689.472,235.2821427858793L690.84,216.9153290803616L692.208,225.68280887603763L693.576,236.2679759172293L694.944,227.55046196167285L696.312,199.97885903945337L697.6800000000001,215.69606206050287L699.048,221.7530640088595L700.416,213.1363916213696L701.784,217.3793198787249L703.152,225.08665903714987L704.52,254.7126500239739L705.888,202.3291426255153L707.256,219.48973103669974L708.624,213.9656547216269L709.9920000000001,207.9199787103213L711.36,237.80114557192877L712.7280000000001,197.35611170988818L714.096,244.42245128521554L715.464,223.68528446784387L716.832,231.82800928445965L718.2,232.75774133205417L719.568,218.29243997427136L720.936,205.87843306248004L722.3040000000001,211.3442418942085L723.672,243.52163633933435L725.0400000000001,228.63145202856796L726.408,239.8839308023453L727.7760000000001,212.76578131088846L729.144,217.61462553647848L730.5120000000001,218.2753167519203L731.88,238.31014548815216L733.248,237.80804338822L734.6160000000001,206.29510969382068L735.984,236.03978471572583L737.3520000000001,211.58023213423218L738.72,215.45183950204117L740.0880000000001,205.88988898350644L741.456,203.05911529981174L742.8240000000001,232.62483705007114L744.192,211.2541023401114L745.5600000000001,240.52297535309427L746.9280000000001,231.95283722877505L748.296,231.91245554043698L749.6640000000001,192.8161874000843L751.032,215.26643902521866L752.4000000000001,228.69737990085895L753.768,227.4701231993162L755.1360000000001,214.314150425104L756.504,209.54333124710965L757.8720000000001,228.06240818133722L759.2400000000001,225.53401188667004L760.6080000000001,228.12233079396762L761.9760000000001,217.2811819773454L763.344,224.39627948174112L764.7120000000001,248.97856293274808L766.08,250.89944012348468" style="fill: none;" fill="none"></path></g></g></g></g></g></g><g transform="translate(58, 378)" clip-path="url(#clip_1)"><clipPath id="clip_1"><rect width="1368" height="22"></rect></clipPath><g><g><line x1="0" y1="0" x2="0" y2="5" style="visibility: inherit;" fill="rgb(0, 0, 0)" stroke="rgb(204, 204, 204)" stroke-width="1px"></line><line x1="136.8" y1="0" x2="136.8" y2="5" style="visibility: inherit;" fill="rgb(0, 0, 0)" stroke="rgb(204, 204, 204)" stroke-width="1px"></line><line x1="273.6" y1="0" x2="273.6" y2="5" style="visibility: inherit;" fill="rgb(0, 0, 0)" stroke="rgb(204, 204, 204)" stroke-width="1px"></line><line x1="410.4" y1="0" x2="410.4" y2="5" style="visibility: inherit;" fill="rgb(0, 0, 0)" stroke="rgb(204, 204, 204)" stroke-width="1px"></line><line x1="547.2" y1="0" x2="547.2" y2="5" style="visibility: inherit;" fill="rgb(0, 0, 0)" stroke="rgb(204, 204, 204)" stroke-width="1px"></line><line x1="684" y1="0" x2="684" y2="5" style="visibility: inherit;" fill="rgb(0, 0, 0)" stroke="rgb(204, 204, 204)" stroke-width="1px"></line><line x1="820.8" y1="0" x2="820.8" y2="5" style="visibility: inherit;" fill="rgb(0, 0, 0)" stroke="rgb(204, 204, 204)" stroke-width="1px"></line><line x1="957.5999999999999" y1="0" x2="957.5999999999999" y2="5" style="visibility: inherit;" fill="rgb(0, 0, 0)" stroke="rgb(204, 204, 204)" stroke-width="1px"></line><line x1="1094.4" y1="0" x2="1094.4" y2="5" style="visibility: inherit;" fill="rgb(0, 0, 0)" stroke="rgb(204, 204, 204)" stroke-width="1px"></line><line x1="1231.2" y1="0" x2="1231.2" y2="5" style="visibility: inherit;" fill="rgb(0, 0, 0)" stroke="rgb(204, 204, 204)" stroke-width="1px"></line><line x1="1368" y1="0" x2="1368" y2="5" style="visibility: inherit;" fill="rgb(0, 0, 0)" stroke="rgb(204, 204, 204)" stroke-width="1px"></line></g><g transform="translate(0, 8)"><text x="0" y="0" dx="0em" dy="0.95em" style="text-anchor: middle; visibility: hidden; font-family: &quot;Helvetica Neue&quot;, sans-serif; font-size: 12px; font-weight: 200;" fill="rgb(50, 49, 63)" stroke="none" stroke-width="1px">-100</text><text x="136.8" y="0" dx="0em" dy="0.95em" style="text-anchor: middle; visibility: inherit; font-family: &quot;Helvetica Neue&quot;, sans-serif; font-size: 12px; font-weight: 200;" fill="rgb(50, 49, 63)" stroke="none" stroke-width="1px">0</text><text x="273.6" y="0" dx="0em" dy="0.95em" style="text-anchor: middle; visibility: inherit; font-family: &quot;Helvetica Neue&quot;, sans-serif; font-size: 12px; font-weight: 200;" fill="rgb(50, 49, 63)" stroke="none" stroke-width="1px">100</text><text x="410.4" y="0" dx="0em" dy="0.95em" style="text-anchor: middle; visibility: inherit; font-family: &quot;Helvetica Neue&quot;, sans-serif; font-size: 12px; font-weight: 200;" fill="rgb(50, 49, 63)" stroke="none" stroke-width="1px">200</text><text x="547.2" y="0" dx="0em" dy="0.95em" style="text-anchor: middle; visibility: inherit; font-family: &quot;Helvetica Neue&quot;, sans-serif; font-size: 12px; font-weight: 200;" fill="rgb(50, 49, 63)" stroke="none" stroke-width="1px">300</text><text x="684" y="0" dx="0em" dy="0.95em" style="text-anchor: middle; visibility: inherit; font-family: &quot;Helvetica Neue&quot;, sans-serif; font-size: 12px; font-weight: 200;" fill="rgb(50, 49, 63)" stroke="none" stroke-width="1px">400</text><text x="820.8" y="0" dx="0em" dy="0.95em" style="text-anchor: middle; visibility: inherit; font-family: &quot;Helvetica Neue&quot;, sans-serif; font-size: 12px; font-weight: 200;" fill="rgb(50, 49, 63)" stroke="none" stroke-width="1px">500</text><text x="957.5999999999999" y="0" dx="0em" dy="0.95em" style="text-anchor: middle; visibility: inherit; font-family: &quot;Helvetica Neue&quot;, sans-serif; font-size: 12px; font-weight: 200;" fill="rgb(50, 49, 63)" stroke="none" stroke-width="1px">600</text><text x="1094.4" y="0" dx="0em" dy="0.95em" style="text-anchor: middle; visibility: inherit; font-family: &quot;Helvetica Neue&quot;, sans-serif; font-size: 12px; font-weight: 200;" fill="rgb(50, 49, 63)" stroke="none" stroke-width="1px">700</text><text x="1231.2" y="0" dx="0em" dy="0.95em" style="text-anchor: middle; visibility: inherit; font-family: &quot;Helvetica Neue&quot;, sans-serif; font-size: 12px; font-weight: 200;" fill="rgb(50, 49, 63)" stroke="none" stroke-width="1px">800</text><text x="1368" y="0" dx="0em" dy="0.95em" style="text-anchor: middle; visibility: hidden; font-family: &quot;Helvetica Neue&quot;, sans-serif; font-size: 12px; font-weight: 200;" fill="rgb(50, 49, 63)" stroke="none" stroke-width="1px">900</text></g><line x1="0" y1="0" x2="1368" y2="0" fill="rgb(0, 0, 0)" stroke="rgb(204, 204, 204)" stroke-width="1px"></line></g></g></g></g></svg>