<svg viewBox="0 0 1426 400" xmlns="http://www.w3.org/2000/svg"><g><g><g><g><g><line x1="58" y1="378" x2="53" y2="378" style="visibility: inherit;" fill="rgb(0, 0, 0)" stroke="rgb(204, 204, 204)" stroke-width="1px"></line><line x1="58" y1="348.9230769230769" x2="53" y2="348.9230769230769" style="visibility: inherit;" fill="rgb(0, 0, 0)" stroke="rgb(204, 204, 204)" stroke-width="1px"></line><line x1="58" y1="319.8461538461538" x2="53" y2="319.8461538461538" style="visibility: inherit;" fill="rgb(0, 0, 0)" stroke="rgb(204, 204, 204)" stroke-width="1px"></line><line x1="58" y1="290.7692307692308" x2="53" y2="290.7692307692308" style="visibility: inherit;" fill="rgb(0, 0, 0)" stroke="rgb(204, 204, 204)" stroke-width="1px"></line><line x1="58" y1="261.6923076923077" x2="53" y2="261.6923076923077" style="visibility: inherit;" fill="rgb(0, 0, 0)" stroke="rgb(204, 204, 204)" stroke-width="1px"></line><line x1="58" y1="232.61538461538464" x2="53" y2="232.61538461538464" style="visibility: inherit;" fill="rgb(0, 0, 0)" stroke="rgb(204, 204, 204)" stroke-width="1px"></line><line x1="58" y1="203.53846153846155" x2="53" y2="203.53846153846155" style="visibility: inherit;" fill="rgb(0, 0, 0)" stroke="rgb(204, 204, 204)" stroke-width="1px"></line><line x1="58" y1="174.46153846153848" x2="53" y2="174.46153846153848" style="visibility: inherit;" fill="rgb(0, 0, 0)" stroke="rgb(204, 204, 204)" stroke-width="1px"></line><line x1="58" y1="145.38461538461542" x2="53" y2="145.38461538461542" style="visibility: inherit;" fill="rgb(0, 0, 0)" stroke="rgb(204, 204, 204)" stroke-width="1px"></line><line x1="58" y1="116.30769230769232" x2="53" y2="116.30769230769232" style="visibility: inherit;" fill="rgb(0, 0, 0)" stroke="rgb(204, 204, 204)" stroke-width="1px"></line><line x1="58" y1="87.23076923076928" x2="53" y2="87.23076923076928" style="visibility: inherit;" fill="rgb(0, 0, 0)" stroke="rgb(204, 204, 204)" stroke-width="1px"></line><line x1="58" y1="58.15384615384613" x2="53" y2="58.15384615384613" style="visibility: inherit;" fill="rgb(0, 0, 0)" stroke="rgb(204, 204, 204)" stroke-width="1px"></line><line x1="58" y1="29.076923076923038" x2="53" y2="29.076923076923038" style="visibility: inherit;" fill="rgb(0, 0, 0)" stroke="rgb(204, 204, 204)" stroke-width="1px"></line><line x1="58" y1="0" x2="53" y2="0" style="visibility: inherit;" fill="rgb(0, 0, 0)" stroke="rgb(204, 204, 204)" stroke-width="1px"></line></g><g transform="translate(48, 0)"><text x="0" y="378" dx="0em" dy="0.3em" style="text-anchor: end; visibility: hidden; font-family: &quot;Helvetica Neue&quot;, sans-serif; font-size: 12px; font-weight: 200;" fill="rgb(50, 49, 63)" stroke="none" stroke-width="1px">-0.1</text><text x="0" y="348.9230769230769" dx="0em" dy="0.3em" style="text-anchor: end; visibility: inherit; font-family: &quot;Helvetica Neue&quot;, sans-serif; font-size: 12px; font-weight: 200;" fill="rgb(50, 49, 63)" stroke="none" stroke-width="1px">0</text><text x="0" y="319.8461538461538" dx="0em" dy="0.3em" style="text-anchor: end; visibility: inherit; font-family: &quot;Helvetica Neue&quot;, sans-serif; font-size: 12px; font-weight: 200;" fill="rgb(50, 49, 63)" stroke="none" stroke-width="1px">0.1</text><text x="0" y="290.7692307692308" dx="0em" dy="0.3em" style="text-anchor: end; visibility: inherit; font-family: &quot;Helvetica Neue&quot;, sans-serif; font-size: 12px; font-weight: 200;" fill="rgb(50, 49, 63)" stroke="none" stroke-width="1px">0.2</text><text x="0" y="261.6923076923077" dx="0em" dy="0.3em" style="text-anchor: end; visibility: inherit; font-family: &quot;Helvetica Neue&quot;, sans-serif; font-size: 12px; font-weight: 200;" fill="rgb(50, 49, 63)" stroke="none" stroke-width="1px">0.3</text><text x="0" y="232.61538461538464" dx="0em" dy="0.3em" style="text-anchor: end; visibility: inherit; font-family: &quot;Helvetica Neue&quot;, sans-serif; font-size: 12px; font-weight: 200;" fill="rgb(50, 49, 63)" stroke="none" stroke-width="1px">0.4</text><text x="0" y="203.53846153846155" dx="0em" dy="0.3em" style="text-anchor: end; visibility: inherit; font-family: &quot;Helvetica Neue&quot;, sans-serif; font-size: 12px; font-weight: 200;" fill="rgb(50, 49, 63)" stroke="none" stroke-width="1px">0.5</text><text x="0" y="174.46153846153848" dx="0em" dy="0.3em" style="text-anchor: end; visibility: inherit; font-family: &quot;Helvetica Neue&quot;, sans-serif; font-size: 12px; font-weight: 200;" fill="rgb(50, 49, 63)" stroke="none" stroke-width="1px">0.6</text><text x="0" y="145.38461538461542" dx="0em" dy="0.3em" style="text-anchor: end; visibility: inherit; font-family: &quot;Helvetica Neue&quot;, sans-serif; font-size: 12px; font-weight: 200;" fill="rgb(50, 49, 63)" stroke="none" stroke-width="1px">0.7</text><text x="0" y="116.30769230769232" dx="0em" dy="0.3em" style="text-anchor: end; visibility: inherit; font-family: &quot;Helvetica Neue&quot;, sans-serif; font-size: 12px; font-weight: 200;" fill="rgb(50, 49, 63)" stroke="none" stroke-width="1px">0.8</text><text x="0" y="87.23076923076928" dx="0em" dy="0.3em" style="text-anchor: end; visibility: inherit; font-family: &quot;Helvetica Neue&quot;, sans-serif; font-size: 12px; font-weight: 200;" fill="rgb(50, 49, 63)" stroke="none" stroke-width="1px">0.9</text><text x="0" y="58.15384615384613" dx="0em" dy="0.3em" style="text-anchor: end; visibility: inherit; font-family: &quot;Helvetica Neue&quot;, sans-serif; font-size: 12px; font-weight: 200;" fill="rgb(50, 49, 63)" stroke="none" stroke-width="1px">1</text><text x="0" y="29.076923076923038" dx="0em" dy="0.3em" style="text-anchor: end; visibility: inherit; font-family: &quot;Helvetica Neue&quot;, sans-serif; font-size: 12px; font-weight: 200;" fill="rgb(50, 49, 63)" stroke="none" stroke-width="1px">1.1</text><text x="0" y="0" dx="0em" dy="0.3em" style="text-anchor: end; visibility: hidden; font-family: &quot;Helvetica Neue&quot;, sans-serif; font-size: 12px; font-weight: 200;" fill="rgb(50, 49, 63)" stroke="none" stroke-width="1px">1.2</text></g><line x1="58" y1="0" x2="58" y2="378" fill="rgb(0, 0, 0)" stroke="rgb(204, 204, 204)" stroke-width="1px"></line></g></g><g transform="translate(58, 0)" clip-path="url(#clip_0)"><clipPath id="clip_0"><rect width="1368" height="378"></rect></clipPath><g><g><g><line x1="0" y1="0" x2="0" y2="378" fill="rgb(0, 0, 0)" stroke="rgb(60, 60, 60)" stroke-width="1px" opacity="0.25"></line><line x1="136.8" y1="0" x2="136.8" y2="378" fill="rgb(0, 0, 0)" stroke="rgb(60, 60, 60)" stroke-width="1px" opacity="0.25"></line><line x1="273.6" y1="0" x2="273.6" y2="378" fill="rgb(0, 0, 0)" stroke="rgb(60, 60, 60)" stroke-width="1px" opacity="0.25"></line><line x1="410.4" y1="0" x2="410.4" y2="378" fill="rgb(0, 0, 0)" stroke="rgb(60, 60, 60)" stroke-width="1px" opacity="0.25"></line><line x1="547.2" y1="0" x2="547.2" y2="378" fill="rgb(0, 0, 0)" stroke="rgb(60, 60, 60)" stroke-width="1px" opacity="0.25"></line><line x1="684" y1="0" x2="684" y2="378" fill="rgb(0, 0, 0)" stroke="rgb(60, 60, 60)" stroke-width="1px" opacity="0.25"></line><line x1="820.8" y1="0" x2="820.8" y2="378" fill="rgb(0, 0, 0)" stroke="rgb(60, 60, 60)" stroke-width="1px" opacity="0.25"></line><line x1="957.5999999999999" y1="0" x2="957.5999999999999" y2="378" fill="rgb(0, 0, 0)" stroke="rgb(60, 60, 60)" stroke-width="1px" opacity="0.25"></line><line x1="1094.4" y1="0" x2="1094.4" y2="378" fill="rgb(0, 0, 0)" stroke="rgb(60, 60, 60)" stroke-width="1px" opacity="0.25"></line><line x1="1231.2" y1="0" x2="1231.2" y2="378" fill="rgb(0, 0, 0)" stroke="rgb(60, 60, 60)" stroke-width="1px" opacity="0.25"></line><line x1="1368" y1="0" x2="1368" y2="378" fill="rgb(0, 0, 0)" stroke="rgb(60, 60, 60)" stroke-width="1px" opacity="0.25"></line></g><g><line x1="0" y1="378" x2="1368" y2="378" fill="rgb(0, 0, 0)" stroke="rgb(60, 60, 60)" stroke-width="1px" opacity="0.25"></line><line x1="0" y1="348.9230769230769" x2="1368" y2="348.9230769230769" fill="rgb(0, 0, 0)" stroke="rgb(60, 60, 60)" stroke-width="1px" opacity="0.25"></line><line x1="0" y1="319.8461538461538" x2="1368" y2="319.8461538461538" fill="rgb(0, 0, 0)" stroke="rgb(60, 60, 60)" stroke-width="1px" opacity="0.25"></line><line x1="0" y1="290.7692307692308" x2="1368" y2="290.7692307692308" fill="rgb(0, 0, 0)" stroke="rgb(60, 60, 60)" stroke-width="1px" opacity="0.25"></line><line x1="0" y1="261.6923076923077" x2="1368" y2="261.6923076923077" fill="rgb(0, 0, 0)" stroke="rgb(60, 60, 60)" stroke-width="1px" opacity="0.25"></line><line x1="0" y1="232.61538461538464" x2="1368" y2="232.61538461538464" fill="rgb(0, 0, 0)" stroke="rgb(60, 60, 60)" stroke-width="1px" opacity="0.25"></line><line x1="0" y1="203.53846153846155" x2="1368" y2="203.53846153846155" fill="rgb(0, 0, 0)" stroke="rgb(60, 60, 60)" stroke-width="1px" opacity="0.25"></line><line x1="0" y1="174.46153846153848" x2="1368" y2="174.46153846153848" fill="rgb(0, 0, 0)" stroke="rgb(60, 60, 60)" stroke-width="1px" opacity="0.25"></line><line x1="0" y1="145.38461538461542" x2="1368" y2="145.38461538461542" fill="rgb(0, 0, 0)" stroke="rgb(60, 60, 60)" stroke-width="1px" opacity="0.25"></line><line x1="0" y1="116.30769230769232" x2="1368" y2="116.30769230769232" fill="rgb(0, 0, 0)" stroke="rgb(60, 60, 60)" stroke-width="1px" opacity="0.25"></line><line x1="0" y1="87.23076923076928" x2="1368" y2="87.23076923076928" fill="rgb(0, 0, 0)" stroke="rgb(60, 60, 60)" stroke-width="1px" opacity="0.25"></line><line x1="0" y1="58.15384615384613" x2="1368" y2="58.15384615384613" fill="rgb(0, 0, 0)" stroke="rgb(60, 60, 60)" stroke-width="1px" opacity="0.25"></line><line x1="0" y1="29.076923076923038" x2="1368" y2="29.076923076923038" fill="rgb(0, 0, 0)" stroke="rgb(60, 60, 60)" stroke-width="1px" opacity="0.25"></line><line x1="0" y1="0" x2="1368" y2="0" fill="rgb(0, 0, 0)" stroke="rgb(60, 60, 60)" stroke-width="1px" opacity="0.25"></line></g></g></g><g><g><line x1="0" y1="348.9230769230769" x2="1368" y2="348.9230769230769" fill="rgb(0, 0, 0)" stroke="rgb(153, 153, 153)" stroke-width="1.5px"></line></g></g><g><g><line x1="136.8" y1="0" x2="136.8" y2="378" fill="rgb(0, 0, 0)" stroke="rgb(153, 153, 153)" stroke-width="1.5px"></line></g></g><g><g><g><g><g><path stroke="rgb(0, 119, 187)" stroke-width="2px" d="M136.8,79.31693579600403L138.168,80.53570887675653L139.536,81.04940643153344L140.904,79.90772538885005L142.272,79.23928199202322L143.64,78.80211590196853L145.008,79.8851217690817L146.376,83.07052404770377L147.744,84.1695841792037L149.112,73.75215369108554L150.48,76.25335493148685L151.848,76.67480230633538L153.216,80.47358749391236L154.584,80.1675343089691L155.952,81.14475895073036L157.32,81.34465557691482L158.68800000000002,80.5494678890363L160.056,83.44664817637522L161.42399999999998,82.82636144447008L162.792,84.13567845398131L164.16,85.65649204285387L165.528,87.34022804688777L166.896,84.0139408949081L168.264,86.33015906203877L169.632,86.88701258116959L171,85.29508370596005L172.368,85.20775748617643L173.736,86.79915750426312L175.104,87.39138652597723L176.472,88.74216556622395L177.84,91.85246211050827L179.208,92.08839795581173L180.57600000000002,94.33985250692098L181.94400000000002,93.18461325504086L183.312,95.45971451213353L184.68,96.98802818358689L186.048,97.95009135305668L187.41600000000003,103.93363663818087L188.78400000000002,107.05654246056451L190.15200000000002,108.9559430531881L191.52,105.57995396526184L192.88799999999998,107.32388193587173L194.25599999999997,109.5508190406004L195.624,105.37608362897805L196.992,105.53895030281922L198.35999999999999,110.19672306906233L199.72799999999998,113.11398761416478L201.09599999999998,112.85835044396498L202.464,107.93343318536591L203.832,110.1462990657597L205.2,112.37280059049579L206.56799999999998,107.72454430985505L207.936,108.58165144840933L209.304,110.04967921649688L210.672,107.81801398982242L212.04,105.8343844583693L213.408,108.18491476785192L214.776,110.57472979937347L216.144,114.8913375647652L217.512,113.35576336133124L218.88,111.7277496920729L220.24800000000002,112.02128354708577L221.616,113.8388553656078L222.984,112.71653046314617L224.352,113.0255994683784L225.72,117.45590848978514L227.08800000000002,113.23896068166312L228.45600000000002,115.95859172518351L229.824,111.48162264891721L231.192,116.0570601107924L232.56000000000003,119.06012067276345L233.92800000000003,115.90327285895688L235.296,117.36498992498525L236.664,124.64485747774083L238.03199999999998,125.38121291540008L239.39999999999998,119.74480217926555L240.76799999999997,121.28163948656373L242.136,128.72599806190286L243.504,123.4345463328223L244.87199999999999,122.15669956007642L246.23999999999998,128.18952603733888L247.608,122.37735590143964L248.976,129.43669014456253L250.344,127.02692754299409L251.712,128.92889565596332L253.07999999999998,123.51777497016536L254.448,126.36925743363497L255.816,126.72298942458104L257.184,124.0082459962685L258.552,124.21439238471322L259.92,118.39187141064173L261.288,115.11602479193937L262.656,119.32331369366386L264.024,118.83337597782787L265.392,117.74205351497574L266.76,120.75201090672198L268.128,122.00936284362425L269.49600000000004,127.05876344492296L270.86400000000003,126.44543478427178L272.232,126.18332426731041L273.6,125.80413544948067L274.968,118.84443664829416L276.336,121.41506298672527L277.704,121.69957519484842L279.072,119.51980482425722L280.44,117.78210812601844L281.808,124.504614941576L283.176,125.45729777353932L284.544,129.18958395205695L285.912,127.80548076779837L287.28,123.70045561807225L288.64799999999997,128.03619169905522L290.016,125.36894261483579L291.384,127.28381740101253L292.752,126.41433030624802L294.12,120.9335656795937L295.488,123.51150208364317L296.856,126.76232957906677L298.224,125.04424154615086L299.592,125.8717644224368L300.96,124.0550486607159L302.328,125.02754253202434L303.696,129.76672013479873L305.064,135.32142898780535L306.432,132.676169955479L307.8,130.29012262494336L309.168,126.94165693783881L310.536,127.36432466866125L311.904,126.57698590274052L313.272,129.1495907156743L314.64,127.56603032092869L316.00800000000004,126.82305734461457L317.37600000000003,128.8940822153719L318.744,128.4442156567143L320.112,131.2505762053525L321.47999999999996,131.4327275292183L322.84799999999996,123.51438131868548L324.216,127.96370175903408L325.584,126.05281124689478L326.952,127.2769697429207L328.32,127.30506606000694L329.688,130.55978654727312L331.056,130.4149963717115L332.424,131.18546883778333L333.792,131.94830299832057L335.15999999999997,132.03282816704842L336.528,131.31753210354657L337.896,128.357930420763L339.264,133.31464608568626L340.632,126.45309656618323L342,127.33435920149444L343.368,126.68562834561544L344.736,128.0166774852041L346.104,126.5370864988223L347.472,123.34711119565193L348.84000000000003,128.40868312094156L350.208,125.03183564665503L351.576,126.14295106603257L352.944,130.15778568302497L354.312,128.43617700333493L355.68,126.3001435171349L357.048,126.48813958177283L358.416,123.4449470968068L359.784,129.05772681650413L361.15200000000004,125.24870553705307L362.52000000000004,125.00074132232103L363.88800000000003,125.00314628863657L365.25600000000003,125.18660842876994L366.624,127.14574415753336L367.992,132.10336412581603L369.36,135.7688269324974L370.728,130.48157530290527L372.096,129.4595197661172L373.46400000000006,135.32313489962021L374.83200000000005,132.0689447552558L376.20000000000005,135.17943475887293L377.56800000000004,135.44811825073066L378.93600000000004,131.04366720892463L380.30400000000003,136.89777521871932L381.672,131.67356296483567L383.04,129.90245312789338L384.408,130.88068815305155L385.77599999999995,134.53635325021298L387.14399999999995,137.1512192826215L388.51199999999994,135.30791050117594L389.87999999999994,132.94555212029036L391.248,130.54493136983052L392.616,133.8505823544136L393.984,131.46223403448843L395.352,126.50455876985637L396.71999999999997,133.60118134498265L398.08799999999997,125.40282172965809L399.45599999999996,123.6954638880498L400.82399999999996,130.88393588334824L402.19199999999995,130.7710612540596L403.56,133.87863355337197L404.928,132.1237852715354L406.296,138.40383041573358L407.664,140.13702249377798L409.032,132.61357264796027L410.4,142.1474290196844L411.768,133.46791701299287L413.13599999999997,130.90783433830293L414.50399999999996,130.06625271820207L415.872,127.65046305142062L417.24,129.91394164510362L418.608,125.6324157964822L419.976,128.73102345132494L421.344,127.88711755038574L422.712,131.297534344424L424.08,131.55779073475782L425.448,130.29730641470817L426.816,127.88703732818098L428.184,129.86895192342837L429.552,129.23013776853085L430.92,128.03647024727198L432.288,126.05987578486128L433.656,125.21109407319994L435.024,124.33369656309108L436.392,135.38754775100492L437.76,135.34905311953838L439.128,141.4727980134091L440.49600000000004,143.61116816210574L441.86400000000003,144.56311586678106L443.232,144.23429624178823L444.6,138.75426159968956L445.968,138.99273032900132L447.336,146.58577205512782L448.704,140.42054653491437L450.072,137.1095399069035L451.44,131.35824644792154L452.80800000000005,136.4961736747691L454.17600000000004,139.77326125336563L455.54400000000004,140.71799920138366L456.91200000000003,134.74549721927661L458.28000000000003,131.90076948599904L459.648,131.07013575946345L461.016,135.29034020776737L462.384,132.59488867501912L463.752,134.57611492603854L465.12000000000006,132.2773840845951L466.48800000000006,137.27434830976117L467.85600000000005,132.4859598537884L469.22400000000005,135.8163097491073L470.592,127.06942729433086L471.96,127.35490629472923L473.328,131.54621329957786L474.69599999999997,132.38048841206341L476.06399999999996,133.1129240941201L477.43199999999996,130.8849271525123L478.79999999999995,138.46816317603822L480.16799999999995,146.81779635720798L481.53599999999994,136.2895136934306L482.904,135.83516107432297L484.272,131.15400606284658L485.64,137.29634235665048L487.008,137.90255894053115L488.376,133.31661002968175L489.74399999999997,144.67843035860588L491.11199999999997,155.6420183016926L492.47999999999996,142.58471549585647L493.84799999999996,148.58955088828958L495.216,139.1675378590705L496.584,139.58517095046992L497.952,144.86690708846808L499.32,138.224418621367L500.688,141.90918633728649L502.056,144.0118101771348L503.424,142.8841195673381L504.792,135.25067965167418L506.15999999999997,138.54242445125465L507.528,136.41670221467464L508.896,128.86055410409682L510.264,130.29902924508372L511.632,129.50067648811375L513,135.46312991830115L514.368,133.2733689714768L515.736,133.47644272676283L517.104,131.26602783845263L518.472,132.64734857797774L519.84,135.06316563705386L521.208,137.27931869023445L522.576,133.86650878645563L523.944,141.81465293991957L525.312,139.5306643900363L526.6800000000001,142.01982478060242L528.048,145.6425070583146L529.416,141.68169082151553L530.784,152.0368576307971L532.152,147.173146219338L533.52,142.8986076477264L534.888,140.11444382447567L536.256,142.4306476425764L537.624,137.21348897517314L538.9920000000001,130.98098582061792L540.36,132.77310971224523L541.7280000000001,134.3064614412669L543.096,134.68069229679517L544.464,139.75672497567933L545.832,140.3961297589202L547.2,137.60788633149204L548.568,147.29058992971704L549.936,140.28354948365987L551.3040000000001,141.70028292071632L552.672,141.02229376119536L554.0400000000001,139.56876530888817L555.408,135.03964787921578L556.776,131.9690785520886L558.144,138.89084583372792L559.512,135.94126982875144L560.88,139.52590039511696L562.2479999999999,139.37769549114077L563.616,146.81781875412895L564.9839999999999,146.43439165407696L566.352,146.73494038008985L567.72,147.16397228850923L569.088,146.33874623737978L570.456,143.63768895676924L571.824,142.18294187084783L573.192,141.06094033536877L574.56,142.60698528804613L575.928,141.57950768853019L577.2959999999999,138.58125022457298L578.664,136.03869728504756L580.032,133.7556882378545L581.4,133.69883881258107L582.768,134.69446567627685L584.136,135.40403702952662L585.504,132.51966685161068L586.872,136.18252009399393L588.24,140.01323978590025L589.608,145.2462730179987L590.976,144.54556215827236L592.344,140.9581298100579L593.712,149.8114447890757L595.08,149.0250639946988L596.448,146.57104575272933L597.816,143.33605210197658L599.184,148.09935899274396L600.552,149.87970318063364L601.92,150.22017967592544L603.288,151.25048427333343L604.656,145.5858309246709L606.024,141.49112897519393L607.392,146.4395330090952L608.76,145.08323559859727L610.128,143.54820900242663L611.496,144.04822639046026L612.864,136.95490082063714L614.232,138.28014008057104L615.6,141.52555436266198L616.968,137.39486316481256L618.336,140.67687375697142L619.7040000000001,140.6863793077764L621.072,143.96157823551187L622.44,148.11080966414414L623.808,138.88757915968077L625.176,144.5709321020965L626.544,143.64957971273026L627.912,141.49224608754932L629.28,140.81601503675057L630.648,138.85470444670247L632.0160000000001,145.99339161251237L633.384,138.92575153256624L634.7520000000001,138.683821189902L636.12,144.91226603482883L637.488,142.7874092104946L638.856,142.00845850595093L640.224,139.3258075870676L641.592,135.53535629624972L642.9599999999999,141.41020728308104L644.328,142.47495450196624L645.6959999999999,141.28789193494205L647.064,137.75475949315845L648.432,136.45985885651848L649.8,139.68170389693302L651.168,139.72030314624178L652.536,137.61223850372124L653.904,136.93674359614803L655.2719999999999,144.77254854011397L656.64,148.1988367148465L658.0079999999999,137.5332685966076L659.376,141.94935011388776L660.744,135.38215076088215L662.112,138.85738574590633L663.48,136.57824024083183L664.848,141.88878885727L666.216,142.3355549654921L667.584,135.94611271280635L668.952,132.4101141309563L670.3199999999999,132.6880191665691L671.688,129.38771174560793L673.056,143.28961412023605L674.424,140.98784788885683L675.792,139.98061513062007L677.16,138.0620438965577L678.528,136.51221430696634L679.896,136.14196169246554L681.264,133.15332131491314L682.632,137.24854288824739L684,140.24889792949807L685.368,147.21850086237885L686.736,154.99748421669767L688.104,149.26931048012236L689.472,146.81554956779755L690.84,150.47440871371512L692.208,146.69809399479072L693.576,156.11769123427447L694.944,148.20829422207103L696.312,154.5878700779532L697.6800000000001,147.6584190917314L699.048,145.22786464461873L700.416,148.64580975321604L701.784,148.91495752633523L703.152,146.1384339937393L704.52,141.6852821566266L705.888,143.5900748323882L707.256,144.51257387293902L708.624,157.27097238825644L709.9920000000001,147.7636414392405L711.36,144.1702034267415L712.7280000000001,147.8076615833511L714.096,145.25401955449814L715.464,143.27850232530332L716.832,142.3472950614934L718.2,134.85140566297122L719.568,139.03813261228373L720.936,139.59663095093163L722.3040000000001,131.18349645239255L723.672,135.58946466543483L725.0400000000001,136.37229898951452L726.408,138.64079062570335L727.7760000000001,141.57043516708322L729.144,143.65274508409672L730.5120000000001,147.39545938554576L731.88,148.39618117414122L733.248,148.4893925118578L734.6160000000001,145.43459134407104L735.984,147.55216975688677L737.3520000000001,145.77309170128595L738.72,146.95673161648878L740.0880000000001,148.53786366019858L741.456,150.31997240637116L742.8240000000001,149.15720828941548L744.192,142.0081504929176L745.5600000000001,139.95579202416056L746.9280000000001,137.4636363693167L748.296,140.37653979248802L749.6640000000001,139.77109355176L751.032,137.43984069080474L752.4000000000001,137.01357708411362L753.768,136.6266841533002L755.1360000000001,137.41346331444532L756.504,139.5072178199167L757.8720000000001,140.1923451992437L759.2400000000001,147.993464702108L760.6080000000001,145.35142849402249L761.9760000000001,139.06270715856374L763.344,140.3587731381699L764.7120000000001,138.92975623326018L766.08,143.94080021652564L767.4480000000001,152.42701720583844L768.816,148.7124474562358L770.184,147.32661182478287L771.5519999999999,141.62505803490507L772.92,142.4956212308786L774.2879999999999,151.4367889930109L775.656,158.95941081781064L777.0239999999999,150.37261655000788L778.3919999999999,154.54527841846902L779.7599999999999,146.6109335481799L781.1279999999999,149.0660525247491L782.496,147.0577717648354L783.8639999999999,143.3710313996136L785.232,147.16627805730923L786.5999999999999,149.7660982723034L787.968,144.85933268939056L789.3359999999999,137.83410234055597L790.704,138.60853940726327L792.0719999999999,145.1175882175579L793.4399999999999,150.08200215016507L794.808,152.2336266000872L796.1759999999999,154.23219936938224L797.544,154.0949621824415L798.9119999999999,155.16884639521697L800.28,150.38357642732373L801.6479999999999,146.18073381861817L803.016,140.4341084940846L804.3839999999999,145.03946900270077L805.752,148.60223580448536L807.12,143.4557949495468L808.4879999999999,142.40411727840166L809.856,146.26797040782893L811.2239999999999,149.1143291868947L812.592,153.70359455721365L813.9599999999999,154.4452028830685L815.328,154.87070147843494L816.6959999999999,152.01570941139525L818.064,150.89178074996306L819.432,145.76757640508882L820.8,151.09684016396673L822.168,148.6397142058019L823.536,148.8922289490253L824.904,153.1596613096923L826.2719999999999,149.06339524608617L827.64,156.19391221426218L829.0079999999999,154.6572246120938L830.376,153.60648285409755L831.744,147.591422157926L833.112,147.5567440201115L834.48,146.42373878460907L835.848,141.65196384243012L837.216,139.39141446456264L838.584,142.07346857848736L839.952,146.46056605321564L841.3199999999999,138.50586198488165L842.688,143.30236275349705L844.056,145.0920789680162L845.424,144.84690063979363L846.792,136.91702565010686L848.16,140.72876043958476" style="fill: none;" fill="none"></path></g></g></g></g><g opacity="0.2"><g><g><g><path stroke="rgb(0, 119, 187)" stroke-width="2px" d="M136.8,79.31693579600403L138.168,81.26697272520795L139.536,81.54255608411933L140.904,78.56510848265424L142.272,78.36656229312598L143.64,78.1973578196305L145.008,81.4338374871474L146.376,87.71487114979675L147.744,85.79048439172595L149.112,58.28348350524902L150.48,79.98247108092676L151.848,77.30467987060547L153.216,86.15936158253595L154.584,79.70905412160431L155.952,82.60944722248956L157.32,81.64435953360334L158.68800000000002,79.35702285399805L160.056,87.79168301362262L161.42399999999998,81.89602584105268L162.792,86.09953429148743L164.16,87.9376290211311L165.528,89.86577664888824L166.896,79.02457583867584L168.264,89.80445887492255L169.632,87.72228890198932L171,82.90719718199506L172.368,85.07676837994501L173.736,89.1862550882193L175.104,88.2797295130216L176.472,90.76833338003894L177.84,96.51790589552661L179.208,92.44230167682355L180.57600000000002,97.71703406480646L181.94400000000002,91.45175445996796L183.312,98.87236629999603L184.68,99.28049865135779L186.048,99.39318609237671L187.41600000000003,112.90895451032196L188.78400000000002,111.74090117674609L190.15200000000002,111.80504393577576L191.52,100.5159703401419L192.88799999999998,109.93977388968835L194.25599999999997,112.89122469608606L195.624,99.11398051335266L196.992,105.78325031353882L198.35999999999999,117.18338221770068L199.72799999999998,117.48988443154559L201.09599999999998,112.47489468867963L202.464,100.5460572976333L203.832,113.4655978863056L205.2,115.71255287757288L206.56799999999998,100.75215988892779L207.936,109.86731215623712L209.304,112.2517208686242L210.672,104.47051614981433L212.04,102.85894016119153L213.408,111.71071023207446L214.776,114.15945234665503L216.144,121.36624921285187L217.512,111.05240205618054L218.88,109.28572918818548L220.24800000000002,112.4615843296051L221.616,116.56521309339081L222.984,111.03304310945367L224.352,113.4892029762268L225.72,124.1013720218952L227.08800000000002,106.9135389694801L228.45600000000002,120.03803829046399L229.824,104.76616903451776L231.192,122.92021630360534L232.56000000000003,123.56471151572009L233.92800000000003,111.168001138247L235.296,119.55756552402795L236.664,135.5646588068742L238.03199999999998,126.48574607188885L239.39999999999998,111.29018607506384L240.76799999999997,123.58689544751098L242.136,139.8925359249115L243.504,115.49736873920148L244.87199999999999,120.23992940095758L246.23999999999998,137.23876575323254L247.608,113.65910069759076L248.976,140.02569150924683L250.344,123.41228364064148L251.712,131.78184782541715L253.07999999999998,115.4010939414685L254.448,130.64648112883938L255.816,127.25358741100018L257.184,119.93613085379968L258.552,124.52361196738025L259.92,109.65808994953454L261.288,110.20225486388574L262.656,125.63424704625061L264.024,118.09846940407385L265.392,116.10506982069751L266.76,125.26694699434137L268.128,123.89539074897766L269.49600000000004,134.632864346871L270.86400000000003,125.52544179329507L272.232,125.79015849186828L273.6,125.23535222273608L274.968,108.40488844651446L276.336,125.27100249437188L277.704,122.12634350703314L279.072,116.25014926837042L280.44,115.17556307866028L281.808,134.58837516491232L283.176,126.88632202148438L284.544,134.78801321983337L285.912,125.72932599141052L287.28,117.5429178934831L288.64799999999997,134.53979582052966L290.016,121.36806898850665L291.384,130.1561295802777L292.752,125.11009966410123L294.12,112.7124187396123L295.488,127.37840668971722L296.856,131.63857082220227L298.224,122.46710949677689L299.592,127.11304873686572L300.96,121.32997501813446L302.328,126.48628333898694L303.696,136.8754865389604L305.064,143.65349226731522L306.432,128.70828140698947L307.8,126.71105162913983L309.168,121.918958407182L310.536,127.99832626489496L311.904,125.39597775385931L313.272,133.00849793507507L314.64,125.19068972881024L316.00800000000004,125.70859788014343L317.37600000000003,132.00061952150784L318.744,127.76941581872796L320.112,135.46011702830975L321.47999999999996,131.70595451501703L322.84799999999996,111.63686200288629L324.216,134.63768241955688L325.584,123.18647547868585L326.952,129.11320748695962L328.32,127.34721053563632L329.688,135.44186727817242L331.056,130.19781110836914L332.424,132.34117753689108L333.792,133.09255423912637L335.15999999999997,132.1596159201402L336.528,130.24458800829373L337.896,123.91852789658768L339.264,140.74971958307123L340.632,116.16077228692865L342,128.6562531544612L343.368,125.71253206179694L344.736,130.01325119458713L346.104,124.31770001924954L347.472,118.56214824089636L348.84000000000003,136.00104100887594L350.208,119.96656443522528L351.576,127.80962419509888L352.944,136.18003760851346L354.312,125.85376398379987L355.68,123.09609328783475L357.048,126.77013367872974L358.416,118.88015836935779L359.784,137.47689639605008L361.15200000000004,119.53517361787652L362.52000000000004,124.62879500022305L363.88800000000003,125.0067537381099L365.25600000000003,125.46180163897L366.624,130.08444775067844L367.992,139.53979407824002L369.36,141.26702114251947L370.728,122.550697858517L372.096,127.92643646093518L373.46400000000006,144.11855759987466L374.83200000000005,127.18765953870923L376.20000000000005,139.8451697642987L377.56800000000004,135.85114348851718L378.93600000000004,124.4369906462156L380.30400000000003,145.67893723341138L381.672,123.83724458401022L383.04,127.24578837247998L384.408,132.34804069078885L385.77599999999995,140.01985089595502L387.14399999999995,141.07351833123428L388.51199999999994,132.5429473290077L389.87999999999994,129.40201454896194L391.248,126.94400024414062L392.616,138.80905883128827L393.984,127.87971155460065L395.352,119.06804587290839L396.71999999999997,144.24611520767212L398.08799999999997,113.10528230667114L399.45599999999996,121.13442712563739L400.82399999999996,141.66664387629584L402.19199999999995,130.60174931012668L403.56,138.53999200234048L404.928,129.49151284878073L406.296,147.8238981320308L407.664,142.73681061084454L409.032,121.3283978792337L410.4,156.4482135772705L411.768,120.44864900295556L413.13599999999997,127.06771032626813L414.50399999999996,128.80388028805075L415.872,124.02677855124844L417.24,133.3091595356281L418.608,119.21012702355017L419.976,133.37893493358908L421.344,126.62125869897699L422.712,136.41315953548138L424.08,131.9481753202585L425.448,128.40657993463373L426.816,124.2716336983901L428.184,132.84182381629944L429.552,128.27191653618448L430.92,126.2459689653837L432.288,123.09498409124524L433.656,123.937921505708L435.024,123.01760029792786L436.392,151.96832453287564L437.76,135.29131117233865L439.128,150.6584153542152L440.49600000000004,146.81872338515063L441.86400000000003,145.9910374237941L443.232,143.74106680429898L444.6,130.53420963654153L445.968,139.35043342296896L447.336,157.97533464431763L448.704,131.1727082545941L450.072,132.1430299648872L451.44,122.73130625944873L452.80800000000005,144.2030645150405L454.17600000000004,144.68889262126044L455.54400000000004,142.13510612341076L456.91200000000003,125.78674424611606L458.28000000000003,127.63367788608258L459.648,129.82418516966015L461.016,141.6206468802232L462.384,128.55171137589676L463.752,137.54795430256775L465.12000000000006,128.82928782242996L466.48800000000006,144.76979464751025L467.85600000000005,125.30337716982916L469.22400000000005,140.81183459208563L470.592,113.9491036121662L471.96,127.78312479532681L473.328,137.83317380685074L474.69599999999997,133.63190108079178L476.06399999999996,134.21157761720514L477.43199999999996,127.54293174010058L478.79999999999995,149.84301721132718L480.16799999999995,159.3422461289626L481.53599999999994,120.49708969776452L482.904,135.15363214566162L484.272,124.13227354563199L485.64,146.50984679735623L487.008,138.81188381635226L488.376,126.43768666340759L489.74399999999997,161.72116085199212L491.11199999999997,172.0874002163227L492.47999999999996,122.99876128710233L493.84799999999996,157.5968039769393L495.216,125.03451831524191L496.584,140.21162058756903L497.952,152.78951129546536L499.32,128.26068592071533L500.688,147.4363379111657L502.056,147.16574593690729L503.424,141.1925836526431L504.792,123.80051977817831L506.15999999999997,143.4800416506254L507.528,133.22811885980462L508.896,117.5263319382301L510.264,132.45674195656412L511.632,128.3031473526588L513,144.4068100635822L514.368,129.98872755124023L515.736,133.78105335969192L517.104,127.95040550598733L518.472,134.7193296872653L519.84,138.68689122566812L521.208,140.6035482700055L522.576,128.74729393078735L523.944,153.73686917011557L525.312,136.1046815652114L526.6800000000001,145.75356536645157L528.048,151.07653047488287L529.416,135.7404664663168L530.784,167.5696078447195L532.152,139.87757910214938L533.52,136.48679979030905L534.888,135.9381980895996L536.256,145.9049533697275L537.624,129.38775097406827L538.9920000000001,121.63223108878503L540.36,135.46129554968616L541.7280000000001,136.60648903479947L543.096,135.24203858008755L544.464,147.37077399400567L545.832,141.35523693378155L547.2,133.42552119034988L548.568,161.81464532705456L549.936,129.77298881457403L551.3040000000001,143.825383076301L552.672,140.005310021914L554.0400000000001,137.38847263042746L555.408,128.24597173470718L556.776,127.36322456139786L558.144,149.27349675618686L559.512,131.51690582128674L560.88,144.9028462446653L562.2479999999999,139.15538813517645L563.616,157.97800364861124L564.9839999999999,145.85925100399896L566.352,147.18576346910916L567.72,147.8075201511383L569.088,145.10090716068564L570.456,139.58610303585348L571.824,140.00082124196567L573.192,139.37793803215027L574.56,144.92605271706216L575.928,140.0382912892562L577.2959999999999,134.08386402863724L578.664,132.22486787575943L580.032,130.33117466706497L581.4,133.6135646746709L582.768,136.18790597182056L584.136,136.4683940594013L585.504,128.19311158473676L586.872,141.67679995756885L588.24,145.75931932375983L589.608,153.0958228661464L590.976,143.49449586868286L592.344,135.5769812877362L593.712,163.09141725760242L595.08,147.84549280313348L596.448,142.8900183897752L597.816,138.48356162584744L599.184,155.244319328895L600.552,152.55021946246808L601.92,150.7308944188632L603.288,152.79594116944534L604.656,137.08885090167706L606.024,135.34907605097845L607.392,153.8621390599471L608.76,143.04878948285028L610.128,141.24566910817077L611.496,144.7982524725107L612.864,126.3149124659025L614.232,140.26799897047192L615.6,146.39367578579828L616.968,131.19882636803848L618.336,145.5998896452097L619.7040000000001,140.70063763398392L621.072,148.87437662711514L622.44,154.33465680709256L623.808,125.05273340298584L625.176,153.0959615157201L626.544,142.2675511286809L627.912,138.25624564977795L629.28,139.80166846055252L630.648,135.91273856163025L632.0160000000001,156.7014223612272L633.384,128.32429141264697L634.7520000000001,138.3209256759057L636.12,154.25493330221911L637.488,139.6001239739932L638.856,140.8400324491354L640.224,135.3018312087426L641.592,129.84967936002292L642.9599999999999,150.22248376332797L644.328,144.07207533029413L645.6959999999999,139.5072980844058L647.064,132.45506083048306L648.432,134.5175079015585L649.8,144.51447145755475L651.168,139.77820202020501L652.536,134.45014153994046L653.904,135.9235012347882L655.2719999999999,156.5262559560629L656.64,153.33826897694513L658.0079999999999,121.53491641924933L659.376,148.57347238980807L660.744,125.53135173137372L662.112,144.07023822344266L663.48,133.15952198322003L664.848,149.85461178192728L666.216,143.00570412782525L667.584,126.3619493337778L668.952,127.10611625818109L670.3199999999999,133.10487671998834L671.688,124.43725061416626L673.056,164.14246768217822L674.424,137.535198541788L675.792,138.46976599326504L677.16,135.18418704546414L678.528,134.18746992257928L679.896,135.5865827707144L681.264,128.67036074858447L682.632,143.39137524824878L684,144.7494304913741L685.368,157.67290526169998L686.736,166.665959248176L688.104,140.6770498752594L689.472,143.1349081993103L690.84,155.96269743259137L692.208,141.03362191640414L693.576,170.24708709350003L694.944,136.34419870376587L696.312,164.15723386177652L697.6800000000001,137.26424261239862L699.048,141.58203297394974L700.416,153.77272741611188L701.784,149.31867918601407L703.152,141.97364869484537L704.52,135.00555440095758L705.888,146.4472638460306L707.256,145.89632243376514L708.624,176.40857016123257L709.9920000000001,133.50264501571655L711.36,138.78004640799304L712.7280000000001,153.2638488182655L714.096,141.42355651121875L715.464,140.31522648151105L716.832,140.95048416577853L718.2,123.60757156518792L719.568,145.31822303625256L720.936,140.4343784589034L722.3040000000001,118.56379470458398L723.672,142.1984169849983L725.0400000000001,137.5465504756341L726.408,142.04352807998657L727.7760000000001,145.96490197915298L729.144,146.77620995961703L730.5120000000001,153.00953083771927L731.88,149.89726385703457L733.248,148.62920951843262L734.6160000000001,140.8523895923908L735.984,150.72853737611038L737.3520000000001,143.10447461788473L738.72,148.73219148929303L740.0880000000001,150.9095617257632L741.456,152.9931355256301L742.8240000000001,147.413062113982L744.192,131.28456379817084L745.5600000000001,136.877254321025L746.9280000000001,133.72540288705093L748.296,144.74589492724493L749.6640000000001,138.862924190668L751.032,133.94296139937182L752.4000000000001,136.37418167407697L753.768,136.04634475708008L755.1360000000001,138.59363205616293L756.504,142.64784957812384L757.8720000000001,141.22003626823425L759.2400000000001,159.69514395640448L760.6080000000001,141.3883741818942L761.9760000000001,129.62962515537558L763.344,142.30287210757916L764.7120000000001,136.7862308758956L766.08,151.4573661914239L767.4480000000001,165.15634268980762L768.816,143.14059283183173L770.184,145.24785837760342L771.5519999999999,133.0727273500883L772.92,143.801466024839L774.2879999999999,164.84854063620938L775.656,170.2433435550103L777.0239999999999,137.4924251483037L778.3919999999999,160.8042712211609L779.7599999999999,134.70941624274624L781.1279999999999,152.74873098960293L782.496,144.0453506249648L783.8639999999999,137.84092085178082L785.232,152.8591480438526L786.5999999999999,153.66582859479465L787.968,137.49918431502124L789.3359999999999,127.2962568173042L790.704,139.77019500732422L792.0719999999999,154.88116143299982L793.4399999999999,157.5286230490758L794.808,155.46106327497043L796.1759999999999,157.23005852332486L797.544,153.88910640203036L798.9119999999999,156.77967271438015L800.28,143.20567147548383L801.6479999999999,139.87646990555984L803.016,131.81417050728433L804.3839999999999,151.947509765625L805.752,153.94638600716226L807.12,135.73613366713894L808.4879999999999,140.82660077168396L809.856,152.06375010196982L811.2239999999999,153.38386735549344L812.592,160.58749261269205L813.9599999999999,155.55761537185086L815.328,155.50894937148465L816.6959999999999,147.73322131083563L818.064,149.20588775781488L819.432,138.0812698877775L820.8,159.09073580228366L822.168,144.9540252685547L823.536,149.2710010638604L824.904,159.56080985069275L826.2719999999999,142.91899615067703L827.64,166.8896876665262L829.0079999999999,152.35219320884121L830.376,152.0303702171032L831.744,138.5688311136686L833.112,147.5047268133897L834.48,144.7242309313554L835.848,134.49430142916165L837.216,136.00059039776144L838.584,146.0965497493744L839.952,153.0412122653081L841.3199999999999,126.57380588238058L842.688,150.49711390642022L844.056,147.77665328979492L845.424,144.47913314745978L846.792,125.02221316557666L848.16,146.4463626238016" style="fill: none;" fill="none"></path></g></g></g></g></g></g><g transform="translate(58, 378)" clip-path="url(#clip_1)"><clipPath id="clip_1"><rect width="1368" height="22"></rect></clipPath><g><g><line x1="0" y1="0" x2="0" y2="5" style="visibility: inherit;" fill="rgb(0, 0, 0)" stroke="rgb(204, 204, 204)" stroke-width="1px"></line><line x1="136.8" y1="0" x2="136.8" y2="5" style="visibility: inherit;" fill="rgb(0, 0, 0)" stroke="rgb(204, 204, 204)" stroke-width="1px"></line><line x1="273.6" y1="0" x2="273.6" y2="5" style="visibility: inherit;" fill="rgb(0, 0, 0)" stroke="rgb(204, 204, 204)" stroke-width="1px"></line><line x1="410.4" y1="0" x2="410.4" y2="5" style="visibility: inherit;" fill="rgb(0, 0, 0)" stroke="rgb(204, 204, 204)" stroke-width="1px"></line><line x1="547.2" y1="0" x2="547.2" y2="5" style="visibility: inherit;" fill="rgb(0, 0, 0)" stroke="rgb(204, 204, 204)" stroke-width="1px"></line><line x1="684" y1="0" x2="684" y2="5" style="visibility: inherit;" fill="rgb(0, 0, 0)" stroke="rgb(204, 204, 204)" stroke-width="1px"></line><line x1="820.8" y1="0" x2="820.8" y2="5" style="visibility: inherit;" fill="rgb(0, 0, 0)" stroke="rgb(204, 204, 204)" stroke-width="1px"></line><line x1="957.5999999999999" y1="0" x2="957.5999999999999" y2="5" style="visibility: inherit;" fill="rgb(0, 0, 0)" stroke="rgb(204, 204, 204)" stroke-width="1px"></line><line x1="1094.4" y1="0" x2="1094.4" y2="5" style="visibility: inherit;" fill="rgb(0, 0, 0)" stroke="rgb(204, 204, 204)" stroke-width="1px"></line><line x1="1231.2" y1="0" x2="1231.2" y2="5" style="visibility: inherit;" fill="rgb(0, 0, 0)" stroke="rgb(204, 204, 204)" stroke-width="1px"></line><line x1="1368" y1="0" x2="1368" y2="5" style="visibility: inherit;" fill="rgb(0, 0, 0)" stroke="rgb(204, 204, 204)" stroke-width="1px"></line></g><g transform="translate(0, 8)"><text x="0" y="0" dx="0em" dy="0.95em" style="text-anchor: middle; visibility: hidden; font-family: &quot;Helvetica Neue&quot;, sans-serif; font-size: 12px; font-weight: 200;" fill="rgb(50, 49, 63)" stroke="none" stroke-width="1px">-100</text><text x="136.8" y="0" dx="0em" dy="0.95em" style="text-anchor: middle; visibility: inherit; font-family: &quot;Helvetica Neue&quot;, sans-serif; font-size: 12px; font-weight: 200;" fill="rgb(50, 49, 63)" stroke="none" stroke-width="1px">0</text><text x="273.6" y="0" dx="0em" dy="0.95em" style="text-anchor: middle; visibility: inherit; font-family: &quot;Helvetica Neue&quot;, sans-serif; font-size: 12px; font-weight: 200;" fill="rgb(50, 49, 63)" stroke="none" stroke-width="1px">100</text><text x="410.4" y="0" dx="0em" dy="0.95em" style="text-anchor: middle; visibility: inherit; font-family: &quot;Helvetica Neue&quot;, sans-serif; font-size: 12px; font-weight: 200;" fill="rgb(50, 49, 63)" stroke="none" stroke-width="1px">200</text><text x="547.2" y="0" dx="0em" dy="0.95em" style="text-anchor: middle; visibility: inherit; font-family: &quot;Helvetica Neue&quot;, sans-serif; font-size: 12px; font-weight: 200;" fill="rgb(50, 49, 63)" stroke="none" stroke-width="1px">300</text><text x="684" y="0" dx="0em" dy="0.95em" style="text-anchor: middle; visibility: inherit; font-family: &quot;Helvetica Neue&quot;, sans-serif; font-size: 12px; font-weight: 200;" fill="rgb(50, 49, 63)" stroke="none" stroke-width="1px">400</text><text x="820.8" y="0" dx="0em" dy="0.95em" style="text-anchor: middle; visibility: inherit; font-family: &quot;Helvetica Neue&quot;, sans-serif; font-size: 12px; font-weight: 200;" fill="rgb(50, 49, 63)" stroke="none" stroke-width="1px">500</text><text x="957.5999999999999" y="0" dx="0em" dy="0.95em" style="text-anchor: middle; visibility: inherit; font-family: &quot;Helvetica Neue&quot;, sans-serif; font-size: 12px; font-weight: 200;" fill="rgb(50, 49, 63)" stroke="none" stroke-width="1px">600</text><text x="1094.4" y="0" dx="0em" dy="0.95em" style="text-anchor: middle; visibility: inherit; font-family: &quot;Helvetica Neue&quot;, sans-serif; font-size: 12px; font-weight: 200;" fill="rgb(50, 49, 63)" stroke="none" stroke-width="1px">700</text><text x="1231.2" y="0" dx="0em" dy="0.95em" style="text-anchor: middle; visibility: inherit; font-family: &quot;Helvetica Neue&quot;, sans-serif; font-size: 12px; font-weight: 200;" fill="rgb(50, 49, 63)" stroke="none" stroke-width="1px">800</text><text x="1368" y="0" dx="0em" dy="0.95em" style="text-anchor: middle; visibility: hidden; font-family: &quot;Helvetica Neue&quot;, sans-serif; font-size: 12px; font-weight: 200;" fill="rgb(50, 49, 63)" stroke="none" stroke-width="1px">900</text></g><line x1="0" y1="0" x2="1368" y2="0" fill="rgb(0, 0, 0)" stroke="rgb(204, 204, 204)" stroke-width="1px"></line></g></g></g></g></svg>