<svg viewBox="0 0 1426 400" xmlns="http://www.w3.org/2000/svg"><g><g><g><g><g><line x1="58" y1="378" x2="53" y2="378" style="visibility: inherit;" fill="rgb(0, 0, 0)" stroke="rgb(204, 204, 204)" stroke-width="1px"></line><line x1="58" y1="348.9230769230769" x2="53" y2="348.9230769230769" style="visibility: inherit;" fill="rgb(0, 0, 0)" stroke="rgb(204, 204, 204)" stroke-width="1px"></line><line x1="58" y1="319.8461538461538" x2="53" y2="319.8461538461538" style="visibility: inherit;" fill="rgb(0, 0, 0)" stroke="rgb(204, 204, 204)" stroke-width="1px"></line><line x1="58" y1="290.7692307692308" x2="53" y2="290.7692307692308" style="visibility: inherit;" fill="rgb(0, 0, 0)" stroke="rgb(204, 204, 204)" stroke-width="1px"></line><line x1="58" y1="261.6923076923077" x2="53" y2="261.6923076923077" style="visibility: inherit;" fill="rgb(0, 0, 0)" stroke="rgb(204, 204, 204)" stroke-width="1px"></line><line x1="58" y1="232.61538461538464" x2="53" y2="232.61538461538464" style="visibility: inherit;" fill="rgb(0, 0, 0)" stroke="rgb(204, 204, 204)" stroke-width="1px"></line><line x1="58" y1="203.53846153846155" x2="53" y2="203.53846153846155" style="visibility: inherit;" fill="rgb(0, 0, 0)" stroke="rgb(204, 204, 204)" stroke-width="1px"></line><line x1="58" y1="174.46153846153848" x2="53" y2="174.46153846153848" style="visibility: inherit;" fill="rgb(0, 0, 0)" stroke="rgb(204, 204, 204)" stroke-width="1px"></line><line x1="58" y1="145.38461538461542" x2="53" y2="145.38461538461542" style="visibility: inherit;" fill="rgb(0, 0, 0)" stroke="rgb(204, 204, 204)" stroke-width="1px"></line><line x1="58" y1="116.30769230769232" x2="53" y2="116.30769230769232" style="visibility: inherit;" fill="rgb(0, 0, 0)" stroke="rgb(204, 204, 204)" stroke-width="1px"></line><line x1="58" y1="87.23076923076928" x2="53" y2="87.23076923076928" style="visibility: inherit;" fill="rgb(0, 0, 0)" stroke="rgb(204, 204, 204)" stroke-width="1px"></line><line x1="58" y1="58.15384615384613" x2="53" y2="58.15384615384613" style="visibility: inherit;" fill="rgb(0, 0, 0)" stroke="rgb(204, 204, 204)" stroke-width="1px"></line><line x1="58" y1="29.076923076923038" x2="53" y2="29.076923076923038" style="visibility: inherit;" fill="rgb(0, 0, 0)" stroke="rgb(204, 204, 204)" stroke-width="1px"></line><line x1="58" y1="0" x2="53" y2="0" style="visibility: inherit;" fill="rgb(0, 0, 0)" stroke="rgb(204, 204, 204)" stroke-width="1px"></line></g><g transform="translate(48, 0)"><text x="0" y="378" dx="0em" dy="0.3em" style="text-anchor: end; visibility: hidden; font-family: &quot;Helvetica Neue&quot;, sans-serif; font-size: 12px; font-weight: 200;" fill="rgb(50, 49, 63)" stroke="none" stroke-width="1px">-0.1</text><text x="0" y="348.9230769230769" dx="0em" dy="0.3em" style="text-anchor: end; visibility: inherit; font-family: &quot;Helvetica Neue&quot;, sans-serif; font-size: 12px; font-weight: 200;" fill="rgb(50, 49, 63)" stroke="none" stroke-width="1px">0</text><text x="0" y="319.8461538461538" dx="0em" dy="0.3em" style="text-anchor: end; visibility: inherit; font-family: &quot;Helvetica Neue&quot;, sans-serif; font-size: 12px; font-weight: 200;" fill="rgb(50, 49, 63)" stroke="none" stroke-width="1px">0.1</text><text x="0" y="290.7692307692308" dx="0em" dy="0.3em" style="text-anchor: end; visibility: inherit; font-family: &quot;Helvetica Neue&quot;, sans-serif; font-size: 12px; font-weight: 200;" fill="rgb(50, 49, 63)" stroke="none" stroke-width="1px">0.2</text><text x="0" y="261.6923076923077" dx="0em" dy="0.3em" style="text-anchor: end; visibility: inherit; font-family: &quot;Helvetica Neue&quot;, sans-serif; font-size: 12px; font-weight: 200;" fill="rgb(50, 49, 63)" stroke="none" stroke-width="1px">0.3</text><text x="0" y="232.61538461538464" dx="0em" dy="0.3em" style="text-anchor: end; visibility: inherit; font-family: &quot;Helvetica Neue&quot;, sans-serif; font-size: 12px; font-weight: 200;" fill="rgb(50, 49, 63)" stroke="none" stroke-width="1px">0.4</text><text x="0" y="203.53846153846155" dx="0em" dy="0.3em" style="text-anchor: end; visibility: inherit; font-family: &quot;Helvetica Neue&quot;, sans-serif; font-size: 12px; font-weight: 200;" fill="rgb(50, 49, 63)" stroke="none" stroke-width="1px">0.5</text><text x="0" y="174.46153846153848" dx="0em" dy="0.3em" style="text-anchor: end; visibility: inherit; font-family: &quot;Helvetica Neue&quot;, sans-serif; font-size: 12px; font-weight: 200;" fill="rgb(50, 49, 63)" stroke="none" stroke-width="1px">0.6</text><text x="0" y="145.38461538461542" dx="0em" dy="0.3em" style="text-anchor: end; visibility: inherit; font-family: &quot;Helvetica Neue&quot;, sans-serif; font-size: 12px; font-weight: 200;" fill="rgb(50, 49, 63)" stroke="none" stroke-width="1px">0.7</text><text x="0" y="116.30769230769232" dx="0em" dy="0.3em" style="text-anchor: end; visibility: inherit; font-family: &quot;Helvetica Neue&quot;, sans-serif; font-size: 12px; font-weight: 200;" fill="rgb(50, 49, 63)" stroke="none" stroke-width="1px">0.8</text><text x="0" y="87.23076923076928" dx="0em" dy="0.3em" style="text-anchor: end; visibility: inherit; font-family: &quot;Helvetica Neue&quot;, sans-serif; font-size: 12px; font-weight: 200;" fill="rgb(50, 49, 63)" stroke="none" stroke-width="1px">0.9</text><text x="0" y="58.15384615384613" dx="0em" dy="0.3em" style="text-anchor: end; visibility: inherit; font-family: &quot;Helvetica Neue&quot;, sans-serif; font-size: 12px; font-weight: 200;" fill="rgb(50, 49, 63)" stroke="none" stroke-width="1px">1</text><text x="0" y="29.076923076923038" dx="0em" dy="0.3em" style="text-anchor: end; visibility: inherit; font-family: &quot;Helvetica Neue&quot;, sans-serif; font-size: 12px; font-weight: 200;" fill="rgb(50, 49, 63)" stroke="none" stroke-width="1px">1.1</text><text x="0" y="0" dx="0em" dy="0.3em" style="text-anchor: end; visibility: hidden; font-family: &quot;Helvetica Neue&quot;, sans-serif; font-size: 12px; font-weight: 200;" fill="rgb(50, 49, 63)" stroke="none" stroke-width="1px">1.2</text></g><line x1="58" y1="0" x2="58" y2="378" fill="rgb(0, 0, 0)" stroke="rgb(204, 204, 204)" stroke-width="1px"></line></g></g><g transform="translate(58, 0)" clip-path="url(#clip_0)"><clipPath id="clip_0"><rect width="1368" height="378"></rect></clipPath><g><g><g><line x1="0" y1="0" x2="0" y2="378" fill="rgb(0, 0, 0)" stroke="rgb(60, 60, 60)" stroke-width="1px" opacity="0.25"></line><line x1="136.8" y1="0" x2="136.8" y2="378" fill="rgb(0, 0, 0)" stroke="rgb(60, 60, 60)" stroke-width="1px" opacity="0.25"></line><line x1="273.6" y1="0" x2="273.6" y2="378" fill="rgb(0, 0, 0)" stroke="rgb(60, 60, 60)" stroke-width="1px" opacity="0.25"></line><line x1="410.4" y1="0" x2="410.4" y2="378" fill="rgb(0, 0, 0)" stroke="rgb(60, 60, 60)" stroke-width="1px" opacity="0.25"></line><line x1="547.2" y1="0" x2="547.2" y2="378" fill="rgb(0, 0, 0)" stroke="rgb(60, 60, 60)" stroke-width="1px" opacity="0.25"></line><line x1="684" y1="0" x2="684" y2="378" fill="rgb(0, 0, 0)" stroke="rgb(60, 60, 60)" stroke-width="1px" opacity="0.25"></line><line x1="820.8" y1="0" x2="820.8" y2="378" fill="rgb(0, 0, 0)" stroke="rgb(60, 60, 60)" stroke-width="1px" opacity="0.25"></line><line x1="957.5999999999999" y1="0" x2="957.5999999999999" y2="378" fill="rgb(0, 0, 0)" stroke="rgb(60, 60, 60)" stroke-width="1px" opacity="0.25"></line><line x1="1094.4" y1="0" x2="1094.4" y2="378" fill="rgb(0, 0, 0)" stroke="rgb(60, 60, 60)" stroke-width="1px" opacity="0.25"></line><line x1="1231.2" y1="0" x2="1231.2" y2="378" fill="rgb(0, 0, 0)" stroke="rgb(60, 60, 60)" stroke-width="1px" opacity="0.25"></line><line x1="1368" y1="0" x2="1368" y2="378" fill="rgb(0, 0, 0)" stroke="rgb(60, 60, 60)" stroke-width="1px" opacity="0.25"></line></g><g><line x1="0" y1="378" x2="1368" y2="378" fill="rgb(0, 0, 0)" stroke="rgb(60, 60, 60)" stroke-width="1px" opacity="0.25"></line><line x1="0" y1="348.9230769230769" x2="1368" y2="348.9230769230769" fill="rgb(0, 0, 0)" stroke="rgb(60, 60, 60)" stroke-width="1px" opacity="0.25"></line><line x1="0" y1="319.8461538461538" x2="1368" y2="319.8461538461538" fill="rgb(0, 0, 0)" stroke="rgb(60, 60, 60)" stroke-width="1px" opacity="0.25"></line><line x1="0" y1="290.7692307692308" x2="1368" y2="290.7692307692308" fill="rgb(0, 0, 0)" stroke="rgb(60, 60, 60)" stroke-width="1px" opacity="0.25"></line><line x1="0" y1="261.6923076923077" x2="1368" y2="261.6923076923077" fill="rgb(0, 0, 0)" stroke="rgb(60, 60, 60)" stroke-width="1px" opacity="0.25"></line><line x1="0" y1="232.61538461538464" x2="1368" y2="232.61538461538464" fill="rgb(0, 0, 0)" stroke="rgb(60, 60, 60)" stroke-width="1px" opacity="0.25"></line><line x1="0" y1="203.53846153846155" x2="1368" y2="203.53846153846155" fill="rgb(0, 0, 0)" stroke="rgb(60, 60, 60)" stroke-width="1px" opacity="0.25"></line><line x1="0" y1="174.46153846153848" x2="1368" y2="174.46153846153848" fill="rgb(0, 0, 0)" stroke="rgb(60, 60, 60)" stroke-width="1px" opacity="0.25"></line><line x1="0" y1="145.38461538461542" x2="1368" y2="145.38461538461542" fill="rgb(0, 0, 0)" stroke="rgb(60, 60, 60)" stroke-width="1px" opacity="0.25"></line><line x1="0" y1="116.30769230769232" x2="1368" y2="116.30769230769232" fill="rgb(0, 0, 0)" stroke="rgb(60, 60, 60)" stroke-width="1px" opacity="0.25"></line><line x1="0" y1="87.23076923076928" x2="1368" y2="87.23076923076928" fill="rgb(0, 0, 0)" stroke="rgb(60, 60, 60)" stroke-width="1px" opacity="0.25"></line><line x1="0" y1="58.15384615384613" x2="1368" y2="58.15384615384613" fill="rgb(0, 0, 0)" stroke="rgb(60, 60, 60)" stroke-width="1px" opacity="0.25"></line><line x1="0" y1="29.076923076923038" x2="1368" y2="29.076923076923038" fill="rgb(0, 0, 0)" stroke="rgb(60, 60, 60)" stroke-width="1px" opacity="0.25"></line><line x1="0" y1="0" x2="1368" y2="0" fill="rgb(0, 0, 0)" stroke="rgb(60, 60, 60)" stroke-width="1px" opacity="0.25"></line></g></g></g><g><g><line x1="0" y1="348.9230769230769" x2="1368" y2="348.9230769230769" fill="rgb(0, 0, 0)" stroke="rgb(153, 153, 153)" stroke-width="1.5px"></line></g></g><g><g><line x1="136.8" y1="0" x2="136.8" y2="378" fill="rgb(0, 0, 0)" stroke="rgb(153, 153, 153)" stroke-width="1.5px"></line></g></g><g><g><g><g><g><path stroke="rgb(0, 153, 136)" stroke-width="2px" d="M136.8,58.15384615384613L138.168,58.15387864984001L139.536,60.2345076052697L140.904,72.6383801062857L142.272,78.68600100050082L143.64,82.24483568643194L145.008,86.63388509812114L146.376,87.01828832937889L147.744,87.39990868918869L149.112,89.90806425567303L150.48,96.35641079248848L151.848,99.85484230049025L153.216,94.63874133914601L154.584,101.79225054281994L155.952,103.27969187585404L157.32,109.73078888823267L158.68800000000002,112.11276411203545L160.056,110.60467014009231L161.42399999999998,111.3060361967444L162.792,109.37121781233867L164.16,111.45528001026167L165.528,115.0704708638807L166.896,113.85533473890695L168.264,117.03697215178397L169.632,121.89249940583096L171,125.17100359101286L172.368,124.23448631384215L173.736,121.14436935692993L175.104,125.75343879138484L176.472,125.531902411423L177.84,123.99058499088088L179.208,124.41513936044959L180.57600000000002,126.83094750908342L181.94400000000002,125.95246432055856L183.312,129.07698830867608L184.68,124.29395111164791L186.048,121.39549075538145L187.41600000000003,121.25588990611959L188.78400000000002,126.22410392479807L190.15200000000002,114.89662507648279L191.52,122.23018621023064L192.88799999999998,121.96309400233946L194.25599999999997,118.55328088819334L195.624,117.44265371984329L196.992,119.04433487557549L198.35999999999999,117.31569435362917L199.72799999999998,116.31443414507561L201.09599999999998,118.28794999238801L202.464,128.13900275753542L203.832,129.43012178515866L205.2,126.08587485618125L206.56799999999998,131.68008246371517L207.936,138.95739513294947L209.304,130.9350759036373L210.672,130.14562775360298L212.04,134.44889422089838L213.408,129.89368011850604L214.776,133.3260486299631L216.144,129.83709508397405L217.512,127.25057415266986L218.88,129.3525146068528L220.24800000000002,132.17512958085598L221.616,135.313295406043L222.984,138.47438452359413L224.352,132.33711323110546L225.72,137.85122416413185L227.08800000000002,141.02154722119874L228.45600000000002,133.93732838354273L229.824,130.6164147426454L231.192,126.83132167966079L232.56000000000003,127.83109247502998L233.92800000000003,126.86016620196983L235.296,129.21336264655L236.664,127.2492881784921L238.03199999999998,133.0229202995443L239.39999999999998,129.30204989161248L240.76799999999997,138.82556954044563L242.136,142.3716595407816L243.504,133.65539173288713L244.87199999999999,130.98906755632916L246.23999999999998,127.8125223684439L247.608,129.68074757129264L248.976,121.57768011162563L250.344,128.1511434705938L251.712,133.9407512990076L253.07999999999998,136.18741874152292L254.448,131.28128356167917L255.816,135.6482478506658L257.184,131.7059133293758L258.552,128.4232001045708L259.92,126.44676447561949L261.288,129.65830604501429L262.656,129.728013014556L264.024,135.81807129222128L265.392,132.2837081910526L266.76,131.2386366683594L268.128,130.66362200727178L269.49600000000004,134.6569930338637L270.86400000000003,130.09268226581852L272.232,126.85044429607325L273.6,127.67730268551418L274.968,131.60340713045946L276.336,129.82749274582375L277.704,127.79664498555627L279.072,135.5447914370407L280.44,132.41534116905754L281.808,138.15961242801583L283.176,138.58290043158087L284.544,141.15305595713204L285.912,136.94182281976728L287.28,136.97477590703747L288.64799999999997,126.78725626635057L290.016,128.61035283225203L291.384,133.51073776283013L292.752,137.40374086167995L294.12,139.56307647607215L295.488,133.1846804425163L296.856,134.61558821323084L298.224,140.07575971199608L299.592,143.00695793173682L300.96,140.33258551654708L302.328,137.67084919024768L303.696,134.79104926857602L305.064,131.94430191826467L306.432,137.70777400532657L307.8,135.23168323342196L309.168,131.9616919465957L310.536,132.75318758581818L311.904,138.99434742727266L313.272,142.513744707373L314.64,142.6856616745121L316.00800000000004,140.3078579780067L317.37600000000003,139.51117862552803L318.744,141.58597309991725L320.112,144.50718552280625L321.47999999999996,145.1305567389814L322.84799999999996,145.05166677126127L324.216,139.97629612287872L325.584,142.3214364000527L326.952,141.56268250817877L328.32,137.39922652720153L329.688,137.35339942117082L331.056,140.48850686596637L332.424,138.6226775234518L333.792,141.27191796767028L335.15999999999997,139.33778037349768L336.528,137.52091687017455L337.896,136.69713073428733L339.264,134.7082513107389L340.632,140.58124770721975L342,146.8067295432161L343.368,143.38909407047552L344.736,144.74521600221013L346.104,142.31175080775637L347.472,143.14831868956293L348.84000000000003,150.52899752852895L350.208,145.05112849582548L351.576,140.88769809182844L352.944,141.43707428945612L354.312,137.38712046396535L355.68,141.42672445410645L357.048,134.67969104071952L358.416,130.1380379573503L359.784,129.03610574689273L361.15200000000004,137.04814277306335L362.52000000000004,132.8663872997563L363.88800000000003,129.59729171518092L365.25600000000003,134.32752033444865L366.624,137.69963167669414L367.992,141.164715398874L369.36,143.54466986948893L370.728,139.6302942330243L372.096,137.2774400391479L373.46400000000006,140.21678684958079L374.83200000000005,134.65389496019594L376.20000000000005,133.55444228699778L377.56800000000004,139.3822535609569L378.93600000000004,137.22388869047055L380.30400000000003,142.65621640854548L381.672,147.2921052095776L383.04,144.17268490391194L384.408,145.739140064333L385.77599999999995,147.7848682954029L387.14399999999995,148.96606560121822L388.51199999999994,146.2805730959182L389.87999999999994,139.82813361784707L391.248,139.77157135629267L392.616,139.23032907417505L393.984,140.79169624815734L395.352,137.30838200817408L396.71999999999997,140.32414321798944L398.08799999999997,139.35173489730414L399.45599999999996,139.49786396166508L400.82399999999996,141.14859350435123L402.19199999999995,140.38182119537242L403.56,137.65393605787713L404.928,140.3402570882527L406.296,140.24680553210766L407.664,131.28254108352337L409.032,142.24213621680434L410.4,138.4226345766684L411.768,138.86282240032375L413.13599999999997,142.10696504429208L414.50399999999996,144.20552148309943L415.872,146.17639213550035L417.24,140.9064060040269L418.608,141.67938628124915L419.976,142.00557167817098L421.344,144.93985463351297L422.712,140.9150768349784L424.08,147.36156091228278L425.448,149.79264662392185L426.816,146.28892582125587L428.184,139.34716463229864L429.552,140.4595405073549L430.92,142.44711794830565L432.288,141.97458008752585L433.656,139.43416813783563L435.024,132.40845146593927L436.392,135.9791309102807L437.76,136.65651865389552L439.128,139.68765012237927L440.49600000000004,140.6373081379558L441.86400000000003,146.09712782939823L443.232,140.67964977884623L444.6,140.19382851547292L445.968,141.96973261830524L447.336,143.40521294005333L448.704,143.2316623099304L450.072,134.27379303702733L451.44,130.08924634634405L452.80800000000005,131.83900482467794L454.17600000000004,143.9547735522141L455.54400000000004,144.84647918347832L456.91200000000003,149.33969138945807L458.28000000000003,148.34265265534188L459.648,148.9628402736133L461.016,152.2598418588936L462.384,156.90596563697548L463.752,158.30402455148743L465.12000000000006,147.24324637304335L466.48800000000006,146.15439847866284L467.85600000000005,158.42303590081042L469.22400000000005,155.85252061867936L470.592,144.7047284309657L471.96,147.6980637689723L473.328,146.55921398558897L474.69599999999997,147.14062393191364L476.06399999999996,138.95124197477455L477.43199999999996,145.7612314912753L478.79999999999995,146.96569884103076L480.16799999999995,149.56178456070793L481.53599999999994,148.37735644111086L482.904,137.62198163393722L484.272,133.58498207294323L485.64,142.97378492095103L487.008,142.99957873114914L488.376,146.29024217952062L489.74399999999997,151.19913767831784L491.11199999999997,149.16647000851282L492.47999999999996,147.0057230328811L493.84799999999996,147.81764958986324L495.216,147.35750310923174L496.584,148.07010453342096L497.952,139.79575470877754L499.32,145.37240153519457L500.688,147.94062791493576L502.056,146.1703484888038L503.424,140.30225384995157L504.792,139.6107079973324" style="fill: none;" fill="none"></path></g></g></g></g><g opacity="0.2"><g><g><g><path stroke="rgb(0, 153, 136)" stroke-width="2px" d="M136.8,58.15384615384613L138.168,58.15389814743628L139.536,62.23191140248224L140.904,87.22533416748047L142.272,86.5817748399881L143.64,87.16798523756171L145.008,92.91029598162726L146.376,87.57875193082367L147.744,87.96272459396948L149.112,93.63238296141992L150.48,105.97044456922089L151.848,105.08345125271728L153.216,86.83162137178272L154.584,112.50849987910345L155.952,105.50910544395447L157.32,119.40288459337677L158.68800000000002,115.684718975654L160.056,108.34291208707367L161.42399999999998,112.35797843566309L162.792,106.46916708579431L164.16,114.58125901222229L165.528,120.49313818491424L166.896,112.03265454218939L168.264,121.80939058157117L169.632,129.17575577589184L171,130.08874588746292L172.368,122.82971279437726L173.736,116.5091986656189L175.104,132.66703869746283L176.472,125.19959796392001L177.84,121.6786093711853L179.208,125.05197083033048L180.57600000000002,130.45465944363525L181.94400000000002,124.63473960069513L183.312,133.76377415657043L184.68,117.1193954394414L186.048,117.04780026582574L187.41600000000003,121.04648863352264L188.78400000000002,133.67642492514392L190.15200000000002,97.90540684186493L191.52,133.23052789614752L192.88799999999998,121.5624556908241L194.25599999999997,113.43856121943548L195.624,115.77671296779931L196.992,121.44685660875763L198.35999999999999,114.72273357097924L199.72799999999998,114.8125438323388L201.09599999999998,121.24822376324585L202.464,142.91558190492486L203.832,131.36680032656744L205.2,121.06950446275567L206.56799999999998,140.07139387497537L207.936,149.87336413676923L209.304,118.90159705969006L210.672,128.96145552855273L212.04,140.90379392183743L213.408,123.06085896492004L214.776,138.47460139714755L216.144,124.60366476499118L217.512,123.37079275571384L218.88,132.50542528812704L220.24800000000002,136.40905204186075L221.616,140.0205441438235L222.984,143.21601819992065L224.352,123.1312062923725L225.72,146.12239056367142L227.08800000000002,145.7770318067991L228.45600000000002,123.31100012705878L229.824,125.63504428129932L231.192,121.15368208518396L232.56000000000003,129.33074866808377L233.92800000000003,125.40377679237955L235.296,132.74315731342023L236.664,124.30317647640524L238.03199999999998,141.68336848112256L239.39999999999998,123.72074427971475L240.76799999999997,153.11084901369534L242.136,147.6907945412856L243.504,120.58099002104541L244.87199999999999,126.98958129149219L246.23999999999998,123.04770458661594L247.608,132.4830853755658L248.976,109.423078922125L250.344,138.01133850904614L251.712,142.62516304162835L253.07999999999998,139.55741990529575L254.448,123.92208079191357L255.816,142.19869428414566L257.184,125.79241154744079L258.552,123.49913026736334L259.92,123.48211103219253L261.288,134.47561839910657L262.656,129.83257346886856L264.024,144.95315870871914L265.392,126.98216353929959L266.76,129.6710293843196L268.128,129.80110001564026L269.49600000000004,140.64704957375162L270.86400000000003,123.24621611375076L272.232,121.98708734145532L273.6,128.91759026967563L274.968,137.4925637978774L276.336,127.16362116887024L277.704,124.75037334515503L279.072,147.16701111426724L280.44,127.7211657670828L281.808,146.7760193164532L283.176,139.21783243692838L284.544,145.00828924545877L285.912,130.62497311372024L287.28,137.02420553794278L288.64799999999997,111.50597680532013L290.016,131.34499768110425L291.384,140.8613151586973L292.752,143.24324550995462L294.12,142.80207989766046L295.488,123.61708639218261L296.856,136.76194986930264L298.224,148.26601696014404L299.592,147.40375526134787L300.96,136.32102689376248L302.328,133.67824470079861L303.696,130.4713493860685L305.064,127.67418089279764L306.432,146.35298213591946L307.8,131.51754707556506L309.168,127.05670501635626L310.536,133.94043104465192L311.904,148.35608718945429L313.272,147.7928406275236L314.64,142.94353712522067L316.00800000000004,136.7411524332487L317.37600000000003,138.31615959680997L318.744,144.69816481150113L320.112,148.8890041571397L321.47999999999996,146.06561356324417L322.84799999999996,144.93333181968106L324.216,132.36324015030496L325.584,145.83914681581354L326.952,140.42455167036792L328.32,131.15404255573569L329.688,137.2846587621249L331.056,145.19116803315973L332.424,135.82393350967996L333.792,145.24577863399801L335.15999999999997,136.43657398223877L336.528,134.79562161518982L337.896,135.46145153045654L339.264,131.72493217541626L340.632,149.39074230194092L342,156.1449522972107L343.368,138.26264086136453L344.736,146.77939889981195L346.104,138.66155301607571L347.472,144.40317051227277L348.84000000000003,161.60001578697793L350.208,136.8343249467703L351.576,134.6425524858328L352.944,142.2611385858976L354.312,131.31218972572916L355.68,147.48613043931817L357.048,124.55914092063904L358.416,123.32555833229654L359.784,127.38320743120633L361.15200000000004,149.06619831231927L362.52000000000004,126.59375408979565L363.88800000000003,124.69364833831787L365.25600000000003,141.42286326335028L366.624,142.75779869006232L367.992,146.3623409821437L369.36,147.1146015754113L370.728,133.75873077832736L372.096,133.74815874833328L373.46400000000006,144.62580706523016L374.83200000000005,126.30955712611859L376.20000000000005,131.9052632772006L377.56800000000004,148.1239704718957L378.93600000000004,133.986341384741L380.30400000000003,150.8047079856579L381.672,154.24593841112576L383.04,139.49355444541348L384.408,148.08882280496454L385.77599999999995,150.85346064200772L387.14399999999995,150.73786155994122L388.51199999999994,142.25233433796808L389.87999999999994,130.14947440074042L391.248,139.68672796396112L392.616,138.41846565099866L393.984,143.13374700913064L395.352,132.08341064819925L396.71999999999997,144.84778503271252L398.08799999999997,137.89312241627624L399.45599999999996,139.71705755820645L400.82399999999996,143.62468781838052L402.19199999999995,139.2316627319043L403.56,133.56210835163412L404.928,144.36973863381607L406.296,140.10662819789007L407.664,117.83614441064691L409.032,158.68152891672574L410.4,132.6933821164645L411.768,139.52310413580676L413.13599999999997,146.97317901024454L414.50399999999996,147.35335614131048L415.872,149.13269811410171L417.24,133.00142680681668L418.608,142.83885669708252L419.976,142.49484977355374L421.344,149.341279066526L422.712,134.8779101371765L424.08,157.03128702823935L425.448,153.43927519138043L426.816,141.03334461725674L428.184,128.9345228488629L429.552,142.12810431993924L430.92,145.42848410973184L432.288,141.2657732963562L433.656,135.6235502133003L435.024,121.86987645809472L436.392,141.33515007679281L437.76,137.67260026931763L439.128,144.23434732510492L440.49600000000004,142.06179516132062L441.86400000000003,154.2868573665619L443.232,132.5534327030182L444.6,139.465096620413L445.968,144.63358877255365L447.336,145.5584334226755L448.704,142.9713363647461L450.072,120.83698912767267L451.44,123.81242631031921L452.80800000000005,134.46364254217883L454.17600000000004,162.12842664351834L455.54400000000004,146.18403763037463L456.91200000000003,156.07950969842767L458.28000000000003,146.84709455416754L459.648,149.89312170102045L461.016,157.20534423681408L462.384,163.8751513040983L463.752,160.40111292325534L465.12000000000006,130.6520791053772L466.48800000000006,144.521126637092L467.85600000000005,176.8259920340318L469.22400000000005,151.99674769548272L470.592,127.9830401493953L471.96,152.1880667759822L473.328,144.85093931051404L474.69599999999997,148.01273885140054L476.06399999999996,126.66716903906604L477.43199999999996,155.97621576602643L478.79999999999995,148.772399865664L480.16799999999995,153.4559131402236L481.53599999999994,146.60071426171524L482.904,121.4889194231767L484.272,127.52948273145236L485.64,157.05698919296265L487.008,143.03826944644635L488.376,151.2262373520778L489.74399999999997,158.56248092651367L491.11199999999997,146.11746850380533L492.47999999999996,143.76460256943338L493.84799999999996,149.03553942533642L495.216,146.66728338828457L496.584,149.13900666970474L497.952,127.38422997181235L499.32,153.73737177482022L500.688,151.79296748454755L502.056,143.51492934960586L503.424,131.50011189167319L504.792,138.57338921840375" style="fill: none;" fill="none"></path></g></g></g></g></g></g><g transform="translate(58, 378)" clip-path="url(#clip_1)"><clipPath id="clip_1"><rect width="1368" height="22"></rect></clipPath><g><g><line x1="0" y1="0" x2="0" y2="5" style="visibility: inherit;" fill="rgb(0, 0, 0)" stroke="rgb(204, 204, 204)" stroke-width="1px"></line><line x1="136.8" y1="0" x2="136.8" y2="5" style="visibility: inherit;" fill="rgb(0, 0, 0)" stroke="rgb(204, 204, 204)" stroke-width="1px"></line><line x1="273.6" y1="0" x2="273.6" y2="5" style="visibility: inherit;" fill="rgb(0, 0, 0)" stroke="rgb(204, 204, 204)" stroke-width="1px"></line><line x1="410.4" y1="0" x2="410.4" y2="5" style="visibility: inherit;" fill="rgb(0, 0, 0)" stroke="rgb(204, 204, 204)" stroke-width="1px"></line><line x1="547.2" y1="0" x2="547.2" y2="5" style="visibility: inherit;" fill="rgb(0, 0, 0)" stroke="rgb(204, 204, 204)" stroke-width="1px"></line><line x1="684" y1="0" x2="684" y2="5" style="visibility: inherit;" fill="rgb(0, 0, 0)" stroke="rgb(204, 204, 204)" stroke-width="1px"></line><line x1="820.8" y1="0" x2="820.8" y2="5" style="visibility: inherit;" fill="rgb(0, 0, 0)" stroke="rgb(204, 204, 204)" stroke-width="1px"></line><line x1="957.5999999999999" y1="0" x2="957.5999999999999" y2="5" style="visibility: inherit;" fill="rgb(0, 0, 0)" stroke="rgb(204, 204, 204)" stroke-width="1px"></line><line x1="1094.4" y1="0" x2="1094.4" y2="5" style="visibility: inherit;" fill="rgb(0, 0, 0)" stroke="rgb(204, 204, 204)" stroke-width="1px"></line><line x1="1231.2" y1="0" x2="1231.2" y2="5" style="visibility: inherit;" fill="rgb(0, 0, 0)" stroke="rgb(204, 204, 204)" stroke-width="1px"></line><line x1="1368" y1="0" x2="1368" y2="5" style="visibility: inherit;" fill="rgb(0, 0, 0)" stroke="rgb(204, 204, 204)" stroke-width="1px"></line></g><g transform="translate(0, 8)"><text x="0" y="0" dx="0em" dy="0.95em" style="text-anchor: middle; visibility: hidden; font-family: &quot;Helvetica Neue&quot;, sans-serif; font-size: 12px; font-weight: 200;" fill="rgb(50, 49, 63)" stroke="none" stroke-width="1px">-100</text><text x="136.8" y="0" dx="0em" dy="0.95em" style="text-anchor: middle; visibility: inherit; font-family: &quot;Helvetica Neue&quot;, sans-serif; font-size: 12px; font-weight: 200;" fill="rgb(50, 49, 63)" stroke="none" stroke-width="1px">0</text><text x="273.6" y="0" dx="0em" dy="0.95em" style="text-anchor: middle; visibility: inherit; font-family: &quot;Helvetica Neue&quot;, sans-serif; font-size: 12px; font-weight: 200;" fill="rgb(50, 49, 63)" stroke="none" stroke-width="1px">100</text><text x="410.4" y="0" dx="0em" dy="0.95em" style="text-anchor: middle; visibility: inherit; font-family: &quot;Helvetica Neue&quot;, sans-serif; font-size: 12px; font-weight: 200;" fill="rgb(50, 49, 63)" stroke="none" stroke-width="1px">200</text><text x="547.2" y="0" dx="0em" dy="0.95em" style="text-anchor: middle; visibility: inherit; font-family: &quot;Helvetica Neue&quot;, sans-serif; font-size: 12px; font-weight: 200;" fill="rgb(50, 49, 63)" stroke="none" stroke-width="1px">300</text><text x="684" y="0" dx="0em" dy="0.95em" style="text-anchor: middle; visibility: inherit; font-family: &quot;Helvetica Neue&quot;, sans-serif; font-size: 12px; font-weight: 200;" fill="rgb(50, 49, 63)" stroke="none" stroke-width="1px">400</text><text x="820.8" y="0" dx="0em" dy="0.95em" style="text-anchor: middle; visibility: inherit; font-family: &quot;Helvetica Neue&quot;, sans-serif; font-size: 12px; font-weight: 200;" fill="rgb(50, 49, 63)" stroke="none" stroke-width="1px">500</text><text x="957.5999999999999" y="0" dx="0em" dy="0.95em" style="text-anchor: middle; visibility: inherit; font-family: &quot;Helvetica Neue&quot;, sans-serif; font-size: 12px; font-weight: 200;" fill="rgb(50, 49, 63)" stroke="none" stroke-width="1px">600</text><text x="1094.4" y="0" dx="0em" dy="0.95em" style="text-anchor: middle; visibility: inherit; font-family: &quot;Helvetica Neue&quot;, sans-serif; font-size: 12px; font-weight: 200;" fill="rgb(50, 49, 63)" stroke="none" stroke-width="1px">700</text><text x="1231.2" y="0" dx="0em" dy="0.95em" style="text-anchor: middle; visibility: inherit; font-family: &quot;Helvetica Neue&quot;, sans-serif; font-size: 12px; font-weight: 200;" fill="rgb(50, 49, 63)" stroke="none" stroke-width="1px">800</text><text x="1368" y="0" dx="0em" dy="0.95em" style="text-anchor: middle; visibility: hidden; font-family: &quot;Helvetica Neue&quot;, sans-serif; font-size: 12px; font-weight: 200;" fill="rgb(50, 49, 63)" stroke="none" stroke-width="1px">900</text></g><line x1="0" y1="0" x2="1368" y2="0" fill="rgb(0, 0, 0)" stroke="rgb(204, 204, 204)" stroke-width="1px"></line></g></g></g></g></svg>